<?xml version="1.0" encoding="UTF-8"?>
<!-- Generated by Pixelmator Pro 3.5.8 -->
<svg xmlns="http://www.w3.org/2000/svg" width="1200" height="1200" viewBox="0 0 1200 1200">
  <path id="Trazado" fill="#e73b3c" stroke="none" d="M -2.27 0 L 1202.27002 0 L 1202.27002 1200 L -2.27 1200 Z"></path>
  <path id="path1" fill="#ffffff" stroke="none" d="M 716.98999 716.650024 L 759.719971 716.650024 L 759.719971 538.400024 L 716.98999 538.400024 L 716.98999 716.650024 Z M 716.98999 517.830017 L 759.719971 517.830017 L 759.719971 478.950012 L 716.98999 478.950012 L 716.98999 517.830017 Z"></path>
  <path id="path2" fill="#ffffff" stroke="none" d="M 400.5 545.73999 L 363.089996 545.73999 L 363.089996 569.589966 C 350.200012 550.940002 328.839996 539.859985 306.119995 540.200012 C 281.25 540.200012 260.119995 549.690002 243.050003 569.589966 C 227.449997 587.339966 221.350006 606.890015 221.350006 630.51001 C 221.350006 654.130005 229.039993 676.169983 242.490005 692.450012 C 257.179993 709.969971 278.660004 720.929993 305 720.929993 C 326.480011 720.929993 350.329987 709.849976 363.209991 692.450012 L 363.209991 715.400024 L 400.619995 715.400024 L 400.619995 545.73999 L 400.5 545.73999 Z M 361.959991 630.289978 C 361.959991 659.450012 341.730011 681.48999 312.339996 681.149963 C 284.76001 681.48999 262.040009 660.01001 262.040009 632.089966 C 262.040009 602.359985 282.839996 579.640015 312.899994 579.97998 C 341.720001 579.769958 361.839996 601.809998 361.959991 630.289978 L 361.959991 630.289978 Z"></path>
  <path id="path3" fill="#ffffff" stroke="none" d="M 552.530029 660.359985 C 544.5 673.130005 530.599976 681.039978 515.460022 681.159973 C 485.730011 681.159973 464.26001 660.019958 464.26001 629.959961 C 464.26001 601.820007 484.149994 580 513.320007 580 C 530.840027 580 543.609985 587.01001 552.539978 602.039978 L 598.539978 602.039978 C 588.369995 565.299988 551.289978 540.210022 513.880005 540.210022 C 464.600006 540.210022 423.450012 579.769958 423.450012 629.390015 C 423.450012 654.47998 432.720001 678.109985 451.029999 695.630005 C 468.100006 711.790039 490.700012 720.839966 514.099976 721.059998 C 551.51001 721.059998 587.340027 696.530029 598.419983 660.359985 L 552.530029 660.359985 Z"></path>
  <path id="path4" fill="#ffffff" stroke="none" d="M 633.01001 715.52002 L 673.809998 715.52002 L 673.809998 581.910034 L 698.340027 581.910034 L 698.340027 545.73999 L 673.809998 545.73999 L 673.809998 489 L 633.01001 489 L 633.01001 545.73999 L 613.109985 545.73999 L 613.109985 581.910034 L 633.01001 581.910034 Z"></path>
  <path id="path5" fill="#ffffff" stroke="none" d="M 844.710022 715.52002 L 876.590027 715.52002 L 945.200012 545.73999 L 899.869995 545.73999 L 860.98999 657.309998 L 821.429993 545.73999 L 776.099976 545.73999 Z"></path>
  <path id="path6" fill="#ffffff" stroke="none" d="M 1126.609985 545.73999 L 1089.199951 545.73999 L 1089.199951 569.589966 C 1076.310059 550.940002 1054.949951 539.859985 1032.22998 540.200012 C 1007.359985 540.200012 986.22998 549.690002 969.159973 569.589966 C 953.559998 587.339966 947.460022 607 947.460022 630.51001 C 947.460022 654.130005 955.150024 676.169983 968.599976 692.450012 C 983.289978 709.969971 1004.77002 720.929993 1031.109985 720.929993 C 1052.589966 720.929993 1076.439941 709.849976 1089.319946 692.450012 L 1089.319946 715.400024 L 1126.72998 715.400024 L 1126.609985 545.73999 L 1126.609985 545.73999 Z M 1087.959961 630.289978 C 1087.959961 659.450012 1067.72998 681.48999 1038.339966 681.149963 C 1010.76001 681.48999 988.039978 660.01001 988.039978 632.089966 C 988.039978 602.359985 1008.840027 579.640015 1038.900024 579.97998 C 1067.719971 579.769958 1087.959961 601.809998 1087.959961 630.289978 L 1087.959961 630.289978 Z"></path>
  <path id="path7" fill="#fdc905" stroke="none" d="M 73.269997 616.839966 C 73.269997 611.529968 75.980003 608.809998 81.300003 608.809998 L 118.599998 608.809998 L 118.599998 570.829956 C 118.599998 565.289978 121.540001 562.469971 127.300003 562.469971 L 156.910004 562.469971 C 162.220001 562.469971 164.940002 565.299988 164.940002 570.829956 L 164.940002 608.809998 L 202.350006 608.809998 C 204.380005 608.809998 206.419998 609.48999 208 610.839966 C 209.580002 612.419983 210.490005 614.570007 210.259995 616.719971 L 210.259995 644.75 C 210.259995 646.899963 209.470001 648.929993 208.110001 650.51001 C 206.75 652.320007 204.610001 653.339966 202.350006 653.219971 L 164.940002 653.219971 L 164.940002 691.540039 C 164.940002 693.570007 164.259995 695.609985 162.910004 697.190002 C 161.330002 698.77002 159.179993 699.679993 156.919998 699.450012 L 127.300003 699.450012 C 125.150002 699.450012 123 698.660034 121.419998 697.299988 C 119.610001 695.940002 118.589996 693.799988 118.589996 691.540039 L 118.589996 653.339966 L 81.300003 653.339966 C 75.989998 653.339966 73.269997 650.51001 73.269997 644.75 L 73.269997 616.839966 Z"></path>
</svg>
