<svg id="Capa_1" data-name="Capa 1" xmlns="http://www.w3.org/2000/svg" viewBox="0 0 1008.4 1008.4"><defs><style>.cls-1{fill:#fa0f0c;}.cls-2{fill:#ffe57f;}.cls-3{fill:#f55;}.cls-4{fill:#ff5353;}.cls-5{fill:#ff7676;}.cls-6{fill:#ffc3c3;}.cls-7{fill:#ffb3b3;}.cls-8{fill:#fff6d2;}.cls-9{fill:#fff1bb;}.cls-10{fill:#ff8b8b;}.cls-11{fill:#ffdbdb;}.cls-12{fill:#ff8989;}.cls-13{fill:#ff8f8f;}.cls-14{fill:#ffe1e1;}.cls-15{fill:#ff7373;}.cls-16{fill:#faa;}.cls-17{fill:#fdd;}.cls-18{fill:#ffdfdf;}.cls-19{fill:#ffd4d4;}.cls-20{fill:#f99;}.cls-21{fill:#ff9595;}.cls-22{fill:#fbb;}.cls-23{fill:#ffb4b4;}.cls-24{fill:#ffadad;}.cls-25{fill:#ff8686;}.cls-26{fill:#ffbfbf;}.cls-27{fill:#fc0;}.cls-28{fill:#fff;}.cls-29{fill:#f33;}</style></defs><title>logo activafm 1000x1000</title><rect class="cls-1" width="1008.4" height="1008.4"/><path class="cls-2" d="M957.34,565.63l-.21,0-.21,0a3.86,3.86,0,0,1-.68-2.8q0-33.71,0-67.43a5.08,5.08,0,0,1,.39-2.47.53.53,0,0,1,.7-.25Z"/><path class="cls-3" d="M265.94,606.53h-8.43a.47.47,0,0,1,.19-.66,18.06,18.06,0,0,1,8.06,0A.47.47,0,0,1,265.94,606.53Z"/><path class="cls-3" d="M115.44,606.53h-8a.47.47,0,0,1,.19-.66,16.14,16.14,0,0,1,7.64,0A.47.47,0,0,1,115.44,606.53Z"/><path class="cls-4" d="M635.25,606.53h-7.17a.47.47,0,0,1,.18-.65,13.08,13.08,0,0,1,6.81,0A.47.47,0,0,1,635.25,606.53Z"/><path class="cls-5" d="M51.35,544.55v-5.9a.46.46,0,0,1,.65.17,9.12,9.12,0,0,1,0,5.57A.46.46,0,0,1,51.35,544.55Z"/><path class="cls-6" d="M52.16,550.05c-.68-.55-.07-1.59-.8-2.12v-2.11a.52.52,0,0,1,.67.09A3.4,3.4,0,0,1,52.16,550.05Z"/><path class="cls-7" d="M51.35,535.28c.7-.55.16-1.56.79-2.13,1.06,1.41.6,2.78-.14,4.13a.49.49,0,0,1-.65.11Z"/><path class="cls-8" d="M750.75,400.34q0-.19,0-.39h4.64v.38A4,4,0,0,1,750.75,400.34Z"/><path class="cls-9" d="M957.34,492.7a1.4,1.4,0,0,0-.35,0,3.32,3.32,0,0,1,0-4.21,1.38,1.38,0,0,1,.35,0Z"/><path class="cls-10" d="M628,606.14q0,.19,0,.38H626.4a.41.41,0,0,1,.09-.59A1.17,1.17,0,0,1,628,606.14Z"/><path class="cls-11" d="M269.32,606.15q0,.19,0,.38H268a.39.39,0,0,1,.08-.57A.91.91,0,0,1,269.32,606.15Z"/><path class="cls-12" d="M265.94,606.53a2.6,2.6,0,0,1,0-.39.89.89,0,0,1,1.18-.17.38.38,0,0,1,.06.56Z"/><path class="cls-13" d="M257.47,606.14a2.3,2.3,0,0,1,0,.39h-1.26a.38.38,0,0,1,.06-.56A.89.89,0,0,1,257.47,606.14Z"/><path class="cls-14" d="M624.29,606.53q0-.2,0-.39a.92.92,0,0,1,1.2-.18.39.39,0,0,1,.07.57Z"/><path class="cls-15" d="M635.25,606.53q0-.19,0-.39a.89.89,0,0,1,1.18-.18.38.38,0,0,1,.06.56Z"/><path class="cls-16" d="M636.51,606.53q0-.18,0-.36a.85.85,0,0,1,1.16-.21.38.38,0,0,1,.06.56Z"/><path class="cls-17" d="M637.78,606.53a2.3,2.3,0,0,1,0-.36.81.81,0,0,1,1.25,0q0,.2,0,.4Z"/><path class="cls-18" d="M254.14,606.53q0-.19,0-.39a.92.92,0,0,1,1.2-.18.39.39,0,0,1,.07.57Z"/><path class="cls-19" d="M118.4,606.14a3.85,3.85,0,0,0,0,.39h-1.26a.39.39,0,0,1,.07-.57A.92.92,0,0,1,118.4,606.14Z"/><path class="cls-12" d="M107.39,606.13a2.56,2.56,0,0,1,0,.39h-1.26a.38.38,0,0,1,.06-.56A.89.89,0,0,1,107.39,606.13Z"/><path class="cls-18" d="M104.05,606.53q0-.19,0-.37a.9.9,0,0,1,1.2-.2.39.39,0,0,1,.08.57Z"/><path class="cls-20" d="M51.78,545.82h-.42v-1.26h.42A.88.88,0,0,1,51.78,545.82Z"/><path class="cls-21" d="M51.35,537.39h.43a.87.87,0,0,1,0,1.26h-.42Z"/><path class="cls-22" d="M255.4,606.53q0-.18,0-.36a.53.53,0,0,1,.83,0,2.11,2.11,0,0,1,0,.36Z"/><path class="cls-23" d="M267.21,606.53a2,2,0,0,1,0-.37.53.53,0,0,1,.84,0q0,.18,0,.35Z"/><path class="cls-24" d="M117.14,606.17a3.58,3.58,0,0,0,0,.36h-.84a.38.38,0,0,1,0-.53A.65.65,0,0,1,117.14,606.17Z"/><path class="cls-25" d="M116.3,606.17a3.05,3.05,0,0,0,0,.36h-.84a2,2,0,0,1,0-.4A.56.56,0,0,1,116.3,606.17Z"/><path class="cls-26" d="M625.55,606.53q0-.18,0-.36a.53.53,0,0,1,.83,0,1.52,1.52,0,0,1,0,.37Z"/><path class="cls-23" d="M105.32,606.53q0-.17,0-.35a.53.53,0,0,1,.84,0,2,2,0,0,1,0,.37Z"/><path class="cls-27" d="M957,488.46a27.21,27.21,0,0,0,0,4.21c0,.56-.07,1.12-.07,1.68q0,35.65,0,71.29c-2.17,0-4.35.1-6.52.1q-10.12,0-20.23,0c-2.15,0-2.16,0-2.16-2.19q0-31.19,0-62.39a79.35,79.35,0,0,0-1-14.48C924.75,474.39,914.36,467,901.9,469c-10.81,1.67-17.68,8.14-20,18.85a72.87,72.87,0,0,0-1.29,15.5q0,29.93,0,59.86c0,2.84.35,2.57-2.6,2.57H854c-.49,0-1,0-1.48,0-.83,0-1.13-.36-1.09-1.14,0-.56,0-1.12,0-1.69q0-30.35,0-60.7a86.85,86.85,0,0,0-.74-13.45c-1.57-10-8.07-17.22-17.7-19.46a25.76,25.76,0,0,0-14.32.8,17.89,17.89,0,0,0-10,8.53,34.8,34.8,0,0,0-3.87,12.82,110.75,110.75,0,0,0-.8,14.29q0,28.45,0,56.91c0,.49,0,1,0,1.48,0,1.57,0,1.61-1.66,1.61q-13,0-25.92,0c-1.6,0-1.6,0-1.63-1.63,0-.35,0-.7,0-1.05q0-58.17,0-116.34c0-2.91-.34-2.6,2.56-2.6q11.17,0,22.34,0c1.94,0,2,0,2,2,0,2.65,0,5.31,0,8,.3,0,.49,0,.54-.09,3.68-5.59,9-9.05,15.18-11.12,13.31-4.44,26.25-3.84,38.58,3.34a41.66,41.66,0,0,1,11.84,10.95c.38.49.6,1.13,1.31,1.45,1-1.29,2.18-2.5,3.28-3.75a42.28,42.28,0,0,1,22.95-13.29c11.61-2.65,23.1-2.09,34.07,2.64,13.57,5.85,22.08,16.26,25.84,30.53A56.41,56.41,0,0,1,957,488.46Z"/><path class="cls-28" d="M626.37,606.16l-.83,0-1.25,0a66.27,66.27,0,0,1-13.84-3.52c-14.69-5.84-25.11-16.16-31.69-30.44a73,73,0,0,1-6.43-32.56c.19-9.16,1.57-18.1,5.61-26.37,7.91-16.21,19.84-28.22,37.35-33.74a54.36,54.36,0,0,1,35.77.51,48.09,48.09,0,0,1,21.16,15.48,6,6,0,0,0,1.79,1.86c0-.76,0-1.29,0-1.81,0-4.43,0-8.85,0-13.28,0-1.12.37-1.43,1.45-1.42q12,.05,24,0c1.09,0,1.57.33,1.44,1.44a11.25,11.25,0,0,0,0,1.26q0,58.17,0,116.34c0,.07,0,.14,0,.21,0,2.73.21,2.51-2.49,2.51H676.49a9.21,9.21,0,0,0-1.05,0c-1.09.13-1.48-.33-1.46-1.43.06-3.09,0-6.18,0-9.27,0-1.66,0-3.31,0-5.06-.9.2-1.15.82-1.54,1.27-8.3,9.56-18.87,15.06-31.14,17.56l-2.27.45-1.25,0h-1.25l-1.28,0h-8.91Z"/><path class="cls-28" d="M106.13,606.16l-.84,0-1.25,0a61.55,61.55,0,0,1-18.3-5.36C72.27,594.19,63,583.69,57.25,570a74.46,74.46,0,0,1-5.09-19.91,12.88,12.88,0,0,0-.38-4.23v-1.26q0-3,0-5.9v-1.26a13.75,13.75,0,0,0,.36-4.25c2.24-27.23,22.54-46.41,39-52.42,13-4.77,26.17-5.43,39.36-.71a47.59,47.59,0,0,1,21.44,15.77c.38.48.63,1.08,1.32,1.43a2.48,2.48,0,0,0,.21-1.58c0-4.29,0-8.57,0-12.86,0-1.89,0-1.9,2-1.91h23c1.9,0,1.91,0,1.91,2q0,22,0,44,0,36.56,0,73.13c0,2.84.36,2.58-2.59,2.59H156c-.42,0-.85,0-1.26,0-1,.09-1.34-.37-1.33-1.36,0-4,0-8,0-12q0-1.14,0-2.28c-.77-.16-.91.44-1.19.77-8.29,9.77-19,15.37-31.38,17.93-.82.17-1.65.31-2.48.47l-1.25,0h-.84l-.84,0h-8.07Z"/><path class="cls-28" d="M268.07,606.18l-.84,0-1.26,0h-8.5l-1.25,0h-.83l-1.25,0A69.52,69.52,0,0,1,234,600.22c-19.93-9.69-32.33-25.34-36.22-47.19-6.72-37.78,18.51-68.48,51.06-74.95,28.79-5.72,56.52,9.21,68.63,31.47a54,54,0,0,1,4.25,10.07c.51,1.66.49,1.7-1.14,1.7-10,0-19.95,0-29.92,0a2.42,2.42,0,0,1-2.3-1.4c-3.76-5.93-8.76-10.41-15.52-12.65-13.4-4.44-30.6-1.24-40.14,12.13a36.11,36.11,0,0,0-6.52,18,38,38,0,0,0,4.35,22.39c5.62,10.17,14.44,15.8,25.8,17.61a32.33,32.33,0,0,0,18.76-2.2,31,31,0,0,0,13.16-10.85,2.72,2.72,0,0,1,2.55-1.39c9.9.05,19.81,0,29.71,0a2.1,2.1,0,0,1,1.44.22,5.23,5.23,0,0,1-.62,2.4c-5.4,14.61-15.23,25.37-28.73,32.9a66.74,66.74,0,0,1-23.28,7.59Z"/><path class="cls-28" d="M570.81,480.86c-1,2.45-1.81,4.59-2.68,6.73l-45.7,113c-1,2.37-.66,2-3,2.05q-9.38,0-18.75,0c-2.14,0-1.86.21-2.7-1.86q-15.47-38.24-30.93-76.49-8.28-20.49-16.55-41a5,5,0,0,1-.69-2.27,5.84,5.84,0,0,1,2.24-.15q13.7,0,27.39,0c3.19,0,2.47-.49,3.5,2.41q13.36,37.57,26.65,75.17c.19.53.39,1.05.59,1.61.86-.32.82-1.13,1-1.73q9.14-26.12,18.23-52.25,4.09-11.72,8.19-23.44c.66-1.88.38-1.78,2.49-1.78h30.69Z"/><path class="cls-27" d="M750.75,400.34h4.65l4.62.38c1.59.13,1.62.13,1.63,1.68,0,4.21,0,8.43,0,12.64,0,4.43,0,8.85,0,13.28,0,1.48,0,1.49-1.53,1.53a50,50,0,0,0-6.51.35c-6,.93-8.78,3.53-9.93,9.47-.16.83-.28,1.66-.39,2.5-.24,1.83-.16,1.93,1.65,1.94,4.07,0,8.15,0,12.22,0,.42,0,.84,0,1.26,0,1.57,0,1.6,0,1.61,1.67q0,11.27,0,22.55c0,1.64,0,1.66-1.81,1.67H745.37c-2.19,0-2.19,0-2.2,2.14q0,15.17,0,30.35,0,30.45,0,60.9c0,2.54.28,2.36-2.4,2.36H716.12c-.42,0-.84,0-1.26,0-.71,0-1-.34-1-1s0-1.26,0-1.9q0-45.1,0-90.19c0-3,.18-2.61-2.58-2.63-2.11,0-4.22,0-6.32,0-.91,0-1.41-.16-1.41-1.26q.06-11.7,0-23.39c0-1.1.52-1.27,1.42-1.26,2.25,0,4.5,0,6.74,0s2.21,0,2.32-2.14A49.63,49.63,0,0,1,718,424.81c4.23-9.88,10.89-17.44,21-21.69A42.84,42.84,0,0,1,750.75,400.34Z"/><path class="cls-28" d="M347,554.63q0-22.55,0-45.1c0-.49,0-1,0-1.47.08-1-.3-1.36-1.32-1.35-3.23.05-6.46,0-9.69,0-.56,0-1.12,0-1.69,0-1.53,0-1.58,0-1.58-1.5,0-7.66,0-15.31,0-23,0-1.14.41-1.43,1.48-1.42,3.58,0,7.16,0,10.75,0,2.11,0,2.08.25,2.08-2q0-17.81,0-35.62c0-.42,0-.84,0-1.26,0-1.8,0-1.83,1.89-1.83h25.5c1.91,0,1.93,0,1.93,2q0,17.7,0,35.4c0,.49,0,1,0,1.48,0,1.82,0,1.84,1.85,1.84H392c1.72,0,1.75,0,1.75,1.72q0,11.27,0,22.55c0,1.56,0,1.59-1.66,1.6-4.64,0-9.27,0-13.91,0-1.92,0-1.94,0-1.94,2q0,20.76,0,41.52,0,24.55,0,49.1c0,.35,0,.7,0,1.05,0,2.21,0,2.22-2.14,2.22H349.27c-2.55,0-2.31.08-2.31-2.25q0-22.23,0-44.47Z"/><path class="cls-28" d="M437.91,539.28q0,30.77,0,61.55c0,2.63.35,2.51-2.47,2.51H409.51c-.42,0-.84,0-1.26,0-.83,0-1.12-.38-1.08-1.16,0-.49,0-1,0-1.48q0-61.34,0-122.67c0-.07,0-.14,0-.21,0-2.43-.22-2.29,2.26-2.29h26.14c.42,0,.84,0,1.26,0,.83,0,1.13.37,1.08,1.15,0,.49,0,1,0,1.48Q437.91,508.72,437.91,539.28Z"/><path class="cls-28" d="M422.61,460.84c-4.63,0-9.27,0-13.9,0-1.49,0-1.53,0-1.53-1.53q0-12.42,0-24.85c0-1.51,0-1.55,1.5-1.55,9.27,0,18.53,0,27.8,0,1.08,0,1.46.32,1.46,1.43,0,8.35,0,16.71,0,25.06,0,1.42-.05,1.46-1.61,1.46C431.73,460.86,427.17,460.84,422.61,460.84Z"/><path class="cls-29" d="M117.1,578c-14.66-.44-25.9-6.65-32.6-20-7.63-15.17-2.81-37.65,13.57-47.42a37.51,37.51,0,0,1,22-5,33.44,33.44,0,0,1,19.4,7.24,34.41,34.41,0,0,1,12.58,22.17,39,39,0,0,1-2.44,21.88c-5,11.8-13.94,18.67-26.62,20.69A46.32,46.32,0,0,1,117.1,578Z"/><path class="cls-29" d="M638,578c-14.66-.44-25.9-6.65-32.6-20-7.63-15.17-2.81-37.65,13.57-47.42a37.51,37.51,0,0,1,22-5,33.44,33.44,0,0,1,19.4,7.24A34.41,34.41,0,0,1,673,534.94a39,39,0,0,1-2.44,21.88c-5,11.8-13.94,18.67-26.62,20.69A46.32,46.32,0,0,1,638,578Z"/></svg>