<svg id="Capa_1" data-name="Capa 1" xmlns="http://www.w3.org/2000/svg" viewBox="0 0 1000.2 1000.2"><defs><style>.cls-1{fill:#69af8a;}.cls-2{fill:#3b3b3b;}.cls-3{fill:#3d3d3d;}.cls-4{fill:#efcc6c;}.cls-5{fill:#c54444;}</style></defs><title>Cassette</title><rect class="cls-1" width="1000.2" height="1000.2"/><polygon class="cls-2" points="174.31 556.37 196.54 426.32 365.99 426.42 598.42 461.6 656.87 512.77 622.28 593.64 372.1 624 215.42 626.34 186.74 603.45 174.31 556.37"/><path class="cls-2" d="M216.47,649c-10.2,0-17.26-.35-21.58-1.07-13.76-2.17-25.3-7.68-34.23-16.37-10.51-10.24-15.16-22.87-13.85-37.54l12.16-141c1.5-16.7,8.73-30.23,21.5-40.25l.17-.13c11.67-8.75,25.62-13.19,41.44-13.19h54a9.81,9.81,0,0,1,9.77,10.69l-1.87,20.9a9.81,9.81,0,0,1-9.77,8.93H225.82c-.29,0-1.07,0-2.5,1.68-1.56,1.83-2.44,4.34-2.69,7.66L207.82,595.86c-.77,7.71,1.79,10.15,2.63,11s2.6,2,6.51,2c.44,0,.9,0,1.37,0a17.48,17.48,0,0,0,10.79-4.7,14.66,14.66,0,0,0,5-10.13,9.81,9.81,0,0,1,9.77-8.89h20.9a9.81,9.81,0,0,1,9.77,10.65c-1.25,14.52-7.6,27.15-18.87,37.56S231.22,649,216.47,649Z" transform="translate(-0.8 -0.4)"/><path class="cls-2" d="M276,409.29l-1.87,20.9H225.82q-5.61,0-10,5.15t-5,13.26L198.06,594.88q-1.25,12.48,5.61,19,5,4.74,13.28,4.75,1,0,2-.07a27.18,27.18,0,0,0,16.69-7.17,24.46,24.46,0,0,0,8.27-16.53h20.9q-1.56,18.09-15.75,31.19t-32.59,13.1q-14.35,0-20-.94-17.78-2.81-29-13.72Q155,612.35,156.58,594.88l12.16-141q1.87-20.89,17.78-33.37,15-11.23,35.56-11.23h54M264.81,594.88h0M276,389.67h-54c-18,0-33.92,5.1-47.33,15.15l-.34.26c-14.77,11.59-23.49,27.86-25.21,47.06v.06L137,593.17a54.74,54.74,0,0,0,16.77,45.4c10.41,10.12,23.71,16.52,39.56,19,4.92.81,12.27,1.19,23.11,1.19,17.3,0,32.74-6.16,45.9-18.3,13-12,20.39-26.62,22-43.46a19.82,19.82,0,0,0,.12-2.16,19.62,19.62,0,0,0-19.62-19.62h-20.9a19.62,19.62,0,0,0-19.53,17.79,4.93,4.93,0,0,1-1.81,3.74,7.53,7.53,0,0,1-4.91,2.23h-.16a16.22,16.22,0,0,1,.09-2.19l0-.25L230.4,450.3l0-.21q0-.15,0-.29h43.73a19.62,19.62,0,0,0,19.54-17.87l1.87-20.9A19.62,19.62,0,0,0,276,389.67Zm0,39.24h0Z" transform="translate(-0.8 -0.4)"/><path class="cls-2" d="M362,649c-9.27,0-17-2.06-23.06-6.13A41.61,41.61,0,0,1,316.76,649h-4.63c-12.12,0-22.71-3.33-31.47-9.9-10.52-7.93-15.44-19-14.25-32.11l4.19-49.34c1.16-12.63,7.49-22.92,18.79-30.64l.09-.06a57.26,57.26,0,0,1,32.35-9.59h50.95A9.81,9.81,0,0,1,382.55,528l-7.44,86.72a9.81,9.81,0,0,1,8.32,10.58L382.1,640a9.81,9.81,0,0,1-9.77,8.93ZM375,616.47m-59.58-2.21a8.22,8.22,0,0,0,2.62.32,7.69,7.69,0,0,0,5.5-2.27,8,8,0,0,0,2.82-5.4l4.8-55.19H320.47a9.74,9.74,0,0,0-.33,2l-4.86,56.74A10.31,10.31,0,0,0,315.46,614.26Z" transform="translate(-0.8 -0.4)"/><path class="cls-2" d="M372.77,527.14l-7.5,87.34q-.88,9.48,8.38,9.92l-1.32,14.78H362q-15.44,0-22.5-9a32.26,32.26,0,0,1-22.72,9h-4.63q-15,0-25.58-7.94-11.69-8.82-10.37-23.38l4.19-49.4q1.32-14.33,14.56-23.38a47.4,47.4,0,0,1,26.91-7.94h50.95M341.9,541.91H320.73q-9.48,0-10.37,11l-4.85,56.68q-1.32,14.78,12.57,14.78a17.43,17.43,0,0,0,12.13-4.85,17.73,17.73,0,0,0,6-11.69l5.73-65.94m30.88-34.4H321.83A66.91,66.91,0,0,0,284,518.75l-.19.13c-13.64,9.32-21.6,22.39-23,37.77v.14l-4.19,49.36c-1.47,16.37,5,30.84,18.1,40.74l0,0c10.5,7.87,23.06,11.86,37.35,11.86h4.63a52.07,52.07,0,0,0,22-4.79c6,2.84,13.57,4.79,23.18,4.79h10.36a19.62,19.62,0,0,0,19.54-17.87l1.32-14.78a19.62,19.62,0,0,0-7.74-17.42l6.86-79.91a19.62,19.62,0,0,0-19.55-21.3Zm0,39.24h0ZM325,612.23h0Z" transform="translate(-0.8 -0.4)"/><path class="cls-2" d="M377.41,649a9.81,9.81,0,0,1-9.77-10.69L369,623.52a9.81,9.81,0,0,1,9.77-8.93h23.6c2.57,0,3.43-.52,3.5-.56a7,7,0,0,0,.36-2.64,9,9,0,0,0-2.41-6.31L386.14,585c-7.34-8.47-11-17.83-11-27.87,0-12.92,5.68-23.58,16.43-30.83,8.68-6,19.14-9,31.1-9h24.26A9.81,9.81,0,0,1,456.65,528l-1.32,14.78a9.81,9.81,0,0,1-9.77,8.94H429.46l19.74,24.38c8,10,12.11,20.61,12.11,31.54,0,13.12-5.69,24.12-16.46,31.8C436,645.77,425.1,649,412.47,649Z" transform="translate(-0.8 -0.4)"/><path class="cls-2" d="M446.88,527.14l-1.32,14.78H428.13q-11,0-11,6.62a11.19,11.19,0,0,0,2.87,7.06l21.61,26.69q9.93,12.35,9.92,25.36,0,15-12.35,23.82-10.81,7.72-26.68,7.72H377.41l1.32-14.78h23.6q13.67,0,13.67-13a18.78,18.78,0,0,0-4.85-12.79l-17.64-20.07q-8.6-9.93-8.6-21.39,0-14.56,12.13-22.72,10.59-7.28,25.58-7.28h24.26m0-19.62H422.62c-14,0-26.28,3.59-36.62,10.68a45.74,45.74,0,0,0-20.71,38.94c0,12.47,4.51,24,13.4,34.24l.09.1,11.69,13.3H378.73a19.62,19.62,0,0,0-19.54,17.87l-1.32,14.78a19.62,19.62,0,0,0,19.54,21.37h35.07c14.71,0,27.53-3.83,38.09-11.38,13.45-9.6,20.56-23.36,20.56-39.78,0-13.22-4.79-25.88-14.25-37.65l0-.06-7.15-8.83a19.63,19.63,0,0,0,15.42-17.44l1.32-14.78a19.62,19.62,0,0,0-19.54-21.37Zm0,39.24h0Zm-50.5,64.84Z" transform="translate(-0.8 -0.4)"/><path class="cls-2" d="M455.48,649a9.81,9.81,0,0,1-9.77-10.68L447,623.52a9.81,9.81,0,0,1,9.77-8.94h23.6c2.58,0,3.44-.52,3.51-.56a7,7,0,0,0,.36-2.64,9,9,0,0,0-2.41-6.31L464.21,585c-7.34-8.47-11-17.83-11-27.87,0-12.92,5.68-23.58,16.42-30.83,8.68-6,19.14-9,31.1-9h24.26A9.81,9.81,0,0,1,534.72,528l-1.32,14.78a9.81,9.81,0,0,1-9.77,8.93H507.54l19.74,24.38c8,10,12.11,20.61,12.11,31.54,0,13.12-5.69,24.11-16.46,31.8-8.86,6.33-19.76,9.55-32.39,9.55Z" transform="translate(-0.8 -0.4)"/><path class="cls-2" d="M524.95,527.14l-1.32,14.78H506.2q-11,0-11,6.62a11.19,11.19,0,0,0,2.87,7.06l21.61,26.69q9.92,12.35,9.92,25.36,0,15-12.35,23.82-10.81,7.72-26.68,7.72H455.48l1.32-14.78h23.6q13.67,0,13.67-13a18.78,18.78,0,0,0-4.85-12.79l-17.64-20.07q-8.6-9.93-8.6-21.39,0-14.56,12.13-22.72,10.59-7.28,25.58-7.28h24.26m0-19.62H500.69c-14,0-26.28,3.59-36.62,10.68a45.74,45.74,0,0,0-20.71,38.94c0,12.47,4.51,24,13.4,34.24l.09.1,11.69,13.3H456.8a19.62,19.62,0,0,0-19.54,17.87l-1.32,14.78a19.62,19.62,0,0,0,19.54,21.37h35.07c14.71,0,27.53-3.83,38.09-11.38,13.45-9.61,20.56-23.36,20.56-39.78,0-13.21-4.79-25.88-14.25-37.65l0-.06-7.15-8.83a19.62,19.62,0,0,0,15.42-17.43l1.32-14.78a19.62,19.62,0,0,0-19.54-21.37Zm0,39.24h0Zm-50.5,64.84h0Zm0,0Z" transform="translate(-0.8 -0.4)"/><path class="cls-2" d="M572.8,649a48.62,48.62,0,0,1-31.5-11c-10.11-8-15-18.64-14.23-30.79A39.91,39.91,0,0,1,538.14,582a36.35,36.35,0,0,1-6.87-24.4c1.17-12.67,7.5-22.89,18.84-30.47a56.35,56.35,0,0,1,32.4-9.84c12.61,0,23,3.37,30.79,10,6.42,5.33,13.74,15.2,12.29,32a9.81,9.81,0,0,1-9.77,9h-2.2a9.82,9.82,0,0,1,3.59,8.5l-1.32,14.56a9.8,9.8,0,0,1-3.63,6.76,9.81,9.81,0,0,1,8.92,10.64c-1.13,12.84-6.75,23.13-16.68,30.58l-.1.08C595.65,645.75,585,649,572.8,649ZM579,600.24c-.33,0-.62,0-1.36,1.15a13.52,13.52,0,0,0-2.06,7.57c0,3.09.88,4.57,1.54,5.41.14.18.38.48,1.77.48l.54,0a8.08,8.08,0,0,0,5-2.43,7.62,7.62,0,0,0,2.46-5.44,9.79,9.79,0,0,1,3.58-6.72Zm15.87-34.17a9.81,9.81,0,0,1-3.58-8.56c.22-2.26-.38-3.12-1-3.75a6,6,0,0,0-3.89-2.08l-.6,0a3.87,3.87,0,0,0-3.58,1.74,13,13,0,0,0-2.71,8.36,14.23,14.23,0,0,0,.5,4.3Z" transform="translate(-0.8 -0.4)"/><path class="cls-2" d="M582.51,527.14q15.43,0,24.48,7.72,10.14,8.39,8.82,23.6H601a14,14,0,0,0-3.53-11.36,15.85,15.85,0,0,0-10.14-5.18q-.79-.06-1.55-.06a13.61,13.61,0,0,0-11.36,5.58,22.87,22.87,0,0,0-4.74,14.34q0,14.12,10.37,14.12h27.35l-1.32,14.56H579q-6,0-9.59,5.62a23.23,23.23,0,0,0-3.64,12.9,18,18,0,0,0,3.64,11.47q3.32,4.23,9.49,4.23.59,0,1.21,0a17.92,17.92,0,0,0,10.92-5,17.47,17.47,0,0,0,5.62-11.8H611.4q-1.32,15-12.79,23.6-10.59,7.72-25.8,7.72a38.88,38.88,0,0,1-25.36-8.82q-11.47-9-10.59-22.5,1.1-15.43,15.22-24.7-12.13-11.46-11-24.7,1.32-14.33,14.56-23.16a46.5,46.5,0,0,1,26.91-8.16m24.92,48.74h0m4,32h0m-28.9-100.34A66,66,0,0,0,544.61,519c-13.69,9.17-21.68,22.17-23.11,37.61l0,.17a45.53,45.53,0,0,0,4.72,24.26,49.42,49.42,0,0,0-8.92,25.38v.11c-1,15.49,5.17,29,17.88,39.09a58.19,58.19,0,0,0,37.64,13.14c14.34,0,26.91-3.87,37.37-11.49l.21-.16c12-9,19-21.78,20.52-37.08a19.82,19.82,0,0,0,.12-2.21,19.56,19.56,0,0,0-5.64-13.77q.17-.92.26-1.88l1.29-14.16a19.84,19.84,0,0,0,.12-2.18q0-.66,0-1.31a19.6,19.6,0,0,0,8.35-14.41c1.82-21-7.53-33.48-15.75-40.32-9.64-8.17-22.12-12.31-37.09-12.31Z" transform="translate(-0.8 -0.4)"/><path class="cls-2" d="M663.76,649c-13.2,0-23.92-3.77-31.85-11.2C623,629.57,619,618.22,620.23,604L627,527h-4a9.81,9.81,0,0,1-9.77-10.68L615,497.73a9.81,9.81,0,0,1,9.77-8.93h5.65l2-23.67a9.81,9.81,0,0,1,9.77-9h37.08A9.81,9.81,0,0,1,689,466.87l-2,21.93h5.28A9.81,9.81,0,0,1,702,499.48L700.37,518A9.81,9.81,0,0,1,690.6,527h-6.79l-7,78.77c-.27,2.79.12,4,.29,4.27h0a5.4,5.4,0,0,0,2.34.61,9.81,9.81,0,0,1,8.71,10.62L686.54,640a9.81,9.81,0,0,1-9.77,8.95Z" transform="translate(-0.8 -0.4)"/><path class="cls-2" d="M679.26,466h0m0,0-3,32.65h16l-1.66,18.54H674.83l-7.75,87.72q-1.39,14.11,11.34,15.49l-1.66,18.82h-13q-16.05,0-25.18-8.58-10-9.13-8.58-25.73l7.75-87.72H623.08l1.66-18.54h14.67L642.18,466h37.08m0-19.62H642.18a19.62,19.62,0,0,0-19.55,18l-1.27,15a19.62,19.62,0,0,0-16.16,17.58l-1.66,18.54a19.62,19.62,0,0,0,12.88,20.2l-6,67.54v.09c-1.8,21.56,7,34.59,14.78,41.74,9.8,9.17,22.77,13.82,38.53,13.82h13a19.62,19.62,0,0,0,19.54-17.89L698,622.08a19.63,19.63,0,0,0-11-19.39l5.83-66a19.62,19.62,0,0,0,17.34-17.75l1.66-18.54a19.62,19.62,0,0,0-14.13-20.61l1.08-11.57a19.82,19.82,0,0,0,.12-2.22,19.62,19.62,0,0,0-19.62-19.62Z" transform="translate(-0.8 -0.4)"/><path class="cls-2" d="M737.91,649c-13.21,0-23.92-3.77-31.85-11.2-8.94-8.22-12.87-19.57-11.68-33.74L701.19,527h-4a9.81,9.81,0,0,1-9.77-10.68l1.66-18.54a9.81,9.81,0,0,1,9.77-8.93h5.65l2-23.67a9.81,9.81,0,0,1,9.77-9h37.08a9.81,9.81,0,0,1,9.77,10.72l-2,21.93h5.28a9.81,9.81,0,0,1,9.77,10.69L774.52,518a9.81,9.81,0,0,1-9.77,8.93H758s-7,78.83-7,78.87c-.26,2.69.13,3.95.29,4.17h0a5.41,5.41,0,0,0,2.34.61,9.81,9.81,0,0,1,8.71,10.62L760.69,640a9.81,9.81,0,0,1-9.77,8.95Z" transform="translate(-0.8 -0.4)"/><path class="cls-2" d="M753.41,466h0m0,0-3,32.65h16l-1.66,18.54H749l-7.75,87.72q-1.39,14.11,11.34,15.49l-1.66,18.82h-13q-16.05,0-25.18-8.58-10-9.13-8.58-25.73l7.75-87.72H697.24l1.66-18.54h14.67L716.33,466h37.08m0-19.62H716.33a19.62,19.62,0,0,0-19.55,18l-1.27,15a19.62,19.62,0,0,0-16.16,17.58L677.7,515.4a19.62,19.62,0,0,0,12.88,20.2l-6,67.54v.09c-1.8,21.56,7,34.59,14.78,41.74,9.8,9.17,22.77,13.82,38.53,13.82h13a19.62,19.62,0,0,0,19.54-17.89l1.66-18.82a19.63,19.63,0,0,0-11-19.39l5.83-66A19.62,19.62,0,0,0,784.3,518.9L786,500.36a19.62,19.62,0,0,0-14.13-20.61l1.08-11.57A19.84,19.84,0,0,0,773,466a19.62,19.62,0,0,0-19.62-19.62Zm7.31,161.3h0Z" transform="translate(-0.8 -0.4)"/><path class="cls-2" d="M800,649a48.62,48.62,0,0,1-31.5-11c-10.11-8-15-18.64-14.23-30.79A39.91,39.91,0,0,1,765.33,582a36.35,36.35,0,0,1-6.87-24.4c1.17-12.67,7.5-22.89,18.84-30.47a56.36,56.36,0,0,1,32.4-9.84c12.61,0,23,3.37,30.79,10,6.43,5.33,13.74,15.2,12.29,32a9.81,9.81,0,0,1-9.77,9h-2.2a9.82,9.82,0,0,1,3.59,8.5l-1.32,14.56a9.8,9.8,0,0,1-3.63,6.76,9.81,9.81,0,0,1,8.92,10.63c-1.13,12.84-6.74,23.13-16.68,30.58l-.11.08C822.84,645.75,812.21,649,800,649Zm6.17-48.74c-.33,0-.62,0-1.36,1.14a13.51,13.51,0,0,0-2.06,7.57c0,3.09.88,4.57,1.54,5.41.14.18.38.48,1.77.48l.54,0a8.08,8.08,0,0,0,5-2.43A7.63,7.63,0,0,0,814,607a9.79,9.79,0,0,1,3.58-6.72ZM822,566.07a9.82,9.82,0,0,1-3.58-8.56c.22-2.26-.38-3.12-1-3.75a6,6,0,0,0-3.89-2.08l-.6,0a3.87,3.87,0,0,0-3.57,1.74,13,13,0,0,0-2.71,8.36,14.22,14.22,0,0,0,.5,4.3Z" transform="translate(-0.8 -0.4)"/><path class="cls-2" d="M809.7,527.14q15.43,0,24.48,7.72,10.14,8.39,8.82,23.6H828.22a14,14,0,0,0-3.53-11.36,15.85,15.85,0,0,0-10.14-5.18q-.79-.06-1.55-.06a13.61,13.61,0,0,0-11.36,5.58,22.87,22.87,0,0,0-4.74,14.34q0,14.12,10.37,14.12h27.35l-1.32,14.56H806.17q-6,0-9.59,5.62a23.23,23.23,0,0,0-3.64,12.9,18,18,0,0,0,3.64,11.47q3.32,4.23,9.49,4.23.59,0,1.21,0a17.92,17.92,0,0,0,10.92-5,17.47,17.47,0,0,0,5.62-11.8h14.78q-1.32,15-12.79,23.6-10.59,7.72-25.8,7.72a38.88,38.88,0,0,1-25.36-8.82q-11.47-9-10.59-22.5,1.1-15.43,15.22-24.7-12.13-11.46-11-24.7,1.32-14.33,14.56-23.16a46.5,46.5,0,0,1,26.91-8.16m24.92,48.74h0m4,32h0M809.7,507.52A66,66,0,0,0,771.8,519c-13.69,9.17-21.68,22.17-23.11,37.61l0,.17a45.53,45.53,0,0,0,4.72,24.26,49.42,49.42,0,0,0-8.92,25.38v.11c-1,15.49,5.17,29,17.88,39.08A58.19,58.19,0,0,0,800,658.79c14.34,0,26.91-3.87,37.37-11.49l.21-.16c12-9,19-21.78,20.52-37.08a19.82,19.82,0,0,0,.12-2.21,19.56,19.56,0,0,0-5.64-13.77q.17-.92.26-1.88l1.29-14.16a19.83,19.83,0,0,0,.12-2.18q0-.66,0-1.31a19.6,19.6,0,0,0,8.35-14.41c1.82-21-7.53-33.48-15.75-40.32-9.64-8.17-22.12-12.31-37.1-12.31Z" transform="translate(-0.8 -0.4)"/><path class="cls-2" d="M462.87,725.08a9.81,9.81,0,0,1-9.77-10.67L457.28,667a9.81,9.81,0,0,1,9.77-8.95h22.15A9.81,9.81,0,0,1,499,668.54l-.32,4.31a9.81,9.81,0,0,1-9.15,9.06,9.81,9.81,0,0,1,3.41,8.34l-.39,4.31a9.81,9.81,0,0,1-9.77,8.93h-.4l-1.09,12.61a9.81,9.81,0,0,1-9.77,9Z" transform="translate(-0.8 -0.4)"/><path class="cls-2" d="M489.21,667.81l-.32,4.31H475.3l-1.55,17.26h9.4l-.39,4.31h-9.4l-1.87,21.57h-8.63l4.19-47.46h22.15m-6.05,21.57h0m6-41.19H467.06a19.62,19.62,0,0,0-19.54,17.9l-4.19,47.46a19.62,19.62,0,0,0,19.54,21.34h8.63A19.62,19.62,0,0,0,491,717l.49-5.71a19.62,19.62,0,0,0,10.77-15.8l.35-3.92a19.88,19.88,0,0,0-.14-5.3,19.57,19.57,0,0,0,5.93-12.64l.32-4.31a19.62,19.62,0,0,0-19.57-21.08Z" transform="translate(-0.8 -0.4)"/><path class="cls-2" d="M528.94,725.08a17.67,17.67,0,0,1-8.7-2.14,9.78,9.78,0,0,1-6.11,2.14H505.5a9.81,9.81,0,0,1-3.76-.75,9.79,9.79,0,0,1-3.77.75h-8.63a9.81,9.81,0,0,1-9.77-10.67L482.77,678a9.81,9.81,0,0,1-1.92-6.75l.39-4.31A9.81,9.81,0,0,1,491,658h31a22.71,22.71,0,0,1,14.34,4.58,18.06,18.06,0,0,1,6.9,16.17L541,705.53a9.81,9.81,0,0,1,1.6,6.31l-.39,4.31a9.81,9.81,0,0,1-9.77,8.93Z" transform="translate(-0.8 -0.4)"/><path class="cls-2" d="M522.05,667.81a13.12,13.12,0,0,1,8.31,2.51,8.28,8.28,0,0,1,3.16,7.66l-2.58,30.59q-.19,2.32,1.93,2.38l-.39,4.31h-3.54a7.24,7.24,0,0,1-5-1.67q-1.87-1.67-1.61-5l2.64-31.1q.45-5-3.28-5h-3.73l-3.8,42.82H505.5l3.35-37.8q.45-5-3.41-5H501.7L498,715.27h-8.63l3.8-43.15h-2.51l.39-4.31h31m0-19.62H491a19.62,19.62,0,0,0-19.54,17.87l-.39,4.31a19.62,19.62,0,0,0,1.65,9.8l-2.94,33.38a19.62,19.62,0,0,0,19.54,21.34H498a19.68,19.68,0,0,0,3.77-.36,19.61,19.61,0,0,0,3.76.36h8.63a19.59,19.59,0,0,0,6.63-1.15,28.83,28.83,0,0,0,8.18,1.15h3.54A19.62,19.62,0,0,0,552,717l.39-4.31a19.62,19.62,0,0,0-1.36-9.13l2-23.94v-.1a28,28,0,0,0-10.63-24.66,32.74,32.74,0,0,0-20.4-6.68Z" transform="translate(-0.8 -0.4)"/><rect class="cls-2" x="145.8" y="657.6" width="331.54" height="24.01" rx="9.81" ry="9.81"/><path class="cls-2" d="M468.33,667.81v4.39H156.4v-4.39H468.33m0-19.62H156.4a19.62,19.62,0,0,0-19.62,19.62v4.39a19.62,19.62,0,0,0,19.62,19.62H468.33a19.62,19.62,0,0,0,19.62-19.62v-4.39a19.62,19.62,0,0,0-19.62-19.62Z" transform="translate(-0.8 -0.4)"/><rect class="cls-2" x="518.5" y="700.65" width="333.66" height="24.03" rx="9.81" ry="9.81"/><path class="cls-2" d="M843.15,710.86v4.42h-314v-4.42h314m0-19.62h-314a19.62,19.62,0,0,0-19.62,19.62v4.42a19.62,19.62,0,0,0,19.62,19.62h314a19.62,19.62,0,0,0,19.62-19.62v-4.42a19.62,19.62,0,0,0-19.62-19.62Z" transform="translate(-0.8 -0.4)"/><rect class="cls-2" x="235.32" y="614.19" width="82.89" height="55.16" rx="9.81" ry="9.81"/><path class="cls-2" d="M309.21,624.4v35.54H245.93V624.4h63.27m0-19.62H245.93a19.62,19.62,0,0,0-19.62,19.62v35.54a19.62,19.62,0,0,0,19.62,19.62h63.27a19.62,19.62,0,0,0,19.62-19.62V624.4a19.62,19.62,0,0,0-19.62-19.62Z" transform="translate(-0.8 -0.4)"/><rect class="cls-2" x="363.05" y="570.27" width="81.71" height="58.37" rx="9.81" ry="9.81"/><path class="cls-2" d="M435.75,580.47v38.75h-62.1V580.47h62.1m0-19.62h-62.1A19.62,19.62,0,0,0,354,580.47v38.75a19.62,19.62,0,0,0,19.62,19.62h62.1a19.62,19.62,0,0,0,19.62-19.62V580.47a19.62,19.62,0,0,0-19.62-19.62Z" transform="translate(-0.8 -0.4)"/><rect class="cls-2" x="498.23" y="597.73" width="361" height="122.54" rx="9.81" ry="9.81"/><path class="cls-2" d="M850.22,607.94V710.86H508.84V607.94H850.22m0-19.62H508.84a19.62,19.62,0,0,0-19.62,19.62V710.86a19.62,19.62,0,0,0,19.62,19.62H850.22a19.62,19.62,0,0,0,19.62-19.62V607.94a19.62,19.62,0,0,0-19.62-19.62Z" transform="translate(-0.8 -0.4)"/><polygon class="cls-2" points="240.43 475.19 525.69 463.42 642.05 479.27 626.13 510.89 310.28 526.22 239.03 507.05 240.43 475.19"/><path class="cls-2" d="M620.39,284.63a16.62,16.62,0,0,0-17.14-16.08l-327.3,10.5a16.62,16.62,0,0,0-16.08,17.14l6.53,203.57a16.62,16.62,0,0,0,17.14,16.08l327.3-10.5a16.62,16.62,0,0,0,16.08-17.14Z" transform="translate(-0.8 -0.4)"/><rect class="cls-1" x="285.93" y="322.03" width="317.48" height="168.32" transform="translate(-13.6 14.07) rotate(-1.84)"/><path class="cls-2" d="M598.1,477.07l-302,9.69-4.86-151.45,302-9.69Zm-297.46,4.85,292.63-9.39L588.7,330.46l-292.62,9.39Z" transform="translate(-0.8 -0.4)"/><path class="cls-1" d="M353,345.1a10.88,10.88,0,0,1-11.09-8.88l-8.41-44a10.94,10.94,0,0,1,10.39-13l191.66-6.15a10.94,10.94,0,0,1,11.2,12.29l-5.57,44.47a10.89,10.89,0,0,1-10.5,9.57Z" transform="translate(-0.8 -0.4)"/><path class="cls-3" d="M535.58,275.41a8.59,8.59,0,0,1,8.8,9.66l-5.57,44.47a8.59,8.59,0,0,1-8.25,7.52l-177.68,5.7a8.59,8.59,0,0,1-8.72-7l-8.41-44a8.59,8.59,0,0,1,8.16-10.2l191.66-6.15m-.15-4.69-191.66,6.15a13.28,13.28,0,0,0-12.62,15.76l8.41,44A13.22,13.22,0,0,0,353,347.45l177.68-5.7a13.22,13.22,0,0,0,12.75-11.62L549,285.65a13.28,13.28,0,0,0-13.6-14.92Z" transform="translate(-0.8 -0.4)"/><path class="cls-4" d="M577.89,406.35a47.12,47.12,0,0,0-48.53-44.09l-172.2,5.53a47.11,47.11,0,0,0-45.58,48.6c.83,26,25.77,49.4,51.78,48.56l169.21-5.43a47.12,47.12,0,0,0,45.51-50.09Z" transform="translate(-0.8 -0.4)"/><path class="cls-2" d="M456.94,435.52a72,72,0,0,1-1.56-48.72l50.91-1.64L508,437.4Z" transform="translate(-0.8 -0.4)"/><path class="cls-2" d="M404.28,437.2a72,72,0,0,0-1.56-48.72l-50.91,1.63,1.68,52.24Z" transform="translate(-0.8 -0.4)"/><path class="cls-5" d="M363.31,442a27.3,27.3,0,1,0-28.17-26.41A27.29,27.29,0,0,0,363.31,442Z" transform="translate(-0.8 -0.4)"/><path class="cls-2" d="M363.52,448.6a33.86,33.86,0,1,1,32.76-34.93A33.91,33.91,0,0,1,363.52,448.6ZM361.77,394a20.74,20.74,0,1,0,21.39,20.06A20.77,20.77,0,0,0,361.77,394Z" transform="translate(-0.8 -0.4)"/><path class="cls-5" d="M526.52,436.81a27.3,27.3,0,1,0-28.17-26.41A27.3,27.3,0,0,0,526.52,436.81Z" transform="translate(-0.8 -0.4)"/><path class="cls-2" d="M526.73,443.37a33.86,33.86,0,1,1,32.76-34.93A33.9,33.9,0,0,1,526.73,443.37ZM525,388.79a20.74,20.74,0,1,0,21.39,20.06A20.77,20.77,0,0,0,525,388.79Z" transform="translate(-0.8 -0.4)"/><path class="cls-4" d="M289.18,510.08a14.7,14.7,0,1,1,14.22-15.16A14.71,14.71,0,0,1,289.18,510.08Z" transform="translate(-0.8 -0.4)"/><path class="cls-3" d="M288.39,485.39a10,10,0,1,1-9.68,10.32,10,10,0,0,1,9.68-10.32m-.3-9.37a19.38,19.38,0,1,0,20,18.75,19.41,19.41,0,0,0-20-18.75Z" transform="translate(-0.8 -0.4)"/><path class="cls-4" d="M606.5,499.9a14.7,14.7,0,1,1,14.22-15.16A14.71,14.71,0,0,1,606.5,499.9Z" transform="translate(-0.8 -0.4)"/><path class="cls-3" d="M605.71,475.21A10,10,0,1,1,596,485.53a10,10,0,0,1,9.68-10.32m-.3-9.37a19.38,19.38,0,1,0,20,18.75,19.41,19.41,0,0,0-20-18.75Z" transform="translate(-0.8 -0.4)"/><circle class="cls-3" cx="486.04" cy="305.7" r="8.13" transform="translate(-10.35 15.33) rotate(-1.84)"/><circle class="cls-3" cx="396.94" cy="308.56" r="8.13" transform="translate(-10.47 12.46) rotate(-1.83)"/><circle class="cls-3" cx="518.36" cy="289.65" r="8.13" transform="translate(-9.83 16.38) rotate(-1.84)"/><circle class="cls-3" cx="368.35" cy="294.47" r="8.13" transform="translate(-10.05 11.56) rotate(-1.84)"/><circle class="cls-1" cx="599.76" cy="289.78" r="11.31" transform="translate(-9.78 18.98) rotate(-1.84)"/><circle class="cls-1" cx="282.44" cy="299.96" r="11.31" transform="matrix(1, -0.03, 0.03, 1, -10.27, 8.8)"/><path class="cls-2" d="M363.93,448.59h0a33.86,33.86,0,0,1-2.17-67.69l162.8-5.22a33.86,33.86,0,0,1,2.17,67.69ZM525,388.79,362.18,394a20.74,20.74,0,0,0,1.33,41.45l162.8-5.22A20.74,20.74,0,1,0,525,388.79Z" transform="translate(-0.8 -0.4)"/><rect class="cls-3" x="286.37" y="484.44" width="4.69" height="22.13" transform="translate(-271.01 366.71) rotate(-46.83)"/><rect class="cls-3" x="592.85" y="483.58" width="25.94" height="4.69" transform="translate(-163.82 595.23) rotate(-46.85)"/><circle class="cls-4" cx="441.93" cy="320.79" r="10.01" transform="matrix(1, -0.03, 0.03, 1, -10.86, 13.94)"/><path class="cls-3" d="M447.18,312.27l-13.41,14.3a10.06,10.06,0,0,0,3.53,3.09l13.18-14.06A10,10,0,0,0,447.18,312.27Z" transform="translate(-0.8 -0.4)"/><path class="cls-2" d="M362,401.95a3.28,3.28,0,0,1-3.39-3.17l-.29-9.06a3.28,3.28,0,1,1,6.56-.21l.29,9.06A3.28,3.28,0,0,1,362,401.95Z" transform="translate(-0.8 -0.4)"/><path class="cls-2" d="M363.34,443.18A3.28,3.28,0,0,1,360,440l-.29-9.06a3.28,3.28,0,0,1,6.56-.21l.29,9.06A3.28,3.28,0,0,1,363.34,443.18Z" transform="translate(-0.8 -0.4)"/><path class="cls-2" d="M350.79,407a3.27,3.27,0,0,1-2.35-.89l-6.61-6.2a3.28,3.28,0,0,1,4.49-4.79l6.61,6.2a3.28,3.28,0,0,1-2.14,5.67Z" transform="translate(-0.8 -0.4)"/><path class="cls-2" d="M380.88,435.24a3.27,3.27,0,0,1-2.35-.89l-6.61-6.2a3.28,3.28,0,1,1,4.49-4.79l6.61,6.2a3.28,3.28,0,0,1-2.14,5.67Z" transform="translate(-0.8 -0.4)"/><path class="cls-2" d="M346.45,418.55l-9.06.29a3.28,3.28,0,0,1-.21-6.56l9.06-.29a3.28,3.28,0,0,1,.21,6.56Z" transform="translate(-0.8 -0.4)"/><path class="cls-2" d="M387.68,417.23h0l-9.06.29a3.28,3.28,0,1,1-.21-6.56h0l9.06-.29a3.28,3.28,0,0,1,.21,6.56Z" transform="translate(-0.8 -0.4)"/><path class="cls-2" d="M345.32,436.39a3.28,3.28,0,0,1-2.5-5.52l6.2-6.61a3.28,3.28,0,0,1,4.79,4.49l-6.2,6.61A3.27,3.27,0,0,1,345.32,436.39Z" transform="translate(-0.8 -0.4)"/><path class="cls-2" d="M373.54,406.29a3.28,3.28,0,0,1-2.5-5.52l6.2-6.61a3.28,3.28,0,1,1,4.79,4.49l-6.2,6.61A3.27,3.27,0,0,1,373.54,406.29Z" transform="translate(-0.8 -0.4)"/><path class="cls-2" d="M525.23,396.9a3.28,3.28,0,0,1-3.39-3.17l-.29-9.06a3.28,3.28,0,1,1,6.56-.21l.29,9.06A3.28,3.28,0,0,1,525.23,396.9Z" transform="translate(-0.8 -0.4)"/><path class="cls-2" d="M526.56,438.13a3.28,3.28,0,0,1-3.38-3.18l-.29-9.06a3.28,3.28,0,1,1,6.56-.21l.29,9.06A3.28,3.28,0,0,1,526.56,438.13Z" transform="translate(-0.8 -0.4)"/><path class="cls-2" d="M514,402a3.27,3.27,0,0,1-2.35-.89l-6.61-6.2a3.28,3.28,0,0,1,4.49-4.79l6.61,6.2A3.28,3.28,0,0,1,514,402Z" transform="translate(-0.8 -0.4)"/><path class="cls-2" d="M544.1,430.2a3.27,3.27,0,0,1-2.35-.89l-6.61-6.2a3.28,3.28,0,1,1,4.49-4.79l6.61,6.2a3.28,3.28,0,0,1-2.14,5.67Z" transform="translate(-0.8 -0.4)"/><path class="cls-2" d="M509.67,413.5l-9.06.29a3.28,3.28,0,0,1-.21-6.56l9.06-.29a3.28,3.28,0,1,1,.21,6.56Z" transform="translate(-0.8 -0.4)"/><path class="cls-2" d="M550.89,412.18h0l-9.06.29a3.28,3.28,0,1,1-.21-6.56h0l9.06-.29a3.28,3.28,0,1,1,.21,6.56Z" transform="translate(-0.8 -0.4)"/><path class="cls-2" d="M508.54,431.34a3.28,3.28,0,0,1-2.5-5.52l6.2-6.61a3.28,3.28,0,1,1,4.79,4.49l-6.2,6.61A3.27,3.27,0,0,1,508.54,431.34Z" transform="translate(-0.8 -0.4)"/><path class="cls-2" d="M536.76,401.25a3.28,3.28,0,0,1-2.5-5.52l6.2-6.61a3.28,3.28,0,0,1,4.79,4.49l-6.2,6.61A3.27,3.27,0,0,1,536.76,401.25Z" transform="translate(-0.8 -0.4)"/><rect class="cls-3" x="280.08" y="285.42" width="4.69" height="28.13" transform="matrix(1, -0.03, 0.03, 1, -10.31, 8.86)"/><rect class="cls-3" x="597.44" y="275.23" width="4.69" height="30.47" transform="translate(-9.79 18.95) rotate(-1.83)"/><path class="cls-1" d="M275.29,409.29l-1.87,20.9H225.07q-5.61,0-10,5.15t-5,13.26L197.31,594.88q-1.25,12.48,5.61,19,5.61,5.31,15.28,4.68a27.18,27.18,0,0,0,16.69-7.17,24.46,24.46,0,0,0,8.27-16.53h20.9q-1.56,18.09-15.75,31.19t-32.59,13.1q-14.35,0-20-.94-17.78-2.81-29-13.72-12.48-12.17-10.92-29.63L168,453.9q1.87-20.89,17.78-33.37,15-11.23,35.56-11.23Z" transform="translate(-0.8 -0.4)"/><path class="cls-1" d="M372.9,624.4l-1.32,14.78H361.21q-15.44,0-22.5-9a32.26,32.26,0,0,1-22.72,9h-4.63q-15,0-25.58-7.94-11.69-8.82-10.37-23.38l4.19-49.4q1.32-14.33,14.56-23.38a47.4,47.4,0,0,1,26.91-7.94H372l-7.5,87.34Q363.64,624,372.9,624.4Zm-31.76-82.48H320q-9.48,0-10.37,11l-4.85,56.68q-1.32,14.78,12.57,14.78a17.43,17.43,0,0,0,12.13-4.85,17.73,17.73,0,0,0,6-11.69Z" transform="translate(-0.8 -0.4)"/><path class="cls-1" d="M438.4,631.45q-10.81,7.72-26.68,7.72H376.65L378,624.4h23.6q13.67,0,13.67-13a18.78,18.78,0,0,0-4.85-12.79l-17.64-20.07q-8.6-9.93-8.6-21.39,0-14.56,12.13-22.72,10.59-7.28,25.58-7.28h24.26l-1.32,14.78H427.38q-11,0-11,6.62a11.19,11.19,0,0,0,2.87,7.06l21.61,26.69q9.93,12.35,9.92,25.36Q450.75,622.63,438.4,631.45Z" transform="translate(-0.8 -0.4)"/><path class="cls-1" d="M516.47,631.45q-10.81,7.72-26.68,7.72H454.72L456,624.4h23.6q13.67,0,13.67-13a18.78,18.78,0,0,0-4.85-12.79l-17.64-20.07q-8.6-9.93-8.6-21.39,0-14.56,12.13-22.72,10.59-7.28,25.58-7.28h24.26l-1.32,14.78H505.45q-11,0-11,6.62a11.19,11.19,0,0,0,2.87,7.06l21.61,26.69q9.92,12.35,9.92,25.36Q528.82,622.63,516.47,631.45Z" transform="translate(-0.8 -0.4)"/><path class="cls-1" d="M615.05,558.45H600.28a14,14,0,0,0-3.53-11.36,15.85,15.85,0,0,0-10.14-5.18q-8.16-.66-12.9,5.51A22.87,22.87,0,0,0,569,561.76q0,14.12,10.37,14.12h27.35l-1.32,14.56H578.22q-6,0-9.59,5.62A23.23,23.23,0,0,0,565,609a18,18,0,0,0,3.64,11.47q3.64,4.63,10.7,4.19a17.92,17.92,0,0,0,10.92-5,17.47,17.47,0,0,0,5.62-11.8h14.78q-1.32,15-12.79,23.6-10.59,7.72-25.8,7.72a38.88,38.88,0,0,1-25.36-8.82q-11.47-9-10.59-22.5,1.1-15.43,15.22-24.7-12.13-11.46-11-24.7,1.32-14.33,14.56-23.16a46.5,46.5,0,0,1,26.91-8.16q15.43,0,24.48,7.72Q616.38,543.24,615.05,558.45Z" transform="translate(-0.8 -0.4)"/><path class="cls-4" d="M691.5,498.61l-1.66,18.54H674.07l-7.75,87.72q-1.39,14.11,11.34,15.49L676,639.17H663q-16.05,0-25.18-8.58-10-9.13-8.58-25.73L637,517.15H622.33L624,498.61h14.67L641.42,466H678.5l-3,32.65Z" transform="translate(-0.8 -0.4)"/><path class="cls-4" d="M765.66,498.61,764,517.15H748.23l-7.75,87.72q-1.39,14.11,11.34,15.49l-1.66,18.82h-13q-16.05,0-25.18-8.58-10-9.13-8.58-25.73l7.75-87.72H696.48l1.66-18.54h14.67L715.58,466h37.08l-3,32.65Z" transform="translate(-0.8 -0.4)"/><path class="cls-1" d="M842.24,558.45H827.47a14,14,0,0,0-3.53-11.36,15.85,15.85,0,0,0-10.14-5.18q-8.16-.66-12.9,5.51a22.87,22.87,0,0,0-4.74,14.34q0,14.12,10.37,14.12h27.35l-1.32,14.56H805.41q-6,0-9.59,5.62a23.23,23.23,0,0,0-3.64,12.9,18,18,0,0,0,3.64,11.47q3.64,4.63,10.7,4.19a17.92,17.92,0,0,0,10.92-5,17.47,17.47,0,0,0,5.62-11.8h14.78q-1.32,15-12.79,23.6-10.59,7.72-25.8,7.72a38.88,38.88,0,0,1-25.36-8.82q-11.47-9-10.59-22.5,1.1-15.43,15.22-24.7-12.13-11.46-11-24.7Q768.8,544.12,782,535.3a46.5,46.5,0,0,1,26.91-8.16q15.43,0,24.48,7.72Q843.56,543.24,842.24,558.45Z" transform="translate(-0.8 -0.4)"/><path class="cls-4" d="M488.45,667.81l-.32,4.31H474.54L473,689.39h9.4L482,693.7h-9.4l-1.87,21.57h-8.63l4.19-47.46Z" transform="translate(-0.8 -0.4)"/><path class="cls-4" d="M532.76,678l-2.58,30.59q-.19,2.32,1.93,2.38l-.39,4.31h-3.54a7.24,7.24,0,0,1-5-1.67q-1.87-1.67-1.61-5l2.64-31.1q.45-5-3.28-5h-3.73l-3.8,42.82h-8.63l3.35-37.8q.45-5-3.41-5h-3.73l-3.73,42.82h-8.63l3.8-43.15h-2.51l.39-4.31h31a13.12,13.12,0,0,1,8.31,2.51A8.28,8.28,0,0,1,532.76,678Z" transform="translate(-0.8 -0.4)"/><rect class="cls-4" x="155.65" y="667.81" width="311.92" height="4.39" transform="translate(622.42 1339.61) rotate(180)"/><rect class="cls-4" x="527.55" y="710.46" width="314.04" height="4.42"/><rect class="cls-4" x="620.45" y="671.44" width="5.12" height="14.32"/><rect class="cls-4" x="641.47" y="667.67" width="5.12" height="21.85"/><rect class="cls-4" x="661.84" y="663.31" width="5.12" height="30.57"/><rect class="cls-4" x="740.97" y="671.84" width="5.12" height="14.32" transform="translate(1486.26 1357.59) rotate(180)"/><rect class="cls-4" x="758.78" y="675.42" width="5.12" height="7.16" transform="translate(1521.88 1357.59) rotate(180)"/><rect class="cls-4" x="603.44" y="675.42" width="5.12" height="7.16" transform="translate(1211.19 1357.59) rotate(180)"/><rect class="cls-4" x="719.95" y="668.07" width="5.12" height="21.85" transform="translate(1444.21 1357.59) rotate(180)"/><rect class="cls-4" x="699.57" y="663.71" width="5.12" height="30.57" transform="translate(1403.47 1357.59) rotate(180)"/><rect class="cls-4" x="680.23" y="658.8" width="5.12" height="38.99"/></svg>