<?xml version="1.0" encoding="UTF-8"?>
<!-- Generator: Adobe Illustrator 24.2.3, SVG Export Plug-In . SVG Version: 6.00 Build 0)  -->
<svg xmlns="http://www.w3.org/2000/svg" xmlns:xlink="http://www.w3.org/1999/xlink" version="1.1" id="Capa_1" x="0px" y="0px" viewBox="0 0 1000 1000" style="enable-background:new 0 0 1000 1000;" xml:space="preserve">
<style type="text/css">
	.st0{fill:#FFFFFF;}
	.st1{fill:#CF0014;}
</style>
<rect x="-1.5" y="0.5" class="st0" width="1002.3" height="1002.3"></rect>
<g>
	<g>
		<path d="M758.8,545.5V471h-8.3v-19.1h8.3c2.2-22.4,12.7-33.5,31.5-33.5h5.7v22c-5.7,0-9.5,0.7-11.4,2.2c-1.9,1.5-2.8,4.6-2.8,9.3    h12.9V471h-12.9v74.5H758.8z"></path>
		<path d="M806.3,545.5v-95.3h21v8.9c6.2-7.5,14.4-11.2,24.8-11.2c6.6,0,12.2,1.1,16.5,3.4c4.4,2.3,8.2,6.1,11.5,11.4    c7.5-9.9,17.6-14.8,30.4-14.8c25.8,0,38.7,14.2,38.7,42.5v55h-22.9v-52.3c0-8.5-1.4-14.6-4.2-18.5c-2.8-3.8-7.4-5.8-13.7-5.8    c-6.9,0-11.8,2.3-14.8,6.8c-3,4.5-4.5,12.1-4.5,22.8v47h-22.9v-52.3c0-8.5-1.5-14.6-4.4-18.5c-2.9-3.8-7.6-5.8-14-5.8    c-6.9,0-11.7,2.2-14.5,6.6c-2.8,4.4-4.2,12.1-4.2,23v47H806.3z"></path>
	</g>
	<g>
		<path class="st1" d="M123.1,511.9H149c-3.9,10.7-9.9,18.9-18.1,24.8c-8.2,5.8-17.9,8.8-29.2,8.8c-14.1,0-26.1-4.8-36-14.5    c-9.9-9.7-14.9-21.5-14.9-35.3c0-14.1,4.8-25.9,14.5-35.5c9.7-9.6,21.6-14.4,35.7-14.4c11.4,0,21.3,3,29.8,8.9    c8.5,6,14.6,14.3,18.2,25.1h-25.9c-4.5-8.7-11.9-13.1-22.2-13.1c-8,0-14.6,2.6-19.7,7.9c-5.1,5.3-7.6,12.2-7.6,20.8    c0,8.4,2.6,15.3,7.9,20.8c5.3,5.5,11.9,8.3,19.8,8.3C110.5,524.5,117.7,520.3,123.1,511.9z"></path>
		<path class="st1" d="M275.1,543.2v-95.3h21v9.3c3-4.4,6-7.4,8.9-9c3-1.7,6.8-2.5,11.5-2.5h1.9v22c-13.6,0-20.5,7.5-20.5,22.5v53    H275.1z"></path>
		<path class="st1" d="M426.6,447.9v95.3h-21v-12.4c-4.5,5.2-9.2,8.9-14.1,11.2c-4.9,2.3-10.8,3.4-17.5,3.4c-14,0-25.5-4.7-34.5-14    c-9-9.3-13.5-21.2-13.5-35.5c0-14.6,4.6-26.6,13.7-36s20.7-14.2,34.7-14.2c7.1,0,13.1,1.1,18,3.4c4.9,2.3,9.3,6.1,13.3,11.5v-12.7    H426.6z M376.8,466.7c-8.3,0-15,2.8-20.2,8.3c-5.2,5.5-7.8,12.7-7.8,21.5c0,8.4,2.6,15.1,7.8,20.3c5.2,5.2,12,7.7,20.5,7.7    c8.4,0,15.1-2.6,20.2-7.9c5.1-5.3,7.6-12.2,7.6-20.6c0-8.5-2.6-15.5-7.9-21C391.7,469.4,385,466.7,376.8,466.7z"></path>
		<path class="st1" d="M437.8,543.2v-20.5l42-54.4h-37.2v-20.5h64.5v20.5l-42,54.4h45.2v20.5H437.8z"></path>
		<path class="st1" d="M554.1,437.8l-8.8-15.8l38.5-22.9l9.3,18.1L554.1,437.8z"></path>
		<path class="st1" d="M632.9,543.2v-95.3H654v8.9c4.2-4.1,8.4-6.9,12.4-8.6c4-1.7,8.8-2.5,14.4-2.5c12.7,0,22,3.7,27.9,11    c5.8,7.3,8.8,19.2,8.8,35.4v51.1h-22.9v-46.7c0-11.1-1.3-18.9-4-23.4c-2.7-4.4-7.4-6.6-14.2-6.6c-7.5,0-12.8,2.4-15.9,7.3    c-3.2,4.9-4.7,13-4.7,24.4v45H632.9z"></path>
		<path class="st1" d="M246.6,459.5c-9.8-9.7-21.8-14.5-36-14.5c-14,0-25.9,4.9-35.8,14.6c-9.9,9.7-14.8,21.5-14.8,35.3    c0,13.9,5,25.7,14.9,35.3c9.9,9.7,21.9,14.5,35.9,14.5c14,0,25.9-4.9,35.8-14.6c9.9-9.7,14.8-21.4,14.8-35.1    C261.3,481.1,256.4,469.2,246.6,459.5z M210.6,530.6c-3.3-1.9-43.8-26.6-35.2-50.7c6.7-18.8,27.6-17.4,35.2-3.1    c7.6-14.3,28.6-15.7,35.2,3.1C254.4,503.9,213.9,528.6,210.6,530.6z"></path>
		<path class="st1" d="M605.4,459.5c-9.8-9.7-21.8-14.5-36-14.5c-14,0-25.9,4.9-35.8,14.6c-9.9,9.7-14.8,21.5-14.8,35.3    c0,13.9,5,25.7,14.9,35.3c9.9,9.7,21.9,14.5,35.9,14.5c14,0,25.9-4.9,35.8-14.6c9.9-9.7,14.8-21.4,14.8-35.1    C620.1,481.1,615.2,469.2,605.4,459.5z M569.5,530.6c-3.3-1.9-43.8-26.6-35.2-50.7c6.7-18.8,27.6-17.4,35.2-3.1    c7.6-14.3,28.6-15.7,35.2,3.1C613.2,503.9,572.7,528.6,569.5,530.6z"></path>
	</g>
</g>
</svg>
