<?xml version="1.0" encoding="UTF-8"?>
<svg xmlns="http://www.w3.org/2000/svg" xmlns:xlink="http://www.w3.org/1999/xlink" id="Capa_1" data-name="Capa 1" viewBox="0 0 1000 1000">
  <defs>
    <style>.cls-1{fill:#ffd092;}.cls-2{fill:url(#Degradado_sin_nombre_11);}.cls-3{fill:url(#Degradado_sin_nombre_11-2);}.cls-4{fill:url(#Degradado_sin_nombre_11-3);}.cls-5{fill:url(#Degradado_sin_nombre_11-4);}.cls-6{fill:url(#Degradado_sin_nombre_11-5);}.cls-7{fill:url(#Degradado_sin_nombre_11-6);}.cls-8{fill:url(#Degradado_sin_nombre_11-7);}.cls-9{fill:url(#Degradado_sin_nombre_11-8);}.cls-10{fill:url(#Degradado_sin_nombre_11-9);}.cls-11{fill:url(#Degradado_sin_nombre_11-10);}.cls-12{fill:url(#Degradado_sin_nombre_11-11);}</style>
    <linearGradient id="Degradado_sin_nombre_11" x1="665.33" y1="359.68" x2="990.22" y2="684.57" gradientTransform="matrix(1, 0, 0, -1, 0, 1002)" gradientUnits="userSpaceOnUse">
      <stop offset="0" stop-color="#f06006"></stop>
      <stop offset="0.42" stop-color="#f06006"></stop>
      <stop offset="0.59" stop-color="#ffa20f"></stop>
      <stop offset="1" stop-color="#ffa20f"></stop>
    </linearGradient>
    <linearGradient id="Degradado_sin_nombre_11-2" x1="21.58" y1="526.22" x2="762.95" y2="526.22" xlink:href="#Degradado_sin_nombre_11"></linearGradient>
    <linearGradient id="Degradado_sin_nombre_11-3" x1="21.58" y1="462.02" x2="762.95" y2="462.02" xlink:href="#Degradado_sin_nombre_11"></linearGradient>
    <linearGradient id="Degradado_sin_nombre_11-4" x1="21.58" y1="526.42" x2="762.95" y2="526.42" xlink:href="#Degradado_sin_nombre_11"></linearGradient>
    <linearGradient id="Degradado_sin_nombre_11-5" x1="21.58" y1="462.33" x2="762.95" y2="462.33" xlink:href="#Degradado_sin_nombre_11"></linearGradient>
    <linearGradient id="Degradado_sin_nombre_11-6" x1="21.58" y1="548.34" x2="762.95" y2="548.34" xlink:href="#Degradado_sin_nombre_11"></linearGradient>
    <linearGradient id="Degradado_sin_nombre_11-7" x1="21.58" y1="462.14" x2="762.95" y2="462.14" xlink:href="#Degradado_sin_nombre_11"></linearGradient>
    <linearGradient id="Degradado_sin_nombre_11-8" x1="21.58" y1="526.48" x2="762.95" y2="526.48" xlink:href="#Degradado_sin_nombre_11"></linearGradient>
    <linearGradient id="Degradado_sin_nombre_11-9" x1="21.58" y1="462.55" x2="762.95" y2="462.55" xlink:href="#Degradado_sin_nombre_11"></linearGradient>
    <linearGradient id="Degradado_sin_nombre_11-10" x1="20.02" y1="553.47" x2="761.4" y2="553.47" xlink:href="#Degradado_sin_nombre_11"></linearGradient>
    <linearGradient id="Degradado_sin_nombre_11-11" x1="20.02" y1="435.7" x2="761.4" y2="435.7" xlink:href="#Degradado_sin_nombre_11"></linearGradient>
  </defs>
  <rect class="cls-1" x="-17.13" y="-23.13" width="1043.25" height="1053.55"></rect>
  <path class="cls-2" d="M884.52,377.7H730.77a45.41,45.41,0,0,0-45.42,45.42V576.88a45.41,45.41,0,0,0,45.42,45.42H884.52A45.42,45.42,0,0,0,930,576.88V423.12A45.42,45.42,0,0,0,884.52,377.7ZM746.6,556.37H718.73V510.45H746.6ZM764.34,445c-7.06-.06-11.77,1-14.16,3.24s-3.58,6.85-3.58,13.57h17.11v25.3H746.6V502H718.73v-14.9h-9.18l-.1-25.3h9.26q0-17.18,5.61-26.41a33.25,33.25,0,0,1,15.73-13.49c6.63-2.83,14.86-4.25,24.29-4.25Zm38,111.55h-28V510.08h28Zm50.86,0H825.15V510.08H853.2Zm50.76,0H876V510.08h28Zm0-54.9H876v-1q0-15.24-10.66-15.62h-1.57q-9.9.38-10.58,13.39v3.26h-28v-3.26c-.47-8.67-4-13.14-10.58-13.39H813c-7.09.25-10.65,5.44-10.65,15.62v1h-28v-1q0-40.17,38.62-42.39h1.58q15.39.92,24.63,7.76,9.17-6.83,24.56-7.76h1.57q38.63,2.22,38.63,42.39v1Z"></path>
  <path class="cls-3" d="M344.75,465.23a57.63,57.63,0,0,0-19.3-12.3,61.41,61.41,0,0,0-45.2,0A59.87,59.87,0,0,0,261,465.33,58,58,0,0,0,247.8,484.2a56.62,56.62,0,0,0-4.61,18.74H276a26.32,26.32,0,0,1,3.35-9.14,28.5,28.5,0,0,1,10.1-10.13,25.74,25.74,0,0,1,13.36-3.78,25.35,25.35,0,0,1,13.47,3.78,28.61,28.61,0,0,1,10.11,10.13,26.64,26.64,0,0,1,3.36,9.14h32.76a56.62,56.62,0,0,0-4.61-18.74A58.66,58.66,0,0,0,344.75,465.23Z"></path>
  <path class="cls-4" d="M322,527.57a26.18,26.18,0,0,1-38.28,0A27.34,27.34,0,0,1,276,512.81H243.21a56.15,56.15,0,0,0,8,25.32,60.22,60.22,0,0,0,74.18,24.59,60.45,60.45,0,0,0,19.3-12.39A59.3,59.3,0,0,0,358,531.23a56.15,56.15,0,0,0,4.49-18.42H329.7A27.15,27.15,0,0,1,322,527.57Z"></path>
  <path class="cls-5" d="M375.87,502.54h66a35.86,35.86,0,0,0-12.64-6.13c-.67-.16-1.32-.34-2-.51l-.08.09c-2.31-.59-4.59-1.16-6.9-1.76l.08-.08c-3.13-.83-6.27-1.7-9.4-2.59q-8.22-2.37-8.25-8.25c0-4.35,3.72-6.54,11.12-6.54A27,27,0,0,1,431,483l.75-.93L448.82,464a56.63,56.63,0,0,0-10.52-7.88,59.1,59.1,0,0,0-12.46-5.61,46.54,46.54,0,0,0-12.66-1.84,51.06,51.06,0,0,0-20.3,4,34.22,34.22,0,0,0-14.81,12.07q-5.61,8.19-5.62,20.06v.12C372.49,492.06,373.65,498,375.87,502.54Z"></path>
  <path class="cls-6" d="M450,512.39h-65.4a36.27,36.27,0,0,0,11.83,5.7q12.44,3.46,18.16,4.85c5.36,1.5,8,3.83,8,7q-.06,9-14.59,9a31.41,31.41,0,0,1-16.88-4.69l-19.36,20.52a76.56,76.56,0,0,0,9.51,5.95,48.16,48.16,0,0,0,13.37,4.75,77.26,77.26,0,0,0,16,1.52,49.69,49.69,0,0,0,20.51-4.43A35.65,35.65,0,0,0,447,549.68q5.86-8.43,5.91-20v-.25C452.9,522.52,451.91,516.86,450,512.39Z"></path>
  <polygon class="cls-7" points="478.3 502.96 510.86 502.96 510.86 492.24 510.86 483 510.86 482.33 532.5 482.33 532.5 452.77 510.86 452.77 510.86 404.35 478.3 404.35 478.3 452.77 464.12 452.77 464.02 482.33 478.3 482.33 478.3 502.96"></polygon>
  <path class="cls-8" d="M510.86,518.9v-6.07H478.3v4.25l.12,9.1c.43,8.23,2,15.17,4.88,20.77a32.55,32.55,0,0,0,14.8,15q9.7,5,24.29,5a29.51,29.51,0,0,0,5-.43l9.39-34.29c-2,.93-4.84,1.39-8.58,1.39Q510.86,533.56,510.86,518.9Z"></path>
  <path class="cls-9" d="M578.22,493.44a28.31,28.31,0,0,1,10.12-10.13,26.41,26.41,0,0,1,26.83,0,28.53,28.53,0,0,1,10.11,10.13,26.62,26.62,0,0,1,3.36,9.1h32.78a56.86,56.86,0,0,0-4.59-18.69,58.6,58.6,0,0,0-13.27-18.77,56.59,56.59,0,0,0-19.19-12.29,61.73,61.73,0,0,0-22.65-4.31,59.77,59.77,0,0,0-22.65,4.43,57,57,0,0,0-19.19,12.19,58.26,58.26,0,0,0-13.16,18.77,56.49,56.49,0,0,0-4.59,18.69h32.78A25.12,25.12,0,0,1,578.22,493.44Z"></path>
  <path class="cls-10" d="M629.15,566.46H661.5l.1-54.05h-33a27.16,27.16,0,0,1-7.73,14.7,26.46,26.46,0,0,1-38.28,0,27.21,27.21,0,0,1-7.72-14.7H542.1a56.4,56.4,0,0,0,8,25.28,59.19,59.19,0,0,0,22.05,21.13,60.16,60.16,0,0,0,29.48,7.66h27.47Z"></path>
  <path class="cls-11" d="M122.15,503A65.14,65.14,0,0,1,130,476.09a66.16,66.16,0,0,1,21.92-23.73,55,55,0,0,1,60.18,0,61.64,61.64,0,0,1,13.29,11.71l36.66-36a112.24,112.24,0,0,0-24-18.87,111.73,111.73,0,0,0-112.08,0,113.91,113.91,0,0,0-41,41.05,110.94,110.94,0,0,0-15,52.74Z"></path>
  <path class="cls-12" d="M225.75,549.54A60.79,60.79,0,0,1,212,561.85a54.37,54.37,0,0,1-59.86,0,66.1,66.1,0,0,1-21.94-23.72,64.4,64.4,0,0,1-7.87-25.32H70.13a110,110,0,0,0,14.91,51,112.86,112.86,0,0,0,41,40.92,111.92,111.92,0,0,0,112.08,0,114,114,0,0,0,24.33-19.18Z"></path>
</svg>
