<?xml version="1.0" encoding="UTF-8"?>
<!-- Generated by Pixelmator Pro 3.4.3 -->
<svg xmlns="http://www.w3.org/2000/svg" width="1200" height="1200" viewBox="0 0 1200 1200">
  <path id="Rectngulo" fill="#ffffff" fill-rule="evenodd" stroke="none" d="M 0 1200 L 1200 1200 L 1200 0 L 0 0 Z"></path>
  <g id="Agrupar">
    <path id="Trazado" fill="#303656" stroke="none" d="M 350.200012 540.700012 C 358.399994 540.700012 366.200012 542.299988 373.5 545.5 C 380.799988 548.700012 387.100006 553 392.600006 558.400024 C 398 563.799988 402.299988 570.200012 405.5 577.5 C 408.700012 584.799988 410.299988 592.599976 410.299988 601 C 410.299988 605.5 409.799988 609.799988 408.899994 614 L 408.700012 614.5 L 349.600006 614.5 L 334.700012 590.799988 L 378.899994 590.799988 C 376.700012 584.299988 373.100006 578.900024 368.100006 574.700012 C 363.100006 570.5 357.100006 568.400024 350.299988 568.400024 C 346.100006 568.400024 342.200012 569.200012 338.399994 571 C 334.700012 572.700012 331.5 575 328.700012 577.799988 C 326 580.700012 323.899994 584.099976 322.299988 588 C 320.700012 591.900024 320 596.200012 320 600.900024 C 320 604.5 320.700012 608.099976 322.100006 611.900024 C 323.5 615.700012 325.5 619.099976 328.100006 622.200012 C 330.700012 625.299988 333.899994 627.900024 337.600006 630 C 341.299988 632.099976 345.5 633.099976 350.200012 633.099976 C 354.399994 633.099976 358.200012 632.5 361.700012 631.400024 C 365.200012 630.200012 368.5 627.599976 371.600006 623.599976 L 371.799988 623.400024 L 372.299988 623.599976 L 399.299988 635.5 L 398.799988 636 C 393.200012 643.799988 386.100006 649.900024 377.5 654.299988 C 368.899994 658.700012 359.799988 660.900024 350.200012 660.900024 C 341.799988 660.900024 334 659.299988 326.600006 656.200012 C 319.200012 653.099976 312.799988 648.799988 307.399994 643.400024 C 302 638 297.700012 631.599976 294.5 624.299988 C 291.299988 617 289.700012 609.299988 289.700012 601 C 289.700012 592.599976 291.299988 584.799988 294.5 577.5 C 297.700012 570.200012 302 563.900024 307.399994 558.400024 C 312.799988 553 319.200012 548.700012 326.600006 545.5 C 333.899994 542.299988 341.799988 540.700012 350.200012 540.700012 Z"></path>
    <path id="path1" fill="#303656" stroke="none" d="M 421.799988 542.5 L 453.399994 542.5 L 453.399994 658.799988 L 421.799988 658.799988 L 421.799988 542.5 Z M 529.299988 556 C 533.200012 560.799988 536 566.900024 537.700012 574.099976 C 539.400024 581.400024 540.299988 590.400024 540.299988 601.099976 L 540.299988 658.799988 L 508.700012 658.799988 L 508.700012 601 C 508.700012 596.599976 508.600006 592.5 508.399994 588.5 C 508.200012 584.5 507.399994 581 506 578 C 504.600006 575 502.399994 572.599976 499.299988 570.900024 C 496.200012 569.200012 491.799988 568.299988 486 568.299988 C 480.600006 568.299988 475.5 569.5 470.899994 571.799988 L 470.899994 572 L 470.700012 571.799988 L 459 551.700012 L 459.200012 551.5 C 467.299988 544.299988 477.299988 540.700012 489.399994 540.700012 C 508.100006 540.700012 521.400024 545.799988 529.299988 556 Z"></path>
    <path id="path2" fill="#303656" stroke="none" d="M 553 658.799988 L 553 542.5 L 583.900024 542.5 L 583.900024 658.799988 L 553 658.799988 Z"></path>
    <path id="path3" fill="#303656" stroke="none" d="M 722.799988 542.5 L 722.799988 658.799988 L 692.299988 658.799988 L 692.299988 600.5 C 692.299988 596 691.400024 591.799988 689.700012 587.900024 C 688 584 685.599976 580.599976 682.599976 577.599976 C 679.599976 574.599976 676.099976 572.400024 672.099976 570.700012 C 668.099976 569.099976 664 568.299988 659.700012 568.299988 C 655.200012 568.299988 651 569.200012 647.099976 570.900024 C 643.200012 572.599976 639.799988 574.900024 636.799988 577.799988 C 633.799988 580.700012 631.400024 584.099976 629.700012 588.099976 C 628 592.099976 627.099976 596.299988 627.099976 600.799988 C 627.099976 605.200012 628 609.299988 629.700012 613.200012 C 631.400024 617.099976 633.799988 620.5 636.799988 623.5 C 639.799988 626.5 643.299988 628.799988 647.099976 630.5 C 651 632.200012 655.200012 633.099976 659.700012 633.099976 C 664.5 633.099976 668.599976 632.299988 672 630.5 L 672.200012 630.5 L 672.200012 631 L 683.799988 651.700012 L 683.599976 651.900024 C 676 657.799988 666.599976 660.700012 655.5 660.700012 C 647.299988 660.700012 639.5 659.099976 632.200012 656 C 624.900024 652.900024 618.599976 648.599976 613.099976 643.200012 C 607.700012 637.799988 603.400024 631.400024 600.200012 624.099976 C 597 616.799988 595.400024 609.099976 595.400024 600.799988 C 595.400024 592.400024 597 584.599976 600.200012 577.299988 C 603.400024 570 607.700012 563.700012 613.099976 558.200012 C 618.5 552.799988 624.900024 548.5 632.200012 545.299988 C 639.5 542.099976 647.200012 540.5 655.5 540.5 C 663.599976 540.5 670.599976 542 676.700012 545 C 682.700012 548 687.900024 552.299988 692.299988 558 L 692.299988 542.299988 L 722.799988 542.299988 Z"></path>
    <path id="path4" fill="#f18e52" stroke="none" d="M 553 496 L 583.900024 496 L 583.900024 523.200012 L 553 523.200012 Z"></path>
    <path id="path5" fill="#303656" stroke="none" d="M 272.799988 545.799988 C 268.5 535.900024 262.700012 527.200012 255.399994 519.900024 C 248 512.5 239.399994 506.700012 229.5 502.5 C 219.600006 498.200012 209 496.099976 197.899994 496.099976 L 128 496.099976 L 128 568.099976 L 160.600006 578.700012 L 160.600006 524.5 L 197.800003 524.5 C 204.5 524.5 210.800003 525.900024 216.800003 528.599976 C 222.800003 531.299988 228 535 232.399994 539.799988 C 236.800003 544.5 240.300003 550.200012 242.899994 556.700012 C 245.5 563.200012 246.699997 570.200012 246.699997 577.599976 C 246.699997 585.200012 245.399994 592.299988 242.899994 598.799988 C 240.300003 605.299988 236.899994 610.900024 232.399994 615.700012 C 228 620.400024 222.800003 624.099976 216.800003 626.799988 C 210.800003 629.400024 204.5 630.799988 197.800003 630.799988 L 160.600006 630.799988 L 160.600006 606.200012 L 128 595.200012 L 128 658.799988 L 155.100006 658.799988 L 160.5 658.799988 L 197.699997 658.799988 C 208.899994 658.799988 219.399994 656.700012 229.300003 652.400024 C 239.199997 648.099976 247.899994 642.299988 255.199997 635 C 262.600006 627.599976 268.399994 619 272.600006 609.099976 C 276.899994 599.200012 279 588.599976 279 577.5 C 279.200012 566.299988 277.100006 555.700012 272.799988 545.799988 Z"></path>
    <g id="g1">
      <linearGradient id="linearGradient1" x1="798.8774" y1="576.6715" x2="909.7543" y2="576.6715" gradientUnits="userSpaceOnUse">
        <stop offset="1e-05" stop-color="#ef804b" stop-opacity="1"></stop>
        <stop offset="1" stop-color="#e62d76" stop-opacity="1"></stop>
      </linearGradient>
      <path id="path6" fill="url(#linearGradient1)" stroke="none" d="M 798.900024 658.799988 L 831.900024 658.799988 L 831.900024 522.400024 L 909.799988 522.400024 L 909.799988 494.5 L 798.900024 494.5 Z"></path>
      <linearGradient id="linearGradient2" x1="837.7899" y1="577.7259" x2="889.8292" y2="577.7259" gradientUnits="userSpaceOnUse">
        <stop offset="1e-05" stop-color="#ef804b" stop-opacity="1"></stop>
        <stop offset="1" stop-color="#e62d76" stop-opacity="1"></stop>
      </linearGradient>
      <path id="path7" fill="url(#linearGradient2)" stroke="none" d="M 853 593 L 889.799988 593 L 889.799988 562.5 L 837.799988 562.5 Z"></path>
      <linearGradient id="linearGradient3" x1="920.301" y1="576.7881" x2="1071.9663" y2="576.7881" gradientUnits="userSpaceOnUse">
        <stop offset="1e-05" stop-color="#ef804b" stop-opacity="1"></stop>
        <stop offset="1" stop-color="#e62d76" stop-opacity="1"></stop>
      </linearGradient>
      <path id="path8" fill="url(#linearGradient3)" stroke="none" d="M 1046.699951 494.700012 L 996.299988 570.900024 L 945.599976 494.700012 L 920.299988 494.700012 L 920.299988 658.799988 L 953.400024 658.799988 L 953.400024 565.5 L 996.299988 630 L 1072 515.799988 L 1072 494.700012 Z"></path>
      <linearGradient id="linearGradient4" x1="1038.9147" y1="602.8152" x2="1071.9663" y2="602.8152" gradientUnits="userSpaceOnUse">
        <stop offset="1e-05" stop-color="#ef804b" stop-opacity="1"></stop>
        <stop offset="1" stop-color="#e62d76" stop-opacity="1"></stop>
      </linearGradient>
      <path id="path9" fill="url(#linearGradient4)" stroke="none" d="M 1038.900024 658.799988 L 1072 658.799988 L 1072 546.799988 L 1038.900024 594.799988 Z"></path>
    </g>
    <linearGradient id="linearGradient5" x1="311.5369" y1="691.8981" x2="388.4001" y2="691.8981" gradientUnits="userSpaceOnUse">
      <stop offset="1e-05" stop-color="#ef804b" stop-opacity="1"></stop>
      <stop offset="1" stop-color="#e62d76" stop-opacity="1"></stop>
    </linearGradient>
    <path id="path10" fill="url(#linearGradient5)" stroke="none" d="M 311.5 678.299988 L 388.399994 678.299988 L 388.399994 705.5 L 311.5 705.5 Z"></path>
  </g>
</svg>
