<?xml version="1.0" encoding="utf-8"?>
<!-- Generator: Adobe Illustrator 21.0.2, SVG Export Plug-In . SVG Version: 6.00 Build 0)  -->
<svg version="1.1" id="Capa_1" xmlns="http://www.w3.org/2000/svg" xmlns:xlink="http://www.w3.org/1999/xlink" x="0px" y="0px"
	 viewBox="0 0 1000 1000" style="enable-background:new 0 0 1000 1000;" xml:space="preserve">
<style type="text/css">
	.st0{fill:#FF3366;}
	.st1{fill:#FFFFFF;}
</style>
<title>Mesa de trabajo 1</title>
<rect x="-2" y="-2.8" class="st0" width="1004.2" height="1004.2"/>
<path class="st1" d="M401.2,502.3c-14.8,9.5-27.8,18-40.9,26.4c-12.9,8.3-25.8,16.6-40.2,25.8c21.4,13.9,38.5,4.6,55.9-6.9
	l19.4,28.2c-0.3,0.9-0.2,1.5-0.5,1.8c-23.4,17.8-59.8,27.3-87.6,10.8c-22.3-13.3-35.9-32.7-34.6-59.4c1.3-28.2,15.5-49,41.7-59.8
	c25.3-10.4,48.9-4.6,69.3,12.9C390,487.5,394.8,494.8,401.2,502.3z M353.4,500.9c-10.9-5.6-20.5-5.5-29.4,0.3
	c-9.8,6.3-14.4,15.6-14,28.7L353.4,500.9z"/>
<path class="st1" d="M93.4,554.6c21.3,14,38.2,4.3,55.5-6.9l19.3,28c-0.3,1.1-0.3,1.7-0.6,1.9c-25.7,19.4-64.8,27.9-93.9,6.7
	c-30-21.8-37.2-59.7-16.8-90.5c19.7-29.9,58.9-38.8,89.4-19.2c9,5.8,15.9,15,23.5,22.9c3.5,3.6,2.2,6.3-2.1,9
	c-22.3,14.1-44.5,28.5-66.7,42.8C98.8,550.8,96.7,552.3,93.4,554.6z M82.5,530.1l43.6-29.1c-10.4-5.6-19.7-5.5-28.5-0.2
	C87.2,507,82.5,516.7,82.5,530.1z"/>
<path class="st1" d="M440.4,464.4v16.3c1-0.5,1.9-1.2,2.8-1.9c13.2-15.7,30-17.3,48-11.5c17.5,5.7,25.2,20,26,36.9
	c1.3,27.5,0.7,55.1,0.5,82.6c0,1.6-2.6,4.2-4.3,4.5c-9.1,1.3-18.4,1.9-27.6,3.1c-5.1,0.7-6.8-1.2-6.7-6.3c0.2-21.7,0.1-43.3,0-65
	c0.1-3.4-0.1-6.8-0.6-10.1c-1.7-9.1-8.3-13.9-18.2-13.5c-9,0.3-15.5,5.2-16,14.2c-0.9,14.4-0.8,28.9-1,43.3c-0.1,9.5-0.1,19,0,28.5
	c0,3.2-0.4,5.8-4.4,6.2c-9.4,0.9-18.9,1.8-28.3,2.9c-4.4,0.5-6.1-1-6.1-5.5c0.1-38.4,0-76.8,0.2-115.2c0-2,1.7-5.4,3-5.6
	C418.3,466.6,428.9,465.7,440.4,464.4z"/>
<path class="st1" d="M641.4,439.3l25.4-24.1l26.4,19.2c-7.6,8.1-14.9,16-22.4,23.6c-0.6,0.6-3.1,0.3-4.1-0.4
	C658.4,451.7,650.2,445.7,641.4,439.3z"/>
<path class="st1" d="M169.6,579l19.4-26.2c8.8,8.3,18.6,12.2,30,11.3c1.8-0.1,3.5-0.4,5.3-0.8c2.5-0.8,6.4-3.7,6.4-7.3
	s-3.1-6.2-6.1-7.4c-5.8-2.3-12.2-3-18.3-4.6c-22.2-6-31.9-18.2-31.5-39.5c0.4-20.1,12.6-34.3,34-38.7c20-4.1,37.5,1.4,52.9,14.4
	c0.5,0.5,0.9,1,1.2,1.6l-19.7,20c-7.6-1.6-14.9-3.9-22.3-4.4c-3.1-0.2-8.1,2.8-9.2,5.6c-1.9,4.9,2.8,7.7,7,8.9
	c6.2,1.9,12.7,3.1,19,4.7c19.2,4.8,28.6,14.7,30.4,31.6c2,18.9-6,34.1-22.5,42.5C222.6,602.3,189.3,597.5,169.6,579z"/>
<path class="st1" d="M619.7,507.4c-23.6-11.1-38.6-9.9-48.8,3.5c-8.6,11.4-7.5,30.2,2.6,41.4c10.7,11.9,26.6,12.5,46.4,1.1
	c6.3,8.2,12.8,16.5,18.8,25.1c0.6,0.9-1.4,4.8-3.1,6.1c-12.8,9.1-27.5,12.5-42.9,12.3c-33-0.5-59.1-21.2-65.2-51.5
	c-9.1-44.8,24.8-83.7,70.4-80.9c13.1,0.6,25.9,4.8,36.8,12c3.6,2.4,4.2,4.5,1.5,8.1C630.6,492.1,625.2,499.8,619.7,507.4z"/>
<path class="st1" d="M650.2,594.9c-0.2-3.3-0.4-5.3-0.4-7.3c0-36.8,0.1-73.6-0.1-110.3c0-5.4,1.5-7.7,7-8c8.3-0.5,16.6-1.4,24.9-2.5
	c4.8-0.6,7,0.4,6.9,5.9c-0.2,37.5,0,74.9-0.2,112.4c0,2.1-1.8,6-3.1,6.2C673.8,592.7,662.4,593.7,650.2,594.9z"/>
<path class="st1" d="M807.7,589.7l-33.9,5.9c-0.4-4.1-0.6-7-1-11c-8.5,9.9-19.3,12.7-31.1,12.4c-11.6-0.3-22.3-3.5-30.7-12.1
	c-13.2-13.5-15.8-39-5.8-54.8c12.4-19.5,33.8-23.8,64.5-12.7c2.8-9.7-1.2-17-10.8-19.2c-12.6-2.9-24.6-0.3-36.6,3.5
	c-1.7,0.5-3.4,1.2-5.1,1.7c-0.3,0.1-0.8-0.2-2.2-0.6c1.6-10,3.1-20.2,5.1-30.2c0.3-1.6,2.9-3.3,4.8-3.8c16.8-4.6,33.8-6,50.8-1.8
	c20.2,5,31.1,19.2,31.2,41.1c0.2,24.8,0,49.7,0.1,74.5c0,2.5,0.2,5,0.3,7.4L807.7,589.7z M752.9,535.9c-10.8,0.1-17.5,6.1-17.3,15.5
	c0.1,9.2,7.4,15.4,17.8,15.3s17.4-6.4,17.3-15.8S763.8,535.8,752.9,535.9L752.9,535.9z"/>
<path class="st1" d="M819.1,495.4c1.3-9.6,2.9-19.1,4.7-28.6c1.8-9.5,4.1-18.9,6.9-28.2c0.7-2.2,1.5-4.8,2.5-7.6
	c1-2.8,2.2-5.4,3.6-8c1.3-2.3,2.9-4.5,4.8-6.4c1.6-1.6,3.8-2.6,6.1-2.6c2.3,0,4.6,0.8,6.4,2.3c2,1.7,3.7,3.7,5,6
	c1.5,2.6,2.7,5.4,3.6,8.3c1,3,1.7,6.1,2.4,9.1c0.6,3,1,5.9,1.3,8.6c0.3,2.7,0.4,4.9,0.4,6.6c0,1.1-0.1,2.8-0.2,5
	c-0.1,2.2-0.4,4.6-0.8,7.2c-0.4,2.7-0.9,5.4-1.6,8.1c-0.6,2.6-1.5,5.1-2.7,7.5c-1,2.1-2.3,4-4,5.5c-1.5,1.4-3.6,2.2-5.6,2.2
	c-2.3,0.1-4.6-0.9-6.1-2.7c-1.5-1.6-2.3-3.7-2.3-5.9c0-0.7,0.1-1.4,0.2-2.2c0.2-0.8,0.5-1.5,0.9-2.2c1.8-3.3,3.1-6.9,3.9-10.5
	c0.8-3.7,1.3-7.5,1.3-11.2c0-5-0.7-10-2-14.8c-1.6,4-2.9,8.1-3.9,12.2c-1.2,4.7-2.3,9.6-3.3,14.7c-1,5.1-1.9,10.3-2.7,15.5
	c-0.8,5.2-1.5,10.1-2,14.8c1-0.3,2-0.7,2.9-1.2c1-0.5,2-1,2.9-1.5c0.9-0.5,1.8-0.9,2.7-1.3c0.8-0.4,1.7-0.5,2.6-0.6
	c1.9,0,3.7,0.8,5.1,2.2c1.5,1.3,2.3,3.2,2.3,5.2c0,1.9-0.8,3.7-2.2,5c-1.6,1.5-3.4,2.8-5.4,3.7c-2.1,1-4.3,1.9-6.6,2.5
	c-2,0.6-4,1-6,1.3c-0.5,4.5-0.9,8.9-1.2,13.2s-0.5,8.7-0.5,13.2c0,2.9-0.9,5-2.7,6.4c-1.6,1.4-3.7,2.1-5.8,2.1
	c-2.2,0-4.3-0.8-5.8-2.3c-1.8-1.5-2.7-4.1-2.7-7.6c0-4.5,0.2-9.1,0.5-13.8c0.4-4.7,0.8-9.3,1.2-13.7c-2.3-0.9-4.4-2.1-6.4-3.6
	c-1.6-1.2-2.4-3.1-2.4-5.1c0-1.9,0.7-3.7,2-5.2c1.2-1.6,3.1-2.4,5.1-2.4c0.6,0,1.1,0,1.7,0.1C818,494.8,818.6,495.1,819.1,495.4z"/>
<path class="st1" d="M932.4,495.8l2.4-3.4c0.8-1.2,1.8-2.3,2.7-3.4c0.9-1,1.9-1.9,3-2.6c1-0.7,2.2-1,3.4-1c2.4,0,4.6,0.9,6.2,2.6
	c1.6,1.5,2.5,3.6,2.6,5.9c-0.1,1.5-0.5,2.9-1.3,4.1c-0.9,1.7-1.9,3.4-3,5c-1.2,1.7-2.5,3.4-3.8,5c-1.4,1.6-2.7,3-3.8,4.2
	c-1.1,1.2-2.3,2.4-3.5,3.7c-1.3,1.3-2.7,2.6-4.1,3.8c-1.3,1.1-2.7,2.1-4.3,2.9c-1.2,0.7-2.6,1.1-4,1.2c-1.8,0.1-3.5-0.4-5-1.5
	c-1.3-1.1-2.2-2.5-2.7-4.1c-0.7-2-1.1-4.2-1.2-6.3c-0.2-2.4-0.4-5.1-0.5-8.1c-2.7,3.5-4.9,6.4-6.6,8.7c-1.4,1.9-2.9,3.6-4.5,5.3
	c-1,1.1-2.2,2-3.5,2.7c-1,0.5-2.1,0.8-3.2,0.8c-1.9,0.1-3.8-0.5-5.2-1.8c-1.3-1.2-2.3-2.8-2.9-4.5c-0.7-1.9-1.1-4-1.2-6
	c-0.1-2.2-0.2-4.3-0.2-6.2L876.4,520c-0.8,1.3-1.8,2.3-3.1,3.1c-3.2,1.9-7.2,1.5-10-1c-1.4-1.5-2.4-3.3-3-5.2
	c-0.7-2.1-1-4.3-1.1-6.6c-0.1-2.3-0.1-4.3-0.1-6c0-8,1.2-16,3.7-23.7c2.4-7.5,5.5-14.9,9-22c0.7-1.4,1.8-2.5,3.2-3.1
	c1.3-0.7,2.7-1,4.2-1c2.3,0,4.4,0.8,6.1,2.4c1.8,1.7,2.7,4,2.6,6.4v1c0,0.4-0.1,0.8-0.3,1.1c-1.7,3.3-3.2,6.6-4.5,9.9
	c-1.4,3.3-2.6,6.7-3.7,10.2l13.7-20.2c0.9-1.3,2-2.3,3.3-3.1c1.3-0.7,2.7-1.1,4.2-1.1c4.5,0.2,8.1,3.9,8.4,8.4v1.2
	c0,0.4-0.1,0.8-0.3,1.2c-0.9,2.5-1.6,5.1-2,7.8c-0.4,2.6-0.6,5.3-0.6,7.9c2.2-3,4.3-5.9,6.1-8.9s3.7-6,5.6-9.3
	c0.7-1.3,1.8-2.3,3.1-3.1c1.3-0.7,2.7-1.1,4.2-1.1c2.2,0,4.2,0.8,5.9,2.2c1.8,1.4,2.9,3.6,2.8,5.9c-0.5,3.9-0.8,7.7-1,11.4
	S932.4,492.1,932.4,495.8z"/>
</svg>
