<?xml version="1.0" encoding="utf-8"?>
<!-- Generator: Adobe Illustrator 21.0.2, SVG Export Plug-In . SVG Version: 6.00 Build 0)  -->
<svg version="1.1" id="Capa_1" xmlns="http://www.w3.org/2000/svg" xmlns:xlink="http://www.w3.org/1999/xlink" x="0px" y="0px"
	 viewBox="0 0 1000 1000" style="enable-background:new 0 0 1000 1000;" xml:space="preserve">
<style type="text/css">
	.st0{fill:#33CC33;}
	.st1{fill:#E4202D;}
	.st2{fill:#134318;}
	.st3{fill:#373135;}
</style>
<title>Mesa de trabajo 1</title>
<rect x="-2.2" y="-3" class="st0" width="1001.9" height="1003.7"/>
<g id="LOGO">
	<path class="st1" d="M201.8,500.4v-35h-32.4c-2.7,3-5.8,6-9.1,9c-3.5,3.2-7.3,6.1-11.2,8.6c-4.6,3-8.7,4.4-12.6,4.4
		c-1.3,0-7.1-0.4-9-7.6c-1,0.9-2,1.7-3,2.4c-2.3,1.8-4.9,3.3-7.6,4.6c-1.7,0.8-3.5,1.2-5.4,1.2c-0.8,0-1.6-0.1-2.3-0.3v108.5h37.9
		v-47.8h44V515h-44v-14.6H201.8z"/>
	<path class="st1" d="M269.4,558.4v37.9H204V465.4h37.9v93H269.4z"/>
	<path class="st1" d="M354.9,465.4l40.4,130.9h-37.9l-4.1-15.5h-39.5l-4,15.5h-37.9l40.4-130.9H354.9z M341,544.1l-7.4-30.1
		l-7.6,30.1H341z"/>
	<path class="st1" d="M522.8,465.4v130.9h-37.9v-67.7l-24,32l-23.6-32v67.7h-37.9V465.4h37.9l23.6,31.8l24-31.8H522.8z"/>
	<path class="st1" d="M615.7,558.4v37.9h-90.8V465.4h90.8v37.9h-52.9V515H607v31.8h-44.2v11.5L615.7,558.4z"/>
	<path class="st1" d="M715.3,465.4v130.9h-36.1L653.3,549v47.3h-35.2V465.4H654l22.8,51.4v-51.4H715.3z"/>
	<path class="st1" d="M843.3,569.8c-1.8,2.6-3.7,5-5.8,7.4c-1.6,1.9-3.3,3.8-5.1,5.5c-6.6,5.6-14.1,10-22.2,13.1
		c-7.9,3-16.4,4.6-24.9,4.6c-9.6,0-19-2.1-27.8-6c-9.1-4-17.3-9.7-24.2-16.8c-5.8-6.4-10.4-13.7-13.5-21.8
		c-10.2-26.4-2.9-56.5,18.4-75.2c6.6-5.7,14.1-10.2,22.2-13.3c7.8-3,16.1-4.6,24.4-4.6c9.9,0,19.7,2.2,28.7,6.4
		c9.7,4.4,18.4,10.8,25.5,18.8l-31.7,27.8c-3.1-3.4-6.8-6.1-10.9-8.1c-3.6-1.7-7.6-2.7-11.6-2.7c-6.5,0-12.6,2.4-18.3,7.1
		c-2.8,2.5-5,5.5-6.5,8.9c-1.5,3.3-2.2,6.9-2.2,10.6c0,3.2,0.6,6.4,1.7,9.4c1.2,3.3,3.1,6.2,5.5,8.7c2.6,3,5.8,5.4,9.5,6.9
		c3.4,1.5,7.1,2.2,10.8,2.2c3.3,0,6.5-0.6,9.6-1.7c3.2-1.2,6.2-3,8.7-5.4c1.1-0.8,2-1.7,2.8-2.8c0.9-1,1.6-2.1,2.3-3.3L843.3,569.8z
		"/>
	<path class="st2" d="M938,531.7l-20.2-65.2h-42.5l-20.2,65.2L835,596.9h37.8l2-7.7l2-7.7h39.4l2.1,7.7l2.1,7.7h37.8L938,531.7z
		 M920.7,533.1c-0.2,0.5-1,2.2-1.6,3.7s-1.2,3.1-1.1,3.3c0.2,0.2,0.5,0.4,0.8,0.5c0.3,0.2,0.5,0.4,0.4,0.8c-0.1,0.3-0.3,0.6-0.5,0.8
		c-0.3,0.2-0.4,0.5-0.5,0.8c0,0.4-0.2,0.7-0.3,1.1c-0.2,0.4-0.4,0.7-0.7,0.9c-0.4,0.3-0.7,0.6-1.1,0.8c-0.8,0.5-1.4,1.2-1.9,2
		c-0.2,0.4-0.5,0.8-0.8,1.2c-0.4,0.5-1,1-1.5,1.4c-0.6,0.5-1.3,0.9-1.8,1.2s-0.9,0.7-1.4,1c-0.4,0.3-0.8,0.5-1.2,0.7
		c-0.3,0.1-0.7,0.1-1,0s-0.5-0.1-0.8,0.1c-0.2,0.2-0.4,0.5-0.8,0.8c-0.3,0.3-0.7,0.5-1.1,0.5c-0.4,0-1.5-0.2-2.8-0.3
		c-1.1-0.2-2.3-0.2-3.4-0.2l-3.3,0.2c-1.3,0.1-2.8,0.2-4.4,0.2c-1.1,0.1-2.2,0-3.3-0.2c-0.8-0.2-1.6-0.3-2.5-0.3c-1,0-2.7,0-4.1,0.1
		l-2.5,0.1c-0.2-0.3-0.4-0.5-0.7-0.7c-0.3-0.4-0.8-0.6-1.3-0.7c-0.4,0-0.5,0.3-0.6,0.6s-0.1,0.5-0.4,0.5h-4.2
		c-0.1-0.2-0.1-0.5,0-0.7c0.1-0.3,0.4-0.7,1.2-0.8c0.6-0.1,1.2-0.2,1.7-0.4c0.2-0.1,0.3-0.2,0.5-0.3c-0.2,0-0.3-0.1-0.4-0.2
		c-0.2-0.1-0.3-0.2-0.2-0.3s1.6-1.8,3.2-3.8c1.4-1.7,2.7-3.6,3.8-5.5c0.5-1.1,0.9-2.3,1-3.5c0.3-1.7,0.7-3.4,1.5-5
		c1-2.2,2.4-4.9,3.7-7.2c1-1.7,1.9-3.5,2.7-5.3c0.1-0.7,0.2-1.5,0.2-2.2c0-1.1,0-2.2-0.2-3.3c-0.1-0.9-0.3-1.9-0.6-2.8
		c-0.2-0.7-0.2-1.5,0.1-2.2c0.6-0.8,1.2-1.6,2-2.2c0.7-0.6,1.3-1.3,1.7-2.1c0.1-1.5,0-3.1-0.2-4.6c-0.2-2-0.5-3.9-0.6-4.5
		s-0.1-1.1,0-1.7c0-0.3,0.1-0.6,0.1-0.8l-0.2-0.1c-0.1-0.1-0.3-0.1-0.4-0.2c-0.2,0-0.3-0.2-0.3-0.3c0-0.2,0.1-0.3,0.4-0.3h1.3
		l0.2-0.3l0.2-0.3l-0.8-0.4l-0.8-0.4c0-0.1,0-0.2,0.1-0.3c0.1-0.1,0.2-0.3,0.3-0.3h0.7l0.2-0.2c0.1-0.1,0.2-0.1,0.3-0.1l0.4,0.2
		l0.2,0.1c0-0.1,0.1-0.1,0.1-0.2c0.1-0.1,0.1-0.3,0-0.5s-0.1-0.4,0-0.5s0.2-0.2,0.3,0s0.4,0.6,0.7,1.1c0.2,0.3,0.4,0.7,0.5,1.1v0.6
		c0,0.2,0,0.4,0,0.7c-0.2,0.4-0.4,0.8-0.7,1.1c-0.3,0.4-0.5,0.8-0.7,1.3c0,0.6,0.2,1.1,0.3,1.7c0.2,0.7,0.4,1.3,0.4,1.5
		c0.1,0.2,0.2,0.4,0.4,0.5c0.1,0.1,0.3,0.1,0.5,0c0.2-0.4,0.5-0.8,0.8-1.1c0.7-0.6,1.7-0.9,2.6-0.8c0.9-0.1,1.8,0.3,2.4,1
		c0.2,0.4,0.4,0.8,0.5,1.2c0.1,0.3,0.1,0.7,0,1c-0.1,0.4-0.1,0.8-0.1,1.1c0,0.2-0.1,0.5-0.2,0.7c-0.1,0.2-0.2,0.3-0.3,0.5
		c0,0.2,0,0.4,0,0.5c0,0.2,0,0.4,0,0.6c-0.1,0.3-0.3,0.6-0.5,0.8c-0.3,0.3-0.4,0.6-0.5,0.9c0,0.3,0.1,0.5,0.3,0.7s0.5,0.5,0.8,0.7
		s0.6,0.4,1,0.5s0.8,0.3,1.2,0.5c0.4,0.3,0.9,0.6,1.2,0.9c0.4,0.4,0.9,0.8,1.4,1.1c0.5,0.3,0.9,0.5,1.2,0.7c0.4,0.2,0.7,0.5,1.1,0.7
		c0.4,0.3,0.8,0.6,1.2,1c0.3,0.2,0.5,0.5,0.7,0.8c0.2,0.9,0.3,1.9,0.3,2.8c0.1,1.3,0.1,2.6,0.1,2.7s-0.1,0.4-0.2,0.7
		c-0.1,0.2-0.2,0.5-0.3,0.7l-1.5,1.4l-1.3,1.3c-0.1,0-0.2,0.1-0.3,0.1c-0.2,0-0.3,0-0.3-0.2s0-0.7,0-1.2v-0.9l-0.5-0.1
		c-0.3-0.1-0.5-0.1-0.8-0.2c-0.2,0-0.3-0.1-0.4-0.3c-0.1-0.1,0-0.2,0.2-0.2h0.7c0.2,0,0.4,0,0.7,0c0.2,0,0.5-0.1,0.7-0.2
		c0.1-0.1,0.2-0.1,0.3-0.2c-0.1,0-0.2,0-0.3-0.1c-0.1,0-0.2-0.1-0.1-0.3c0.2-0.1,0.5-0.2,0.8-0.2c0.2,0,0.5,0,0.7-0.2
		c0.1-0.7,0.1-1.3,0-2c0-0.8-0.3-1.5-0.7-2.2c-0.3-0.2-0.9-0.6-1.6-1c-0.6-0.4-1.2-0.7-1.8-1c-0.5-0.2-0.8-0.5-1.4-0.7
		c-0.7-0.3-1.5-0.3-2.3-0.1c-1.1,0.3-2.1,0.8-2.9,1.6c-0.7,0.5-1.1,1.3-1.3,2.1c0.1,1.1,0.3,2.2,0.6,3.3c0.3,1.4,0.7,2.7,0.8,3.2
		c0.2,0.4,0.4,0.7,0.7,1l1.2,1.6c0.5,0.6,1.1,1.5,1.6,2.1s1,1,1.3,1c0.4-0.1,0.8-0.3,1.1-0.6c0.5-0.5,1.2-1,1.9-1.3s1.4-0.5,2.1-0.7
		c0.7-0.2,1.5-0.4,2.2-0.7c1-0.4,1.9-0.8,2.9-1.1c0.6-0.2,1.3-0.3,1.9-0.2c0.7,0.3,1.3,0.7,1.7,1.3c0.4,0.5,0.8,1,1.3,1.4
		c0.4,0.3,0.9,0.7,1.3,0.9c0.4,0.3,0.8,0.6,1.2,1c0.4,0.7,0.6,1.5,0.5,2.3C921,531.6,920.9,532.4,920.7,533.1L920.7,533.1z"/>
	<path class="st1" d="M938,531.7l-20.2-65.2h-42.5l-20.2,65.2L835,596.9h37.8l2-7.7l2-7.7h39.4l2.1,7.7l2.1,7.7h37.8L938,531.7z
		 M920.7,533.1c-0.2,0.5-1,2.2-1.6,3.7s-1.2,3.1-1.1,3.3c0.2,0.2,0.5,0.4,0.8,0.5c0.3,0.2,0.5,0.4,0.4,0.8c-0.1,0.3-0.3,0.6-0.5,0.8
		c-0.3,0.2-0.4,0.5-0.5,0.8c0,0.4-0.2,0.7-0.3,1.1c-0.2,0.4-0.4,0.7-0.7,0.9c-0.4,0.3-0.7,0.6-1.1,0.8c-0.8,0.5-1.4,1.2-1.9,2
		c-0.2,0.4-0.5,0.8-0.8,1.2c-0.4,0.5-1,1-1.5,1.4c-0.6,0.5-1.3,0.9-1.8,1.2s-0.9,0.7-1.4,1c-0.4,0.3-0.8,0.5-1.2,0.7
		c-0.3,0.1-0.7,0.1-1,0s-0.5-0.1-0.8,0.1c-0.2,0.2-0.4,0.5-0.8,0.8c-0.3,0.3-0.7,0.5-1.1,0.5c-0.4,0-1.5-0.2-2.8-0.3
		c-1.1-0.2-2.3-0.2-3.4-0.2l-3.3,0.2c-1.3,0.1-2.8,0.2-4.4,0.2c-1.1,0.1-2.2,0-3.3-0.2c-0.8-0.2-1.6-0.3-2.5-0.3c-1,0-2.7,0-4.1,0.1
		l-2.5,0.1c-0.2-0.3-0.4-0.5-0.7-0.7c-0.3-0.4-0.8-0.6-1.3-0.7c-0.4,0-0.5,0.3-0.6,0.6s-0.1,0.5-0.4,0.5h-4.2
		c-0.1-0.2-0.1-0.5,0-0.7c0.1-0.3,0.4-0.7,1.2-0.8c0.6-0.1,1.2-0.2,1.7-0.4c0.2-0.1,0.3-0.2,0.5-0.3c-0.2,0-0.3-0.1-0.4-0.2
		c-0.2-0.1-0.3-0.2-0.2-0.3s1.6-1.8,3.2-3.8c1.4-1.7,2.7-3.6,3.8-5.5c0.5-1.1,0.9-2.3,1-3.5c0.3-1.7,0.7-3.4,1.5-5
		c1-2.2,2.4-4.9,3.7-7.2c1-1.7,1.9-3.5,2.7-5.3c0.1-0.7,0.2-1.5,0.2-2.2c0-1.1,0-2.2-0.2-3.3c-0.1-0.9-0.3-1.9-0.6-2.8
		c-0.2-0.7-0.2-1.5,0.1-2.2c0.6-0.8,1.2-1.6,2-2.2c0.7-0.6,1.3-1.3,1.7-2.1c0.1-1.5,0-3.1-0.2-4.6c-0.2-2-0.5-3.9-0.6-4.5
		s-0.1-1.1,0-1.7c0-0.3,0.1-0.6,0.1-0.8l-0.2-0.1c-0.1-0.1-0.3-0.1-0.4-0.2c-0.2,0-0.3-0.2-0.3-0.3c0-0.2,0.1-0.3,0.4-0.3h1.3
		l0.2-0.3l0.2-0.3l-0.8-0.4l-0.8-0.4c0-0.1,0-0.2,0.1-0.3c0.1-0.1,0.2-0.3,0.3-0.3h0.7l0.2-0.2c0.1-0.1,0.2-0.1,0.3-0.1l0.4,0.2
		l0.2,0.1c0-0.1,0.1-0.1,0.1-0.2c0.1-0.1,0.1-0.3,0-0.5s-0.1-0.4,0-0.5s0.2-0.2,0.3,0s0.4,0.6,0.7,1.1c0.2,0.3,0.4,0.7,0.5,1.1v0.6
		c0,0.2,0,0.4,0,0.7c-0.2,0.4-0.4,0.8-0.7,1.1c-0.3,0.4-0.5,0.8-0.7,1.3c0,0.6,0.2,1.1,0.3,1.7c0.2,0.7,0.4,1.3,0.4,1.5
		c0.1,0.2,0.2,0.4,0.4,0.5c0.1,0.1,0.3,0.1,0.5,0c0.2-0.4,0.5-0.8,0.8-1.1c0.7-0.6,1.7-0.9,2.6-0.8c0.9-0.1,1.8,0.3,2.4,1
		c0.2,0.4,0.4,0.8,0.5,1.2c0.1,0.3,0.1,0.7,0,1c-0.1,0.4-0.1,0.8-0.1,1.1c0,0.2-0.1,0.5-0.2,0.7c-0.1,0.2-0.2,0.3-0.3,0.5
		c0,0.2,0,0.4,0,0.5c0,0.2,0,0.4,0,0.6c-0.1,0.3-0.3,0.6-0.5,0.8c-0.3,0.3-0.4,0.6-0.5,0.9c0,0.3,0.1,0.5,0.3,0.7s0.5,0.5,0.8,0.7
		s0.6,0.4,1,0.5s0.8,0.3,1.2,0.5c0.4,0.3,0.9,0.6,1.2,0.9c0.4,0.4,0.9,0.8,1.4,1.1c0.5,0.3,0.9,0.5,1.2,0.7c0.4,0.2,0.7,0.5,1.1,0.7
		c0.4,0.3,0.8,0.6,1.2,1c0.3,0.2,0.5,0.5,0.7,0.8c0.2,0.9,0.3,1.9,0.3,2.8c0.1,1.3,0.1,2.6,0.1,2.7s-0.1,0.4-0.2,0.7
		c-0.1,0.2-0.2,0.5-0.3,0.7l-1.5,1.4l-1.3,1.3c-0.1,0-0.2,0.1-0.3,0.1c-0.2,0-0.3,0-0.3-0.2s0-0.7,0-1.2v-0.9l-0.5-0.1
		c-0.3-0.1-0.5-0.1-0.8-0.2c-0.2,0-0.3-0.1-0.4-0.3c-0.1-0.1,0-0.2,0.2-0.2h0.7c0.2,0,0.4,0,0.7,0c0.2,0,0.5-0.1,0.7-0.2
		c0.1-0.1,0.2-0.1,0.3-0.2c-0.1,0-0.2,0-0.3-0.1c-0.1,0-0.2-0.1-0.1-0.3c0.2-0.1,0.5-0.2,0.8-0.2c0.2,0,0.5,0,0.7-0.2
		c0.1-0.7,0.1-1.3,0-2c0-0.8-0.3-1.5-0.7-2.2c-0.3-0.2-0.9-0.6-1.6-1c-0.6-0.4-1.2-0.7-1.8-1c-0.5-0.2-0.8-0.5-1.4-0.7
		c-0.7-0.3-1.5-0.3-2.3-0.1c-1.1,0.3-2.1,0.8-2.9,1.6c-0.7,0.5-1.1,1.3-1.3,2.1c0.1,1.1,0.3,2.2,0.6,3.3c0.3,1.4,0.7,2.7,0.8,3.2
		c0.2,0.4,0.4,0.7,0.7,1l1.2,1.6c0.5,0.6,1.1,1.5,1.6,2.1s1,1,1.3,1c0.4-0.1,0.8-0.3,1.1-0.6c0.5-0.5,1.2-1,1.9-1.3s1.4-0.5,2.1-0.7
		c0.7-0.2,1.5-0.4,2.2-0.7c1-0.4,1.9-0.8,2.9-1.1c0.6-0.2,1.3-0.3,1.9-0.2c0.7,0.3,1.3,0.7,1.7,1.3c0.4,0.5,0.8,1,1.3,1.4
		c0.4,0.3,0.9,0.7,1.3,0.9c0.4,0.3,0.8,0.6,1.2,1c0.4,0.7,0.6,1.5,0.5,2.3C921,531.6,920.9,532.4,920.7,533.1L920.7,533.1z"/>
	<g>
		<path class="st3" d="M44.5,480.5c1.4-7.8,3.4-15.5,6-22.9s5.7-14.7,9.2-21.7c3.4-6.8,7.1-13.4,11.2-19.8c4-6.2,8-11.8,11.9-16.9
			c3.6-4.6,7.5-9.1,11.6-13.3c3.1-3.3,6.5-6.3,10.1-9.1c2-1.4,4.2-2.5,6.6-3.2s4.8-1.2,7.3-1.4c2.2-0.2,4.3-0.1,6.4,0.3
			c1.9,0.4,3.2,1.1,3.8,2.1s0.5,2.2-0.5,3.7s-3.1,3.2-6.4,5.1c-7.1,4.3-13.6,9.5-19.4,15.4c-6.3,6.3-12.1,13-17.4,20.2
			c-5.2,7.2-10,14.7-14.3,22.5c-3.9,7.1-7.5,14.4-10.5,21.9c1.9-1.6,3.9-2.9,6.1-4c1.7-0.9,3.7-1.4,5.6-1.4c1.8,0,3.6,0.6,5.1,1.7
			s2.8,2.3,4.1,3.7c1.2,1.3,2.4,2.6,3.5,3.7c0.9,1,2.2,1.6,3.6,1.7c2.2,0,4.4-0.5,6.4-1.4c2.3-1,4.5-2.2,6.4-3.7
			c2-1.5,4-3.2,5.8-4.9c1.6-1.6,3.2-3.2,4.6-5c1-1.3,2.2-2.4,3.6-3.3c0.8-0.5,1.8-0.7,2.7-0.6c0.7,0.2,1,0.8,1,1.8
			c-0.2,1.4-0.7,2.8-1.6,4c-1.7,2.5-3.6,4.9-5.7,7.2c-2.9,3.2-6,6.3-9.2,9.2c-3.2,3-6.7,5.6-10.4,8c-3.6,2.3-6.7,3.4-9.3,3.4
			c-3.4,0-5.9-0.8-7.4-2.4c-1.5-1.5-2.7-3.3-3.6-5.2c-0.8-1.7-1.5-3.4-2.1-5.2c-0.5-1.6-1.4-2.4-2.7-2.4c-1.4,0-3.1,0.8-5.1,2.5
			c-2,1.6-3.9,3.4-5.7,5.2c-0.8,2.4-2,4.6-3.7,6.5c-1.1,1.4-2.6,2.6-4.2,3.4c-1.3,0.5-2.4,0.4-3.1-0.3S44,482.9,44.5,480.5z"/>
		<path class="st3" d="M165.5,453.4c1-1.3,2.2-2.4,3.6-3.3c0.8-0.5,1.8-0.7,2.7-0.6c0.7,0.2,1,0.8,1,1.8c-0.2,1.4-0.7,2.8-1.6,4
			c-1.7,2.5-3.6,4.9-5.7,7.2c-2.9,3.2-6,6.3-9.2,9.2c-3.2,3-6.7,5.6-10.4,8c-3.6,2.3-6.7,3.4-9.3,3.4c-2,0-3.1-1.7-3.4-5.1
			c-0.2-4.2,0.5-8.4,1.8-12.4c-2.2,2.5-4.6,5-7,7.4c-2.2,2.2-4.5,4.2-7,6.1c-1.9,1.5-4,2.8-6.3,3.8c-2,0.8-3.6,1-4.9,0.3
			c-1.6-0.7-2.6-2.5-3-5.3c-0.4-3.3-0.3-6.7,0.3-10c0.8-4.3,2-8.6,3.6-12.7c1.8-4.7,4-9.1,6.6-13.4c2.4-3.9,5.2-7.6,8.3-11
			c2.9-3.2,6.1-6.1,9.7-8.5c3.2-2.2,6.7-3.8,10.4-4.9c3.3-1,6.8-0.9,10,0.2c2.5,0.7,4.6,2.5,5.7,4.9c0.9,2.1,1.1,4.4,0.5,6.6
			c-0.6,2.1-1.9,4-3.7,5.3c-2,1.4-4.5,1.8-6.8,1c0.2-1.3,0.2-2.7,0-4c-0.2-1.2-1.1-2.1-2.2-2.4c-1.7-0.5-3.6-0.4-5.3,0.2
			c-2.1,0.8-4,1.9-5.8,3.2c-2.1,1.5-4,3.3-5.7,5.3c-1.9,2.1-3.6,4.3-5.2,6.6c-1.5,2.2-2.7,4.5-3.8,6.9c-1,2.2-1.8,4.4-2.4,6.8
			c-0.5,1.8-0.7,3.6-0.7,5.4c0.1,1.5,0.5,2.4,1.3,2.9c1,0.4,2.3,0.2,3.9-0.8c2-1.2,3.8-2.6,5.5-4.1c2.2-2,4.4-4.2,6.4-6.5
			c2.2-2.5,4.3-5,6.4-7.6l1.9-2.5c0.7-0.8,1.4-1.7,2.1-2.5c0.5-0.4,1.2-0.6,1.8-0.6c1-0.1,1.9-0.1,2.9,0c0.9,0.1,1.8,0.3,2.6,0.6
			c0.7,0.3,1.1,0.5,1,0.7c-1.2,2-2.4,4.2-3.6,6.7c-1.2,2.5-2.3,4.8-3.2,6.9c-0.8,1.9-1.5,3.8-2,5.7c-0.4,1.6-0.4,2.7,0,3.3
			c0.5,0.5,1.5,0.5,3-0.1c1.8-0.7,3.4-1.7,5-2.8c1.9-1.3,3.8-2.8,5.6-4.4C162.5,456.8,164.1,455.1,165.5,453.4z"/>
	</g>
</g>
</svg>
