<?xml version="1.0" encoding="utf-8"?>
<!-- Generator: Adobe Illustrator 21.0.2, SVG Export Plug-In . SVG Version: 6.00 Build 0)  -->
<svg version="1.1" id="Capa_1" xmlns="http://www.w3.org/2000/svg" xmlns:xlink="http://www.w3.org/1999/xlink" x="0px" y="0px"
	 viewBox="0 0 1000 1000" style="enable-background:new 0 0 1000 1000;" xml:space="preserve">
<style type="text/css">
	.st0{fill:#9900CC;}
	.st1{fill:#FF6699;}
	.st2{fill:#FFFFFF;}
</style>
<title>Mesa de trabajo 1</title>
<rect x="0.7" y="1.1" class="st0" width="998.7" height="998.7"/>
<path class="st1" d="M33.3,593.6c0.1-1,0.1-2.1,0.2-3.1c0.2-5.5,0.4-11.1,0.6-16.6c0-0.3,0-0.6,0-0.9c0.2-4.6,0.5-9.1,0.7-13.7
	c0.2-5.6,0.4-11.2,0.6-16.9c0-0.2,0-0.5,0-0.7c0.2-4.9,0.5-9.7,0.7-14.6c0.2-5.4,0.4-10.8,0.6-16.2c0-0.2,0-0.5,0-0.7
	c0.2-4.7,0.5-9.3,0.7-13.9c0.1-3.1,0.3-6.1,0.4-9.2c0.2-4.3,0.3-8.7,0.5-13c0.2-5.2,0.4-10.5,0.5-15.7c0-0.1,0-0.3,0-0.5
	c0.2-4.6,0.5-9.1,0.7-13.7c0.2-5.5,0.4-11.1,0.6-16.6c0-0.4,0.1-0.9,0.2-1.3c1.7-0.5,3.5-0.8,5.3-0.9l40.6,0.1
	c0.6,0,1.2,0.1,1.7,0.1c0.3,0.7,0.4,1.5,0.3,2.3c-0.2,5.7-0.5,11.4-0.8,17.1c-0.3,6.5-0.6,13-0.9,19.6c-0.2,5.1-0.4,10.2-0.6,15.3
	c-0.2,4-0.4,7.9-0.6,11.9c0,0.6-2.1,46-2.1,46.3c-0.3,7.6-0.7,15.1-1,22.7c0,0.3,0.1,0.6,0.2,0.9c0.8,0.2,1.6,0.3,2.4,0.2
	c17.7,0.1,35.5,0.1,53.2,0.2c3,0,6.1,0.2,9.1,0.2c1.1,0,2.1,0.2,3.1,0.7c-0.7,13.8-1.4,27.6-2.1,41.3c0,0.3-0.1,0.6-0.2,0.9
	c-1.1,0.3-2.2,0.3-3.3,0.2c-24.8,0-49.7-0.1-74.5-0.2c-10.6,0-26.8-0.2-37.4-0.2"/>
<path class="st1" d="M160.8,527.2c1.6-2.2,7-6.3,7.7-6.9c2.3-1.9,4.9-3.4,7.4-5.1c3.4-2.4,7.2-3.5,11.1-4.5c1.6-0.4,3.3-0.5,4.9-0.9
	c2.4-0.4,4.9-0.6,7.3-0.5c0.3,0,0.7,0,1.1,0c3.1-0.2,5.2-0.4,7.9-0.5c6.4,0,12.9,0,19.3,0c0.9,0.2,1.9,0,2.7-0.4
	c0.1-0.5,0.2-0.9,0.2-1.4c0.2-3.4-0.4-6.9-1.6-10.1c-1-2.6-2.7-4.8-4.9-6.4c-3.4-2.5-3.4-2.7-7-3.4c-3.4-0.8-7-1-10.4-0.5
	c-6.1,1-11.3,3.8-16,7.6c-1.1,1-2.1,2-3.1,3.1c-0.4-0.3-0.8-0.6-1.2-1c-8.3-8.9-16.6-17.8-24.9-26.7c-0.5-0.6-1-1.2-1.4-1.8
	c0.1-0.3,0.3-0.6,0.4-0.8c4.8-5.3,10.4-9.8,16.6-13.3c3.5-1.9,7.3-3.3,11.1-4.2c6.5-1.5,13.2-2.3,19.9-2.5c5-0.2,10,0,15,0.5
	c8.9,0.8,17.6,2.7,25.6,6.9c6.7,3.4,12.4,8.4,16.7,14.6c1.5,2.1,2.9,4.4,4,6.8c2,4.4,3.3,9.1,4.1,13.9c1.1,6.3,1.1,12.6,1.2,19
	c0.2,14,0.3,28,0.5,42c0.2,15.5,0.4,31,0.6,46.5c0,0.9,0.1,1.8,0.1,2.6c0.1,1.2,0,2.4-0.3,3.5c-0.6,0.1-1.2,0.2-1.7,0.3
	c-4.9,0.1-9.9,0.1-14.8,0.2c-7.8,0-15.5,0-23.3,0c-1,0-1.9-0.1-3-0.1c-0.1-0.5-0.2-1.1-0.3-1.6c-0.1-2.5-0.1-4.9-0.2-7.4
	c0-0.7-0.1-1.3-0.2-2.2c-1.4,0.6-2,1.7-3,2.4c-10.8,9.2-26.2,10.7-26.5,10.7c-0.6-0.1-1.2-0.1-1.8-0.1c-1.6,0.1-3.2-0.1-4.7-0.5
	c-0.4-0.1-0.9-0.1-1.3-0.1c-6.8-0.4-13.4-2.4-19.2-5.9c-7.6-4.5-12.9-11.1-16.7-19c-1.9-3.8-3.3-7.8-4.1-12
	c-1.4-7.9-2-15.9-0.4-23.9c0.2-0.8,1.6-9.3,4.1-13.8 M230.6,541.1c-1.1,0-2-0.1-2.8-0.1c-4.1,0-8.1,0.1-12.2,0.1
	c-3.1-0.1-6.2,0.1-9.2,0.4c-1.9,0.1-3.8,0.7-5.6,1.6c-1.8,1-2.4,3-3.7,4.3c-0.3,0.4-0.5,0.9-0.6,1.5c-0.7,2.7-0.7,5.6,0,8.4
	c0.7,3.1,2.9,5.8,5.9,7c2.5,1.1,5.1,1,7.7,1.4c1.3,0.2,2.8-0.3,4.1-0.4c2.4-0.2,4.5-1.4,6.9-1.5c0.2,0,0.3-0.1,0.5-0.1
	c0.3-0.1,0.6-0.3,0.9-0.5c3.5-1.7,6-4.8,7-8.5C231,550.3,231,546,230.6,541.1L230.6,541.1z"/>
<path class="st1" d="M855.7,466c0.5,0.6,1,1.1,1.5,1.7c7.1,7.8,14.2,15.7,21.3,23.5c0.8,0.9,1.2,1.3,1.5,1.6c1-1.4,2.4-2.6,4-3.4
	c1.6-0.9,3.3-1.7,5-2.4c1.1-0.5,2.3-1,3.5-1.4l1.1-0.3c0.4-0.2,0.8-0.4,1.2-0.5c4-1.2,8.2-1.6,12.4-1.1c2.5,0.2,4.9,0.9,7.1,1.9
	c4,1.8,6.9,5.3,7.9,9.5c0.7,3.1,0.9,6.2,0.5,9.4c-1.5,0.8-3.1,1.1-4.7,1.1c-8.7,0-17.4,0-26.1,0.1c-0.9,0-1.9,0-2.8,0.1
	c-2.1,0.3-4.2,0.5-6.3,0.9c-4.2,0.8-8.2,2.1-12,4.1c-0.7,0.4-4.5,2.4-5.3,3l-6.3,5.5c-0.8,0.8-1.3,1.8-2.2,2.5
	c-1.5,1.4-2.7,3.1-3.7,4.9c-3.5,6.1-5.5,13-5.8,20.1c-0.4,5.9,0.1,11.8,1.3,17.5c2.3,10.1,6.8,18.8,15.3,25.1c4,3,8.5,5.3,13.4,6.8
	c3,0.8,6.1,1.4,9.3,1.7c5.3,0.6,10.8,0.3,16-0.9c1-0.2,2-0.3,2.8-0.6l6-2c4.3-2,8.6-7.4,11-9.3c0.1,1,0.2,1.6,0.2,2.3
	c0,2.5,0,5,0,7.4c0,0.6,0.1,1.2,0.3,1.8c1.1,0,2,0,2.9,0h35.1c1.1,0,2.2,0.1,3.3,0.1v-0.1l0.1-0.1c0.1-0.6-0.3-1.3,0.4-1.7
	c-0.1-0.5-0.2-1.1-0.2-1.6c-0.1-0.1-0.1-0.2-0.2-0.3c0-1.7-0.1-3.4,0-5.1c0.1-3.5,0.2-7,0.3-10.5l0.9-61.2l-0.4-18.5
	c-0.1-1.2-0.2-2.4-0.2-3.6c-0.2-6.2-1.3-12.4-3.4-18.3c-4.1-11.8-13.2-21.2-24.9-25.5c-7.6-2.9-15.7-4.6-23.9-4.8
	c-1.5,0-3.1,0-4.6-0.2c-4.3-0.2-8.5-0.1-12.8,0.3c-4.3,0.3-8.6,0.9-12.8,2c-5.1,1.3-10,3.4-14.5,6.2c-3.7,2.4-7.2,5.2-10.4,8.3
	c-0.7,0.7-1.4,1.2-2,1.9c-0.4,0.4-0.5,0.6-0.7,0.8 M965.3,544L965.3,544c0.1,0.5,0.1,1.1,0,2V544z M921.5,549
	c-1,3.8-3.6,7.1-7.2,8.8c-3.2,1.6-6.7,2.6-10.3,2.7c-1.9,0.2-3.9,0.2-5.9,0c-1.4-0.2-2.8-0.5-4.2-1c-3.2-1.3-5.4-4.2-5.8-7.5
	c-0.2-2.7-0.4-3-0.1-4.6c0-0.5,0.1-1,0.2-1.5c0-2.6,1.2-4,2.2-5.5c1.8-1.8,2.5-2.2,5.3-3.3c1-0.4,2-0.6,3-0.6c0.3,0,0.6,0,0.9,0h0.1
	c7.1-0.1,14.1-0.1,21.2-0.1c0.3,0,0.7,0.1,1,0.1c0.1,0.2,0.3,0.5,0.3,0.7c0.2,4-0.1,8-1,11.8L921.5,549z"/>
<path class="st2" d="M406.5,570c2.3-0.9,4.3-2.5,5.7-4.6c1.2-1.8,1.7-4,1.4-6.2c-0.1-1.3-0.5-2.5-1.1-3.7c-0.5-0.9-1.1-1.7-1.8-2.5
	c-2.9-3.3-5.1-1.7-6-1.4c-2.6,0.9-3.1,0-2.8-1.2c0.1-0.4,0.4-0.8,0.5-1.2c3-7.3,7.6-13.7,12-20.1c7.1-10.4,14.6-20.5,22.2-30.6
	c4.6-6.1,9.4-11.9,14.4-17.6c3-3.5,6.5-6.7,9.9-10c0.3-0.3,0.6-0.8,1.4-0.7c-0.1,1.4-0.5,2.8-1,4.1c-0.8,2.3-1.7,4.6-2.8,6.8
	c-4.5,8.9-9.1,17.8-13.7,26.6c-7.5,14.5-15.1,29-22.7,43.5c-0.6,1.1-1.1,2.1-1.7,3.2c0.2,0-8.5,16.2-8.5,16.3
	c-1.9,3.7-3.9,7.4-5.8,11.1c-1.9,3.6-3.3,7.5-4.1,11.5c-0.9,5.2,1.3,9.2,6.2,10.8c3.3,1,6.7,1.4,10.1,1.1c1.4-0.1,2.7-0.3,4.1-0.3
	c5.2-0.2,10.3-1.4,15.1-3.5c3.9-1.9,7.7-4.1,11.1-6.8c6.1-4.4,11.2-10.1,14.7-16.8c5.2-10.1,10.5-20.1,15.6-30.2
	c1.8-3.9,4.2-7.6,6.9-11c0.7-0.8,1.2-1.6,1.8-2.5c3.7-4.8,7.2-9.7,11-14.4c2.9-3.6,6.1-6.9,9-10.5c4.6-5.6,10-10.5,15.2-15.6
	c0.6-0.5,1.2-1,1.9-1.4c0,0.6-0.1,1.2-0.2,1.8c-0.8,2.4-1.6,4.9-2.6,7.2c-7.8,18-15.7,36-23.6,53.9c-1.2,2.7-2.5,5.5-3.5,8.2
	c-1.6,4.4-2.6,9-3,13.7c-0.4,3.9-0.1,7.9,0.9,11.7c1.1,5.2,4.7,9.5,9.6,11.6c2.2,0.9,4.6,1.5,6.9,1.6c4.1,0.2,8.2,0,12.2-0.6
	c4-0.6,8-1.8,11.6-3.7c5.1-2.5,9.9-5.4,14.3-8.8c6-4.5,11.7-9.4,17.2-14.6c6-5.7,11.3-12.1,16.9-18.2c1.8-1.9,3.4-4.1,4.7-6.3
	c0.3-0.5,1.4-4.6,0.6-5.5c-0.3-0.9-4.4-4.7-7.3-5.2c-1.3-0.2-5.3-0.5-9.4,3.2c-1.2,1-2.3,1.9-3.4,2.9s-2.4,2.2-3.6,3.2
	c-3.9,3.5-7.7,7-11.7,10.4c-2.8,2.5-5.7,4.9-8.8,6.9c-1.1,0.7-3.1,2.7-3.4,2.8c-0.3-0.3,3.7-6.6,7.7-14.2c2.8-5.1,5.9-10,9.2-14.8
	c1.1-1.5,2.1-3.1,3-4.8c2.7-5,5.3-10.1,7.9-15.2c6.5-12.7,17.2-41.5,17.6-42.7c0.5-1.8,0.8-3.6,1-5.4c0.7-3.2,0-13-0.2-13.2
	c0-0.7-0.1-1.4-0.2-2.1c-0.3-1.9-0.6-3.7-1.2-5.5c-1.1-3.5-3.8-6.2-7.3-7.4c-1.6-0.5-3.3-0.9-5-1.1c-5.2-0.5-10.4,0.2-15.3,2
	c-6.4,2.3-12.4,5.4-17.9,9.3c-5.1,3.5-9.9,7.3-14.5,11.4c-5.4,4.8-10.6,10-15.3,15.4c-1.1,1.3,0.3-1.7,2.4-4.6
	c3-4.1,6.3-14.9,7.8-20.1c1.3-4.5,1.5-19.7,0.9-20.2c-0.1-0.5-0.2-0.9-0.2-1.3c-0.2-1.8-0.3-3.6-0.6-5.3c-1-5.1-3.9-9.6-11-10.3
	c-3.9-0.3-7.9,0.2-11.6,1.4c-9.5,2.6-17.9,7.5-25.6,13.5c-5.7,4.4-11,9.1-16,14.3c-1,1-2.1,2-3.1,3c-3.1,2.9-5.8,6.2-8.6,9.4
	c-0.5,0.5,0.2-2.2,0.5-3.5c0.6-2.4,2-13.2,2.4-14.7c1.9-6.5,2.6-26.6,2.6-27.8c0-3.4-0.3-6.8-1.1-10.1c-2-8.5-7.2-14-16.3-15.5
	c-5.2-0.8-10.4-0.5-15.5,0.7c-7.9,1.8-15,5.5-21.8,9.8c-5,3.3-9.3,7.4-13.6,11.6c-4.2,4.2-8,8.6-11.7,13.2l-16,22.3
	c-2.7,4.9-5.1,9.9-7.2,15c-2.6,6.3-4.6,12.8-6.1,19.5c-1.8,7.6-2.7,15.5-2.9,23.3c-0.2,6.8,0.4,13.5,1.5,20.2
	c1.3,7.5,3.8,14.7,7.3,21.4c0.3,0.6,0.5,1.2,0.8,1.8c-0.4,0.9-0.8,1.6-1.2,2.4c-2.8,5.5-5.7,11.1-8.5,16.6c-3,5.7-5.5,11.5-7.8,17.5
	c-1.4,3.7-2.1,7.5-2.2,11.5c-0.2,4.6,3,8.7,7.5,9.7c1.2,0.3,2.5,0.5,3.8,0.5c3.2-0.1,6.5-0.4,9.7-0.5c3-0.1,5.9-0.6,8.8-1.5
	c6.6-1.9,12.7-5.1,18-9.4c1.5-1.2,3-2.5,4.3-4c3-3.4,5.7-7,8.1-10.8c1-1.6,2.1-3.1,3-4.7c0.5-1,1.5-1.7,2.6-1.6
	c1.3,0,2.5-0.1,3.8-0.2c1.5-0.1,3.1-0.3,4.6-0.7 M405,428.8c-0.8,3.2-1.9,6.4-3.4,9.4c-12.8,25.4-25.7,50.9-38.5,76.3
	c-1.9,3.8-3.9,7.6-5.9,11.4c-0.5,1-1.1,1.9-1.8,2.8c-0.7,0.9-1.5,0.8-1.9-0.2c-1.5-3.6-2.5-7.5-2.8-11.4c-0.3-2.7-0.5-5.4-0.5-8.2
	c0-3.5,0.3-5.5,0.5-8.4l5.4-16.9c0.5-1.9,1.2-3.7,1.8-5.6c1.9-6,4.2-11.9,6.9-17.6c1.1-2.5,3.7-6.4,5-8.8c2.5-3.3,5.2-6.5,8-9.6
	c3.4-3.4,5.7-6.7,10.5-10.5c3.1-2.4,6.9-5.9,10-8.3c1.6-1.2,3.4-2.3,5.1-3.4c0.4-0.2,0.8-0.3,1.2-0.5c0.7,1,1,2.2,1,3.5
	c0.1,1.9-0.1,3.9-0.6,5.7L405,428.8z"/>
<path class="st1" d="M610.2,466.6c0.2,0,0.4,0,0.5-0.1c1.3-1.2,2.5-2.5,3.8-3.8c3-3,6.4-5.6,10.2-7.7c4.4-2.4,9.1-4.3,13.9-5.7
	c6.6-1.8,13.4-2.6,20.2-2.3c7.1,0.2,14.1,1.6,20.7,4.2c7.2,2.9,13.7,7.5,18.9,13.3c7,7.8,11.9,17.2,14.3,27.4
	c0.9,3.9,1.7,7.8,2.1,11.8c0.3,2.7,0.5,5.4,0.5,8.2c0,0.4,0.1,0.8,0.1,1.3c0.7,0.1-0.4,25.3-1,24.8h-81.1c-0.8,0.9-1.2,2.1-1,3.2
	c0.2,4.5,1.9,8.7,4.8,12.1c3.4,4.2,8.4,6.9,13.8,7.6c0.5,0.1,1,0.1,1.5,0.2c2.2-0.1,4.4-0.2,6.6-0.3c3-0.3,5.9-0.9,8.7-1.8
	c5.4-1.8,10.3-4.7,14.4-8.6c0.8-0.7,2.6-1.2,3.1-0.7c7.3,8.3,14.7,16.7,22,25c0.9,1,3.3,3.5,3.2,3.7c-4.3,4.2-7.7,5.7-12.4,9.3
	c-4.1,3.2-8.8,5.7-13.8,7.2c-5.1,2-10.5,3.4-15.9,4.4c-2.1,0.4-4.2,0.3-6.3,0.7c-3.2,0.4-6.4,0.6-9.7,0.4c-1.1,0-4.8-0.5-5.6-0.4
	c-2.5,0.1-14.3-1.9-17.7-3c-4.9-1.5-9.5-3.7-13.8-6.6c-3.2-2-6-4.5-8.4-7.4c-5.3-6.8-9.5-14.1-11.8-22.4c-1.9-6.8-3.1-13.8-3.5-20.9
	c-0.3-4.5-0.4-9.1-0.3-13.6c0.1-3.7,0.5-7.3,0.7-11c0.3-4.1,0.9-8.1,1.8-12.1c1.4-7.4,3.8-14.5,7.1-21.2c1.5-3,3.4-5.9,5.2-8.8
	c0.5-0.8,1-1.5,1.6-2.4 M634.3,503.2c-0.3,1.4-0.9,2.5-0.3,3.9c0.7,0,1.2,0.1,1.8,0.1c9.6,0,19.1,0,28.7,0c2.5,0,4.9-0.1,7.4-0.1
	c1,0.1,1.8-0.7,1.8-1.6c0,0,0,0,0-0.1c0-0.4,0-0.9,0-1.3c-0.2-1.7-0.5-3.4-0.5-5.1c0-0.8-0.2-1.7-0.5-2.5c-0.5-1.3-1.2-2.6-1.9-3.9
	c-2.3-3.8-5.9-6.5-10.2-7.6c-1.7-0.4-3.5-0.6-5.3-0.5c-2.9-0.1-5.7-0.6-8.5,1c-3.7,1.3-6.8,3.9-8.8,7.3"/>
<path class="st1" d="M823.4,630.1c2.1-1.9,3.8-4.1,5.2-6.6c0.1-0.3,0.3-0.5,0.5-0.7c0-0.1,0.1-0.2,0.2-0.3c0.2-0.4,0.5-0.7,0.7-1.1
	c3.5-5.9,6.1-12.2,7.6-18.9c1.3-6.3,2-12.6,2-19c0.2-7.1,0.3-14.2,0.4-21.2c0.2-9.5,0.5-18.9,0.6-28.4c0.1-12.4,0.4-24.7,0.9-37.1
	c0.4-10.1,0.5-20.3,0.7-30.4c0.1-4.4,0.1-8.7,0.2-13c0-0.9,0-1.7,0-2.6s0-1.8,0-2.9c-0.6,0-1-0.1-1.4-0.1h-38.1
	c-0.5,0-1.1,0.1-1.6,0.2c0,1.9-0.1,3.7-0.1,5.4c0.1,1.8,0,3.5-0.3,5.2c-0.2,0-0.4-0.1-0.6-0.2c-1.8-1.4-3.6-2.9-5.4-4.3
	c-5.6-4.3-12.3-6.9-19.3-7.4c-4.4-0.4-8.9-0.2-13.2,0.5c-3.7,0.6-7.3,1.7-10.8,3.2c-8,3.6-14.7,9.6-19.1,17.1
	c-0.9,1.5-1.6,3.2-2.4,4.8c-0.1,0.2-0.3,0.4-0.5,0.5l-1.7,5.4c-0.8,2.9-1.3,5.8-1.8,8.7c-0.7,5.1-1.1,10.2-1.2,15.3
	c0,0.5-0.1,1-0.1,1.5c-0.3,4.1-0.8,8.2-0.8,12.2c-0.1,8.6,0,17.2,0,25.8c0,1.2,0.1,2.4,0.2,3.6c0.2,2.5,0.4,5.1,0.7,7.6
	c0,0.4,0.1,0.8,0.1,1.3c0.9,4.9,2.6,9.5,4.9,13.9c4.2,7.5,10.7,13.5,18.5,17c5.6,2.5,11.6,3.2,17.6,3.7c3.4,0.3,6.8-0.6,10.2-0.6
	c1.6-0.1,3.2-0.3,4.8-0.7c2.1-0.6,4.2-1.4,6.2-2.3c2.2-1,4.2-2.3,6-3.8c1.1-0.7,1.9-1.8,2.3-3c0.2-0.7,0.9-1.2,1.6-1.3
	c0,0.7,0.1,1.4,0.1,2c-0.1,3.1-0.3,6.1-0.4,9.2c-0.1,3.3-0.9,6.6-2.1,9.7c-2.9,7-10.1,10.8-16.9,10.7c-0.8,0-1.5,0.1-2.3,0.2
	c-0.8,0.1-1.5,0.3-2.3,0.3c-3.7,0.2-7.3-0.4-10.8-1.6c-2.3-0.8-4.5-2-6.6-3.4c-2-1.3-3.8-3-5.1-5.1c-0.5,0.7-0.9,1.2-1.3,1.7
	l-26.5,27.6c0,0,1.3,1.6,2.3,2.7c4.2,4.3,9,7.9,14.4,10.5c4.6,2.3,9.5,4.1,14.5,5.3c3.1,0.7,6.2,1.3,9.3,1.6
	c3.1,0.4,6.3,0.6,9.4,0.6c1.2,0,2.4,0.1,3.6,0.2h3.6c8.3-0.6,16.3-2.9,23.6-6.7c5.1-2.7,10.8-5.3,14.9-8.7 M798,523.1
	c-0.2,4.4-0.8,8.8-2.1,13.1c-0.8,2.7-2.4,5.2-4.6,6.9c-2.5,2.1-5.6,3.2-8.9,3.3c-0.7,0-1.4,0-2,0c-4,0.3-7.8-1.7-10.1-5
	c-1.3-1.9-2.3-4-2.7-6.3c-0.7-3.2-1.1-6.4-1.2-9.6c-0.1-3.1-0.1-6.1,0-9.2c0.1-4.9,0.6-9.7,1.6-14.4c0.2-1.6,0.8-3.1,1.7-4.5
	l4.1-6.2c2.2-1.8,1.7-1.8,4.8-2.6c0.9-0.3,1.9-0.5,2.9-0.7c0.8-0.2,0.6,0,1.4,0c7.5-0.1,12.4,3.8,14.1,10.8
	c0.8,3.5,1.2,7.1,1.2,10.6C798.2,513.9,798.2,518.5,798,523.1L798,523.1z"/>
</svg>
