<svg id="Capa_1" data-name="Capa 1" xmlns="http://www.w3.org/2000/svg" viewBox="0 0 1000 1000"><defs><style>.cls-1{fill:#afc435;}.cls-2{fill:#ff4800;stroke:#ff4800;stroke-miterlimit:10;}.cls-3{fill:#fff;}</style></defs><title>Mesa de trabajo 1</title><rect class="cls-1" x="-3.82" y="-3.84" width="1008.7" height="1008.7"/><path class="cls-2" d="M295.41,581.69a53.49,53.49,0,0,1-23.34-23.63q-7.61-15.22-6.93-35.56l35.78-9.31a36.11,36.11,0,0,0-.34,4.88,30.42,30.42,0,0,0,3.92,15.45,27.27,27.27,0,0,0,11.59,10.74q7.67,3.92,18.69,3.92,12.72,0,18.52-4.83a15.69,15.69,0,0,0,5.79-12.67q0-7.95-5.62-12.55t-17.78-6.65L318,509q-16.13-1.59-27-7.38T274.8,486.78a39.29,39.29,0,0,1-5.34-20.39q0-15,7.61-25.67t21.3-16.19Q312.05,419,330.23,419q30.1,0,48.17,15.34T397.14,484l-36.46,9.77a38.28,38.28,0,0,0,.45-6q0-14.43-9.54-20.79t-23.29-6.36q-10.91,0-16.24,4.32a13.78,13.78,0,0,0-5.34,11.25,15.33,15.33,0,0,0,4.43,11.42q4.43,4.37,16.24,6.08l17.15,2.5q17.49,2,29.25,8.07t17.44,15.16a38.08,38.08,0,0,1,5.68,20.5q0,15.91-8.18,27.26T366.24,584.3q-14.31,5.79-32.38,5.79Q311.14,590.09,295.41,581.69Z"/><path class="cls-2" d="M536,524c0,21.51-3.57,46.78-15.72,57.2-11.36,9.74-29.64,8.8-52,8.8q-33.74,0-50.78-16.87t-17-49.24V423.22h40V518.3q0,14.77,6.93,22.32t20.67,7.55q14,0,21-7.55t7-22.32V423.22H536Z"/><path class="cls-2" d="M495.13,423.32H610.75v42.06H536v31.49h62.28v16.85H536V548h75.3v41.72H495.13Z"/><path class="cls-2" d="M657.06,423.32l65.3,118.76h1l-.35-3.37q-.7-6.39-1-11t-.35-10.92V423.66l40.09-.35v166.4H722.83l-66.7-118.64h-1l.23,2.79q1.16,12.78,1.16,21.15v94.7H616.39V423.32Z"/><path class="cls-2" d="M868.85,541.49H821.91q-6.62,26.49-13,48.22H763.34l48.92-166.4h65.19l48.92,166.4h-44Q875,565.43,868.85,541.49Z"/><path class="cls-1" d="M855.24,510a3.51,3.51,0,0,0,.22-.65q.57-6.66,1.13-13.32a138.73,138.73,0,0,1,1.9-14.95,36.47,36.47,0,0,1,1.6-5.89,11.35,11.35,0,0,1,1.76-3.22,5,5,0,0,1,5.68-1.7,5.1,5.1,0,0,1,2.32,1.77,11.63,11.63,0,0,1,1.65,3.28,50,50,0,0,1,1.8,7.6c.81,4.67,1.39,9.38,1.83,14.1.18,1.93.56,3.83.9,6.08a6.13,6.13,0,0,0,.43-1c.31-1.77.62-3.55.89-5.33a18.84,18.84,0,0,1,2-6.48A9.24,9.24,0,0,1,884,486a7,7,0,0,1,2.6-.55h14.5a4.84,4.84,0,0,1,.66.09,1.65,1.65,0,0,1,.16.45q0,3.27,0,6.55a5,5,0,0,1-.1.7,2.87,2.87,0,0,1-1.54.18h-12c-.51,0-1,0-1.51,0a5.28,5.28,0,0,0-1.32,2.69c-.3,1.58-.57,3.17-.83,4.76a70.16,70.16,0,0,1-1.93,8.74,14.85,14.85,0,0,1-1.6,3.78,9.3,9.3,0,0,1-1.4,1.76,5.05,5.05,0,0,1-6.81.23,8.31,8.31,0,0,1-2.42-3.27,28.79,28.79,0,0,1-1.28-3.46,37.64,37.64,0,0,1-1.18-5.7c-.62-5-1.29-10-2-14.94-.06-.46-.16-.9-.25-1.41-.45.16-.38.48-.4.72-.35,3.25-.71,6.5-1,9.76-.21,2.08-.35,4.16-.53,6.24-.2,2.27-.38,4.53-.62,6.8-.45,4.24-.91,8.49-1.72,12.68a25.2,25.2,0,0,1-1.5,5.47,9,9,0,0,1-1,1.73,4.63,4.63,0,0,1-7.91-.29,11.92,11.92,0,0,1-1.46-3.53,42.13,42.13,0,0,1-1.14-5.85c-.24-2.26-.68-4.49-.95-6.75q-.57-4.87-1-9.76c-.6-6.95-1.16-13.89-1.74-20.84,0-.27-.08-.54-.12-.8-.38,0-.32.21-.33.36-.4,4.92-.78,9.83-1.2,14.75s-.85,9.54-1.33,14.3c-.25,2.5-.56,5-.92,7.48a66.06,66.06,0,0,1-1.55,7.65,9.43,9.43,0,0,1-1.38,3.1,5,5,0,0,1-2.1,1.84,4.43,4.43,0,0,1-5-.81,6.66,6.66,0,0,1-1.73-2.56,24.45,24.45,0,0,1-1.19-4.09,106,106,0,0,1-1.68-11.1c-.5-4.76-.91-9.54-1.37-14.3q-.48-5-1-10.05c-.07-.7-.18-1.4-.28-2.09-.44,0-.42.28-.45.5q-.7,5.72-1.4,11.44a74.08,74.08,0,0,1-1.47,8.69,24.63,24.63,0,0,1-1.7,5,9.07,9.07,0,0,1-2,2.87,5.17,5.17,0,0,1-6.49.6,6.79,6.79,0,0,1-2-2.17,18.09,18.09,0,0,1-1.82-4.46,82.82,82.82,0,0,1-2-9.74c-.18-1.12-.39-2.24-.62-3.36a5.85,5.85,0,0,0-.89-2.08,1,1,0,0,0-.93-.52H790.44l-1.56,0a2.11,2.11,0,0,1-.2-.58c0-2.28,0-4.55,0-6.83a1.73,1.73,0,0,1,.1-.36,3.1,3.1,0,0,1,.74-.17c4.41,0,8.82,0,13.23,0A7.87,7.87,0,0,1,809,488.8a14.55,14.55,0,0,1,2.74,6.48c.41,2.24.76,4.49,1.15,6.73a6.14,6.14,0,0,0,.23.75c.38,0,.3-.24.33-.39.55-2.94.8-5.92,1.14-8.89.47-4.1,1-8.19,1.78-12.24a39.91,39.91,0,0,1,1.52-5.92,13.08,13.08,0,0,1,1.49-3.05,5,5,0,0,1,8.18-.26,11.74,11.74,0,0,1,1.79,3.37,37,37,0,0,1,1.51,5.62,92.82,92.82,0,0,1,1.42,9.71c.3,3.21.56,6.42.84,9.64q.34,3.83.69,7.65a4.61,4.61,0,0,0,.39,1.53c0-.24.11-.48.13-.73q.58-6.66,1.15-13.32c.5-5.81,1-11.63,1.52-17.43.36-3.78.8-7.55,1.27-11.31a49.12,49.12,0,0,1,1.34-7.12,10.67,10.67,0,0,1,1.12-2.76,4.53,4.53,0,0,1,6-1.86,4.25,4.25,0,0,1,1.84,1.71,11.86,11.86,0,0,1,1,2.18,44.61,44.61,0,0,1,1.64,8.36c1,7.38,1.64,14.8,2.22,22.22q.42,5.46.87,10.92c.25,3,.51,6,.77,8.93A5,5,0,0,0,855.24,510Z"/><path class="cls-3" d="M104.17,510a24.79,24.79,0,0,1,9.53,5.1,24.06,24.06,0,0,1,5.64,7.52,30.86,30.86,0,0,1,2.68,9.19,76.19,76.19,0,0,1,.67,10.2q0,1.34-.07,2.55t-.2,2.28q-.2,2.35-.67,6t-1.44,7.92a69.55,69.55,0,0,1-2.62,8.69,36.35,36.35,0,0,1-4.33,8.25q2.28,1.81,5.13,4.53t5.9,5.67q3.05,3,6.17,5.87t6,5.17a40.39,40.39,0,0,0,5.27,3.59,6.61,6.61,0,0,0,4.09,1.07,11.31,11.31,0,0,1,3.72-6.61,11.15,11.15,0,0,1,11.54-1.78,11,11,0,0,1,5.94,5.94,10.93,10.93,0,0,1,.87,4.33,12.6,12.6,0,0,1-.84,4.5,11.48,11.48,0,0,1-2.58,4,12.74,12.74,0,0,1-4.43,2.85,17,17,0,0,1-6.31,1.07,37.09,37.09,0,0,1-13.42-2.35,59,59,0,0,1-11.94-6.31A115.8,115.8,0,0,1,116.65,600q-6-5.3-13-11.21L102,587.37a38.13,38.13,0,0,1-9.56,3.46,48.09,48.09,0,0,1-10.3,1.11A39.61,39.61,0,0,1,71,590.56,27.28,27.28,0,0,1,63,586.83a20.75,20.75,0,0,1-5.5-5.6,29.37,29.37,0,0,1-3.39-7,39.11,39.11,0,0,1-1.71-7.85,72.25,72.25,0,0,1-.47-8.25q0-2.28.13-5.33t.6-6.54q.47-3.49,1.31-7.21a52.75,52.75,0,0,1,2.25-7.38,43,43,0,0,1,3.49-7,32.18,32.18,0,0,1,5-6.21,34,34,0,0,1,12.65-7.68,46,46,0,0,1,15.13-2.52q1.95,0,3.76.17t3.35.44q1.54.27,2.75.6A19.72,19.72,0,0,1,104.17,510Zm-4,30.4a56.65,56.65,0,0,0-.34-6.24,18.06,18.06,0,0,0-1.34-5.3,9.23,9.23,0,0,0-2.78-3.66,7.41,7.41,0,0,0-4.66-1.38,9.07,9.07,0,0,0-5,1.44,15.06,15.06,0,0,0-4,3.89,28.18,28.18,0,0,0-3.12,5.64,49.24,49.24,0,0,0-2.25,6.64q-.91,3.46-1.48,7T74.38,555q10.07.4,21.81,8.52A53.77,53.77,0,0,0,98,557.41q.77-3.19,1.24-6.24t.7-5.84Q100.21,542.55,100.21,540.4ZM89.34,574.08A19.35,19.35,0,0,0,84.88,571a35.21,35.21,0,0,0-4.73-2,21.2,21.2,0,0,0-3.69-.94q-1.48-.2-1.34.2A14.21,14.21,0,0,0,77.94,574a6.64,6.64,0,0,0,5.37,2.31A9.42,9.42,0,0,0,89.34,574.08Z"/><path class="cls-3" d="M150.74,540.67q-.67,6.91-1,10.64t-.5,5.47l-.2,2.35q-.14,1.61-.27,3.15t-.13,3.09a21.89,21.89,0,0,0,.34,3.93,8,8,0,0,0,1.31,3.22,6.65,6.65,0,0,0,2.72,2.18,11,11,0,0,0,4.56.81,11.88,11.88,0,0,0,6.41-1.58,11.36,11.36,0,0,0,4.13-5.07,36.47,36.47,0,0,0,2.55-9.09q.94-5.6,1.74-13.72l3.82-37.64h21.67l-3.76,39.93a116,116,0,0,1-3.52,20.4,36.36,36.36,0,0,1-6.78,13.62A25.16,25.16,0,0,1,172.58,590a50.91,50.91,0,0,1-16.67,2.38,40,40,0,0,1-13.08-1.91,23.34,23.34,0,0,1-9.09-5.54,22.08,22.08,0,0,1-5.3-8.92,39.26,39.26,0,0,1-1.71-12.08,69.39,69.39,0,0,1,.37-7.18q.37-3.56.77-7l4.29-41.33H154Z"/><path class="cls-3" d="M208,508.39h51.53l-1.81,18.25H227.91L226.3,540.8H246L244,556.17H224.82l-1.61,16.64H256l-1.81,18.25H200v-.13h-.34Z"/><path class="cls-3" d="M174,493.67a19.15,19.15,0,0,1-3.52,6.11,27.84,27.84,0,0,1-5.44,4.93,27.12,27.12,0,0,1-6.51,3.32,20.39,20.39,0,0,1-6.74,1.21,17.68,17.68,0,0,1-7.18-1.31,12.89,12.89,0,0,1-4.86-3.66,14.78,14.78,0,0,1-2.78-5.7,29.28,29.28,0,0,1-.87-7.38,30.41,30.41,0,0,1,.2-3.49l6-60.32,21.14-1.74q-.74,6.84-1.54,14.66t-1.61,15.77q-.81,8-1.61,15.77T157,486.49a8.89,8.89,0,0,0-.2,1.68,11.58,11.58,0,0,0,.17,2,4.63,4.63,0,0,0,.6,1.68,3.28,3.28,0,0,0,1.21,1.14,3.83,3.83,0,0,0,1.91.44,6.91,6.91,0,0,0,2.65-.54,10.32,10.32,0,0,0,4.29-3.32,7.42,7.42,0,0,0,1.11-2Z"/><path class="cls-3" d="M178.81,484.61a11.1,11.1,0,0,1-4.16-.81,11.28,11.28,0,0,1-3.56-2.25,11.07,11.07,0,0,1-2.48-3.46,10.35,10.35,0,0,1-.94-4.43,12.22,12.22,0,0,1,1.68-6.54,13,13,0,0,1,4.6-4.43,22.33,22.33,0,0,1,6.84-2.52,42.25,42.25,0,0,1,8.49-.81,44.87,44.87,0,0,1,7.55.67,55.26,55.26,0,0,1,8.15,2.08,136.51,136.51,0,0,1,9.86-14.73A79.42,79.42,0,0,1,226.65,435a57.38,57.38,0,0,1,13.59-8.59,36.55,36.55,0,0,1,15.06-3.22,37.2,37.2,0,0,1,5.84.47,37.59,37.59,0,0,1,6,1.48L259,508.23H236.85l1.27-11.14q-2.35-2.21-5.1-4.66t-5.84-4.93q-3.09-2.48-6.44-4.86t-6.78-4.4q-1.88,4.09-3.39,8.15T208,494.31a74.6,74.6,0,0,0-1.68,7.38,38.86,38.86,0,0,0-.6,6.54H189.48a42.43,42.43,0,0,1,.7-7.15,88.55,88.55,0,0,1,2-8.72q1.31-4.66,3.25-9.83t4.43-10.47a31,31,0,0,0-7.25-.94,25.93,25.93,0,0,0-3.22.2,11.53,11.53,0,0,1,.27,2.62,10.06,10.06,0,0,1-.87,4.16,11,11,0,0,1-2.35,3.39,11.06,11.06,0,0,1-3.46,2.28A10.62,10.62,0,0,1,178.81,484.61Zm40.13-16.24a104.87,104.87,0,0,1,10.74,6.74q5.1,3.66,10,7.75l4.5-41.13a15.51,15.51,0,0,0-6.17,2.85,43,43,0,0,0-6.51,5.9,77.38,77.38,0,0,0-6.48,8.19Q221.82,463.27,218.93,468.37Z"/></svg>