<?xml version="1.0" encoding="UTF-8"?>
<svg xmlns="http://www.w3.org/2000/svg" id="Capa_1" data-name="Capa 1" viewBox="0 0 1000 1000">
  <defs>
    <style>.cls-1{fill:#28a58b;}.cls-2{fill:#fff;}</style>
  </defs>
  <rect class="cls-1" x="-33.72" y="-23.13" width="1043.25" height="1053.55"></rect>
  <path class="cls-2" d="M183.9,389.22,150.21,458.5l-33.85-69.28H70.06v107h41.22V432.21l20.38,64.05h36.89l19.09-63.6v63.6h41.22v-107Z"></path>
  <path class="cls-2" d="M342.63,389.22H301.42l-58,107h41.21l8.82-16.2h57.13l8.82,16.2h41.21Zm-35,64.51,14.46-26.47,14.31,26.47Z"></path>
  <path class="cls-2" d="M458.05,465.18v-76H416.83v107h103v-31.1h-61.8Z"></path>
  <path class="cls-2" d="M534.43,389.22v107h41.22v-107Z"></path>
  <path class="cls-2" d="M760.67,448.59q-6.23-6-18.39-8.47A22.91,22.91,0,0,0,754,431.3c2.59-4,3.91-9.06,3.91-15.33v-.56q0-12.45-10-19.24t-26.76-6.93H599.1v107H714.54q24.45,0,38.4-7.3t14-22.63v-.59C766.9,458.32,764.81,452.6,760.67,448.59ZM640.32,413.67h59a85.47,85.47,0,0,1,9.77.42,10.52,10.52,0,0,1,5.5,2.17c1.39,1.15,2.1,3.05,2.1,5.64,0,2.89-.75,4.93-2.24,6.15a10.24,10.24,0,0,1-5.44,2.16,94.48,94.48,0,0,1-9.69.36h-7.22l-51.79-.14V413.67Zm82.25,52.72a10.84,10.84,0,0,1-6.07,2.39,111.88,111.88,0,0,1-11.35.44h-4.63c-1.82,0-5.27,0-10.33-.08s-37.21-.06-49.83-.06V451.44h64.81a105.4,105.4,0,0,1,11.35.45,11.39,11.39,0,0,1,6.07,2.24q2.24,1.83,2.24,6C724.81,463,724.06,465.09,722.57,466.39Z"></path>
  <path class="cls-2" d="M880.59,389.22v41.86q0,13.23-8.23,19.76c-5.48,4.35-13.77,6.53-21.23,6.53-9.17,0-14.67-2.12-20.15-6.37s-8.23-10.88-8.23-19.94V389.2H772.38v42.36A57.48,57.48,0,0,0,783,464.89q10.44,14.83,28.76,23.32c12.22,5.64,24.23,7.85,39.4,7.85,13.79,0,28.21-2.23,40-7.93a72.44,72.44,0,0,0,28.23-23.58,56.51,56.51,0,0,0,10.6-33.33v-42Z"></path>
  <polygon class="cls-2" points="831.51 389.68 845.4 366.65 891.05 366.65 866.35 389.68 831.51 389.68"></polygon>
  <path class="cls-2" d="M393.07,585.63a10.69,10.69,0,0,1-1.11,5.62,9.84,9.84,0,0,1-3.52,3.84,9.53,9.53,0,0,1-4.67,1.52,9.86,9.86,0,0,1-4.76-1,10.21,10.21,0,0,1-3.94-3.42,10.58,10.58,0,0,1,2.91-15,9.47,9.47,0,0,1,4.61-1.51,9.6,9.6,0,0,1,4.82,1,10,10,0,0,1,3.92,3.39A10.7,10.7,0,0,1,393.07,585.63Z"></path>
  <path class="cls-2" d="M486.16,580.49a8.07,8.07,0,0,0-1.6-4.45,9,9,0,0,0-3.66-2.93,10,10,0,0,0-4.61-.85l-6.41.36,1,17.47,6.41-.36a10.51,10.51,0,0,0,6.57-2.49Q486.4,585,486.16,580.49Zm0,0a8.07,8.07,0,0,0-1.6-4.45,9,9,0,0,0-3.66-2.93,10,10,0,0,0-4.61-.85l-6.41.36,1,17.47,6.41-.36a10.51,10.51,0,0,0,6.57-2.49Q486.4,585,486.16,580.49Zm0,0a8.07,8.07,0,0,0-1.6-4.45,9,9,0,0,0-3.66-2.93,10,10,0,0,0-4.61-.85l-6.41.36,1,17.47,6.41-.36a10.51,10.51,0,0,0,6.57-2.49Q486.4,585,486.16,580.49Zm0,0a8.07,8.07,0,0,0-1.6-4.45,9,9,0,0,0-3.66-2.93,10,10,0,0,0-4.61-.85l-6.41.36,1,17.47,6.41-.36a10.51,10.51,0,0,0,6.57-2.49Q486.4,585,486.16,580.49ZM620.3,510.74,331.83,544.11v89.24H669.38Zm-214.43,86a22.87,22.87,0,0,1-8.59,8.77A29.15,29.15,0,0,1,371.49,607a24.06,24.06,0,0,1-9.79-7.76,21.06,21.06,0,0,1-4.12-11.59,21.39,21.39,0,0,1,2.79-12.06,23.83,23.83,0,0,1,8.86-8.83A27.61,27.61,0,0,1,381.85,563,28,28,0,0,1,395,565.26a22.85,22.85,0,0,1,9.53,7.79,23.06,23.06,0,0,1,1.31,23.7Zm8,9.75-2.51-44.13,14.6-.83,1.78,31.3,22.79-1.29.73,12.82Zm84.39-15.39a20.75,20.75,0,0,1-7.87,8.35A26.55,26.55,0,0,1,478,603v.06l-9.53.54v-.06l-11.46.65-2.49-44.13,20.95-1.19A27,27,0,0,1,488.24,561a20.18,20.18,0,0,1,8.76,7.41,23.45,23.45,0,0,1,1.25,22.69Zm7.69,10.43-2.51-44.13,14.6-.83,2.51,44.13Zm20.22-1-2.49-44.13L565.15,554l.73,11.91-26.94,1.51.24,4.25,22.59-1.27.67,11.63-22.59,1.27.26,4.59,26.88-1.7.67,11.93Zm85.68-6.61A38.24,38.24,0,0,1,596,598.08a40.41,40.41,0,0,1-16.62-2.34q-7.68-2.85-8.19-12.22l15.06-.85c.12,2.31,1.09,3.72,2.85,4.27a18.44,18.44,0,0,0,6.31.61,13,13,0,0,0,5.83-1.58,4.1,4.1,0,0,0,2.24-4c-.08-1.47-1-2.38-2.75-2.75a24.15,24.15,0,0,0-6.07-.34l-5.11.34a41.76,41.76,0,0,1-9.14-.34,13.17,13.17,0,0,1-6.92-3.26c-1.94-1.73-3-4.4-3.19-8-.25-4.33.89-7.69,3.41-10a19.5,19.5,0,0,1,8.86-4.76,61.49,61.49,0,0,1,10.8-1.53,38,38,0,0,1,16.22,2.34q7.3,2.85,7.83,12.28l-14.81.83a4,4,0,0,0-2.65-3.62,13.57,13.57,0,0,0-6-1,18.4,18.4,0,0,0-6.23,1.31c-1.68.73-2.49,1.8-2.41,3.2.08,1.59,1,2.62,2.79,3.13a19,19,0,0,0,6,.63l3-.23c1.64-.16,2.91-.28,3.84-.34q7.44-.42,12.2,1.76c3.17,1.46,4.91,4.57,5.18,9.34C618.62,587.08,616.48,591.43,611.84,593.9ZM484.56,576a9,9,0,0,0-3.66-2.93,10,10,0,0,0-4.61-.85l-6.41.36,1,17.47,6.41-.36a10.51,10.51,0,0,0,6.57-2.49c1.72-1.51,2.49-3.76,2.33-6.73A8.26,8.26,0,0,0,484.56,576Zm1.6,4.45a8.07,8.07,0,0,0-1.6-4.45,9,9,0,0,0-3.66-2.93,10,10,0,0,0-4.61-.85l-6.41.36,1,17.47,6.41-.36a10.51,10.51,0,0,0,6.57-2.49Q486.4,585,486.16,580.49Zm0,0a8.07,8.07,0,0,0-1.6-4.45,9,9,0,0,0-3.66-2.93,10,10,0,0,0-4.61-.85l-6.41.36,1,17.47,6.41-.36a10.51,10.51,0,0,0,6.57-2.49Q486.4,585,486.16,580.49Z"></path>
</svg>
