<?xml version="1.0" encoding="UTF-8"?>
<!-- Generated by Pixelmator Pro 3.3.13 -->
<svg xmlns="http://www.w3.org/2000/svg" width="1200" height="1200" viewBox="0 0 1200 1200">
  <path id="Trazado" fill="#ffcb03" stroke="none" d="M -3.25 0 L 1203.25 0 L 1203.25 1200 L -3.25 1200 Z"></path>
  <path id="path1" fill="#e62168" stroke="none" d="M 219.789993 565.779968 C 212.320007 591.919983 205.779999 618.299988 197.5 644.099976 C 194.350006 654.25 190.259995 664.059998 185.009995 673.279968 C 182.789993 677.47998 179.759995 681.329956 176.259995 684.47998 C 169.720001 690.200012 162.25 690.079956 155.949997 684.01001 C 149.059998 677.359985 144.979996 668.950012 141.130005 660.320007 C 134.009995 643.859985 129.339996 626.359985 124.559998 608.969971 L 112.540001 565.789978 C 112.309998 565.669983 112.309998 565.209961 111.959999 565.209961 C 111.959999 565.559998 111.839996 566.029968 111.610001 566.380005 C 111.139999 581.200012 110.68 595.909973 110.209999 610.609985 C 109.389999 635.940002 108.580002 661.149963 107.760002 686.469971 C 107.760002 688.339966 106.830002 688.450012 105.43 688.450012 C 93.290001 688.450012 81.040001 688.450012 68.900002 688.450012 C 67.970001 688.450012 66.919998 688.570007 65.980003 688.679993 L 65.980003 683.309998 C 66.559998 681.440002 66.099998 679.579956 66.209999 677.709961 C 66.32 675.839966 66.209999 674.209961 66.209999 672.459961 C 66.089996 670.709961 66.209999 668.839966 66.440002 667.089966 C 66.910004 650.279968 67.260002 633.359985 67.720001 616.549988 C 68.540001 589.23999 69 561.929993 71.57 534.72998 C 72.150002 527.960022 73.32 521.190002 74.949997 514.539978 C 76.82 507.070007 81.139999 502.75 88.720001 501.119995 C 98.639999 499.02002 108.790001 498.669983 118.830002 500.299988 C 125.949997 501.349976 130.149994 505.669983 132.839996 511.969971 C 136.339996 520.140015 138.559998 528.659973 140.779999 537.179993 C 147.320007 562.51001 152.800003 587.950012 160.270004 613.039978 C 161.089996 615.839966 162.020004 618.529968 163.070007 621.209961 C 163.539993 622.380005 163.770004 624.359985 165.050003 624.47998 C 166.570007 624.47998 166.800003 622.5 167.380005 621.209961 C 169.830002 614.789978 172.050003 608.369995 173.800003 601.719971 C 180.100006 580.47998 184.539993 558.769958 190.610001 537.409973 C 192.589996 530.169983 195.050003 522.940002 198.080002 515.929993 C 202.050003 506.710022 208.350006 501.109985 218.5 499.589966 C 226.789993 498.419983 235.070007 498.070007 243.009995 501.109985 C 254.449997 505.429993 260.75 513.950012 262.029999 526.089966 C 263.429993 540.210022 264.01001 554.450012 264.359985 568.690002 C 265.410004 607.559998 264.589996 646.419983 264.940002 685.289978 C 264.940002 687.859985 264.359985 688.559998 261.670013 688.559998 C 250.229996 688.440002 238.789993 688.440002 227.360001 688.559998 C 225.139999 688.559998 224.789993 687.97998 224.679993 685.880005 C 223.860001 656.22998 222.929993 626.589966 221.880005 596.940002 C 221.529999 586.789978 221.179993 576.630005 220.830002 566.47998 C 220.479996 566.130005 220.710007 565.659973 220.25 565.309998 C 220.139999 565.429993 220.020004 565.659973 219.789993 565.779968 Z"></path>
  <path id="path2" fill="#e62168" stroke="none" d="M 515.539978 607.440002 C 515.539978 626.809998 515.77002 646.190002 515.419983 665.559998 C 515.190002 679.919983 514.840027 694.390015 511.920013 708.630005 C 510.869995 714 508.890015 719.25 506.079987 723.920044 C 500.709991 732.910034 492.190002 736.530029 482.5 738.390015 C 472.350006 740.140015 461.959991 741.190002 451.570007 741.660034 C 438.5 742.359985 425.429993 742.829956 412.350006 742.589966 C 408.619995 742.589966 405 742.359985 401.26001 741.660034 C 396.359985 740.72998 394.140015 738.630005 393.559998 733.609985 C 392.980011 728.820007 392.980011 724.040039 393.440002 719.25 C 393.910004 713.880005 397.410004 710.849976 403.359985 710.030029 C 408.380005 709.329956 413.399994 708.97998 418.420013 708.97998 C 430.089996 708.97998 441.880005 709.209961 453.549988 708.400024 C 459.269989 708.049988 465.100006 707.820007 470.470001 705.25 C 473.149994 704.200012 474.910004 701.52002 474.910004 698.709961 C 475.029999 695.790039 473.279999 693.219971 470.589996 692.059998 C 469.420013 691.47998 468.140015 691.01001 466.859985 690.540039 C 463.130005 689.609985 459.269989 689.02002 455.420013 688.910034 C 445.970001 688.440002 436.51001 688.910034 427.059998 687.859985 C 418.420013 686.929993 410.720001 684.130005 404.649994 677.709961 C 399.630005 672.570007 398.109985 665.809998 396.600006 659.149963 C 393.679993 645.959961 393.450012 632.539978 393.329987 619.119995 C 393.209991 601.849976 393.100006 584.690002 393.910004 567.529968 C 393.910004 562.859985 394.48999 558.079956 395.429993 553.52002 C 396.600006 548.849976 399.51001 546.169983 404.299988 545.700012 C 408.5 545.22998 412.820007 545.349976 417.019989 546.049988 C 421.100006 546.75 423.670013 548.849976 424.720001 552.940002 C 426.700012 560.880005 427.75 569.049988 427.869995 577.219971 C 428.920013 600.679993 429.73999 624.26001 430.670013 647.719971 C 430.790009 650.049988 431.25 651.219971 434.049988 651.339966 C 446.769989 652.269958 459.380005 653.559998 471.980011 654.839966 C 474.429993 655.070007 474.899994 654.369995 474.899994 652.039978 C 474.779999 617.48999 474.899994 582.950012 474.779999 548.399963 C 474.779999 546.179993 475.130005 545.369995 477.700012 545.369995 C 489.369995 545.48999 501.040009 545.48999 512.599976 545.369995 C 515.169983 545.369995 515.97998 545.839966 515.869995 548.52002 C 515.75 568.130005 515.75 587.619995 515.75 607.22998 L 515.539978 607.440002 Z"></path>
  <path id="path3" fill="#e62168" stroke="none" d="M 354.359985 608.380005 C 354.359985 594.369995 354.23999 580.25 354.940002 566.25 C 355.059998 561.809998 355.519989 557.380005 356.459991 553.179993 C 357.160004 549.559998 360.190002 546.76001 363.929993 546.289978 C 369.070007 545.470032 374.429993 545.470032 379.570007 546.52002 C 382.369995 546.98999 384.709991 548.970032 385.410004 551.77002 C 387.630005 558.77002 387.73999 565.890015 388.089996 573.130005 C 388.670013 589.470032 388.670013 605.809998 388.440002 622.030029 C 388.209991 637.790039 387.859985 653.540039 384.820007 669.070007 C 382.600006 680.619995 380.029999 683.080017 368.600006 685.410034 C 358.209991 687.390015 347.709991 688.559998 337.200012 688.679993 C 323.890015 689.26001 310.470001 689.030029 297.170013 688.099976 C 294.25 687.869995 291.450012 687.52002 288.649994 686.929993 C 283.399994 685.880005 279.079987 682.26001 277.100006 677.23999 C 273.130005 667.790039 270.679993 657.869995 269.859985 647.710022 C 269.51001 642.460022 270.559998 637.090027 270.679993 631.840027 C 271.029999 620.98999 271.26001 610.25 271.609985 599.390015 C 272.079987 585.030029 271.730011 570.679993 273.709991 556.440002 C 273.829987 555.160034 274.179993 553.76001 274.529999 552.470032 C 275.109985 549.090027 278.149994 546.75 281.529999 546.75 C 285.730011 546.400024 290.049988 546.97998 294.019989 548.27002 C 298.459991 549.789978 300.559998 553.52002 301.369995 557.840027 C 303 566.590027 303.23999 575.350037 303.23999 584.220032 C 303.359985 605.580017 303.359985 626.940002 303.23999 648.299988 C 303.23999 650.52002 303.820007 651.100037 306.040009 651.220032 C 321.100006 652.390015 336.269989 653.549988 351.329987 655.070007 C 354.25 655.299988 354.480011 654.48999 354.480011 652.040039 C 354.359985 637.670044 354.359985 622.970032 354.359985 608.380005 Z"></path>
  <path id="path4" fill="#f2b1c7" stroke="none" d="M 111.589996 566.359985 L 111.470001 563.789978 C 112.169998 564.26001 112.639999 564.959961 112.519997 565.769958 L 111.589996 566.359985 Z"></path>
  <path id="path5" fill="#f1afc5" stroke="none" d="M 219.789993 565.780029 C 219.789993 564.960022 220.139999 564.26001 220.720001 563.799988 L 220.720001 566.369995 L 219.789993 565.780029 Z"></path>
  <path id="path6" fill="#ffffff" stroke="none" d="M 696.570007 611.179993 C 696.570007 600.329956 696.690002 589.589966 696.570007 578.72998 C 696.450012 571.380005 696.219971 563.909973 694.469971 556.669983 C 693.419983 552.469971 691.090027 549.080017 686.530029 547.919983 C 683.72998 547.339966 680.809998 546.869995 678.01001 546.75 C 671.01001 546.279968 668.440002 548.380005 667.390015 555.27002 C 665.869995 564.609985 665.76001 574.059998 665.52002 583.51001 C 665.169983 598.679993 664.940002 613.969971 664.349976 629.149963 C 664.119995 635.450012 662.599976 641.76001 663.299988 648.059998 C 664.22998 658.209961 666.799988 668.130005 670.650024 677.589966 C 672.630005 682.48999 676.950012 685.98999 682.200012 686.929993 C 687.450012 687.97998 692.700012 688.559998 698.070007 688.679993 C 708.570007 688.910034 719.200012 689.150024 729.700012 688.799988 C 740.549988 688.570007 751.289978 687.519958 761.909973 685.419983 C 773.809998 682.969971 776.150024 680.519958 778.369995 668.380005 C 781.400024 652.039978 781.640015 635.469971 781.869995 618.779968 C 782.099976 603.959961 781.869995 589.25 781.640015 574.429993 C 781.52002 566.839966 781.289978 559.140015 778.960022 551.669983 C 778.26001 548.869995 775.929993 546.77002 773.119995 546.299988 C 767.75 545.25 762.380005 545.25 757.01001 546.179993 C 753.859985 546.649963 751.289978 548.859985 750.359985 551.899963 C 749.659973 553.77002 749.309998 555.75 749.190002 557.73999 C 747.909973 569.98999 747.909973 582.25 747.789978 594.5 C 747.669983 613.98999 747.789978 633.47998 747.789978 652.969971 C 747.789978 654.839966 747.559998 655.539978 745.340027 655.299988 C 729.929993 653.899963 714.530029 652.619995 699 651.450012 C 697.130005 651.329956 696.669983 650.630005 696.669983 648.880005 C 696.799988 636.269958 696.679993 623.779968 696.570007 611.179993 L 696.570007 611.179993 Z"></path>
  <path id="path7" fill="#ffffff" stroke="none" d="M 912.599976 659.029968 C 912.719971 666.72998 913.179993 674.549988 915.280029 682.019958 C 915.97998 685.169983 918.659973 687.619995 921.820007 688.089966 C 925.549988 688.910034 929.409973 688.670044 933.140015 688.670044 C 939.210022 688.670044 942.47998 686.099976 944.109985 680.269958 C 944.460022 678.869995 944.809998 677.469971 945.039978 676.070007 C 947.02002 663 947.48999 649.929993 948.070007 636.73999 C 948.77002 619.820007 949.349976 602.890015 949.940002 585.969971 C 950.059998 583.869995 950.52002 583.049988 952.73999 582.940002 C 957.640015 582.709961 962.659973 582.01001 967.559998 581.659973 C 973.97998 581.190002 980.52002 580.380005 986.929993 581.429993 C 989.960022 581.779968 992.530029 583.880005 993.349976 586.919983 C 994.280029 590.190002 994.869995 593.570007 994.97998 596.959961 C 995.450012 604.549988 995.909973 612.130005 996.849976 619.599976 C 998.599976 633.959961 999.880005 648.309998 1000.22998 662.669983 C 1000.349976 668.859985 1000.460022 675.159973 1002.450012 681.109985 C 1003.969971 685.899963 1007.23999 688.349976 1012.25 688.700012 C 1014 688.820007 1015.869995 688.820007 1017.619995 688.700012 C 1022.289978 688.579956 1024.73999 686.829956 1026.26001 682.399963 C 1027.189941 679.019958 1027.780029 675.51001 1027.890015 672.01001 C 1028.709961 660.219971 1028.939941 648.429993 1029.060059 636.649963 C 1029.290039 617.630005 1030.109985 598.599976 1028.359985 579.579956 C 1028.01001 576.079956 1027.430054 572.579956 1026.609985 569.190002 C 1023.690002 557.399963 1015.52002 551.450012 1004.080017 549 C 987.969971 545.72998 971.52002 544.799988 955.179993 546.549988 C 947.23999 547.130005 939.419983 548.649963 931.950012 551.099976 C 925.179993 553.200012 919.929993 558.570007 917.830017 565.219971 C 915.5 572.459961 914.099976 579.929993 913.630005 587.399963 C 912.349976 602.459961 912.460022 617.51001 912.580017 632.570007 C 912.599976 641.409973 912.48999 650.279968 912.599976 659.029968 Z"></path>
  <path id="path8" fill="#ffffff" stroke="none" d="M 524.530029 593.440002 C 524.530029 562.630005 524.530029 531.929993 524.409973 501.23999 C 524.409973 498.559998 525.22998 498.089966 527.679993 498.089966 C 551.960022 498.210022 576.22998 498.089966 600.51001 498.320007 C 612.880005 498.440002 625.369995 499.25 637.51001 502.399963 C 640.539978 503.219971 643.460022 504.380005 646.26001 505.899963 C 655.830017 510.690002 658.75 519.320007 659.330017 529.130005 C 659.909973 538.119995 658.51001 546.869995 657.460022 555.73999 C 655.590027 571.26001 653.369995 586.669983 654.429993 602.309998 C 655.25 614.679993 657 627.049988 658.400024 639.429993 C 659.570007 649.119995 660.27002 658.799988 657.22998 668.380005 C 655.830017 672.700012 653.030029 676.429993 649.289978 679 C 641.940002 684.25 633.299988 685.769958 624.659973 686.940002 C 610.299988 688.809998 595.950012 688.809998 581.47998 688.920044 C 563.51001 689.040039 545.530029 688.920044 527.669983 689.040039 C 524.98999 689.040039 524.52002 688.219971 524.52002 685.769958 C 524.530029 654.950012 524.530029 624.25 524.530029 593.440002 Z M 581.25 614.099976 C 576.460022 614.329956 571.559998 614.329956 566.890015 615.969971 C 563.73999 616.789978 561.640015 619.820007 561.869995 623.089966 C 561.869995 624.369995 561.98999 625.659973 562.099976 626.820007 C 563.27002 631.959961 564.080017 637.089966 564.429993 642.339966 C 564.309998 644.909973 566.059998 647.23999 568.52002 647.940002 C 569.799988 648.409973 571.090027 648.869995 572.369995 649.109985 C 583.460022 651.329956 594.780029 651.559998 605.97998 649.809998 C 612.169983 648.880005 615.780029 645.48999 617.179993 639.419983 C 618.349976 634.279968 619.049988 629.149963 619.049988 623.899963 C 619.169983 618.649963 616.950012 615.959961 611.929993 615.029968 C 605.390015 613.75 598.859985 614.209961 592.210022 614.099976 C 588.599976 613.97998 584.869995 613.859985 581.25 614.099976 L 581.25 614.099976 Z M 608.799988 572.309998 C 615.570007 571.48999 618.719971 568.459961 619.419983 561.690002 C 619.890015 557.019958 619.77002 552.349976 619.190002 547.679993 C 618.960022 545.349976 617.669983 543.359985 615.690002 542.190002 C 613.590027 540.909973 611.369995 539.969971 608.919983 539.73999 C 601.570007 539.039978 594.210022 538.809998 586.73999 539.159973 C 582.190002 539.279968 577.75 539.159973 573.320007 540.440002 C 568.070007 542.070007 565.849976 544.76001 565.5 550.130005 C 565.27002 553.630005 565.27002 557.130005 565.380005 560.630005 C 565.72998 567.869995 569.22998 571.47998 576.469971 572.299988 C 581.719971 572.769958 587.090027 572.880005 592.340027 572.769958 C 597.940002 572.899963 603.429993 572.779968 608.799988 572.309998 L 608.799988 572.309998 Z"></path>
  <path id="path9" fill="#ffffff" stroke="none" d="M 1152.920044 637.089966 C 1153.040039 622.849976 1152.219971 608.849976 1150.589966 594.959961 C 1149.420044 583.519958 1147.560059 572.320007 1144.98999 561.109985 C 1143.469971 554.570007 1139.619995 551.070007 1133.319946 549.559998 C 1125.380005 547.690002 1117.329956 546.640015 1109.280029 546.289978 C 1091.420044 545.359985 1073.569946 545.359985 1055.829956 546.289978 C 1050.930054 546.409973 1045.910034 547.109985 1041.119995 548.27002 C 1038.089966 548.849976 1035.630005 551.419983 1035.170044 554.460022 C 1034.23999 559.359985 1034 564.380005 1034.589966 569.279968 C 1035.060059 574.179993 1037.73999 577.329956 1042.76001 578.380005 C 1047.079956 579.200012 1051.51001 579.659973 1055.949951 579.659973 C 1071.23999 580.23999 1086.650024 579.539978 1101.819946 581.409973 C 1106.959961 581.98999 1112.209961 582.579956 1117.109985 584.559998 C 1120.26001 585.839966 1120.48999 587.940002 1117.689941 589.929993 C 1116.640015 590.630005 1115.589966 591.209961 1114.420044 591.679993 C 1110.449951 593.429993 1106.369995 594.709961 1102.050049 595.529968 C 1088.73999 598.329956 1075.209961 598.559998 1061.780029 599.380005 C 1043.569946 600.549988 1038.319946 607.320007 1036.099976 621.209961 C 1034.469971 631.359985 1034.469971 641.519958 1035.050049 651.669983 C 1035.52002 659.26001 1036.329956 666.959961 1038.780029 674.309998 C 1040.410034 679.329956 1043.449951 682.709961 1048.819946 683.880005 C 1051.73999 684.459961 1054.540039 685.399963 1057.459961 685.97998 C 1067.5 687.849976 1077.77002 688.780029 1088.040039 688.900024 C 1101 689.130005 1113.949951 689.130005 1126.790039 686.570007 C 1141.380005 683.649963 1148.619995 676.299988 1151.530029 661.709961 C 1153.27002 653.200012 1153.030029 644.679993 1152.920044 637.089966 Z M 1115.920044 652.959961 C 1109.5 654.829956 1102.72998 654.589966 1096.550049 654.589966 C 1090.01001 654.589966 1083.709961 654.589966 1077.98999 653.419983 C 1072.27002 652.25 1069.819946 649.919983 1068.77002 644.079956 C 1068.300049 641.049988 1068.420044 637.890015 1069.23999 634.97998 C 1070.170044 631.599976 1072.160034 629.380005 1075.780029 629.029968 C 1087.800049 627.75 1099.709961 628.329956 1111.26001 632.409973 C 1116.97998 634.51001 1121.410034 638.01001 1121.76001 644.779968 C 1121.98999 649.109985 1120.23999 651.799988 1115.920044 652.959961 Z"></path>
  <path id="path10" fill="#ffffff" stroke="none" d="M 906.77002 670.940002 C 905.840027 664.169983 902.099976 660.320007 895.330017 659.149963 C 890.080017 658.219971 884.830017 657.519958 879.570007 657.169983 C 867.320007 656.23999 854.940002 656.23999 842.690002 654.48999 C 837.440002 653.669983 832.190002 653.089966 827.400024 650.409973 C 824.25 648.659973 824.02002 646.559998 826.349976 643.869995 C 828.330017 641.769958 830.669983 640.019958 833.23999 638.72998 C 844.210022 632.659973 856 628.459961 867.789978 624.140015 C 876.309998 620.98999 884.950012 618.299988 893 613.869995 C 900.119995 610.019958 903.150024 603.950012 903.5 596.599976 C 903.969971 588.429993 903.619995 580.26001 902.570007 572.089966 C 901.169983 561.589966 895.799988 554.469971 885.650024 551.080017 C 884.02002 550.5 882.380005 549.909973 880.75 549.450012 C 871.650024 547 862.190002 545.719971 852.73999 545.599976 C 838.27002 545.25 823.909973 545.950012 809.909973 549.919983 C 801.51001 552.25 795.669983 557.390015 792.869995 565.679993 C 791.590027 569.409973 790.650024 573.269958 790.070007 577.119995 C 787.849976 591.130005 787.73999 605.25 787.969971 619.48999 C 788.090027 625.089966 788.090027 630.579956 788.090027 635.950012 C 787.969971 646.219971 789.48999 656.48999 792.409973 666.299988 C 795.330017 675.75 801.630005 682.059998 811.200012 684.73999 C 819.599976 687.070007 828.119995 688.359985 836.76001 688.589966 C 851.22998 689.170044 865.820007 689.410034 880.289978 688.709961 C 887.289978 688.359985 894.299988 688.130005 901.179993 686.48999 C 904.799988 685.559998 906.669983 683.219971 907.02002 679.599976 C 907.349976 676.659973 907.22998 673.849976 906.77002 670.940002 Z M 823.080017 597.640015 C 823.549988 590.640015 826.929993 585.969971 833.469971 583.630005 C 840.469971 580.950012 847.830017 579.659973 855.409973 579.779968 C 858.559998 579.659973 861.599976 580.130005 864.630005 580.950012 C 865.909973 581.299988 867.080017 581.880005 868.130005 582.820007 C 868.25 582.820007 868.359985 582.940002 868.47998 583.049988 C 870 584.570007 870 587.019958 868.47998 588.539978 C 867.080017 590.059998 865.450012 591.459961 863.580017 592.390015 C 853.539978 598.339966 842.690002 602.659973 831.25 605 C 824.25 606.390015 822.619995 604.640015 823.080017 597.640015 Z"></path>
</svg>
