<?xml version="1.0" encoding="UTF-8"?>
<!-- Generated by Pixelmator Pro 3.3.5 -->
<svg xmlns="http://www.w3.org/2000/svg" width="1000" height="1000" viewBox="0 0 1000 1000">
  <g id="Agrupar">
    <path id="Rectngulo" fill="#dadada" fill-rule="evenodd" stroke="none" d="M 0 1000 L 1000 1000 L 1000 0 L 0 0 Z"></path>
    <path id="Trazado" fill="#020203" stroke="none" d="M 471.799988 667.099976 C 485.5 667.099976 499.200012 667 512.900024 667.099976 C 519.400024 667.200012 525.700012 668.299988 531 672.599976 C 537.099976 677.5 538.599976 684.400024 538.700012 691.700012 C 538.900024 701.5 537.799988 711.299988 536.799988 721.099976 C 535.599976 733.5 534.200012 745.799988 532.900024 758.099976 C 532.400024 763.200012 532.5 763.200012 527.5 763.200012 C 522 763.200012 516.400024 763.099976 510.899994 763.200012 C 508.899994 763.200012 508.399994 762.599976 508.600006 760.700012 C 509.899994 743.799988 511.200012 727 513.599976 710.200012 C 514.099976 706.700012 514.099976 703.200012 514.099976 699.700012 C 514.099976 696.900024 512.099976 695.900024 509.799988 695.200012 C 505.200012 693.900024 500.600006 694.799988 496 694.700012 C 494 694.599976 494.600006 696.799988 494.5 697.900024 C 493.899994 704.299988 493.5 710.700012 492.899994 717.099976 C 491.399994 731.700012 489.799988 746.200012 488.399994 760.799988 C 488.200012 762.799988 487.5 763.200012 485.700012 763.099976 C 479.200012 763 472.799988 763 466.299988 763.099976 C 464.100006 763.099976 463.700012 762.400024 464 760.299988 C 465.799988 743 467.399994 725.700012 469.200012 708.400024 C 469.600006 704.599976 470.100006 700.799988 470.600006 697 C 470.799988 695.299988 470.600006 694.299988 468.399994 694.400024 C 463.200012 694.599976 458 694.5 452.799988 694.400024 C 451.200012 694.400024 450.399994 694.799988 450.200012 696.599976 C 448.299988 715 446.100006 733.400024 444.700012 751.799988 C 444.5 754.700012 444.100006 757.599976 444 760.599976 C 443.899994 762.400024 443.399994 763.200012 441.399994 763.200012 C 434.200012 763.099976 426.899994 763.099976 419.700012 763.200012 C 417.700012 763.200012 417.299988 762.599976 417.5 760.599976 C 419.299988 742.599976 421 724.599976 422.700012 706.700012 C 423.899994 694.700012 425.399994 682.700012 426.399994 670.700012 C 426.700012 667.400024 427.700012 666.700012 430.799988 666.700012 C 444.5 666.900024 458.200012 666.799988 471.899994 666.799988 C 471.799988 667 471.799988 667.099976 471.799988 667.099976 Z"></path>
    <path id="path1" fill="#020203" stroke="none" d="M 599.099976 646.5 C 595.900024 646.5 592.799988 646.400024 589.599976 646.5 C 587.599976 646.599976 586.799988 646.200012 587.099976 643.900024 C 588.599976 631 589.900024 618.099976 591.099976 605.200012 C 591.799988 597.200012 592.099976 589.200012 592.599976 581.200012 C 592.700012 580 592.299988 579.400024 590.900024 579.299988 C 585.799988 579.099976 580.700012 578.799988 575.700012 578.400024 C 574 578.299988 573.900024 579.299988 573.799988 580.5 C 572.400024 593.799988 570.900024 607.200012 569.599976 620.5 C 568.799988 628.400024 568.200012 636.200012 567.700012 644.099976 C 567.599976 645.700012 567.099976 646.299988 565.5 646.299988 C 558.599976 646.299988 551.700012 646.400024 544.799988 646.5 C 543.099976 646.5 542.700012 646 542.900024 644.299988 C 544.799988 626.5 546.599976 608.599976 548.400024 590.799988 C 548.799988 587.299988 548.900024 583.799988 549.299988 580.299988 C 549.5 578.700012 549 578.099976 547.299988 578.200012 C 541.900024 578.400024 536.400024 578.400024 531 578.400024 C 529.299988 578.400024 529 579.099976 528.900024 580.599976 C 527.900024 591.599976 526.799988 602.599976 525.700012 613.599976 C 524.700012 623.799988 523.5 634 522.5 644.200012 C 522.299988 645.900024 522 646.5 520.099976 646.5 C 512.900024 646.400024 505.600006 646.5 498.399994 646.599976 C 496.200012 646.599976 495.799988 646.099976 496.200012 643.900024 C 498.299988 629.299988 499.100006 614.5 500.600006 599.799988 C 502.200012 584.099976 504.299988 568.5 505.399994 552.700012 C 505.600006 550.099976 507.399994 551 508.600006 551 C 526.099976 551 543.700012 550.900024 561.200012 551.099976 C 572.799988 551.200012 584.5 550.599976 596.099976 551.400024 C 612.299988 552.599976 617.799988 562.799988 617.900024 576.200012 C 618 587.799988 616.400024 599.400024 615 610.900024 C 613.700012 621.700012 612.400024 632.400024 612 643.200012 C 611.900024 645.700012 611.299988 646.599976 608.700012 646.400024 C 605.5 646.299988 602.299988 646.5 599.099976 646.5 Z"></path>
    <path id="path2" fill="#020203" stroke="none" d="M 330.700012 551.200012 C 344.299988 551.200012 357.899994 551.099976 371.5 551.299988 C 377.100006 551.400024 382.899994 551.799988 387.899994 554.700012 C 396 559.400024 398.100006 567.299988 397.899994 575.900024 C 397.600006 593.299988 395.600006 610.599976 393.700012 627.799988 C 393.100006 633.200012 392.399994 638.599976 392 644 C 391.799988 646.099976 391.100006 646.700012 389.100006 646.599976 C 383 646.5 376.899994 646.5 370.799988 646.599976 C 368.600006 646.599976 367.899994 646.200012 368 643.799988 C 368.899994 630 370.600006 616.400024 371.899994 602.700012 C 372.399994 597 373 591.200012 373.5 585.5 C 373.799988 581.599976 372.100006 579.599976 368 578.900024 C 363.799988 578.200012 359.700012 578.900024 355.5 578.599976 C 353.700012 578.5 354 579.900024 353.899994 581 C 352.700012 601.900024 349.299988 622.5 348 643.400024 C 347.799988 646.099976 346.899994 646.799988 344.299988 646.700012 C 338.200012 646.5 332.100006 646.599976 326 646.700012 C 324.100006 646.700012 323.200012 646.5 323.399994 644.099976 C 325.600006 623.200012 327.700012 602.299988 329.899994 581.400024 C 330.200012 578.900024 329.600006 578.299988 327.200012 578.400024 C 322.399994 578.599976 317.700012 578.599976 312.899994 578.400024 C 310.399994 578.299988 309.700012 579.200012 309.399994 581.5 C 307.200012 601.799988 304.700012 622.099976 303.600006 642.5 C 303.399994 645.599976 302.700012 646.799988 299.299988 646.700012 C 292.899994 646.400024 286.399994 646.599976 279.899994 646.799988 C 277 646.900024 276.299988 646.099976 276.600006 643.200012 C 278.899994 621.599976 281.100006 600.099976 283.299988 578.5 C 284.100006 570.299988 284.399994 562.099976 285.700012 553.900024 C 286.100006 551.700012 286.799988 551.099976 288.899994 551.099976 C 302.799988 551.200012 316.799988 551.099976 330.700012 551.200012 C 330.700012 551.099976 330.700012 551.099976 330.700012 551.200012 Z"></path>
    <path id="path3" fill="#747274" stroke="none" d="M 362.899994 762.799988 C 352.399994 762.799988 341.799988 763.099976 331.299988 762.700012 C 320.799988 762.299988 313.200012 757.299988 309.299988 747.099976 C 305.200012 736.5 304.799988 725.700012 306.299988 714.700012 C 307.700012 704.599976 309.5 694.599976 314.299988 685.400024 C 320.399994 673.700012 330.200012 667.5 343.200012 667.200012 C 363.799988 666.799988 384.399994 667.099976 405 667.099976 C 406.600006 667.099976 407.600006 667.299988 407.5 669.299988 C 407 675.700012 406.5 682.099976 406 688.599976 C 405.799988 690.900024 404.200012 690.5 402.799988 690.5 C 390.600006 690.599976 378.399994 690.599976 366.100006 690.599976 C 359.200012 690.599976 352.299988 690.799988 345.399994 691.299988 C 340.799988 691.599976 336.399994 696.5 336.700012 701.099976 C 336.799988 703 338.299988 702.400024 339.299988 702.400024 C 350.399994 702.599976 361.5 702.700012 372.600006 702.700012 C 381.899994 702.799988 391.200012 702.799988 400.399994 702.700012 C 403.100006 702.700012 404.200012 703 403.700012 706.200012 C 402.799988 711.700012 402.5 717.200012 402.200012 722.700012 C 402.100006 725.200012 401.100006 725.599976 398.899994 725.599976 C 381.899994 725.5 364.899994 725.5 348 725.400024 C 344.200012 725.400024 340.299988 725.5 336.5 725.5 C 334.5 725.5 334 726.099976 334.5 728.200012 C 336.799988 737.700012 336.700012 737.799988 346.399994 737.799988 C 363.5 737.799988 380.600006 737.799988 397.700012 737.599976 C 400.399994 737.599976 401.5 737.900024 401 741.099976 C 399.899994 747.299988 399.200012 753.599976 398.5 759.900024 C 398.299988 762.200012 397.299988 762.799988 395.100006 762.799988 C 384.200012 762.799988 373.5 762.799988 362.899994 762.799988 Z"></path>
    <path id="path4" fill="#020203" stroke="none" d="M 454.399994 646 C 443.899994 646 433.299988 646 422.799988 646 C 412.799988 646 405.200012 640.400024 401.600006 631 C 396.899994 618.599976 397 606.099976 399.399994 593.299988 C 400.899994 584.900024 402.5 576.5 406.700012 568.799988 C 413.5 556.299988 424.200012 551.299988 438 551.299988 C 457.700012 551.400024 477.399994 551.400024 497.100006 551.200012 C 499.600006 551.200012 499.799988 552.200012 499.600006 554.200012 C 499.100006 559.900024 498.600006 565.700012 498.399994 571.400024 C 498.299988 573.799988 497.600006 574.299988 495.299988 574.400024 C 483.200012 574.700012 471.100006 574.200012 459 574.400024 C 451.5 574.5 444.100006 575 436.600006 574.900024 C 433.700012 574.900024 432.399994 576.299988 431.200012 578.5 C 427.299988 586.200012 427.299988 586.200012 435.700012 586.200012 C 454.799988 586.200012 474 586.299988 493.100006 586.099976 C 496.200012 586.099976 496.5 587.099976 496.200012 589.700012 C 495.399994 594.900024 494.799988 600.200012 494.399994 605.5 C 494.200012 608.099976 493.399994 608.900024 490.700012 608.900024 C 472.600006 608.799988 454.5 608.799988 436.399994 608.799988 C 433.700012 608.799988 431 609 428.299988 609 C 426.899994 609 426.100006 609.299988 426.600006 610.900024 C 426.600006 611 426.700012 611.099976 426.700012 611.200012 C 428 621.200012 428 621 438.100006 621.400024 C 455.399994 622 472.700012 621.200012 490 621.599976 C 492.399994 621.700012 493.100006 622.200012 492.799988 624.599976 C 492 630.599976 491.399994 636.700012 490.799988 642.700012 C 490.600006 644.900024 490 646 487.299988 645.900024 C 476.299988 645.700012 465.299988 645.799988 454.399994 645.799988 C 454.399994 646 454.399994 646 454.399994 646 Z"></path>
    <path id="path5" fill="#020203" stroke="none" d="M 208.699997 586.299988 C 213.600006 586.299988 218 586.299988 222.399994 586.299988 C 239.399994 586.299988 256.399994 586.400024 273.299988 586.200012 C 276.100006 586.200012 277.299988 586.400024 276.700012 589.799988 C 275.700012 595.099976 275.100006 600.5 274.700012 605.900024 C 274.5 608.5 273.5 608.900024 271.100006 608.900024 C 251.5 608.799988 231.899994 608.799988 212.399994 608.799988 C 207 608.799988 206.899994 608.799988 207.399994 614.299988 C 207.5 615.400024 207.699997 616.5 208 617.599976 C 208.800003 620.5 211.100006 621.299988 213.800003 621.299988 C 226.399994 621.400024 238.899994 621.400024 251.5 621.5 C 258.100006 621.5 264.600006 621.599976 271.200012 621.599976 C 273 621.599976 273.200012 622.400024 273.100006 623.900024 C 272.5 630.400024 271.899994 636.900024 271.399994 643.5 C 271.299988 645.299988 270.600006 645.900024 268.700012 645.900024 C 247.300003 645.799988 225.899994 645.799988 204.5 645.900024 C 190.600006 646 182.699997 637.599976 180.399994 625.200012 C 176.899994 606.599976 178.600006 588.299988 186.199997 570.799988 C 192.199997 556.900024 203.5 551 218.399994 551.099976 C 238 551.200012 257.600006 551.200012 277.100006 551.099976 C 279.600006 551.099976 280.100006 551.900024 279.799988 554.299988 C 279.100006 559.900024 278.600006 565.5 278.299988 571.200012 C 278.200012 573.799988 277.299988 574.299988 274.799988 574.299988 C 256.100006 574.299988 237.5 574.599976 218.800003 574.5 C 214.600006 574.5 212.199997 576.099976 210.899994 579.799988 C 210.399994 581.900024 209.699997 583.799988 208.699997 586.299988 Z"></path>
    <path id="path6" fill="#020203" stroke="none" d="M 689.5 695.700012 C 691.5 700.099976 694.400024 702.400024 699.400024 702.700012 C 709.400024 703.299988 719.299988 702.400024 729.299988 703 C 735.299988 703.400024 741.400024 703.700012 746.5 707.299988 C 753.700012 712.299988 755.799988 719.900024 756.200012 728 C 756.5 735.599976 754.400024 742.799988 750.799988 749.400024 C 746.5 757.200012 738.900024 760.200012 730.799988 762 C 726.200012 763 721.400024 763.200012 716.599976 763.200012 C 699.299988 763.099976 682 763.099976 664.599976 763.200012 C 662.200012 763.200012 661.299988 762.900024 661.700012 760.099976 C 662.700012 753.900024 663.400024 747.599976 663.900024 741.299988 C 664.099976 738.700012 665.099976 738.200012 667.400024 738.200012 C 684.599976 738.200012 701.799988 738.200012 719 738.099976 C 722.099976 738.099976 725.099976 737.900024 728.200012 737.700012 C 731.400024 737.5 734.799988 734.5 735.400024 731.5 C 735.700012 730 734.5 729.900024 733.700012 729.400024 C 728.799988 726.799988 723.5 726.799988 718.200012 726.799988 C 708.900024 726.700012 699.700012 727.200012 690.400024 726.700012 C 680.900024 726.099976 673.099976 722.799988 668.700012 714 C 665.299988 707.099976 665.5 699.700012 667.200012 692.400024 C 670.700012 677.599976 679.900024 669.799988 695.799988 667.799988 C 700.099976 667.299988 704.299988 666.900024 708.700012 666.900024 C 724.299988 667 740 667 755.599976 666.900024 C 758.200012 666.900024 759.200012 667.299988 758.900024 670.200012 C 758.299988 676.599976 758 683 757.700012 689.5 C 757.599976 691.700012 756.799988 692.299988 754.700012 692.299988 C 738.799988 692.200012 723 692.299988 707.099976 692.299988 C 701 692.299988 695.099976 693.400024 689.5 695.700012 Z"></path>
    <path id="path7" fill="#747274" stroke="none" d="M 244.899994 702.200012 C 249.699997 702.200012 254.399994 702.099976 259.200012 702.299988 C 261.700012 702.400024 262.5 701.5 262.700012 699.099976 C 263.600006 689.400024 264.899994 679.799988 265.799988 670.099976 C 266 667.700012 266.700012 666.799988 269.299988 666.900024 C 276.399994 667.099976 283.600006 667.099976 290.700012 666.900024 C 293.899994 666.799988 294.600006 667.700012 294.399994 670.900024 C 293.399994 683.700012 291.700012 696.5 290.399994 709.299988 C 288.799988 725.299988 287.299988 741.200012 285.700012 757.200012 C 285.600006 758.5 285.200012 759.900024 285.200012 761.200012 C 285.100006 762.799988 284.299988 763.299988 282.799988 763.299988 C 274.700012 763.099976 266.5 763.5 258.399994 763 C 256.399994 762.900024 256 762.299988 256.200012 760.299988 C 257.399994 750.099976 258.399994 739.900024 259.600006 729.599976 C 259.899994 726.799988 259.399994 725.799988 256.399994 725.900024 C 246.899994 726.099976 237.399994 726.099976 227.899994 725.900024 C 225.300003 725.900024 224.699997 726.799988 224.5 729.099976 C 223.699997 739.099976 222.600006 749.099976 221.699997 759.099976 C 221.5 761.700012 220.600006 762.799988 217.800003 762.700012 C 210.300003 762.5 202.899994 762.5 195.399994 762.700012 C 192.699997 762.799988 192.199997 761.900024 192.5 759.400024 C 194.800003 740.900024 196.600006 722.400024 198.399994 703.799988 C 199.5 692.299988 200.899994 680.900024 202 669.400024 C 202.199997 667.299988 202.899994 666.700012 204.899994 666.799988 C 212.600006 666.900024 220.300003 666.900024 228 666.799988 C 230.199997 666.799988 230.600006 667.5 230.399994 669.599976 C 229.399994 679.5 228.600006 689.400024 227.5 699.299988 C 227.199997 701.700012 227.899994 702.5 230.399994 702.400024 C 235.300003 702.200012 240.100006 702.400024 245 702.400024 C 244.899994 702.400024 244.899994 702.299988 244.899994 702.200012 Z"></path>
    <path id="path8" fill="#747274" stroke="none" d="M 123.599998 667 C 136.600006 667 149.600006 667.099976 162.699997 666.900024 C 165.899994 666.900024 166.5 667.799988 166.199997 670.700012 C 165.399994 677.5 164.699997 684.400024 164.300003 691.299988 C 164.100006 693.900024 163.100006 694.400024 160.699997 694.400024 C 147 694.299988 133.300003 694.400024 119.599998 694.299988 C 116.5 694.299988 115.099998 694.700012 114.800003 698.299988 C 114.099998 707.900024 112.199997 717.299988 112.199997 726.900024 C 112.199997 731.900024 114.300003 734.700012 119.400002 735.5 C 121.300003 735.799988 123.199997 735.799988 125.199997 735.799988 C 141.699997 735.799988 158.300003 735.900024 174.800003 735.700012 C 177.899994 735.700012 178.699997 736.700012 178.300003 739.599976 C 177.5 746.299988 176.899994 753.099976 176.300003 759.799988 C 176.100006 762 175.300003 762.900024 173 762.900024 C 153.399994 763 133.800003 763.200012 114.300003 763.200012 C 108.199997 763.200012 102.099998 762.400024 96.400002 759.799988 C 86.900002 755.5 83.099998 747.599976 82.599998 737.799988 C 82.099998 727.099976 83.900002 716.400024 84.900002 705.799988 C 85.099998 703.400024 85.300003 701.099976 85.800003 698.799988 C 86.5 695.700012 85.5 694 82.199997 694.200012 C 78.800003 694.5 78.300003 693 78.699997 690 C 79.5 683.700012 80.099998 677.400024 80.599998 671.099976 C 80.800003 668.200012 81.5 666.799988 85 666.900024 C 97.900002 667.099976 110.800003 667 123.699997 667 C 123.599998 667.099976 123.599998 667 123.599998 667 Z"></path>
    <path id="path9" fill="#020203" stroke="none" d="M 608.599976 763.200012 C 598.200012 763.200012 587.799988 763.299988 577.400024 763.200012 C 570.400024 763.099976 564 761.200012 559 756 C 553.700012 750.400024 552.700012 743.5 552.900024 736.200012 C 553.299988 716.599976 556.799988 697.400024 558.5 677.900024 C 558.700012 675.099976 559 672.299988 559 669.5 C 559 667.400024 560 667.099976 561.799988 667.099976 C 568.700012 667.200012 575.599976 667.200012 582.5 667.099976 C 584.5 667.099976 585 667.700012 584.799988 669.599976 C 583.700012 678.400024 582.799988 687.299988 581.799988 696.099976 C 580.400024 708.099976 579.200012 720.099976 579 732.200012 C 579 734.599976 579.700012 735.400024 582 735.400024 C 594.099976 735.400024 606.200012 735.400024 618.299988 735.599976 C 620.400024 735.599976 620.599976 734.5 620.799988 732.900024 C 622.099976 718.099976 623.5 703.200012 625 688.400024 C 625.599976 682.299988 626.599976 676.299988 627.400024 670.299988 C 627.700012 668.200012 628.299988 667.200012 630.700012 667.200012 C 637.599976 667.299988 644.5 667.200012 651.400024 667.099976 C 653.599976 667 653.700012 668.099976 653.5 669.799988 C 651.200012 686.900024 650.5 704.200012 648.299988 721.400024 C 646.700012 734.200012 645.700012 747 644.599976 759.799988 C 644.400024 762.5 643.599976 763.400024 640.799988 763.400024 C 629.900024 763.099976 619.200012 763.200012 608.599976 763.200012 Z"></path>
    <path id="path10" fill="#020203" stroke="none" d="M 874.299988 762.799988 C 864.799988 762.799988 855.299988 762.799988 845.799988 762.799988 C 830.900024 762.799988 821 755.400024 818.599976 740.700012 C 815.5 722 817 703.5 825.400024 686.099976 C 831.400024 673.700012 841.599976 667.200012 855.400024 667.099976 C 875.900024 666.900024 896.400024 667.099976 916.900024 667 C 919.200012 667 919.700012 667.5 919.299988 669.900024 C 918.400024 675.599976 917.700012 681.299988 917.200012 687 C 917 689.700012 916.200012 690.599976 913.400024 690.599976 C 902.200012 690.400024 891 690.5 879.799988 690.5 C 873.700012 690.5 867.599976 690.599976 861.5 690.700012 C 853 690.900024 850.700012 692.5 847.900024 700.5 C 844.700012 709.5 843.700012 718.700012 844.099976 728.200012 C 844.400024 734.700012 847 737.400024 853.599976 737.400024 C 871.900024 737.599976 890.299988 737.700012 908.599976 737.599976 C 911.599976 737.599976 912.400024 738.200012 912 741.299988 C 911.099976 747.400024 910.700012 753.599976 910.200012 759.799988 C 910 762.200012 909.200012 763 906.700012 762.900024 C 896 762.700012 885.200012 762.799988 874.400024 762.799988 C 874.299988 763 874.299988 762.900024 874.299988 762.799988 Z"></path>
    <path id="path11" fill="#020203" stroke="none" d="M 909.299988 237.200012 C 911.400024 237.200012 913.599976 237.5 915.700012 237.700012 C 925.200012 238.599976 929.400024 245.799988 929.900024 254.200012 C 930.400024 262.299988 928.599976 270.200012 927.700012 278.099976 C 926.900024 285.599976 925.900024 293.099976 925.5 300.700012 C 925.400024 303.299988 924.599976 304.5 921.700012 304.200012 C 918.299988 303.900024 914.900024 304 911.5 304.200012 C 909.200012 304.299988 908.599976 303.400024 908.700012 301.299988 C 909.299988 293.700012 909.799988 286 910.400024 278.299988 C 910.900024 271.900024 911.5 265.5 912.099976 259.099976 C 912.299988 257.299988 911.700012 256.599976 909.900024 256.799988 C 908.200012 256.900024 906.5 256.799988 904.799988 256.799988 C 899 256.799988 899 256.799988 898.5 262.700012 C 897.599976 275.599976 896 288.5 894.5 301.400024 C 894.299988 303.200012 893.900024 303.700012 892.099976 303.599976 C 888.099976 303.5 884.200012 303.400024 880.200012 303.599976 C 877.700012 303.700012 877.200012 302.799988 877.400024 300.599976 C 878.5 291.400024 879.5 282.200012 880.400024 273 C 880.900024 268.200012 881.299988 263.299988 881.799988 258.5 C 881.900024 257.200012 881.5 256.599976 880.200012 256.599976 C 876.700012 256.599976 873.200012 256.700012 869.700012 256.599976 C 867.799988 256.5 867.799988 257.700012 867.700012 259 C 866.900024 268.799988 866.099976 278.599976 865.200012 288.299988 C 864.799988 292.900024 864.200012 297.5 863.799988 302.099976 C 863.700012 303.700012 862.799988 304.099976 861.299988 304.099976 C 856.700012 304 852 304 847.400024 304.099976 C 845.400024 304.099976 845 303.599976 845.200012 301.5 C 847 281.400024 849.900024 261.400024 851 241.200012 C 851.200012 238 852 236.599976 855.700012 236.700012 C 865.099976 237.099976 900.700012 237.099976 909.299988 237.200012 Z"></path>
    <path id="path12" fill="#020203" stroke="none" d="M 781.599976 763.200012 C 778.299988 763.200012 775 762.900024 771.799988 763.299988 C 768.099976 763.799988 767.5 762.200012 767.799988 759 C 769 747.400024 769.5 735.799988 771.200012 724.299988 C 773.5 709.099976 774 693.799988 775.900024 678.5 C 776 677.5 776.099976 676.5 776.299988 675.5 C 777.799988 667 777.799988 667 786.599976 667 C 792.099976 667 797.700012 667.099976 803.200012 667 C 805.099976 667 805.799988 667.400024 805.5 669.5 C 802 696.900024 800.5 724.5 796.900024 751.900024 C 796.5 754.900024 796.299988 758 796.200012 761 C 796.200012 762.799988 795.400024 763.299988 793.700012 763.299988 C 789.700012 763.099976 785.700012 763.200012 781.599976 763.200012 Z"></path>
    <linearGradient id="linearGradient1" x1="263.0153" y1="226.263" x2="149.3286" y2="538.6145" gradientUnits="userSpaceOnUse">
      <stop offset="0.006862" stop-color="#989797" stop-opacity="1"></stop>
      <stop offset="0.6615" stop-color="#000000" stop-opacity="1"></stop>
    </linearGradient>
    <path id="path13" fill="url(#linearGradient1)" stroke="none" d="M 357 295.200012 C 355.700012 296.099976 355.5 295 355.200012 294.200012 C 350.899994 283.799988 345.5 274 338.100006 265.599976 C 322.5 248 303.799988 237 279.700012 237 C 243.300003 237 206.800003 237 170.399994 237 C 163.300003 237 156.199997 237.5 149.100006 238.200012 C 127.400002 240.599976 108.699997 248.799988 94.099998 265.599976 C 86.599998 274.200012 81.099998 283.900024 77.099998 294.599976 C 75.900002 298.599976 74.300003 302.599976 73.599998 306.799988 C 72 312.299988 71 317.900024 70.5 323.599976 C 69.5 333.900024 69.300003 344.200012 71.5 354.400024 C 78.800003 397.599976 107 421 150.300003 422.900024 C 150.5 423 150.699997 423.099976 150.899994 423.099976 C 153.100006 423.700012 155.399994 423.5 157.600006 423.5 C 187 423.5 216.399994 423.5 245.800003 423.5 C 248.899994 423.5 251.899994 423.400024 255 423.400024 C 257.200012 423.5 259.5 423.400024 261.700012 423.700012 C 266 424.299988 270.399994 423.5 274.5 425.400024 C 272.700012 427.900024 270.899994 430.400024 269.100006 432.900024 C 259.5 442 247.800003 445.799988 234.800003 445.900024 C 183.800003 446 132.899994 445.900024 81.900002 445.900024 C 81.099998 445.900024 80.300003 446 79.5 445.900024 C 78.099998 445.700012 77.599998 446.299988 77.400002 447.799988 C 74.900002 467.700012 73.300003 487.700012 71.300003 507.700012 C 71 510.600006 72 511 74.599998 511 C 136.600006 510.899994 198.699997 511 260.700012 510.899994 C 268.700012 510.899994 276.5 509.700012 284.100006 507.200012 C 305 500.299988 320.600006 487.099976 331.799988 468.400024 C 333.5 466.400024 334.799988 464 336 461.700012 C 336.799988 461.5 337.700012 461.200012 338.5 461 C 337 454.799988 335 448.799988 333.700012 442.5 C 332.899994 438.799988 332.799988 435.099976 332.399994 431.400024 C 332.299988 430.200012 332 428.799988 331.799988 427.599976 C 330.100006 399.5 331.899994 371.700012 338.200012 344.299988 C 341.600006 329.5 345.899994 315.099976 353.899994 302 C 355.100006 300.099976 356.399994 298.299988 356.899994 296 C 357 296 357 295.900024 357.100006 295.799988 C 357.299988 295.5 357.200012 295.400024 357 295.200012 Z M 289.200012 354.200012 C 288.200012 356.900024 286.799988 357.700012 284 357.700012 C 242.899994 357.599976 201.800003 357.599976 160.699997 357.599976 C 157.899994 357.599976 155.100006 357 152.399994 358.099976 C 152.399994 358.099976 152.399994 358.099976 152.399994 358.099976 C 152.399994 358.099976 152.399994 358.099976 152.399994 358.099976 C 152.399994 358.099976 152.399994 358.099976 152.399994 358.099976 C 150.199997 357.400024 148 356.700012 145.800003 356.099976 C 138.5 354.099976 134.100006 349.200012 131.899994 342.200012 C 131.5 341 131.100006 339.799988 130.800003 338.700012 C 130.800003 338.700012 130.800003 338.700012 130.699997 338.599976 C 130.699997 338.599976 130.699997 338.599976 130.800003 338.599976 C 130.5 332.400024 131.199997 326.299988 132.199997 320.200012 C 134.199997 307.700012 142.399994 300.799988 154 297.400024 C 159.600006 295.799988 165.300003 295.299988 171.100006 295.299988 C 198.800003 295.299988 226.600006 295.200012 254.300003 295.299988 C 266.600006 295.400024 277.399994 299.299988 285.5 309 C 289.700012 314.099976 291.5 320.200012 292.299988 326.5 C 293.399994 335.900024 292.5 345.200012 289.200012 354.200012 Z"></path>
    <linearGradient id="linearGradient2" x1="834.7561" y1="259.463" x2="738.236" y2="524.6497" gradientUnits="userSpaceOnUse">
      <stop offset="0.006862" stop-color="#989797" stop-opacity="1"></stop>
      <stop offset="0.6615" stop-color="#000000" stop-opacity="1"></stop>
    </linearGradient>
    <path id="path14" fill="url(#linearGradient2)" stroke="none" d="M 930 410.200012 C 929.400024 398 927.299988 386.200012 922.900024 374.900024 C 918.200012 362.799988 911.099976 352.299988 900.900024 344.099976 C 884.900024 331.200012 866 326.900024 846 326.700012 C 810.099976 326.299988 774.200012 326.5 738.299988 326.400024 C 735.200012 326.400024 732.099976 326 728.700012 325.799988 C 733.5 317.700012 738.299988 310.400024 747.099976 306.900024 C 753.200012 304.400024 759.599976 303.900024 766 303.5 C 767 302.400024 767 301 767.200012 299.700012 C 768.799988 288.900024 769.599976 278 770.400024 267.099976 C 771 258.299988 773 250.200012 779 243.400024 C 779.900024 242.400024 780.799988 241.299988 780.299988 239.799988 C 768.299988 239.400024 756.400024 240.799988 744.599976 243.200012 C 724.200012 247.299988 704.900024 253.900024 688.599976 267.5 C 675.200012 278.700012 665.299988 292.5 658 308.299988 C 656.599976 311.900024 655.099976 315.400024 653.700012 319 C 652.099976 322.799988 650.5 326.599976 649.799988 330.700012 C 649.299988 332.099976 648.700012 333.400024 648.400024 334.799988 C 645.599976 345.400024 643.299988 356.099976 641.799988 367 C 640 380.200012 639.099976 393.5 639 406.799988 C 639 419.5 640.099976 432.099976 641.5 444.599976 C 641.299988 446.299988 642.799988 446.599976 643.799988 447.200012 C 658.200012 455.799988 664.799988 468.200012 662.599976 485 C 662.400024 486.5 662.400024 487.900024 663.900024 488.899994 C 664.799988 489.700012 665.700012 490.600006 666.599976 491.399994 C 682.299988 505.600006 700.200012 513.900024 722 513.599976 C 758.299988 513.200012 794.599976 513.5 831 513.5 C 839.200012 513.5 847.5 513.099976 855.700012 511.799988 C 879.5 508.100006 898.700012 497 912.200012 476.700012 C 913.5 475.599976 914.299988 474.200012 914.900024 472.599976 C 917.5 468.799988 919.5 464.700012 921 460.400024 L 921 460.400024 C 927.5 444.200012 930.799988 427.599976 930 410.200012 Z M 867.200012 429.5 C 866.099976 432.700012 865.099976 435.900024 864 439.099976 C 861.299988 441.599976 858.5 444.099976 855.799988 446.5 C 848.099976 450.700012 839.700012 452.099976 831 452.099976 C 801.400024 452 771.700012 452.099976 742.099976 451.900024 C 728.700012 451.799988 717.700012 446.599976 711 434.400024 C 706.799988 426.599976 706 418.099976 706.900024 409.400024 C 707.599976 403.099976 708.799988 396.900024 710.299988 390.799988 C 728.400024 390.799988 746.5 390.700012 764.599976 390.700012 C 776.299988 390.700012 788.099976 390.700012 799.799988 390.700012 C 810.5 390.700012 821.299988 391 832 390.5 C 839 390.200012 846 390.299988 852.900024 391.299988 C 860.900024 392.5 865.200012 397.799988 867.299988 405.200012 C 869.599976 413.5 868.900024 421.5 867.200012 429.5 Z"></path>
    <path id="path15" fill="#020203" stroke="none" d="M 919.400024 587.099976 C 920.400024 577.700012 919.299988 568.799988 912.700012 561.400024 C 906.099976 554.099976 897.400024 551.400024 888 551.200012 C 867.599976 550.900024 847.200012 551.099976 826.900024 551.099976 C 824.599976 551.099976 824.400024 552.299988 824.200012 554 C 823 566.599976 821.799988 579.200012 820.5 591.799988 C 819.099976 605.5 817.599976 619.200012 816.799988 633 C 816.599976 636.200012 815.5 639 812 641 C 812.400024 635.299988 812.599976 630.400024 813.099976 625.5 C 813.400024 622.599976 812.799988 621.700012 809.599976 621.700012 C 792.400024 621.799988 775.200012 622.299988 758 621.700012 C 748.599976 621.400024 748.200012 621.099976 747.400024 611.900024 C 747.200012 609.599976 747.900024 609.299988 749.900024 609.299988 C 758.5 609.299988 767.099976 609.099976 775.700012 609.099976 C 787.700012 609.099976 799.700012 609.200012 811.700012 609.400024 C 814 609.400024 814.799988 608.700012 815 606.5 C 815.5 601.200012 816.200012 596 816.799988 590.700012 C 817.299988 586.5 817.299988 586.5 812.900024 586.5 C 792.5 586.5 772.099976 586.5 751.799988 586.599976 C 749 586.599976 748.799988 585.799988 749.900024 583.599976 C 750.900024 581.700012 751.799988 579.700012 752.5 577.700012 C 753.200012 575.599976 754.5 574.900024 756.799988 574.900024 C 776.200012 575 795.5 574.799988 814.900024 574.900024 C 817.099976 574.900024 818.099976 574.400024 818.299988 572 C 818.799988 566.200012 819.5 560.299988 820.299988 554.5 C 820.700012 552 819.900024 551.5 817.5 551.5 C 797.599976 551.599976 777.599976 551.400024 757.700012 551.599976 C 747.099976 551.700012 737.599976 554.400024 731 563.599976 C 728.5 567 726.599976 570.700012 724.700012 574.400024 C 721.900024 581.299988 720.5 588.5 719.599976 595.900024 C 718.900024 601.700012 719.299988 607.599976 718.400024 613.400024 C 718.099976 615.099976 717.799988 617 719.299988 618.5 C 719.5 620.200012 719.799988 621.799988 720 623.5 C 722 636.799988 730.900024 646.700012 745.799988 646.400024 C 777.299988 645.900024 808.700012 646.299988 840.200012 646.400024 C 843.099976 646.400024 844.099976 645.700012 844.400024 642.799988 C 844.900024 635.299988 845.799988 627.700012 846.400024 620.200012 C 846.599976 617.900024 847.200012 617.099976 849.599976 617.099976 C 856.200012 617.299988 862.700012 617.299988 869.299988 617.099976 C 871.5 617 872.5 617.900024 873.299988 619.799988 C 876.799988 628.200012 880.5 636.599976 884.099976 644.900024 C 884.5 645.900024 884.799988 646.700012 886.099976 646.700012 C 896.099976 646.599976 906.200012 647 916.700012 646.299988 C 912.799988 637 909.099976 628 905 619.099976 C 904 616.799988 904.299988 615.599976 906 613.900024 C 913.299988 606.299988 918.299988 597.599976 919.400024 587.099976 Z M 887.599976 591 C 877.799988 592.200012 867.900024 591.5 858.099976 591.5 C 855.5 591.5 852.299988 592.599976 850.599976 591 C 848.799988 589.400024 850.5 586.299988 850.599976 583.900024 C 850.900024 574.799988 851 574.799988 860.200012 574.700012 C 863.099976 574.700012 866.099976 574.700012 869 574.700012 C 875.299988 574.900024 881.700012 574.299988 888 575.299988 C 892.099976 576 893.900024 577.799988 894 582 C 894 587 891.5 590.599976 887.599976 591 Z"></path>
    <path id="path16" fill="#020203" stroke="none" d="M 717.799988 611.5 C 716.900024 606.900024 715.200012 602.599976 712.099976 599.099976 C 710.799988 597.599976 710.799988 596.299988 712 594.700012 C 714.700012 591 716.400024 586.799988 717.400024 582.400024 C 719.900024 571.400024 716 558.799988 704 554.200012 C 698.099976 552 691.900024 551.299988 685.700012 551.299988 C 666.400024 551.299988 647 550.900024 627.599976 551.400024 C 624.799988 551.5 624.200012 552.5 623.900024 554.799988 C 622 570.299988 621.099976 585.799988 619.200012 601.200012 C 617.400024 615.200012 617.099976 629.299988 615.200012 643.299988 C 614.799988 645.900024 615.900024 646.200012 618.099976 646.200012 C 638.700012 646.099976 659.299988 646.200012 679.900024 646.099976 C 683.900024 646.099976 687.799988 646.200012 691.700012 645.5 C 702.099976 643.599976 711 639.599976 715.200012 629.099976 C 716.200012 626.5 716.900024 623.700012 717.700012 621 C 718.5 617.799988 719.200012 614.599976 717.799988 611.5 Z M 687.799988 615.200012 C 687.299988 621 686.099976 622.400024 680.400024 623 C 674.299988 623.700012 668.200012 623.5 662.099976 623.400024 C 657.5 623.400024 652.799988 623.400024 648.200012 623.400024 C 646.599976 623.400024 645.799988 623.299988 646.200012 621.099976 C 648.400024 608.599976 645.599976 611.400024 657.700012 610.799988 C 666.799988 610.299988 675.900024 611.299988 685 612.099976 C 687 612.400024 688 612.799988 687.799988 615.200012 Z M 692.599976 580.900024 C 691.700012 583.5 687.099976 586.900024 683.900024 587.200012 C 678 587.799988 672.200012 587.599976 666.299988 587.599976 C 661.799988 587.599976 657.299988 587.400024 652.799988 587.700012 C 650 587.799988 649.5 586.700012 650.099976 584.299988 C 650.299988 583.700012 650.400024 583 650.400024 582.299988 C 651 574.799988 651 574.700012 658.400024 574.799988 C 666.5 574.900024 674.700012 574.5 682.799988 575.099976 C 686.5 575.400024 689.200012 577.599976 692.099976 579.5 C 692.599976 579.900024 692.900024 580.200012 692.599976 580.900024 Z"></path>
    <path id="path17" fill="#020203" stroke="none" d="M 177.199997 585.200012 C 178.5 564.5 168.199997 554.900024 152.100006 551.900024 C 143.600006 550.299988 134.899994 551.200012 126.300003 551.200012 C 112.800003 551.099976 99.300003 551.200012 85.900002 551.099976 C 83.400002 551.099976 82.599998 551.799988 82.400002 554.299988 C 82.199997 558.099976 81.599998 561.900024 81.199997 565.700012 C 78.5 591.599976 75.900002 617.599976 73.099998 643.5 C 72.900002 645.799988 73.599998 646.200012 75.599998 646.099976 C 83.300003 646 91 645.900024 98.699997 646.099976 C 101.300003 646.200012 101.900002 645.200012 102.099998 642.799988 C 102.800003 634.799988 103.800003 626.900024 104.599998 618.900024 C 104.800003 617.099976 105.400002 616.700012 107.099998 616.700012 C 114 616.799988 120.900002 616.799988 127.800003 616.700012 C 129.399994 616.700012 130.199997 617.099976 130.800003 618.599976 C 134.199997 626.700012 137.800003 634.700012 141.199997 642.900024 C 142.199997 645.299988 143.300003 646.799988 146.399994 646.5 C 150.399994 646.200012 154.5 646.400024 158.600006 646.400024 C 162.800003 646.400024 167 646.400024 171.199997 646.400024 C 174.899994 646.400024 174.899994 646.400024 173.399994 642.900024 C 170 634.799988 166.600006 626.700012 162.899994 618.700012 C 161.899994 616.400024 162.100006 615 163.899994 613.099976 C 171.800003 605.5 176.5 596.5 177.199997 585.200012 Z M 151.699997 584.799988 C 149.699997 589.700012 147 592.700012 141 591.799988 C 136.699997 591.200012 132.199997 591.700012 127.800003 591.700012 C 127.800003 591.700012 127.800003 591.599976 127.800003 591.599976 C 121.900002 591.599976 116 591.599976 110.099998 591.599976 C 108.5 591.599976 107.5 591.400024 107.800003 589.400024 C 108.400002 585.5 108.699997 581.599976 109.099998 577.700012 C 109.300003 575.599976 110.099998 574.700012 112.5 574.700012 C 123.5 574.900024 134.5 574.799988 145.399994 574.799988 C 149.5 574.799988 153.199997 581 151.699997 584.799988 Z"></path>
    <linearGradient id="linearGradient3" x1="571.2004" y1="220.2291" x2="456.8966" y2="534.2761" gradientUnits="userSpaceOnUse">
      <stop offset="0.006862" stop-color="#989797" stop-opacity="1"></stop>
      <stop offset="0.6615" stop-color="#000000" stop-opacity="1"></stop>
    </linearGradient>
    <path id="path18" fill="url(#linearGradient3)" stroke="none" d="M 663.799988 484.5 C 665.200012 472.900024 662.599976 462.599976 654.400024 453.900024 C 650.700012 449.900024 646 447.400024 641.700012 444.5 C 634.799988 443.599976 627.900024 442.599976 620.900024 443.599976 C 618.900024 443.900024 619.599976 442.400024 619.799988 441.299988 C 620.799988 434.5 622.099976 427.799988 622.099976 420.900024 C 622.200012 420.5 622.299988 420.099976 622.299988 419.700012 C 622.900024 416.099976 622.299988 412.5 622.200012 408.900024 C 621.700012 391.099976 616.700012 374.799988 607.099976 359.700012 C 598.5 346.200012 586.299988 337.5 571.599976 332.200012 C 559.400024 327.799988 546.599976 326.700012 533.599976 326.5 C 510.299988 326.200012 487 326.900024 463.700012 327.099976 C 461 327.099976 458.299988 327.200012 455.600006 327.200012 L 455.600006 327.200012 L 455.600006 327.200012 C 444.200012 326.799988 432.899994 326.299988 421.100006 325.900024 C 424.299988 320.099976 428 315.400024 431.899994 310.900024 L 431.899994 310.900024 C 440.799988 305.799988 450.399994 303.400024 460.700012 303.400024 C 510.5 303.400024 560.299988 303.400024 610.200012 303.400024 C 610.900024 303.400024 611.599976 303.400024 612.200012 303.400024 C 613.700012 303.5 614.599976 303.099976 614.599976 301.400024 C 614.599976 300.299988 615 299.200012 615.099976 298.099976 C 617 279.299988 618.700012 260.400024 620.799988 241.599976 C 621.200012 237.799988 620.099976 237.700012 617 237.700012 C 584.599976 237.799988 552.200012 237.799988 519.900024 237.700012 C 500.399994 237.599976 481 237.700012 461.600006 239.5 C 442.700012 241.299988 424.299988 244.900024 406.600006 252 C 393.299988 257.299988 381.600006 265 372 275.700012 C 366.299988 281.700012 361.799988 288.599976 356.899994 295.299988 C 356.899994 295.400024 356.899994 295.599976 356.899994 295.700012 C 356.700012 295.900024 356.5 296.099976 356.299988 296.299988 C 354.100006 299.200012 352.399994 302.299988 350.700012 305.5 C 343.5 319.099976 339.299988 333.799988 336.200012 348.700012 C 333.100006 363.400024 331.5 378.299988 330.600006 393.299988 C 329.899994 404.700012 330.299988 416.099976 331.100006 427.400024 C 331.200012 428.099976 331.600006 428.700012 331.5 429.400024 C 331.299988 439 334 448 336.5 457.099976 C 336.899994 458.5 337.200012 459.900024 338.600006 460.799988 C 343.799988 474.299988 352.100006 485.599976 363.200012 494.799988 C 378.399994 507.399994 395.700012 513.700012 415.799988 513.400024 C 454.600006 512.799988 493.399994 513.400024 532.200012 512.900024 C 555.599976 512.599976 576.900024 506 594.099976 489.200012 C 595.900024 489.100006 595.900024 490.600006 596.299988 491.700012 C 602.200012 506.600006 619.799988 516 635.400024 512.700012 C 648.200012 510 656.900024 502.299988 662 490.5 C 662.400024 489.600006 662.5 488.399994 663.900024 488.600006 C 663.200012 487.400024 663.599976 486 663.799988 484.5 Z M 554.799988 440.200012 C 547.900024 449.099976 538.099976 451.900024 527.5 452 C 496.100006 452.200012 464.799988 452.200012 433.399994 452 C 413.5 451.900024 399.299988 437.5 398.700012 417.200012 C 398.399994 408.700012 400.600006 400.400024 402 392.099976 C 402.299988 390.299988 403.600006 390.5 404.799988 390.5 C 410.299988 390.5 415.899994 390.5 421.399994 390.5 C 454 390.400024 486.600006 390.299988 519.200012 390.200012 C 527.099976 391.099976 535.099976 390.799988 543.099976 391.5 C 552.900024 392.400024 557.400024 397.700012 560.200012 408.5 C 560.299988 409 560.5 409.5 560.700012 410 C 560.700012 410 560.700012 410 560.799988 410 C 560.799988 410 560.799988 410 560.799988 410.099976 C 562.200012 411.799988 560.599976 413.799988 561.400024 415.599976 C 561.200012 424.299988 560.400024 433 554.799988 440.200012 Z M 561.900024 412.099976 C 561.900024 412.099976 561.900024 412.099976 561.900024 412.099976 C 561.900024 412.099976 561.900024 412.099976 561.900024 412.099976 C 561.900024 412.099976 561.900024 412.099976 561.900024 412.099976 Z"></path>
    <path id="path19" fill="#020203" stroke="none" d="M 766.099976 303.400024 C 767.599976 288.200012 768.900024 273 770.599976 257.900024 C 771.299988 251.900024 774.700012 247 778.400024 242.299988 C 778.799988 241.799988 779.400024 241.400024 779.799988 240.799988 C 780.599976 239.799988 781.799988 239.099976 783 238.700012 C 789 237 795.299988 236.700012 801.400024 236.599976 C 813.400024 236.299988 825.400024 236.700012 837.400024 236.599976 C 838.799988 236.599976 839.099976 237 839 238.299988 C 838.700012 242.700012 838.5 247.099976 838.200012 251.5 C 838.099976 253.5 836.599976 253.099976 835.5 253.099976 C 826.099976 253.099976 802.900024 253.200012 800.5 253.200012 C 794.599976 253.099976 791.5 255.5 789.200012 260.799988 C 793.799988 261 823.599976 261.5 834 261.400024 C 836.700012 261.400024 837.5 262.099976 836.599976 265.599976 C 835.799988 268.799988 835.5 272 835.5 275.299988 C 835.5 278.400024 833.599976 277.599976 832.299988 277.599976 C 818.900024 277.599976 805.599976 277.700012 792.200012 277.599976 C 789.5 277.599976 788.5 278.299988 788.299988 281.099976 C 787.799988 287.700012 786.900024 294.299988 786.200012 301 C 786 302.900024 785.5 303.700012 783.299988 303.700012 C 777.700012 303.400024 771.900024 303.400024 766.099976 303.400024 Z"></path>
  </g>
</svg>
