<?xml version="1.0" encoding="UTF-8"?>
<!-- Generator: Adobe Illustrator 24.2.3, SVG Export Plug-In . SVG Version: 6.00 Build 0)  -->
<svg xmlns="http://www.w3.org/2000/svg" xmlns:xlink="http://www.w3.org/1999/xlink" version="1.1" id="Capa_1" x="0px" y="0px" viewBox="0 0 1000 1000" style="enable-background:new 0 0 1000 1000;" xml:space="preserve">
<style type="text/css">
	.st0{fill:#F6F6F6;}
	.st1{fill:#FBCA03;}
	.st2{fill:#FD3333;}
	.st3{fill:#B4B3B1;}
	.st4{fill:#FC352F;}
	.st5{fill:#090604;}
</style>
<rect class="st0" width="1000" height="1000"></rect>
<g>
	<path class="st1" d="M158.1,614.1c-20.3-12.9-35.1-30.3-44-52.8c-7.6-19.2-10.6-39.2-9.2-59.7c2.3-33.4,14.5-62.8,38.1-86.8   c14.5-14.8,31.8-25.4,51.7-32c14-4.6,28.3-7.6,42.8-7.2c35.1,0.8,66.1,12.2,90,39.3c2.1,2.3,3.1,2,5-0.3   c8.1-10.4,17.4-19.7,27.2-28.4c16.8-14.9,35.7-26.6,56.3-35.5c10.6-4.6,21.6-8.4,32.9-11c11.5-2.7,23.1-4.8,35-5.5   c12.2-0.7,24.4-0.7,36.5,0.3c11.1,0.9,22.1,2.9,32.9,5.8c10.4,2.7,20.4,6.1,30.3,10.2c0.6,0.2,1.3,0.1,2,0.2c0.1,2,0.2,4.1,0.2,6.1   c0,33.1,0,66.1,0,99.2c0,6.6,0.3,13.3,0.1,19.9c-0.1,3.1,2.5,5.8,1.1,9.3c-7.4-9.7-15.8-18.2-25.5-25.2   c-13.2-9.5-28-15.4-43.9-18.1c-15.6-2.6-31.1-1.7-46.4,2.7c-16.6,4.8-31.2,12.7-43.8,24.5c-23.1,21.8-34.3,48.6-34.1,80.3   c0.1,12.6,2.6,24.8,7.2,36.6c8.2,21.4,22.1,38.3,41.1,50.8c13.7,9.1,28.8,14.3,45.2,16.6c15.8,2.3,31.1,0.6,45.9-4.2   c20.4-6.6,37.6-18.3,51-35.3c8.3-10.6,14.6-22.2,18.5-35c3.8-12.5,4.7-25.5,4.7-38.4c0.3-55.3,0.1-110.5,0.2-165.8   c0-4.2,0.1-8.4,0.2-12.6c2.6,1.5,5.2,3,7.8,4.5c11.9,8.3,23.5,17,34,27c0.8,0.7,1.5,1.2,2.5,0.9c1.1-0.4,0.9-1.5,1-2.4   c0.9-8.4,5.1-12.1,13.7-12.1c61.9,0,123.7,0.1,185.6-0.1c11.9,0,14,5.5,15.4,14.3c0.2,1.2,0.2,2.4,0.3,3.6c-0.4,4.7,1,9.3,1.2,13.9   c0.7,19.4,0.5,38.9-1.5,58.2c-0.1,0.5,0,1.1-0.2,1.6c-3.9,9.4-7.8,18.7-11.8,28.1c-2.9,6.8-6.1,13.4-8.8,20.2   c-3.7,9.1-7.3,18.3-10.8,27.5c-2.9,7.5-5.9,14.9-8.7,22.5c-3.9,10.6-7.7,21.3-11.5,31.9c-2.7,7.4-5.5,14.8-8,22.2   c-2.5,7.6-4.3,15.5-7.1,23c-3.5,9.3-6.2,18.7-9.1,28.1c-2.5,8.3-4.7,16.8-7.1,25.1c-3.4,11.8-5.8,23.8-9.2,35.6   c-1.5,5.1-4.8,8.2-10.1,8.2c-23,0.1-46.1,0-69.1,0c-8.5,0-17.1,0.1-25.6,0.1c-9.6-1.3-11.1-10.1-8.6-16.3   c6.3-15.3,13.2-30.4,19.9-45.5c0.5-1.2,0.7-2.3,0.7-3.5c0,0-0.1,0-0.1,0c1.4-0.2,1.5-1.3,1.5-2.3c4.5-8.1,7.7-16.8,11.4-25.3   c7.7-17.3,15.1-34.8,22.6-52.2c3.3-7.5,6.6-15,9.9-22.5c6.3-14.3,12.9-28.5,18.9-43c2.6-6.2,6-12.1,7.4-18.9c0.4-0.1,1-0.2,1.1-0.4   c3.4-7.7,6.7-15.5,10.1-23.2c1.8-4.1,1.8-4.1-2.8-4.1c-7.1,0-14.2,0.8-21.3,1.3c-10.2,0.7-20.4,0.3-30.6,0.4   c-3.7,0-4.9,1.4-3.5,4.9c3.5,8.5,4.6,17.7,5.6,26.6c1.1,9.7,2.2,19.5,2.1,29.4c-0.1,6.7-2.2,13.2-1.6,19.9c0.4,5.1-1.6,10-2,15   c-0.3,2.9-0.8,6.1-1.6,9c-1.9,7-4.1,13.9-6,20.9c-2.3,8-5.5,15.7-9,23.1c-3.4,7.3-7.7,14.3-11.8,21.4   c-7.3,12.6-16.6,23.4-25.9,34.4c-4.4,5.2-9.8,9.4-14.7,14c-10.4,9.6-21.7,17.9-33.9,24.7c-16.7,9.4-34.2,17.2-53.1,22   c-9.8,2.5-19.7,4.6-29.6,5.7c-8.9,0.9-17.8,1.7-26.8,2c-4.4,0.1-8.4-1.4-12.7-1.5c-4.7-0.1-9.5-0.3-14.3-1.2   c-8.6-1.5-17.2-3.2-25.7-5c-13.6-2.9-26.1-8.5-38.7-14.1c-4.3-1.9-7.9-5.3-12.8-5.8c0,0,0,0,0,0c-0.8-2.4-2.6-3.3-5-3.2   c0,0,0,0,0,0c-0.2-1.7-1.4-1.7-2.8-1.6c0,0-0.2,0-0.3,0c-0.1-1.1-0.7-1.8-1.9-1.6c0,0,0,0,0,0c-0.1-1.1-0.8-1.6-1.9-1.5   c-12.1-7.5-22.4-17.3-33.1-26.5c-1-0.8-1-2.6-2.6-2.9c0.1-0.9-0.6-1.4-1.2-1.9c-9.3-9.1-17.3-19.3-24.4-30.2c-1.7-2.7-2-3.1-3.8,0   c-8.1,13.9-15.6,28.1-25.2,41.1c-8.8,11.8-17.7,23.4-27.9,34c-3,3.2-6.2,4.4-10.5,4.4c-30.1-0.2-60.1-0.1-90.2-0.1   c-4.1-0.3-6.8-3.1-8-6.4c-1.4-4.1-1.1-8.3,2.4-11.9c12.2-12.4,23.8-25.3,34.9-38.7c8.4-10.1,16.5-20.4,23.9-31.3   c0.2-0.3,0.2-0.8,0.2-1.2c0.5-0.1,1-0.1,1.3-0.7c5-8.4,10.6-16.4,15-25c0.5-0.9,1.6-1.7,1-2.8c-0.8-1.3-2.4-1-3.3-0.5   c-2.8,1.5-5.7,1.1-8.7,1.2c-10.2,0.2-20.3,0.3-30.5-1.4c-7.7-1.3-15.1-3.2-22.3-6.3C165.7,617.6,161.9,615.8,158.1,614.1z    M166.3,733c0.8,0.4,0.9,0.5,1,0.5c28.4,0,56.9,0.1,85.3,0.1c1.4,0,2.5-0.5,3.5-1.6c7.1-7.2,13.8-14.8,19.9-22.8   c13-17.1,24-35.3,33.8-54.4c1.8-3.5,1.7-6.2-0.2-9.4c-4.1-7.3-7.2-15-10.2-22.7c-3.6-9.6-6.3-19.4-8.6-29.3   c-2-8.7-3.8-17.5-4.2-26.3c-1-22.4-1.1-44.8,4.4-66.9c3.3-13.2,7.2-26,12.6-38.5c4.9-11.2,10.7-22,17.4-32.2   c1.1-1.6,1.6-2.9,0.2-4.7c-6.9-8.8-15.4-16-24.8-21.8c-14.2-8.6-29.7-13.3-46.3-15.5c-16.4-2.2-32.1,0-47.6,4.1   c-15.7,4.2-29.9,11.7-42.6,22.2c-27,22.3-41.2,51.4-44.2,85.9c-1.3,15.5,0,30.9,4.4,46.1c5.7,19.9,15.5,36.9,31.6,50.1   c14.8,12.2,31.7,19,51,19.8c8.1,0.3,16.2,0.7,24.3-0.2c7.4-0.8,14.8-1.6,21.8-4.2c1.5-0.5,3-0.8,5.1-1.4   C234.3,658.2,201.2,696,166.3,733z M759.5,391.4c-28.3,0-56.6,0-84.9,0c-11.8,0-11.9,0-12.2,12.2c-0.1,2.1-0.6,4.2,1,6.2   c15.9,19,28.4,40,37,63.2c2.2,5.8,2.3,5.7,8.7,4.8c0.5-0.1,1.1-0.1,1.6-0.1c22.9-0.6,45.7-1.3,68.6-1.9c4.1-0.1,4.6,0.6,2.9,4.3   c-7.7,17.6-15.4,35.1-23.1,52.7c-8.4,19-16.9,38-25.2,57.1c-10.6,24.2-21,48.6-31.6,72.8c-9.9,22.6-19.9,45.1-29.9,67.7   c-1,2.4-0.7,3.3,2.2,3.3c28.6-0.1,57.2-0.1,85.7,0c2.7,0,3.8-1,4.3-3.6c1.6-7.8,3.3-15.5,5.4-23.2c3.4-12.6,7.1-25.1,10.9-37.5   c4.4-14.3,8.9-28.5,13.6-42.7c5.9-17.7,12.2-35.3,18.7-52.8c7.6-20.5,15.5-41,23.8-61.2c5.3-12.8,11.2-25.3,16.4-38.1   c3.8-9.4,3.2-19.7,3.6-29.6c0.7-16.1,0.7-32.2-1.3-48.2c-0.7-5.3-0.3-5.3-5.7-5.3C819.9,391.3,789.7,391.4,759.5,391.4z    M540.2,732.3c2.3-0.4,4.5-0.7,6.8-1.1c7.9-1.4,9.4-3.7,7.5-11.4c-2.1-8.8-4.2-17.6-6.3-26.5c-1.7-7.2-3.4-14.5-5.3-21.7   c-1.2-4.6-3.3-6-7.1-5.3c-4.1,0.7-5.4,2.6-5.3,7.2c0,1.2,0.2,2.4,0.3,3.6c1.1,9.5,2.3,19.1,3.4,28.6c0.2,1.4,0.9,3.3-0.8,4   c-1.5,0.7-2.7-1-3.7-1.9c-4.5-4.1-8.6-8.6-12.5-13.3c-6.1-7.5-11.3-15.5-15.5-24.2c-2.2-4.5-6.3-5.3-10.6-5.2   c-4,0.1-4.6,3.7-5.4,6.6c-4.7,15.9-9.5,31.9-14.1,47.9c-1.4,4.9-0.3,7.1,4.4,8.8c1.6,0.6,3.4,1,5.1,1.2c5.4,0.8,7.7-1,8.6-6.4   c1.7-9.9,3.4-19.7,5.1-29.6c0.3-1.5,0.1-3.8,1.9-4.1c1.6-0.3,2.1,1.8,2.9,3c8.2,13.6,18.5,25.3,30.6,35.5   C533.2,730.6,536.2,732.4,540.2,732.3z M647.3,539.9c0,5.3-0.1,12.3-1.7,19c-0.7,3-2.1,5.8-5.7,6.1c-3.7,0.3-5.7-2.1-6.9-5.2   c-2.3-5.6-3.2-11.4-3.1-17.5c0.1-5.1,1.7-9.4,6.1-12.7c3.6-2.7,3.8-7.4,0.8-11.1c-2.3-2.8-5.3-2.7-9.2,0.5   c-6.1,5.1-9.1,11.7-9.3,19.5c-0.4,11.8,0.7,23.4,8.1,33.2c4.5,5.9,10.7,8.7,18.2,7.4c7.5-1.3,11.2-6.7,13-13.5   c2.6-9.5,2.6-19.3,2.5-29c0-2.2,0.1-4.3,0.3-6.5c0.2-2.1,1.1-4,3.3-4.7c2.3-0.7,4.3,0.2,5.8,1.9c1.1,1.3,2.2,2.8,2.9,4.4   c3.1,6.8,3.8,14.1,2.7,21.4c-0.5,3.7-2,7.2-5.5,9c-4.5,2.4-5.5,6.4-5.4,10.9c0.1,5.6,3.4,7.8,8.7,5.9c6.5-2.4,10-7.5,12.2-13.8   c3.3-9.5,3-19.2,1.2-28.9c-1.6-8.9-4.8-17.2-11.8-23.5c-4.8-4.3-10.4-6.3-16.8-4.1c-6.3,2.2-9,7.3-10.1,13.6   C646.6,527.8,647.1,533.1,647.3,539.9z M629.7,638.4c0.2,6.9,2.6,14,10.4,17.6c7.7,3.5,14.2,0.1,20.1-4.8c1.6-1.3,2.9-2.8,4.2-4.4   c3.6-4.3,6.1-9.3,8.2-14.4c4.8-11.4,9-22.9,10.8-35.2c0.8-5.2-0.7-7.3-5.6-8.1c-17.2-2.7-34.5-5.4-51.8-7.9c-4.5-0.7-6.4,0.8-7.3,5   c-0.9,3.9,0.3,6,4.4,7.3c4.8,1.5,9.6,2.9,14.4,4.1c3.6,0.8,4.4,2.8,3.2,5.9c-1.8,4.9-3.7,9.9-5.8,14.7   C632.5,624.4,629.7,630.4,629.7,638.4z M631.6,685.3c-0.1-0.7,0-1.4-0.2-2c-4.1-20.1-11.5-38.9-22.8-56c-2.7-4.1-5.7-3.9-8.8,0   c-2,2.5-2.3,5.1-0.9,7.9c1.5,3.2,3.1,6.3,4.6,9.5c1.2,2.5,0.9,4.6-1.2,6.6c-4.6,4.4-9.5,8.5-14.6,12.2c-2.4,1.7-4.4,1.6-6.7,0   c-2.7-2-5.4-4.1-8.1-6.1c-3.6-2.6-8.5-1.9-11.3,1.4c-2,2.4-1.2,4.9,2.7,8.6c13.6,12.8,29.1,22.8,46,30.8c4.9,2.3,9.1,2,13.2-1.5   c1.9-1.6,3.7-3.1,5.5-4.8C630.6,690,631.8,687.9,631.6,685.3z M354.7,621.6c0.1,0.2,0.2,0.4,0.1,0.4c-0.4,0.7-0.8,1.4-1.3,2   c-2.9,3.9-3.9,8.1-1.6,12.5c2.4,4.6,6.2,6.9,11.5,6.9c7.6,0,15.7-5.3,18.7-12.2c2.6-6.1-0.4-13-6.7-15.2c-1.4-0.5-3.2-1.1-3.9,0.6   c-0.8,1.8,1.2,2,2.3,2.6c4,2.3,4.6,5,1.8,8.6c-0.8,1.1-1.8,2-2.8,2.9c-3.7,3.3-4,3.1-6.5-1c-2.2-3.6-3.1-8.2-7.7-10.7   c4.8-2.2,9.1-4.5,13.7-6.1c3.1-1.1,3.8-2.4,2.5-5.4c-1.2-2.9-2.8-2.9-5.4-1.7c-5.9,2.7-11.9,5.2-17.9,7.6c-1,0.4-2.1,0.4-3.2,0.5   c-1,0.1-1.9-0.3-2.2-1.4c-0.3-1,0.1-2,1-2.5c1.4-0.9,2.8-1.7,4.3-2.2c5.7-2.1,11.4-4.3,17.2-6.1c2.7-0.8,3-2.2,2.3-4.5   c-0.9-2.9-2.3-3.8-5.4-2.6c-6.5,2.3-13.1,4.3-19.7,6.2c-1.3,0.4-3.3,0.9-3.9-1c-0.6-2,1.3-2.7,2.7-3.5c0.6-0.3,1.3-0.4,1.9-0.6   c6.1-1.8,12.1-3.9,18.4-5c2.6-0.4,3.5-1.7,2.7-4.3c-0.7-2.4-1.4-4.6-4.7-3.3c-2.3,0.9-4.6,1.5-7.1,1.4c-0.1,0-0.1,0.1-0.2,0.2   c0,0,0-0.1-0.2-0.2c1.8-1.3,3.8-2.6,5.4-4.1c5.4-4.9,5-13.3-0.7-17.3c-1-0.7-2.1-1.7-3.2-0.6c-1.2,1.2-0.1,2.1,0.7,3.1   c3.4,4.3,2.8,7-2.2,9.5c-0.8,0.4-1.7,0.8-2.6,1.1c-4.6,1.6-5.1,1.3-5.8-3.4c-0.3-1.9-0.3-3.8-0.6-5.7c-0.8-7.3-2.4-8.1-8.7-4.6   c-4.4,2.5-7,5.9-6.6,11.1c0.4,5.4,3.3,9,8.4,10.9c2.1,0.8,4.3,1.2,6.5,1.8c-0.6,1-1.6,1-2.5,1.3c-8.3,2.6-10.2,9-4.8,15.8   c0.7,0.9,1.6,1.6,1.4,2.8c-1.3,6,3.4,10,5.2,14.9c1,2.6,3.3,4,6,1.2C352.3,622,353.4,621,354.7,621.6z M413.3,428.4   c2.6,1.2,4.5,2.3,6.5,3.1c6.5,2.7,13.3-0.5,15.3-7c0.4-1.4,1-3.2-0.8-3.9c-1.7-0.6-2,1.3-2.6,2.5c-2,3.8-4.7,4.7-8.2,2.2   c-1.7-1.2-3.2-2.9-4.6-4.5c-1.5-1.5-1.2-2.8,0.7-3.9c2.8-1.6,5.6-3.3,8.4-5c2.2-1.3,3.1-3,1.8-5.4c-3.3-6.3-12.4-8-17.9-3.5   c-4.7,3.8-4.9,9.1-4.6,14.4c0,0.7,1.1,1.4-0.1,2c-1.1,0.5-1.3-0.6-1.8-1.1c-5.3-4.9-10.8-4.6-15.3,1.2c-1.9,2.4-3,2.1-4.6,0.1   c-0.4-0.5-0.9-1-1.4-1.4c-2.6-2.2-4.5-0.8-6,1.4c-1.3,2-2.8,3.6,0.3,6c7.7,6.1,14.3,13.6,21.3,20.5c0.9,0.8,1.3,1.8,0.5,2.9   c-0.7,1.1-1.7,1.7-3.1,1.5c-1.7-0.3-2.9-1.4-4.1-2.5c-3.2-2.9-6.4-5.9-9.6-8.8c-1.7-1.5-3.3-3-1.5-5.4c0.5-0.7,0.5-1.6-0.2-2.3   c-0.8-0.8-1.8-0.8-2.6-0.1c-1.9,1.5-3.3,0.8-5-0.4c-2.4-1.7-3.5-0.4-3.4,2.1c0,1.6,0.7,3.3,0.5,4.8c-0.5,3.3-1.1,6.1,3.9,5.5   c0.8-0.1,1.8,1,2.6,1.7c3.9,3.2,7.6,6.5,11.6,9.5c4.3,3.3,9.2,3.2,12.1-0.3c1.7-2.1,3.6-4,5.7-5.7c2.2-1.8,2.5-3.4,0.1-5.6   c-4.6-4.5-8.9-9.4-13.3-14.2c-1.5-1.6-2.4-3.5-0.6-5.4c1.9-2,3.9-1.2,5.8,0.3c0.6,0.5,1.2,1.1,1.7,1.8c3.8,4.6,7.7,9.1,11.2,13.9   c1.9,2.6,3.4,2,5.3,0.5c2-1.6,2.8-3.1,0.7-5.3C416.2,432.9,414.3,431.3,413.3,428.4z M356.8,503.2c2.9-1.3,4.7-0.6,6.5-0.7   c8.6-0.5,13.8-6.6,11.8-14.3c-0.4-1.5-0.8-3.7-2.8-3.4c-2.2,0.3-1.1,2.4-1,3.7c0.3,4.4-1.4,6.4-5.7,6.4c-1.9,0-3.7-0.6-5.6-0.9   c-2.8-0.5-3.2-1.8-2.1-4.3c1.6-3.3,3.5-6.6,4.1-10.1c0.6-3.3,1.8-2.6,3.7-1.6c3.4,1.9,6.9,3.7,10.2,5.8c2.4,1.5,3.7,0.7,4.9-1.4   c1.1-2,2.1-3.8-1-5.3c-3.9-1.9-7.5-4.3-11.3-6.3c-2.5-1.4-5-2.7-6.5-5.3c-1.4-2.4-2.9-4.9,1.3-6.3c1.6-0.6,2.6-2.1,1.6-4   c-0.9-1.7-2.4-2.1-4.2-1.4c-2.6,1-4.3,2.9-4.4,5.7c0,2-0.6,3.3-2.3,4.7c-3.8,3.1-3,6.9,1.4,8.6c0.9,0.3,2.2,0.6,2.1,2.2   c-6-0.4-11.3,0.9-13.6,7.1c-3.1,8.2,1.6,13.5,7.8,18c-1,1-1.8,0.4-2.5,0.3c-9.8-1.2-13.6,1.7-14.4,11.5c-0.2,2-1,2.3-2.6,2   c-1.3-0.3-2.7-0.6-4-0.6c-2.8,0-3.2,2.2-3.2,4.3c0,2-0.5,4.7,2.6,5.2c9.9,1.5,19.9,2.8,29.8,4.2c2.9,0.4,6,1.3,5.6-3.5   c-0.1-1.2,1.2-1.7,1.9-2.6c3.2-3.7,3.4-7.9,0.3-11.8C363.3,506.5,360.8,504.8,356.8,503.2z M567.8,725.6c3.1-0.3,6.1-1.2,8.8-2.7   c3.3-1.8,4.5-4.5,3.1-8.1c-6.7-16.4-13.4-32.8-20.3-49.1c-1.6-3.9-4.3-4.7-8.3-3.2c-3.8,1.5-5,3.5-3.8,7.6   c4.7,16.9,9.5,33.8,14.3,50.8C562.5,723.8,564.3,725.8,567.8,725.6z M504.2,405.8c-1.8-1.6-1.5-3.6-1.5-5.5   c-0.2-6.6-0.3-13.3-0.5-19.9c-0.1-2.7-1.5-4.2-4.2-3.5c-2.1,0.5-5.6,0.4-4.7,4.1c1.5,6.4,1.2,12.9,1.8,19.4c0.2,2,0.3,4.4-2.4,4.8   c-2.7,0.4-3.6-1.8-4.2-4c-0.2-0.8-0.2-1.6-0.3-2.4c-0.7-5.9-1.4-11.8-2.1-17.7c-0.4-3-2.6-3.3-4.8-2.6c-1.9,0.6-5.1,1.1-4,4   c2.2,6.3,2.4,13,3.8,19.5c0.8,4,2.7,7.7,6.9,8c4.5,0.3,9.6,0.2,13.7-1.6c2.9-1.3,4.3-0.9,6.6,0.4c5.3,3,11.5,1,14.7-4.3   c2.9-5,1.5-9.9-4-13.5c-1-0.7-2.1-1.3-3.1-2c-1.9-1.3-3.4-2.7-3-5.3c0.2-1.5,1.3-2.4,2.7-2.7c2.3-0.6,3.9,0.6,5.1,2.4   c0.4,0.7,0.9,1.4,1.9,1.3c1.1-0.2,1.4-1.2,1.6-2.1c0.5-2.9-0.2-5.1-3.4-5.9c-2-0.5-4-0.9-6-0.7c-4.7,0.4-8.9,3.5-9.9,7.3   c-1.2,4.4,0.5,8.3,5.1,11.4c1.8,1.2,3.7,2.2,5.3,3.7c1.7,1.6,1.8,3.8,0.3,5.5c-1.6,1.9-3.8,1.9-5.9,0.5c-0.5-0.4-1-0.9-1.4-1.5   c-0.6-0.7-1-1.8-2.2-1.4c-1,0.3-1.2,1.4-1.3,2.4C504.5,404.4,504.3,405,504.2,405.8z M463.6,390.2c0-2.2-0.4-3.9,1.2-4.4   c1.8-0.6,2.6,1,3.2,2.4c0.3,0.7,0.6,1.5,0.7,2.3c1.4,6.3,2.9,12.7,4,19c0.5,2.9,2.1,3.2,4.3,2.7c2-0.5,4-0.8,3.3-3.9   c-1.4-6.6-2.4-13.3-3.7-20c-1.5-7.9-8.4-10.7-14.9-6.1c-1.2,0.8-2.2,2.2-3.9,1.8c-6.1-1.4-10.3,3.3-15.4,4.9c-1.6,0.5-3,2-1.7,4.2   c4.4,7.4,6.9,15.5,9.8,23.5c1,2.8,2.6,2.6,4.7,1.8c2-0.8,3.7-1.6,2.5-4.4c-2.2-5.7-4.2-11.4-6.2-17.2c-0.5-1.5-1.1-3.1-1.3-4.7   c-0.1-1,0.2-2.2,1.5-2.6c1.2-0.4,2.1,0.2,2.8,1.2c0.5,0.8,1,1.6,1.2,2.5c1.9,6.2,4,12.4,5.6,18.6c0.8,3,2,3.8,4.8,2.9   c2.8-0.8,3.5-2,2.6-5C466.8,403,465.2,396.2,463.6,390.2z M349.7,552.1c0,0.1,0,0.1,0,0.2c-4.1,0-8.1,0-12.2,0   c-1.4,0-2.8-0.7-2.8-2.3c-0.1-1.7,1.3-2.2,2.7-2.5c0.7-0.1,1.3-0.2,2-0.1c6.6,0.2,13.3-0.3,19.9,0.6c2.6,0.4,3.8-0.5,3.9-3.2   c0.1-2.5,0.1-4.5-3.4-4.6c-6.4-0.2-12.7-0.7-19-1.1c-0.9-0.1-1.9-0.2-2.8-0.5c-1.3-0.4-2.8-0.7-2.5-2.6c0.2-1.5,1.5-1.7,2.8-1.8   c1.2-0.1,2.4-0.1,3.7,0c6.2,0.7,12.4,1.2,18.5,2.1c2.6,0.4,3.4-0.7,3.8-2.9c0.4-2.1,0.7-4.6-2.2-4.7c-7.4-0.4-14.7-2.2-22.1-2.8   c-7.7-0.6-11.1,6.6-8.8,12.5c0.4,1,1.2,2.1,0.5,3.1c-3.5,4.8-0.6,10-1,15c-0.2,2,0.4,5.2,3.1,4.8c3.1-0.4,6.2,0.1,9.1-0.4   c5.6-1,11.2-1.4,16.9-1.3c2.9,0,3.4-1.3,3.4-3.7c0-2.5-0.6-4.2-3.7-3.9C356.3,552.3,353,552.1,349.7,552.1z M390.3,637.8   c-0.3-1.6-0.2-3.7-2.1-4.5c-2.3-1-2.2,1.7-3.3,2.6c-1.6,1.4-3.3,2.7-5.1,4c-1.9,1.4-4,2.8-4.5,5.1c-0.7,2.9-2.3,3.2-4.9,3.4   c-8.4,0.5-13.7,9.8-9.4,16.4c2.7,4.1,6.3,7.7,9.6,11.5c1.5,1.7,2.9,1.7,4.6-0.3c7.6-8.6,15.9-16.5,24.8-23.8   c2.6-2.1,1.8-3.5,0.2-5.2c-1.6-1.7-3.1-3.8-5.5-0.9c-2.4,3-5.5,5.2-8.3,7.7c-1.3,1.1-2.8,3.2-4.7,0.9c-1.7-2-1.8-4.3,0-6.3   c1.6-1.8,3.6-3.2,5.5-4.7C389.3,642.3,390.2,640.3,390.3,637.8z M536,399.7c-0.1,3.9,0.3,6.6,1.4,9.1c2.5,6,8.9,8.2,14.4,5.1   c1.1-0.6,2.4-1.3,2-2.7c-0.5-1.7-2-0.8-3.1-0.4c-3,1.2-5,0.2-6.2-2.6c-2.1-5.1,0.8-16.1,5-19.6c2.8-2.3,5.3-2,6.8,1.3   c0.8,1.7,1.6,3.2,3.7,3.1c1.2-0.1,2-0.8,2.3-1.9c0.6-2-0.4-3.4-1.7-4.7c-5-5-13.6-5.1-18.8-0.2C537.8,390.2,536.2,395.3,536,399.7z    M534.1,378.7c3.3-1.7,6.6-3.2,4.2-7.1c-1.5-2.5-4.2-2.8-6.8-1.3c-1,0.6-1.5,1.6-1.6,2.7c-0.4,2.9,2.4,3.7,3.9,5.5   c-2.2,1.1-5.7-0.2-5.7,3.6c-0.2,8.5-1.7,16.9-3.3,25.2c-0.6,3,1.2,3.5,3.3,3.9c2.2,0.4,3.9,0.4,4.4-2.6c1.3-8,2.9-15.9,4.4-23.9   C537.3,382.3,537.5,379.9,534.1,378.7z"></path>
	<path class="st2" d="M607.1,362.3c-0.1,4.2-0.2,8.4-0.2,12.6c0,55.3,0.1,110.5-0.2,165.8c-0.1,12.9-0.9,25.9-4.7,38.4   c-3.9,12.8-10.2,24.4-18.5,35c-13.4,17-30.6,28.7-51,35.3c-14.8,4.8-30.1,6.5-45.9,4.2c-16.4-2.4-31.5-7.6-45.2-16.6   c-19-12.6-32.9-29.4-41.1-50.8c-4.5-11.8-7.1-24-7.2-36.6c-0.2-31.7,11-58.5,34.1-80.3c12.6-11.8,27.2-19.8,43.8-24.5   c15.3-4.4,30.9-5.3,46.4-2.7c15.9,2.6,30.7,8.6,43.9,18.1c9.8,7,18.1,15.4,25.5,25.2c1.4-3.6-1.1-6.2-1.1-9.3   c0.2-6.6-0.1-13.3-0.1-19.9c0-33.1,0-66.1,0-99.2c0-2-0.1-4.1-0.2-6.1c0-13.8,0.1-27.6,0.1-41.4c0-26.1,0-52.3-0.1-78.4   c0-3.4,0.7-4,4.1-3c32.9,10.2,65.9,20.2,98.8,30.4c11.9,3.7,23.7,7.4,35.6,11.2c0,18,0.1,36,0.1,54c0,12.9,0,25.7,0,38.6   c0,2.7-0.4,3.8-3.4,2.5c-2.8-1.2-5.9-1.7-8.9-2.6c-16.6-5.2-33.1-10.6-49.7-15.7c-17.5-5.4-35-10.6-52.5-16.1   c-2.3-0.7-2.9,0-2.9,2.2C607,342.2,607.1,352.2,607.1,362.3z"></path>
	<path class="st3" d="M669.7,744.4c8.5,0,17.1-0.1,25.6-0.1c23,0,46.1,0,69.1,0c5.4,0,8.7-3.1,10.1-8.2c3.4-11.8,5.8-23.8,9.2-35.6   c2.4-8.3,4.6-16.8,7.1-25.1c2.9-9.4,5.6-18.9,9.1-28.1c2.8-7.5,4.6-15.4,7.1-23c2.5-7.5,5.3-14.8,8-22.2   c3.8-10.6,7.6-21.3,11.5-31.9c2.8-7.5,5.7-15,8.7-22.5c3.6-9.2,7.1-18.4,10.8-27.5c2.8-6.8,6-13.4,8.8-20.2   c4-9.3,7.9-18.7,11.8-28.1c0.2-0.5,0.2-1.1,0.2-1.6c2-19.4,2.2-38.8,1.5-58.2c-0.2-4.6-1.6-9.2-1.2-13.9c2.3,0.8,1.3,2.8,1.3,4.2   c-0.1,3.1,1.1,4,4.1,3.8c4.9-0.2,9.6,0.6,13.8,3.4c6.4,4.2,7.8,11,8,17.7c0.4,10.5,1,21.1,0.9,31.6c-0.1,13.5-0.5,27.1-2.5,40.5   c-0.7,4.8-3.1,9.4-5.2,13.9c-4.4,9.5-8.4,19.1-12.2,28.8c-3.2,8.1-6.9,15.9-10.1,24c-5.5,14.2-10.7,28.6-16,42.9   c-4.2,11.3-8,22.7-12.1,33.9c-4,10.9-7.6,22-11.2,33.1c-4.1,12.8-7.8,25.7-11.6,38.6c-4.1,14.1-7.4,28.3-11.5,42.3   c-1.2,3.9-2.8,7.5-5.7,10.5c-3.4,3.5-7.9,4.3-12.2,4.3c-27.5,0.2-55,0.1-82.5,0.1c-6.4,0-11.8-2.2-14.8-8.6c-0.9-2-1.5-3.7-0.5-5.7   c1.4-2.9,0.6-6.3,2.3-9.3c1.2-2.1-0.9-3-3-3c-5,0-10,0-15-0.1C671,744.9,670.4,744.6,669.7,744.4z"></path>
	<path class="st3" d="M163.4,744.2c30.1,0,60.1-0.1,90.2,0.1c4.4,0,7.5-1.2,10.5-4.4c10.2-10.6,19.1-22.2,27.9-34   c9.7-13,17.1-27.2,25.2-41.1c1.8-3.1,2.1-2.7,3.8,0c7.1,10.9,15.1,21.1,24.4,30.2c0.6,0.6,1.2,1,1.2,1.9c-2.9-1.5-5,0.1-6,2.4   c-6.8,15.7-16.8,29.4-26.9,43c-5.6,7.6-11.9,14.7-18.3,21.6c-4.4,4.7-9.7,7.5-16.6,7.9c-22.6,1.3-45.1,0.4-67.7,0.5   c-4.9,0-10-0.4-14.9-0.7c-3.9-0.3-7.2-2.3-8.4-6c-1.1-3.4-1.4-7.3,1.6-10.3c2.3-2.3,3.4-5.6,6.5-7.1c0.5-0.2,0.9-1.2,0.8-1.7   c-0.1-1.1-1.2-0.8-2-0.9c-8.9-1.6-17.8-0.5-26.7-0.8C166.5,744.8,164.8,745.3,163.4,744.2z"></path>
	<path class="st3" d="M717.4,599.3c-7.5,17.4-14.9,34.9-22.6,52.2c-3.8,8.5-7,17.2-11.4,25.3c-1.1,0.4-1.3,1.3-1.5,2.3   c0,0,0.1,0,0.1,0c-0.7,0.1-1.2,0.3-1.7,1c-10.6,15.4-23.5,28.7-38,40.4c-4.6,0.4-9,1.2-12.7,4.3c-2.7,2.2-3.7,5.5-5.6,8.1   c-4,4.2-9.3,6.4-14.1,9.2c-6.4,3.7-13.2,6.5-20,9.4c-15.5,6.7-31.8,10.9-48.4,13.8c-15.4,2.7-30.9,3-46.4,2.2   c-15.8-0.7-31.3-3.4-46.5-7.9c-18.1-5.3-35.2-12.9-51.5-22.3c-1.3-0.7-2.5-1.6-3-3.2c4.9,0.5,8.6,3.9,12.8,5.8   c12.6,5.6,25.1,11.2,38.7,14.1c8.6,1.8,17.1,3.6,25.7,5c4.8,0.8,9.5,1.1,14.3,1.2c4.3,0.1,8.3,1.7,12.7,1.5c9-0.3,17.9-1.1,26.8-2   c9.9-1,19.8-3.2,29.6-5.7c18.9-4.7,36.3-12.6,53.1-22c12.2-6.8,23.5-15.1,33.9-24.7c5-4.6,10.3-8.8,14.7-14   c9.3-10.9,18.6-21.8,25.9-34.4c4.1-7,8.4-14.1,11.8-21.4c3.5-7.4,6.7-15.1,9-23.1c2-7,4.1-13.9,6-20.9c0.8-2.9,1.3-6.1,1.6-9   c0.5-5.1,2.4-9.9,2-15c-0.5-6.8,1.5-13.2,1.6-19.9c0.1-9.9-1-19.7-2.1-29.4c-1-8.9-2-18.1-5.6-26.6c-1.4-3.5-0.2-4.9,3.5-4.9   c10.2-0.1,20.4,0.2,30.6-0.4c7.1-0.5,14.2-1.3,21.3-1.3c4.6,0,4.6,0,2.8,4.1c-3.4,7.7-6.7,15.5-10.1,23.2c-0.1,0.3-0.7,0.3-1.1,0.4   c-1.4-1.3-3-0.9-4.6-0.9c-8.5-0.2-17,1.4-25.5,0.8c-3.5-0.3-4.4,1.3-4.4,4.5c0,6.6,1.2,13.2,1.5,19.7c0.6,15.9,0.6,31.8-1.8,47.6   C718.2,590.8,715.7,594.8,717.4,599.3z"></path>
	<path class="st3" d="M607.1,362.3c-0.1-10-0.1-20-0.2-30c0-2.1,0.6-2.9,2.9-2.2c17.5,5.4,35,10.6,52.5,16.1   c16.6,5.2,33.1,10.5,49.7,15.7c2.9,0.9,6.1,1.4,8.9,2.6c3,1.3,3.4,0.2,3.4-2.5c-0.1-12.9,0-25.7,0-38.6c0-18-0.1-36-0.1-54   c0.8,3.7,2.8,6,6.6,6.8c1.7,0.4,2.1,2.2,2.1,4c0,29.4,0,58.8,0,88.2c0,4.5-1.3,5.3-5.9,3.8c-18.4-5.7-36.8-11.3-55.3-17   c-17-5.3-34-10.6-51-15.9c-5.4-1.7-5.6-1.4-5.6,4.3c0,7.7-0.1,15.4-0.1,23.2C612.3,365.2,609.7,363.7,607.1,362.3z"></path>
	<path class="st3" d="M158.1,614.1c3.8,1.7,7.6,3.5,11.4,5.2c7.1,3.1,14.6,5,22.3,6.3c10.2,1.7,20.3,1.6,30.5,1.4   c2.9-0.1,5.9,0.3,8.7-1.2c0.9-0.5,2.5-0.8,3.3,0.5c0.7,1.1-0.5,1.8-1,2.8c-4.5,8.7-10.1,16.7-15,25c-0.3,0.6-0.8,0.6-1.3,0.7   c-0.9-1.8-1.9-3.2-4.1-3.3c-8.2-0.2-15.1-4.2-22-7.7c-9-4.6-17.1-10.8-24-18C163.6,622.3,158.4,619.8,158.1,614.1z"></path>
	<path class="st4" d="M623.9,732.9c1.9-2.7,2.9-5.9,5.6-8.1c3.7-3.1,8.1-3.9,12.7-4.3c5.7,1.5,10.6,4.1,13.5,9.5   c3.3,6.2,2.7,13.7-1.6,18.7c-4.8,5.6-11,7.1-18,5.2c-6.4-1.8-11.5-8.1-12.1-14.8C623.8,737,623.9,734.9,623.9,732.9z"></path>
	<path class="st3" d="M389,731.1c2.4,0,4.1,0.9,5,3.2C391.5,734.5,389.8,733.6,389,731.1z"></path>
	<path class="st3" d="M386.3,729.5c1.3-0.2,2.5-0.1,2.8,1.6C387.7,731.5,386.7,731,386.3,729.5z"></path>
	<path class="st3" d="M382.3,726.4c1.1-0.1,1.8,0.4,1.9,1.5C383,728.1,382.5,727.5,382.3,726.4z"></path>
	<path class="st3" d="M384.1,727.9c1.2-0.2,1.8,0.5,1.9,1.6C384.9,729.6,384.1,729.2,384.1,727.9z"></path>
	<path class="st4" d="M166.3,733c34.9-37,68-74.8,87.9-123c-2.2,0.6-3.7,0.9-5.1,1.4c-7.1,2.5-14.4,3.4-21.8,4.2   c-8.1,0.9-16.2,0.5-24.3,0.2c-19.3-0.7-36.2-7.6-51-19.8c-16.1-13.2-25.9-30.2-31.6-50.1c-4.3-15.2-5.7-30.6-4.4-46.1   c2.9-34.6,17.2-63.6,44.2-85.9c12.6-10.4,26.9-18,42.6-22.2c15.5-4.1,31.2-6.4,47.6-4.1c16.6,2.2,32.1,6.9,46.3,15.5   c9.4,5.7,17.9,12.9,24.8,21.8c1.4,1.8,0.9,3.1-0.2,4.7c-6.7,10.2-12.6,21-17.4,32.2c-5.4,12.4-9.3,25.3-12.6,38.5   c-5.5,22.1-5.4,44.5-4.4,66.9c0.4,8.8,2.1,17.6,4.2,26.3c2.3,10,4.9,19.8,8.6,29.3c3,7.8,6.1,15.5,10.2,22.7   c1.8,3.2,1.9,5.9,0.2,9.4c-9.8,19.1-20.8,37.4-33.8,54.4c-6.1,8-12.8,15.6-19.9,22.8c-1,1.1-2.1,1.6-3.5,1.6   c-28.4-0.1-56.9-0.1-85.3-0.1C167.3,733.5,167.1,733.4,166.3,733z M233.3,540.9c13.4,0.8,23.6-5.2,30.2-16.9   c5.5-9.6,6.3-20.3,4.8-31c-1-7.4-3.6-14.6-8.5-20.7c-7.4-9.3-17.4-11.6-28.6-11.2c-12.2,0.5-21.4,6.2-27.5,16.4   c-6.4,10.8-7.3,22.7-5.1,34.8C201.8,528.2,213.7,542,233.3,540.9z"></path>
	<path class="st4" d="M759.5,391.4c30.2,0,60.4,0,90.6,0c5.4,0,5,0.1,5.7,5.3c2.1,16,2,32.2,1.3,48.2c-0.4,9.9,0.2,20.2-3.6,29.6   c-5.2,12.8-11.1,25.3-16.4,38.1c-8.3,20.2-16.2,40.7-23.8,61.2c-6.5,17.5-12.8,35.1-18.7,52.8c-4.7,14.2-9.2,28.4-13.6,42.7   c-3.8,12.5-7.5,25-10.9,37.5c-2.1,7.6-3.8,15.4-5.4,23.2c-0.5,2.6-1.6,3.6-4.3,3.6c-28.6-0.1-57.2-0.1-85.7,0   c-2.9,0-3.3-0.9-2.2-3.3c10-22.5,20-45.1,29.9-67.7c10.6-24.2,21-48.6,31.6-72.8c8.3-19.1,16.8-38,25.2-57.1   c7.7-17.5,15.4-35.1,23.1-52.7c1.7-3.8,1.2-4.5-2.9-4.3c-22.9,0.6-45.7,1.3-68.6,1.9c-0.5,0-1.1,0-1.6,0.1   c-6.4,0.9-6.6,0.9-8.7-4.8c-8.7-23.2-21.1-44.2-37-63.2c-1.7-2-1.1-4.1-1-6.2c0.4-12.2,0.4-12.2,12.2-12.2   C702.9,391.4,731.2,391.4,759.5,391.4z"></path>
	<path class="st5" d="M540.2,732.3c-4,0.1-7-1.7-9.9-4.1c-12.1-10.2-22.4-21.9-30.6-35.5c-0.7-1.2-1.3-3.3-2.9-3   c-1.8,0.3-1.6,2.6-1.9,4.1c-1.8,9.9-3.5,19.7-5.1,29.6c-0.9,5.5-3.2,7.3-8.6,6.4c-1.7-0.3-3.5-0.6-5.1-1.2c-4.7-1.7-5.8-4-4.4-8.8   c4.6-16,9.3-31.9,14.1-47.9c0.9-2.9,1.4-6.6,5.4-6.6c4.3-0.1,8.4,0.7,10.6,5.2c4.2,8.7,9.4,16.7,15.5,24.2c3.9,4.7,8,9.1,12.5,13.3   c1.1,1,2.2,2.6,3.7,1.9c1.7-0.7,0.9-2.6,0.8-4c-1.1-9.5-2.3-19.1-3.4-28.6c-0.1-1.2-0.3-2.4-0.3-3.6c-0.2-4.6,1.2-6.5,5.3-7.2   c3.9-0.7,5.9,0.7,7.1,5.3c1.9,7.2,3.5,14.4,5.3,21.7c2.1,8.8,4.2,17.6,6.3,26.5c1.9,7.7,0.4,10-7.5,11.4   C544.8,731.6,542.5,731.9,540.2,732.3z"></path>
	<path class="st5" d="M647.3,539.9c-0.2-6.8-0.8-12.1,0.1-17.4c1-6.3,3.8-11.4,10.1-13.6c6.4-2.2,12-0.3,16.8,4.1   c7,6.3,10.2,14.6,11.8,23.5c1.8,9.7,2.1,19.4-1.2,28.9c-2.2,6.3-5.7,11.4-12.2,13.8c-5.3,2-8.5-0.3-8.7-5.9   c-0.1-4.6,0.9-8.5,5.4-10.9c3.5-1.9,5-5.3,5.5-9c1.1-7.4,0.4-14.6-2.7-21.4c-0.7-1.6-1.7-3.1-2.9-4.4c-1.5-1.7-3.5-2.6-5.8-1.9   c-2.2,0.7-3.1,2.5-3.3,4.7c-0.2,2.1-0.3,4.3-0.3,6.5c0.1,9.8,0.1,19.5-2.5,29c-1.9,6.8-5.6,12.2-13,13.5   c-7.5,1.3-13.7-1.4-18.2-7.4c-7.4-9.8-8.5-21.4-8.1-33.2c0.3-7.8,3.3-14.5,9.3-19.5c3.9-3.2,6.9-3.3,9.2-0.5   c3,3.7,2.8,8.4-0.8,11.1c-4.4,3.2-6,7.6-6.1,12.7c-0.1,6,0.8,11.9,3.1,17.5c1.3,3,3.3,5.5,6.9,5.2c3.6-0.3,4.9-3.1,5.7-6.1   C647.3,552.2,647.3,545.3,647.3,539.9z"></path>
	<path class="st5" d="M629.7,638.4c0-8,2.8-14,5.4-20.1c2.1-4.8,3.9-9.8,5.8-14.7c1.2-3.1,0.3-5.1-3.2-5.9   c-4.9-1.1-9.7-2.5-14.4-4.1c-4.2-1.3-5.3-3.5-4.4-7.3c1-4.2,2.8-5.7,7.3-5c17.3,2.6,34.5,5.2,51.8,7.9c4.9,0.8,6.4,2.8,5.6,8.1   c-1.8,12.3-5.9,23.9-10.8,35.2c-2.2,5.1-4.7,10.1-8.2,14.4c-1.3,1.6-2.6,3.1-4.2,4.4c-5.9,4.9-12.4,8.3-20.1,4.8   C632.3,652.4,629.9,645.3,629.7,638.4z M668.5,609.9c0.3-2.8-0.7-3.9-2.5-4.4c-2.7-0.8-5.5-1.4-8.2-2.3c-3-1-4.5,0-5.5,2.9   c-2,5.8-4.2,11.4-6.4,17.1c-1,2.7-2,5.3-2.3,8.2c-0.3,3.6,0.8,6.5,4.2,8c3.2,1.5,5.9,0.2,8-2.2C663,629.2,665.2,618.8,668.5,609.9z   "></path>
	<path class="st5" d="M631.6,685.3c0.2,2.6-1,4.8-2.7,6.5c-1.7,1.7-3.6,3.3-5.5,4.8c-4,3.4-8.3,3.8-13.2,1.5   c-16.9-8-32.4-18-46-30.8c-3.9-3.7-4.7-6.2-2.7-8.6c2.8-3.3,7.7-3.9,11.3-1.4c2.8,2,5.4,4,8.1,6.1c2.2,1.7,4.3,1.7,6.7,0   c5.2-3.7,10-7.8,14.6-12.2c2.1-2,2.4-4.1,1.2-6.6c-1.5-3.2-3-6.3-4.6-9.5c-1.4-2.8-1.1-5.4,0.9-7.9c3-3.9,6.1-4.1,8.8,0   c11.3,17.1,18.7,35.9,22.8,56C631.6,683.9,631.6,684.6,631.6,685.3z M614.2,677.7c-0.9-4.5-1.9-9.1-3.5-13.5   c-0.8-2.2-2.2-2-3.8-0.7c-2.6,2.2-5.2,4.3-7.8,6.5c-1.7,1.4-2.1,3,0.1,4.1c3.9,2.1,8,4,12,5.9C613.2,681,614.2,680.1,614.2,677.7z"></path>
	<path class="st5" d="M354.7,621.6c-1.3-0.7-2.4,0.4-3.1,1.1c-2.7,2.8-5.1,1.5-6-1.2c-1.8-4.9-6.5-8.8-5.2-14.9   c0.2-1.2-0.7-1.9-1.4-2.8c-5.5-6.9-3.6-13.3,4.8-15.8c0.9-0.3,1.9-0.3,2.5-1.3c-2.2-0.6-4.4-1.1-6.5-1.8c-5.1-1.8-8-5.5-8.4-10.9   c-0.4-5.2,2.2-8.7,6.6-11.1c6.2-3.5,7.8-2.6,8.7,4.6c0.2,1.9,0.3,3.8,0.6,5.7c0.7,4.7,1.2,4.9,5.8,3.4c0.9-0.3,1.8-0.7,2.6-1.1   c5-2.5,5.6-5.2,2.2-9.5c-0.8-1-1.9-1.9-0.7-3.1c1.1-1.1,2.2-0.1,3.2,0.6c5.7,4.1,6.1,12.4,0.7,17.3c-1.7,1.5-3.6,2.7-5.4,4.1   c0.1,0.2,0.2,0.2,0.2,0.2c0.1-0.1,0.1-0.2,0.2-0.2c2.5,0.1,4.8-0.5,7.1-1.4c3.2-1.3,4,0.9,4.7,3.3c0.7,2.5-0.2,3.8-2.7,4.3   c-6.3,1.1-12.3,3.2-18.4,5c-0.6,0.2-1.4,0.3-1.9,0.6c-1.4,0.8-3.3,1.4-2.7,3.5c0.6,1.9,2.6,1.4,3.9,1c6.6-1.9,13.2-3.9,19.7-6.2   c3.1-1.1,4.5-0.3,5.4,2.6c0.7,2.3,0.4,3.7-2.3,4.5c-5.8,1.8-11.5,4-17.2,6.1c-1.5,0.6-2.9,1.4-4.3,2.2c-0.8,0.5-1.3,1.5-1,2.5   c0.3,1.1,1.2,1.4,2.2,1.4c1.1-0.1,2.2-0.1,3.2-0.5c6-2.5,12-4.9,17.9-7.6c2.6-1.2,4.1-1.2,5.4,1.7c1.3,3,0.6,4.3-2.5,5.4   c-4.5,1.6-8.8,3.9-13.7,6.1c4.6,2.6,5.5,7.1,7.7,10.7c2.5,4.1,2.8,4.3,6.5,1c1-0.9,2-1.8,2.8-2.9c2.8-3.6,2.2-6.3-1.8-8.6   c-1.1-0.6-3.1-0.8-2.3-2.6c0.7-1.7,2.5-1.1,3.9-0.6c6.3,2.2,9.3,9,6.7,15.2c-3,7-11.1,12.2-18.7,12.2c-5.3,0-9.2-2.3-11.5-6.9   c-2.3-4.5-1.3-8.7,1.6-12.5c0.5-0.6,0.9-1.3,1.3-2C354.9,622,354.8,621.8,354.7,621.6z M360.6,636.6c0.9-0.6,3.5,0.1,2.8-2.1   c-0.8-2.4-1.6-5.9-4.3-6.4c-2.1-0.4-3.7,2.3-3.6,4.6C355.5,635.6,357.8,636.3,360.6,636.6z M342.7,574.8c-1.1-1.7,1-5.5-2.4-6   c-2.1-0.3-4.4,1.5-4.6,4.2c-0.2,2.2,2.9,4.6,5.4,4.6C342.8,577.6,342.8,576.4,342.7,574.8z"></path>
	<path class="st5" d="M413.3,428.4c1,3,2.9,4.5,4.5,6.2c2.1,2.3,1.3,3.8-0.7,5.3c-2,1.5-3.5,2-5.3-0.5c-3.5-4.8-7.4-9.3-11.2-13.9   c-0.5-0.6-1.1-1.3-1.7-1.8c-1.8-1.5-3.9-2.3-5.8-0.3c-1.7,1.9-0.9,3.8,0.6,5.4c4.4,4.8,8.7,9.6,13.3,14.2c2.3,2.3,2,3.8-0.1,5.6   c-2.1,1.7-3.9,3.6-5.7,5.7c-2.8,3.5-7.8,3.6-12.1,0.3c-4-3-7.7-6.4-11.6-9.5c-0.8-0.7-1.8-1.8-2.6-1.7c-5,0.6-4.4-2.3-3.9-5.5   c0.2-1.5-0.4-3.2-0.5-4.8c-0.1-2.6,1.1-3.8,3.4-2.1c1.7,1.2,3.2,1.9,5,0.4c0.8-0.6,1.8-0.7,2.6,0.1c0.6,0.7,0.6,1.6,0.2,2.3   c-1.8,2.5-0.3,3.9,1.5,5.4c3.2,2.9,6.4,5.9,9.6,8.8c1.2,1.1,2.4,2.2,4.1,2.5c1.4,0.2,2.4-0.4,3.1-1.5c0.7-1.1,0.3-2.1-0.5-2.9   c-7-6.9-13.5-14.4-21.3-20.5c-3.1-2.5-1.5-4.1-0.3-6c1.5-2.2,3.4-3.7,6-1.4c0.5,0.4,1,0.9,1.4,1.4c1.6,2,2.7,2.3,4.6-0.1   c4.5-5.8,10-6.1,15.3-1.2c0.5,0.5,0.8,1.6,1.8,1.1c1.2-0.6,0.1-1.3,0.1-2c-0.3-5.4-0.1-10.6,4.6-14.4c5.6-4.5,14.6-2.8,17.9,3.5   c1.3,2.4,0.4,4.1-1.8,5.4c-2.8,1.6-5.5,3.4-8.4,5c-1.9,1.1-2.1,2.3-0.7,3.9c1.5,1.6,2.9,3.3,4.6,4.5c3.5,2.5,6.2,1.7,8.2-2.2   c0.6-1.1,0.9-3,2.6-2.5c1.9,0.6,1.2,2.4,0.8,3.9c-2,6.5-8.8,9.7-15.3,7C417.8,430.6,415.8,429.6,413.3,428.4z M418,405   c-2.9,0.3-3.9,2.2-3.8,4.8c0.1,1.4-0.4,3.2,1.8,3.4c1.2,0.1,6.8-4,6.5-4.8C421.8,406.3,420,405.4,418,405z"></path>
	<path class="st5" d="M356.8,503.2c4,1.5,6.5,3.3,8.4,5.8c3.1,3.9,2.9,8-0.3,11.8c-0.7,0.8-2,1.4-1.9,2.6c0.4,4.8-2.7,3.9-5.6,3.5   c-9.9-1.4-19.9-2.8-29.8-4.2c-3.1-0.5-2.5-3.1-2.6-5.2c0-2.1,0.4-4.2,3.2-4.3c1.3,0,2.7,0.4,4,0.6c1.6,0.3,2.4,0,2.6-2   c0.8-9.7,4.6-12.7,14.4-11.5c0.7,0.1,1.5,0.7,2.5-0.3c-6.2-4.4-10.9-9.8-7.8-18c2.3-6.2,7.6-7.5,13.6-7.1c0.1-1.6-1.2-1.8-2.1-2.2   c-4.3-1.7-5.1-5.5-1.4-8.6c1.7-1.4,2.3-2.7,2.3-4.7c0.1-2.9,1.7-4.7,4.4-5.7c1.7-0.6,3.3-0.3,4.2,1.4c0.9,1.8,0,3.4-1.6,4   c-4.2,1.4-2.8,3.9-1.3,6.3c1.5,2.6,4,3.9,6.5,5.3c3.8,2.1,7.4,4.4,11.3,6.3c3,1.5,2,3.3,1,5.3c-1.1,2.1-2.5,2.9-4.9,1.4   c-3.3-2.1-6.8-3.9-10.2-5.8c-1.8-1-3-1.6-3.7,1.6c-0.7,3.5-2.6,6.8-4.1,10.1c-1.2,2.5-0.7,3.8,2.1,4.3c1.9,0.3,3.7,0.9,5.6,0.9   c4.3,0,6-2,5.7-6.4c-0.1-1.3-1.2-3.4,1-3.7c2-0.3,2.4,1.9,2.8,3.4c2,7.7-3.2,13.8-11.8,14.3C361.5,502.6,359.7,501.9,356.8,503.2z    M357.3,519.3c2.5-0.1,4.9-0.2,5.6-2.7c0.7-2.5-1.6-3.5-3.4-4.4c-4.6-2.3-9.5-3.7-14.7-4c-2.5-0.1-4.7,0.4-5.2,3.3   c-0.4,2.7,1.6,4,3.7,4.6C348.1,517.4,352.8,518.3,357.3,519.3z M348.2,484.8c0.3,2.2,1.4,4,3.6,4.8c0.9,0.4,4.1-5.2,4-6.9   c-0.2-2.1-2-1.9-3.4-1.9C349.9,480.8,348.3,481.9,348.2,484.8z"></path>
	<path class="st0" d="M717.4,599.3c-1.7-4.4,0.8-8.4,1.4-12.6c2.4-15.8,2.3-31.7,1.8-47.6c-0.2-6.6-1.5-13.1-1.5-19.7   c0-3.2,0.9-4.8,4.4-4.5c8.5,0.7,17-1,25.5-0.8c1.6,0,3.3-0.4,4.6,0.9c-1.4,6.7-4.8,12.6-7.4,18.9c-6.1,14.4-12.6,28.6-18.9,43   C724,584.3,720.7,591.8,717.4,599.3z"></path>
	<path class="st5" d="M567.8,725.6c-3.5,0.2-5.3-1.7-6.2-4.8c-4.8-16.9-9.6-33.8-14.3-50.8c-1.1-4.1,0-6.2,3.8-7.6   c4-1.5,6.7-0.7,8.3,3.2c6.8,16.3,13.5,32.7,20.3,49.1c1.5,3.6,0.3,6.3-3.1,8.1C573.9,724.4,570.9,725.3,567.8,725.6z"></path>
	<path class="st5" d="M504.2,405.8c0.2-0.8,0.3-1.4,0.4-2c0.1-1,0.3-2,1.3-2.4c1.2-0.4,1.6,0.7,2.2,1.4c0.4,0.5,0.8,1.1,1.4,1.5   c2.1,1.4,4.2,1.4,5.9-0.5c1.5-1.8,1.3-3.9-0.3-5.5c-1.6-1.5-3.5-2.5-5.3-3.7c-4.5-3.1-6.2-6.9-5.1-11.4c1-3.7,5.2-6.8,9.9-7.3   c2.1-0.2,4,0.2,6,0.7c3.2,0.8,3.9,3,3.4,5.9c-0.2,1-0.4,1.9-1.6,2.1c-1,0.2-1.4-0.6-1.9-1.3c-1.2-1.9-2.7-3-5.1-2.4   c-1.4,0.4-2.5,1.2-2.7,2.7c-0.4,2.5,1.1,4,3,5.3c1,0.7,2.1,1.3,3.1,2c5.4,3.6,6.9,8.6,4,13.5c-3.1,5.4-9.4,7.4-14.7,4.3   c-2.3-1.3-3.7-1.7-6.6-0.4c-4,1.8-9.1,1.9-13.7,1.6c-4.2-0.3-6.1-4-6.9-8c-1.4-6.5-1.5-13.1-3.8-19.5c-1-2.9,2.1-3.4,4-4   c2.3-0.8,4.5-0.4,4.8,2.6c0.8,5.9,1.4,11.8,2.1,17.7c0.1,0.8,0.1,1.6,0.3,2.4c0.6,2.2,1.5,4.4,4.2,4c2.7-0.4,2.6-2.8,2.4-4.8   c-0.6-6.5-0.3-13-1.8-19.4c-0.8-3.7,2.6-3.6,4.7-4.1c2.7-0.7,4.1,0.8,4.2,3.5c0.2,6.6,0.3,13.3,0.5,19.9   C502.7,402.1,502.4,404.1,504.2,405.8z"></path>
	<path class="st5" d="M463.6,390.2c1.6,6,3.2,12.8,5.3,19.5c0.9,3,0.2,4.2-2.6,5c-2.9,0.8-4.1,0.1-4.8-2.9   c-1.6-6.3-3.7-12.4-5.6-18.6c-0.3-0.9-0.7-1.7-1.2-2.5c-0.6-1-1.6-1.6-2.8-1.2c-1.3,0.4-1.6,1.6-1.5,2.6c0.2,1.6,0.7,3.1,1.3,4.7   c2,5.7,4,11.5,6.2,17.2c1.1,2.8-0.5,3.6-2.5,4.4c-2.1,0.8-3.7,1.1-4.7-1.8c-2.9-8-5.5-16.1-9.8-23.5c-1.3-2.2,0.1-3.7,1.7-4.2   c5.1-1.6,9.3-6.3,15.4-4.9c1.7,0.4,2.7-0.9,3.9-1.8c6.5-4.6,13.5-1.8,14.9,6.1c1.2,6.6,2.3,13.3,3.7,20c0.6,3.1-1.3,3.5-3.3,3.9   c-2.2,0.5-3.8,0.2-4.3-2.7c-1.2-6.4-2.6-12.7-4-19c-0.2-0.8-0.4-1.6-0.7-2.3c-0.6-1.3-1.4-3-3.2-2.4   C463.2,386.3,463.6,388,463.6,390.2z"></path>
	<path class="st5" d="M349.7,552.1c3.2,0,6.5,0.2,9.7-0.1c3.1-0.2,3.7,1.4,3.7,3.9c0,2.4-0.5,3.8-3.4,3.7c-5.7,0-11.3,0.3-16.9,1.3   c-2.9,0.5-6,0-9.1,0.4c-2.6,0.3-3.3-2.9-3.1-4.8c0.4-5-2.5-10.2,1-15c0.7-0.9-0.1-2.1-0.5-3.1c-2.4-5.9,1.1-13.1,8.8-12.5   c7.4,0.6,14.7,2.4,22.1,2.8c2.9,0.2,2.5,2.6,2.2,4.7c-0.4,2.2-1.2,3.3-3.8,2.9c-6.1-0.9-12.4-1.5-18.5-2.1c-1.2-0.1-2.4-0.1-3.7,0   c-1.3,0.1-2.6,0.3-2.8,1.8c-0.3,1.8,1.2,2.2,2.5,2.6c0.9,0.3,1.9,0.4,2.8,0.5c6.3,0.4,12.7,0.9,19,1.1c3.5,0.1,3.5,2.1,3.4,4.6   c-0.1,2.7-1.3,3.5-3.9,3.2c-6.6-0.9-13.2-0.5-19.9-0.6c-0.7,0-1.4,0-2,0.1c-1.4,0.3-2.7,0.9-2.7,2.5c0.1,1.6,1.4,2.3,2.8,2.3   c4.1,0.1,8.1,0,12.2,0C349.7,552.2,349.7,552.2,349.7,552.1z"></path>
	<path class="st5" d="M390.3,637.8c-0.1,2.5-1.1,4.5-3,6c-1.9,1.5-3.9,2.9-5.5,4.7c-1.8,1.9-1.6,4.3,0,6.3c1.9,2.3,3.4,0.2,4.7-0.9   c2.8-2.5,6-4.7,8.3-7.7c2.4-3,3.9-0.8,5.5,0.9c1.7,1.7,2.4,3.1-0.2,5.2c-8.9,7.2-17.2,15.2-24.8,23.8c-1.8,2-3.2,2-4.6,0.3   c-3.3-3.7-6.9-7.3-9.6-11.5c-4.4-6.6,1-15.9,9.4-16.4c2.6-0.2,4.2-0.5,4.9-3.4c0.5-2.3,2.6-3.7,4.5-5.1c1.7-1.3,3.4-2.6,5.1-4   c1.1-0.9,1-3.6,3.3-2.6C390.1,634.1,390,636.1,390.3,637.8z M366.8,663.6c0.2,1.5,0.1,3.3,1.7,4.2c1.7,1.1,2.7-0.6,3.7-1.5   c2.1-1.7,4-3.5,6.1-5.2c2.7-2.2,1.6-3.8-0.6-5.4c-1.9-1.3-3.8-0.9-5.7,0.1C368.9,657.5,367.1,660,366.8,663.6z"></path>
	<path class="st5" d="M536,399.7c0.2-4.4,1.8-9.5,5.9-13.5c5.2-4.9,13.8-4.8,18.8,0.2c1.3,1.3,2.3,2.7,1.7,4.7   c-0.4,1.1-1.1,1.8-2.3,1.9c-2.2,0.1-2.9-1.4-3.7-3.1c-1.5-3.2-4-3.6-6.8-1.3c-4.2,3.5-7.1,14.5-5,19.6c1.2,2.8,3.2,3.8,6.2,2.6   c1-0.4,2.5-1.3,3.1,0.4c0.4,1.3-0.9,2.1-2,2.7c-5.6,3.1-12,0.9-14.4-5.1C536.3,406.3,535.9,403.6,536,399.7z"></path>
	<path class="st5" d="M534.1,378.7c3.4,1.2,3.2,3.6,2.8,6.1c-1.5,8-3.1,15.9-4.4,23.9c-0.5,3-2.1,3-4.4,2.6   c-2.1-0.4-3.9-0.9-3.3-3.9c1.6-8.3,3.1-16.7,3.3-25.2c0.1-3.8,3.5-2.5,5.7-3.6c-1.5-1.8-4.3-2.6-3.9-5.5c0.2-1.1,0.6-2.1,1.6-2.7   c2.6-1.5,5.2-1.2,6.8,1.3C540.7,375.5,537.4,377,534.1,378.7z"></path>
	<path class="st0" d="M681.8,679.1c0.2-1,0.5-1.9,1.5-2.3C683.2,677.8,683.2,678.9,681.8,679.1z"></path>
	<path class="st1" d="M233.3,540.9c-19.6,1.1-31.5-12.7-34.4-28.5c-2.3-12.1-1.3-24,5.1-34.8c6.1-10.3,15.3-16,27.5-16.4   c11.2-0.4,21.2,1.9,28.6,11.2c4.8,6.1,7.5,13.2,8.5,20.7c1.4,10.7,0.6,21.4-4.8,31C256.8,535.7,246.7,541.8,233.3,540.9z    M257.4,504.1c0.4-5.8,0.5-11.6-1.8-17c-2.3-5.6-5-10.8-11.5-13.3c-4.8-1.8-9.5-1.3-14.3-1.3c-5.5,0-10,2.5-13.5,6.5   c-5,5.5-7.3,12.2-7.6,19.6c-0.2,4.4,0,8.7,1.2,13.1c1.5,6,4.2,11.1,9,14.4c5.6,3.8,11.9,6.5,18.9,3.4c3,0.4,5.6-0.7,8-2.2   C254.3,521.9,257.5,513.8,257.4,504.1z"></path>
	<path class="st1" d="M668.5,609.9c-3.3,8.9-5.6,19.3-12.7,27.3c-2.1,2.4-4.8,3.7-8,2.2c-3.3-1.6-4.5-4.5-4.2-8   c0.3-2.9,1.3-5.5,2.3-8.2c2.2-5.7,4.4-11.3,6.4-17.1c1-2.9,2.5-3.9,5.5-2.9c2.7,0.9,5.5,1.6,8.2,2.3   C667.8,606,668.8,607.1,668.5,609.9z"></path>
	<path class="st1" d="M614.2,677.7c0.1,2.4-0.9,3.3-3,2.3c-4-1.9-8.1-3.8-12-5.9c-2.2-1.2-1.9-2.7-0.1-4.1c2.6-2.2,5.2-4.3,7.8-6.5   c1.6-1.3,3-1.5,3.8,0.7C612.3,668.6,613.3,673.2,614.2,677.7z"></path>
	<path class="st1" d="M360.6,636.6c-2.8-0.3-5.1-1-5.1-3.9c0-2.3,1.5-5,3.6-4.6c2.7,0.5,3.5,4,4.3,6.4   C364.1,636.7,361.5,636.1,360.6,636.6z"></path>
	<path class="st1" d="M342.7,574.8c0.1,1.6,0.1,2.8-1.7,2.8c-2.5,0-5.6-2.4-5.4-4.6c0.3-2.7,2.5-4.5,4.6-4.2   C343.7,569.3,341.6,573.1,342.7,574.8z"></path>
	<path class="st1" d="M418,405c2,0.4,3.8,1.3,4.5,3.4c0.3,0.8-5.3,4.9-6.5,4.8c-2.2-0.2-1.8-2.1-1.8-3.4   C414.1,407.2,415,405.3,418,405z"></path>
	<path class="st1" d="M357.3,519.3c-4.5-1-9.2-1.9-13.9-3.2c-2.1-0.6-4.1-1.9-3.7-4.6c0.4-2.8,2.7-3.4,5.2-3.3   c5.2,0.3,10.1,1.7,14.7,4c1.8,0.9,4.1,1.9,3.4,4.4C362.2,519.1,359.8,519.1,357.3,519.3z"></path>
	<path class="st1" d="M348.2,484.8c0-2.9,1.6-4,4.1-4c1.4,0,3.2-0.2,3.4,1.9c0.2,1.7-3,7.3-4,6.9C349.6,488.8,348.5,487,348.2,484.8   z"></path>
	<path class="st1" d="M366.8,663.6c0.4-3.6,2.2-6.1,5.2-7.8c1.9-1,3.8-1.4,5.7-0.1c2.3,1.5,3.3,3.2,0.6,5.4c-2.1,1.7-4,3.5-6.1,5.2   c-1.1,0.9-2,2.6-3.7,1.5C366.9,666.9,367,665.1,366.8,663.6z"></path>
	<path class="st3" d="M237.8,529.5c-7.1,3.1-13.3,0.4-18.9-3.4c-4.9-3.3-7.5-8.4-9-14.4c-1.1-4.4-1.4-8.7-1.2-13.1   c0.3-7.3,2.7-14,7.6-19.6c3.6-4,8-6.5,13.5-6.5c4.8,0,9.5-0.5,14.3,1.3c6.4,2.5,9.2,7.6,11.5,13.3c2.2,5.4,2.2,11.2,1.8,17   c-7.4,0.1-10.9,5.7-14.6,10.8C239.7,519.2,240,524.8,237.8,529.5z"></path>
	<path class="st0" d="M237.8,529.5c2.2-4.7,1.8-10.3,5-14.6c3.7-5.1,7.1-10.7,14.6-10.8c0.1,9.7-3,17.8-11.5,23.2   C243.4,528.8,240.8,529.8,237.8,529.5z"></path>
</g>
</svg>
