<?xml version="1.0" encoding="utf-8"?>
<!-- Generator: Adobe Illustrator 21.0.2, SVG Export Plug-In . SVG Version: 6.00 Build 0)  -->
<svg version="1.1" id="Capa_1" xmlns="http://www.w3.org/2000/svg" xmlns:xlink="http://www.w3.org/1999/xlink" x="0px" y="0px"
	 viewBox="0 0 1000 1000" style="enable-background:new 0 0 1000 1000;" xml:space="preserve">
<style type="text/css">
	.st0{fill:#CCCCCC;}
	.st1{fill:#444242;}
	.st2{fill:#9A999E;}
</style>
<title>Mesa de trabajo 1</title>
<rect x="-0.9" y="1.2" class="st0" width="1000.2" height="1000.5"/>
<path class="st1" d="M140.4,423.8c3.5,3.6,7.1,7.2,10.6,10.8c4.1,4.1,8.2,8.3,12.3,12.4c0.8,0.7,1.2,1.7,1.2,2.7
	c0,11.9,0,23.8,0,35.7c0.1,1-0.3,1.9-1.1,2.6c-2.6,2.5-5,5.1-7.6,7.5c-1.2,1.1-1,1.7,0.1,2.7c2.5,2.3,4.8,4.7,7.2,7
	c1,0.9,1.5,2.2,1.4,3.5c-0.1,10.1,0,20.3-0.1,30.5c0,1.7,0.4,2.2,2.1,2c1.9-0.2,3.8,0,5.7-0.1c1.1,0,1.4,0.3,1.4,1.4
	c0,10.5,0,21,0,31.5c0,1.1-0.3,1.4-1.4,1.4c-16,0-32.1,0-48.1,0c-1.7,0-1.3-1-1.3-1.9c0-17.4,0-34.9,0-52.3c0-1.4-0.6-2.8-1.6-3.8
	c-1.9-2.5-4.9-3.8-8-3.3c-4.8,0.3-9.7,0.1-14.5,0c-1.3,0-1.6,0.4-1.6,1.6c0.1,7.9,0.1,15.8,0,23.7c0,1.5,0.5,1.7,1.8,1.7
	c2-0.1,3.9,0,5.9,0c1.1,0,1.4,0.3,1.4,1.4c0,10.5-0.1,21,0,31.5c0,1.8-1.1,1.4-2.1,1.4H49.9c-3.7,0-3.7,0-3.7-3.7
	c0-9.6,0-19.2,0-28.8c0-1.5,0.3-2,1.8-1.8c1.8,0.1,3.7-0.1,5.5,0.1c1.5,0.1,1.8-0.5,1.8-1.9c0-26.4,0-52.8,0-79.2
	c0-1.7-0.5-2.1-2.1-2.1c-2.3,0-5.3,1-6.6-0.4c-1.1-1.2-0.3-4.3-0.3-6.5c0-9.1,0-18.2,0-27.3L140.4,423.8z"/>
<path class="st1" d="M601.9,423.8c7.2,7.8,15,15.1,22.5,22.7c1,0.9,1.6,2.2,1.5,3.6c-0.1,8.7-0.1,17.3,0,26c0,1.5-0.3,1.9-1.8,1.9
	c-12.7-0.1-25.5-0.1-38.2,0c-1.5,0-1.8-0.5-1.8-1.9c0.1-3.9,0-7.7,0.1-11.5c0-1-0.4-2-1.1-2.8c-1.9-2.7-5.1-4.2-8.4-3.8
	c-5.1,0.4-10.2,0.1-15.3,0.1c-1.2,0-2.4,0.5-3.3,1.3c-2.7,1.9-4.2,5.2-3.6,8.5c0.2,2.5,0.2,5,0.1,7.6c0.2,3.9,3.4,7.1,7.3,7.4
	c13.2,0,26.5,0,39.7,0c1.5-0.1,3,0.6,4,1.7c7.1,7.2,14.2,14.4,21.3,21.5c0.8,0.7,1.3,1.8,1.2,2.9c0,13.7,0,27.3,0,41
	c0.1,1-0.4,2-1.1,2.7c-7.3,7.2-14.6,14.5-21.8,21.8c-0.7,0.8-1.8,1.3-2.9,1.2c-21.2,0-42.4,0-63.7,0c-1,0-2-0.4-2.7-1.1
	c-7.3-7.3-14.6-14.7-22-22c-0.7-0.6-1.2-1.6-1.2-2.5c0-8.7,0-17.3,0-26c0-1.4,0.4-1.7,1.8-1.7c12.8,0.1,25.6,0.1,38.5,0
	c1.5,0,1.7,0.5,1.7,1.8c-0.1,3.5,0,7-0.1,10.5c-0.2,1.3,0.4,2.5,1.4,3.2c1.7,1.1,2.3,3.6,4.9,3.6c6.5,0,13,0,19.5,0
	c0.8,0,1.6-0.3,2.2-0.9c3-2.2,4.4-5,3.8-8.8c-0.2-1.6-0.2-3.2,0-4.8c0.6-3.6-0.8-6.1-3.5-8.4c-0.8-0.8-1.9-1.3-3.1-1.3
	c-13.6,0-27.2,0-40.8,0c-1.2,0.1-2.5-0.4-3.3-1.3c-7.2-7.3-14.4-14.5-21.7-21.6c-0.8-0.7-1.3-1.8-1.2-2.9c0-13.8,0-27.6,0-41.4
	c0-1.1,0.4-2.2,1.2-2.9c7.7-7.7,15.3-15.4,23-23.1L601.9,423.8z"/>
<path class="st1" d="M954.9,548.2h0.4v27.3l-0.5-0.1c-0.5-0.7-0.7-1.5-0.6-2.4c0-7.4,0-14.8,0-22.2
	C954.1,549.9,954.4,549,954.9,548.2z"/>
<path class="st1" d="M428.7,498.3l16.4-16.4c-2.3-0.6-2.3-0.6-2.3-3.4c0-7.4,0-14.9,0-22.3c0-1.5,0.2-2.1,2-2.1c18,0.1,36,0.1,54,0
	c1.5,0,1.9,0.3,1.9,1.8c-0.1,8-0.1,16,0,24c0,1.4-0.3,2-1.7,1.7c-6.2-1.2-10.5,1.6-14.6,6.1c-8,8.6-16.6,16.7-24.9,25
	c-0.6,0.5-1.2,1-1.9,1.4c11.3,11.3,22.3,22.3,33.2,33.3c0.5,0.5,1.3,0.8,2,0.8c2.2,0,4.3,0,6.5,0c1,0,1.3,0.3,1.3,1.3
	c0,8.3-0.1,16.5,0,24.8c0,1.7-1.1,1.3-2,1.3c-14.2,0-28.4,0-42.6,0c-3.6,0-7.1-0.1-10.7,0c-2,0.1-2.6-0.3-2.6-2.5
	c0.1-7.4,0.1-14.8,0-22.3c0-2.1,0.3-3.3,2.7-2.6c0.3-0.8-0.3-1-0.6-1.3c-3.1-3.1-6.2-6.1-9.2-9.2c-0.9-0.9-1.5-1.1-2.3-0.1
	c-0.5,0.7-1.1,1.3-1.8,1.8c-3.1,1.8-3,4.7-2.8,7.7c0,0.8,0.3,1.2,1.1,1.1c0.3,0,0.6,0,0.8,0c1.7,0.1,4-0.8,5,0.4
	c0.8,1,0.3,3.2,0.3,4.9c0,6.8,0,13.6,0,20.4c0,1.4-0.4,1.7-1.8,1.7c-14.8,0-29.6,0-44.3,0c-1.4,0-1.9-0.3-1.9-1.8
	c0.1-7.9,0.1-15.8,0-23.7c0-1.2,0.1-1.9,1.6-1.8c1.8,0.1,4.2,0.8,5.3-0.3s0.4-3.6,0.4-5.5c0-19.5,0-39.1,0.1-58.6
	c0-1.8-0.5-2.3-2.2-2.2s-3.9,0.8-4.8-0.3c-0.8-0.9-0.3-3.1-0.3-4.7c0-6.9,0-13.7,0-20.6c0-1.5,0.4-1.9,1.9-1.9
	c14.8,0.1,29.5,0.1,44.3,0c1.3,0,1.8,0.2,1.8,1.7c-0.1,8-0.1,16.1,0,24.2c0,1.3-0.3,1.7-1.6,1.7c-1.8-0.1-4.3-0.7-5.3,0.3
	c-1.1,1.1-0.3,3.6-0.4,5.5C428.7,491,428.7,494.6,428.7,498.3z"/>
<path class="st1" d="M954.9,548.2c0,9.1,0,18.1-0.1,27.2c-13,0-25.9,0-38.9,0.1c-1.8,0-1.5-1-1.5-2c0-13.6,0-27.2,0-40.8
	c0-3.5-2.7-6.3-6.2-6.4c0,0,0,0-0.1,0c-4.2,0-8.4,0-12.6,0c-1.2,0-1.7,0.1-1.7,1.5c0.1,6.2,0.1,12.5,0,18.7c0,1.3,0.4,1.8,1.7,1.6
	c0.1,0,0.1,0,0.2,0c1.8,0.1,4.2-0.8,5.2,0.4s0.3,3.5,0.3,5.3c0,6.6,0,13.2,0,19.8c0,1.4-0.2,1.9-1.8,1.9c-14.8-0.1-29.7-0.1-44.5,0
	c-1.3,0-1.8-0.3-1.8-1.7c0.1-8,0.1-16,0-24c0-1.5,0.5-1.7,1.8-1.7c1.8,0,4.2,0.8,5.2-0.4s0.3-3.5,0.3-5.3c0-19.5,0-38.9,0-58.4
	c0-1.8-0.3-2.5-2.3-2.5c-5,0.2-5,0-5-4.9c0-6.9,0-13.7,0-20.6c0-1.4,0.2-1.9,1.8-1.9c24,0.1,48,0.1,72.1,0c1,0,1.9,0.4,2.6,1.1
	c5.7,5.8,11.4,11.5,17.2,17.3c0.7,0.7,1.1,1.6,1,2.6c0,9.4,0,18.8,0,28.2c0.1,1-0.4,2-1.2,2.7c-2,1.9-3.9,3.8-5.9,5.7
	c-0.7,0.7-0.8,1.2,0,1.8s1.2,1.4,2,1.9c4.4,3,5.5,7.1,5.2,12.2c-0.4,6.2-0.1,12.5-0.1,18.7c0,1.5,0.3,2,1.8,1.9
	C951.4,548.1,953.2,548.2,954.9,548.2z"/>
<path class="st1" d="M801.5,548.1c-0.5-1.7-1.1-3.2-1.5-4.7c-0.2-0.8-0.8-0.9-1.4-0.9c-9.9,0-19.9,0-29.8,0
	c-0.7-0.1-1.4,0.4-1.5,1.1c-0.2,0.5-0.4,1-0.6,1.6c-1,2.7-1,2.8,1.9,2.9c0.8,0.1,1,0.3,1,1.1c0,8.3,0,16.7,0,25
	c0,1.1-0.4,1.2-1.3,1.2c-14.6,0-29.1,0-43.7,0c-1.1,0-1.4-0.4-1.4-1.4c0-8.2,0-16.4,0-24.6c0-1,0.2-1.5,1.3-1.3c0.1,0,0.1,0,0.2,0
	c4.8,1.1,6.5-1.5,8.1-5.7c7.7-19.8,15.7-39.4,23.6-59.1l0.6-1.6c-0.3-0.1-0.6-0.1-0.9-0.2c-4.2-0.1-4.2-0.1-4.2-4.3
	c0-7.1,0-14.1,0-21.2c0-1.5,0.2-2,1.9-2c20.2,0.1,40.5,0.1,60.7,0c1.4,0,1.9,0.3,1.9,1.8c-0.1,8-0.1,16,0,24c0,1.4-0.4,1.8-1.7,1.8
	c-4.3,0-4.3,0-2.7,3.9c8.1,20.2,16.2,40.4,24.3,60.6c0.6,1.5,1.4,2.1,3,2s3.7-0.5,4.7,0.3s0.3,3,0.3,4.6c0,6.8,0,13.6,0,20.4
	c0,1.5-0.2,2-1.9,2c-14.4-0.1-28.9-0.1-43.3,0c-1.4,0-1.8-0.3-1.7-1.7c0.1-7.8,0.1-15.7,0-23.5c0-1.8,0.5-2.4,2.2-2.1
	C800.1,548.2,800.8,548.2,801.5,548.1z"/>
<path class="st1" d="M183.5,514.8c0-13,0-26.1,0-39.1c-0.1-1.5,0.5-2.9,1.6-3.8c5.5-5.4,11-10.9,16.5-16.5c0.8-0.9,1.9-1.4,3.1-1.3
	c16.7,0,33.3,0,50,0c1-0.1,2,0.3,2.7,1.1c5.7,5.9,11.5,11.7,17.4,17.4c0.7,0.7,1.1,1.6,1,2.6c0,26.5,0,53,0,79.4
	c0.1,0.8-0.2,1.7-0.8,2.2c-5.9,5.8-11.8,11.7-17.7,17.6c-0.7,0.7-1.6,1.1-2.6,1c-16.7,0-33.5,0-50.2,0c-1,0-2-0.4-2.8-1.1
	c-5.7-5.7-11.4-11.4-17.1-17.1c-0.8-0.8-1.3-1.8-1.2-2.9C183.5,541.2,183.5,528,183.5,514.8z"/>
<path class="st1" d="M285.9,514.8c0-13.2,0-26.3,0-39.5c-0.1-1.1,0.4-2.2,1.2-2.9c5.8-5.7,11.5-11.4,17.2-17.2
	c0.7-0.7,1.6-1.1,2.6-1c16.8,0,33.6,0,50.4,0c1-0.1,1.9,0.3,2.6,1c5.9,5.9,11.8,11.8,17.7,17.7c0.5,0.5,0.8,1.3,0.8,2
	c0,8.1,0,16.2,0,24.4c0,1.1-0.2,1.5-1.5,1.5c-10.2-0.1-20.3-0.1-30.5,0c-1.2,0-1.5-0.3-1.5-1.5c0.1-4.1,0-8.1,0-12.2
	c0-2.2-3.2-5.4-5.4-5.4c-5,0-9.9,0-14.9,0c-1.9,0-5.2,3.2-5.2,5.1c0,18.7,0,37.4,0,56.1c0,1.9,3.4,5.3,5.4,5.3c4.9,0,9.8,0,14.7,0
	c2,0,5.4-3.4,5.4-5.5c0-3.8,0.1-7.7,0-11.6c0-1.3,0.4-1.7,1.7-1.7c10.1,0.1,20.2,0.1,30.3,0c1.1,0,1.6,0.2,1.6,1.5c-0.1,8,0,16,0,24
	c0,0.8-0.3,1.5-0.9,2c-5.9,5.9-11.8,11.8-17.7,17.7c-0.6,0.6-1.4,0.9-2.2,0.9c-16.9,0-33.9,0-50.9,0c-0.9,0-1.8-0.3-2.4-1
	c-5.8-5.8-11.6-11.6-17.4-17.4c-0.7-0.7-1.1-1.7-1.1-2.8C285.9,541.2,285.9,528,285.9,514.8z"/>
<path class="st1" d="M687.3,454.1c16.5,0,32.9,0,49.4,0c1.7,0,2.1,0.4,2.1,2.1c-0.1,10.3-0.1,20.6,0,30.9c0,1.5-0.3,2-1.9,2
	c-7.9-0.1-15.8-0.1-23.7,0c-1.5,0-2.1-0.4-1.8-1.8c0-0.2,0-0.4,0-0.6c-0.1-1.6,0.7-4.1-0.3-4.5c-1.8-0.8-4.1-0.4-6.2-0.4
	c-0.3-0.1-0.7,0.2-0.8,0.5c0,0.1,0,0.2,0,0.2c0,0.4,0,0.8,0,1.3c0,20.8,0,41.6,0,62.4c0,1.7,0.4,2.3,2.2,2.2s4-0.8,5,0.3
	c0.8,1,0.3,3.2,0.3,4.9c0,6.7,0,13.5,0,20.2c0,1.4-0.3,1.9-1.8,1.9c-14.8-0.1-29.7-0.1-44.5,0c-1.5,0-1.8-0.4-1.8-1.9
	c0.1-7.9,0.1-15.8,0-23.7c0-1.5,0.5-1.8,1.9-1.8c1.7,0,4,0.8,5-0.3s0.3-3.3,0.3-5.1c0-19.7,0-39.4,0.1-59c0-1.8-0.5-2.2-2.2-2.1
	c-5,0.1-5.1,0-5,5c0.1,2-0.4,2.5-2.5,2.5c-7.7-0.1-15.4-0.1-23.1,0c-1.6,0-1.9-0.5-1.9-2c0.1-10.3,0.1-20.6,0-30.9
	c0-1.8,0.6-2.1,2.2-2.1C654.5,454.2,670.9,454.1,687.3,454.1z"/>
<path class="st0" d="M97.1,468.8c0-3,0.1-6,0-9c-0.1-1.5,0.4-1.8,1.9-1.8c5.7,0.1,11.5,0.1,17.2,0c1,0,2,0.4,2.8,1.1
	c3,2.3,4.5,5.2,3.8,9c-0.1,0.6-0.1,1.3,0,1.9c0.6,3.5-0.7,6.1-3.4,8.3c-0.9,0.9-2.2,1.4-3.5,1.4c-5.7-0.1-11.3-0.1-17,0
	c-1.4,0-1.8-0.3-1.7-1.7C97.2,475,97.1,471.9,97.1,468.8z"/>
<path class="st0" d="M894,490.2c0-2.5,0-4.9,0-7.4c0-1,0.3-1.3,1.3-1.3c4.8,0,9.5,0,14.3,0c1.7,0,4.9,3.2,5,4.9c0,2.5,0,4.9,0,7.4
	c0,1.9-3.4,5.1-5.3,5.1c-4.5,0-9.1,0-13.7,0c-1.3,0-1.7-0.4-1.6-1.6C894,495,894,492.6,894,490.2z"/>
<path class="st2" d="M775.8,519.1l7.7-18.7c2.2,5.2,4.2,10,6.2,14.8c1.6,3.8,1.6,3.8-2.5,3.8h-11.4V519.1z"/>
<path class="st0" d="M207,548.6c0.7-4.1,1.3-8.1,2-12.2c0.6-3.7,1.2-7.3,1.9-11c0.2-1-0.1-2.1-0.9-2.8c-5.2-5-10.4-10-15.6-15
	c-0.5-0.4-1-0.7-1.6-1l0.4-0.6l13.6-2c3.2-0.5,6.4-1,9.6-1.4c1.2-0.1,2.2-0.9,2.6-2c3.3-7,6.8-13.9,10.2-21c0.7,0.4,0.8,1.1,1.1,1.7
	c3.2,6.5,6.5,13,9.7,19.5c0.3,0.9,1.2,1.5,2.1,1.6c7.8,1.1,15.5,2.2,23.7,3.4c-1.9,1.9-3.5,3.6-5.2,5.2c-4,3.9-8,7.8-12,11.7
	c-0.6,0.6-0.9,1.4-0.6,2.2c1.2,7,2.4,13.9,3.6,20.9c0.1,0.8,0.2,1.6,0.4,2.5c-0.9,0.2-1.4-0.3-1.9-0.7c-6.4-3.3-12.8-6.6-19.1-10
	c-0.9-0.6-2-0.6-2.9,0c-6.3,3.4-12.7,6.8-19.1,10.1C208.4,548.4,207.7,548.7,207,548.6z"/>
</svg>
