<?xml version="1.0" encoding="UTF-8"?>
<!-- Generated by Pixelmator Pro 3.5.7 -->
<svg xmlns="http://www.w3.org/2000/svg" width="1600" height="1600" viewBox="0 0 1600 1600">
  <g id="Capa-1">
    <g id="Agrupar">
      <path id="Trazado" fill="#fecc03" stroke="none" d="M 2050 2050 L -450 2050 L -450 -450 L 2050 -450 L 2050 2050 Z"></path>
    </g>
    <g id="g1">
      <path id="path1" fill="#233977" stroke="none" d="M 1223.646118 532.514404 L 1016.227295 532.514404 L 1102.329956 274.175171 L 1077.946655 249.771118 L 931.294617 396.44397 L 809.491699 152.869263 L 774.971985 152.869263 L 774.971985 360.277954 L 516.63269 274.175171 L 492.239044 298.568726 L 638.922119 445.251953 L 395.337219 567.023804 L 395.337219 601.533203 L 602.745789 601.533203 L 516.63269 859.872375 L 541.036804 884.276428 L 687.709656 737.593384 L 809.491699 981.178284 L 843.990784 981.178284 L 843.990784 773.769714 L 1102.329956 859.872375 L 1126.734131 835.478699 L 980.092346 688.795532 L 1223.646118 567.023804 L 1223.646118 532.514404 Z M 945.179077 623.214233 C 937.921082 640.670776 914.966553 647.380066 902.407227 659.980652 C 889.423523 672.995605 882.403625 695.743042 865.702881 702.69043 C 848.981384 709.668945 827.911255 698.476379 809.491699 698.476379 C 791.755493 698.507446 770.799316 709.906982 753.332336 702.69043 C 735.875732 695.515137 729.135437 672.519226 716.565796 660.022095 C 703.551086 647.007385 680.803589 639.997803 673.825073 623.276306 C 666.877563 606.492737 678.039124 585.463989 678.070129 567.023804 C 678.039124 549.297974 666.618835 528.269287 673.825073 510.833374 C 681.000305 493.407837 703.985962 486.636353 716.524414 474.097778 C 729.539185 461.052002 736.5177 438.304565 753.270325 431.357178 C 770.012573 424.420044 791.082581 435.602295 809.512451 435.602295 C 827.238281 435.602295 848.235901 424.150757 865.702881 431.357178 C 883.117981 438.57373 889.889465 461.528198 902.407227 474.128906 C 915.453064 487.112671 938.221252 494.122192 945.137634 510.833374 C 952.074707 527.55481 940.934082 548.614502 940.934082 567.023804 C 940.934082 584.790955 952.385437 605.747253 945.179077 623.214233 Z"></path>
    </g>
    <g id="g2">
      <path id="path2" fill="#c91431" stroke="none" d="M 723.213013 567.023804 C 723.213013 614.682617 761.874268 653.30249 809.564087 653.30249 C 857.223022 653.30249 895.770508 614.682617 895.770508 567.023804 C 895.770508 519.36499 857.223022 480.745117 809.564087 480.745117 C 761.874268 480.745117 723.213013 519.36499 723.213013 567.023804 Z"></path>
    </g>
    <g id="g3">
      <path id="path3" fill="#c91431" stroke="none" d="M 688.693298 204.638672 C 707.752258 204.638672 723.202698 220.088989 723.202698 239.148071 C 723.202698 258.207031 707.752258 273.657471 688.693298 273.657471 C 669.634216 273.657471 654.183777 258.207031 654.183777 239.148071 C 654.183777 220.088989 669.634216 204.638672 688.693298 204.638672 Z"></path>
    </g>
    <g id="g4">
      <path id="path4" fill="#c91431" stroke="none" d="M 930.279907 860.379761 C 949.344666 860.379761 964.799622 875.834839 964.799622 894.899475 C 964.799622 913.964233 949.344666 929.419312 930.279907 929.419312 C 911.215149 929.419312 895.760132 913.964233 895.760132 894.899475 C 895.760132 875.834839 911.215149 860.379761 930.279907 860.379761 Z"></path>
    </g>
    <g id="g5">
      <path id="path5" fill="#c91431" stroke="none" d="M 1137.356934 411.71582 C 1156.416138 411.71582 1171.866455 427.166138 1171.866455 446.22522 C 1171.866455 465.284302 1156.416138 480.734619 1137.356934 480.734619 C 1118.297974 480.734619 1102.847656 465.284302 1102.847656 446.22522 C 1102.847656 427.166138 1118.297974 411.71582 1137.356934 411.71582 Z"></path>
    </g>
    <g id="g6">
      <path id="path6" fill="#c91431" stroke="none" d="M 481.616028 653.312805 C 500.674927 653.312805 516.125427 668.763245 516.125427 687.822205 C 516.125427 706.881348 500.674927 722.331726 481.616028 722.331726 C 462.556946 722.331726 447.106537 706.881348 447.106537 687.822205 C 447.106537 668.763245 462.556946 653.312805 481.616028 653.312805 Z"></path>
    </g>
    <g id="g7">
      <path id="path7" fill="#c91431" stroke="none" d="M 955.895325 215.261597 C 974.954407 215.261597 990.404724 230.712036 990.404724 249.771118 C 990.404724 268.830078 974.954407 284.280518 955.895325 284.280518 C 936.836243 284.280518 921.385925 268.830078 921.385925 249.771118 C 921.385925 230.712036 936.836243 215.261597 955.895325 215.261597 Z"></path>
    </g>
    <g id="g8">
      <path id="path8" fill="#c91431" stroke="none" d="M 638.652954 859.872375 C 625.172241 873.363464 625.172241 895.199768 638.652954 908.68042 C 652.133728 922.161194 673.969971 922.161194 687.492188 908.68042 C 700.9729 895.199646 700.941772 873.32196 687.492188 859.872375 C 673.969971 846.391602 652.164795 846.391602 638.652954 859.872375 Z"></path>
    </g>
    <g id="g9">
      <path id="path9" fill="#c91431" stroke="none" d="M 1151.148438 689.03363 C 1137.657471 675.584045 1115.820923 675.542603 1102.329956 689.03363 C 1088.880493 702.514404 1088.859863 724.381775 1102.329956 737.872864 C 1115.821289 751.322571 1137.698975 751.322571 1151.148438 737.872864 C 1164.660278 724.350708 1164.619019 702.514404 1151.148438 689.03363 Z"></path>
    </g>
    <g id="g10">
      <path id="path10" fill="#c91431" stroke="none" d="M 516.63269 396.216064 C 503.151978 382.693848 481.315735 382.693848 467.834991 396.216064 C 454.343933 409.665771 454.343933 431.533081 467.834991 445.013794 C 481.315735 458.504883 503.183105 458.463501 516.63269 445.013794 C 530.123779 431.533081 530.123779 409.696899 516.63269 396.216064 Z"></path>
    </g>
    <g id="g11">
      <path id="path11" fill="#233977" stroke="none" d="M 590.122375 1133.555054 C 642.021423 1136.187378 714.956909 1139.783569 714.818665 1186.423096 C 714.818665 1239.567505 653.922302 1252.16272 588.600647 1252.16272 C 523.415527 1252.024536 469.302002 1244.134399 462.382629 1186.423096 L 538.36145 1186.423096 C 546.666199 1200.818115 565.902771 1204.55249 588.600647 1204.55249 C 611.158752 1204.55249 638.838135 1200.818115 638.838135 1186.423096 C 638.838135 1178.26001 616.27832 1177.012939 587.077209 1175.627686 C 535.178162 1172.998779 462.242798 1169.402588 462.382629 1122.901245 C 462.382629 1069.756836 523.275574 1057.023438 588.600647 1057.023438 C 653.78418 1057.437988 707.897583 1064.771973 714.818665 1122.901245 L 638.838135 1122.901245 C 630.533508 1108.229858 611.296936 1104.768433 588.600647 1104.768433 C 566.040833 1104.768433 538.36145 1108.091675 538.36145 1122.901245 C 538.36145 1131.064331 560.919556 1132.173218 590.122375 1133.555054 Z"></path>
      <path id="path12" fill="#233977" stroke="none" d="M 981.673279 1147.811768 L 981.673279 1161.374268 C 981.953064 1231.680786 924.656311 1252.024536 854.764404 1252.16272 C 784.73761 1252.024536 727.439148 1231.680786 727.717224 1161.374268 L 727.717224 1147.811768 C 727.439148 1077.367188 784.73761 1057.161621 854.764404 1057.023438 C 924.794495 1057.023438 981.673279 1077.505371 981.673279 1147.811768 Z M 909.155823 1152.240479 C 909.570374 1121.930542 884.380066 1116.396362 854.764404 1115.978394 C 825.010498 1116.396362 799.820129 1121.930542 800.23468 1152.240479 L 800.23468 1156.807373 C 799.820129 1187.255615 825.010498 1192.789795 854.764404 1193.204346 C 884.380066 1192.789795 909.570374 1187.255615 909.155823 1156.807373 L 909.155823 1152.240479 Z"></path>
      <path id="path13" fill="#233977" stroke="none" d="M 1075.673584 1061.590332 L 1075.673584 1188.637451 L 1220.853638 1188.637451 L 1220.853638 1247.595825 L 1003.152832 1247.595825 L 1003.152832 1061.590332 L 1075.673584 1061.590332 Z"></path>
    </g>
    <g id="g12">
      <path id="path14" fill="#c81530" stroke="none" d="M 501.297272 1277.787842 L 501.297272 1348.128052 L 581.676208 1348.128052 L 581.676208 1380.770264 L 461.145721 1380.770264 L 461.145721 1277.787842 L 501.297272 1277.787842 Z"></path>
      <path id="path15" fill="#c81530" stroke="none" d="M 639.952087 1277.942871 L 687.68866 1277.942871 L 742.93457 1380.925415 L 697.727417 1380.925415 L 689.604675 1363.301514 L 638.037598 1363.301514 L 629.914978 1380.925415 L 584.706116 1380.925415 L 639.952087 1277.942871 Z M 649.684082 1338.168579 L 677.958313 1338.168579 L 663.859985 1307.747314 L 649.684082 1338.168579 Z"></path>
      <path id="path16" fill="#c81530" stroke="none" d="M 763.969177 1380.925415 L 763.969177 1310.585205 L 716.232544 1310.585205 L 716.232544 1277.942871 L 851.859009 1277.942871 L 851.859009 1310.585205 L 804.120728 1310.585205 L 804.120728 1380.925415 L 763.969177 1380.925415 Z"></path>
      <path id="path17" fill="#c81530" stroke="none" d="M 905.377563 1277.787842 L 905.377563 1380.770264 L 865.226013 1380.770264 L 865.226013 1277.787842 L 905.377563 1277.787842 Z"></path>
      <path id="path18" fill="#c81530" stroke="none" d="M 1027.113037 1277.787842 L 1067.342041 1277.787842 L 1067.342041 1380.770264 L 1022.134888 1380.770264 L 966.813171 1317.861816 L 966.813171 1380.770264 L 926.661621 1380.770264 L 926.661621 1277.787842 L 981.905884 1277.787842 L 1027.113037 1332.344482 L 1027.113037 1277.787842 Z"></path>
      <path id="path19" fill="#c81530" stroke="none" d="M 1222.154541 1325.526123 L 1222.154541 1333.0354 C 1222.30957 1371.960205 1190.587402 1383.223999 1151.891846 1383.298096 C 1113.118774 1383.223999 1081.396606 1371.960205 1081.551636 1333.0354 L 1081.551636 1325.526123 C 1081.396606 1286.523926 1113.118774 1275.337646 1151.891846 1275.26001 C 1190.661621 1275.26001 1222.154541 1286.60144 1222.154541 1325.526123 Z M 1182.00293 1327.97644 C 1182.235474 1311.19519 1168.28894 1308.131592 1151.891846 1307.902344 C 1135.41748 1308.131592 1121.470703 1311.19519 1121.703247 1327.97644 L 1121.703247 1330.507568 C 1121.470703 1347.362915 1135.41748 1350.426636 1151.891846 1350.65918 C 1168.28894 1350.426636 1182.235474 1347.362915 1182.00293 1330.507568 L 1182.00293 1327.97644 Z"></path>
    </g>
  </g>
</svg>
