<?xml version="1.0" encoding="UTF-8" standalone="no"?>
<!DOCTYPE svg PUBLIC "-//W3C//DTD SVG 1.1//EN" "http://www.w3.org/Graphics/SVG/1.1/DTD/svg11.dtd">
<svg width="100%" height="100%" viewBox="0 0 491 588" version="1.1" xmlns="http://www.w3.org/2000/svg" xmlns:xlink="http://www.w3.org/1999/xlink" xml:space="preserve" xmlns:serif="http://www.serif.com/" style="fill-rule:evenodd;clip-rule:evenodd;stroke-linejoin:round;stroke-miterlimit:2;">
    <g transform="matrix(1,0,0,1,-313.904,-2007.39)">
        <g transform="matrix(4.16667,0,0,4.16667,0,0)">
            <g transform="matrix(-110.434,-51.4962,-51.4962,110.434,131.09,591.219)">
                <path d="M0.578,-0.532L0.578,-0.531C0.616,-0.514 0.647,-0.48 0.66,-0.441C0.674,-0.403 0.672,-0.359 0.655,-0.323L0.655,-0.322C0.638,-0.287 0.609,-0.259 0.573,-0.244C0.573,-0.244 0.573,-0.244 0.573,-0.244C0.573,-0.244 0.573,-0.244 0.573,-0.244L0.569,-0.242L0.569,-0.242C0.568,-0.242 0.568,-0.242 0.568,-0.242L0.295,-0.134C0.295,-0.134 0.276,-0.125 0.271,-0.113C0.265,-0.102 0.273,-0.084 0.273,-0.084L0.355,0.153C0.371,0.194 0.369,0.238 0.351,0.276L0.351,0.276C0.315,0.353 0.221,0.388 0.142,0.351L0.14,0.351L0.14,0.351C0.106,0.334 0.078,0.306 0.063,0.272L0.064,0.272C0.063,0.271 0.062,0.271 0.062,0.27L0.058,0.26C-0.015,0.068 0.013,0.147 -0.027,0.034C-0.062,-0.06 -0.091,-0.151 -0.111,-0.205C-0.122,-0.236 -0.127,-0.267 -0.114,-0.295C-0.101,-0.323 -0.074,-0.338 -0.043,-0.35C0.011,-0.371 0.447,-0.534 0.453,-0.536L0.457,-0.538C0.457,-0.538 0.458,-0.538 0.458,-0.538L0.458,-0.538C0.496,-0.551 0.54,-0.549 0.578,-0.532Z" style="fill:url(#_Linear1);fill-rule:nonzero;"/>
            </g>
        </g>
        <g transform="matrix(4.16667,0,0,4.16667,0,0)">
            <g transform="matrix(-72.833,-126.151,-126.151,72.833,207.084,593.72)">
                <path d="M0.789,-0.17L0.79,-0.169L0.79,-0.169C0.805,-0.142 0.811,-0.109 0.805,-0.078L0.804,-0.079C0.804,-0.078 0.804,-0.077 0.804,-0.076L0.802,-0.068C0.76,0.099 0.779,0.031 0.753,0.128C0.731,0.209 0.707,0.286 0.695,0.332C0.687,0.358 0.677,0.381 0.654,0.394L0.654,0.395C0.631,0.408 0.606,0.405 0.579,0.398C0.532,0.386 0.155,0.289 0.149,0.288L0.146,0.287C0.146,0.287 0.146,0.287 0.145,0.287L0.146,0.287C0.113,0.278 0.083,0.255 0.066,0.225L0.066,0.225C0.049,0.194 0.044,0.157 0.053,0.123C0.062,0.09 0.084,0.062 0.113,0.045L0.114,0.044C0.142,0.028 0.176,0.023 0.208,0.03C0.208,0.03 0.208,0.03 0.208,0.03C0.208,0.03 0.208,0.03 0.208,0.03L0.212,0.031L0.451,0.088C0.451,0.088 0.469,0.091 0.478,0.086C0.487,0.081 0.49,0.064 0.49,0.064L0.548,-0.138C0.556,-0.173 0.579,-0.202 0.609,-0.22L0.609,-0.22C0.671,-0.255 0.752,-0.234 0.789,-0.17Z" style="fill:url(#_Linear2);fill-rule:nonzero;"/>
            </g>
        </g>
        <g transform="matrix(4.16667,0,0,4.16667,0,0)">
            <g transform="matrix(55.2425,95.6828,95.6828,-55.2425,136.059,495.061)">
                <path d="M0.179,-0.327C0.189,-0.362 0.203,-0.393 0.233,-0.41C0.262,-0.427 0.296,-0.424 0.331,-0.415C0.37,-0.405 0.576,-0.352 0.728,-0.313C0.718,-0.276 0.708,-0.244 0.701,-0.219C0.692,-0.184 0.677,-0.153 0.648,-0.136C0.618,-0.119 0.584,-0.122 0.549,-0.131C0.51,-0.141 0.304,-0.193 0.152,-0.233C0.163,-0.269 0.172,-0.302 0.179,-0.327Z" style="fill:url(#_Linear3);fill-rule:nonzero;"/>
            </g>
        </g>
    </g>
    <defs>
        <linearGradient id="_Linear1" x1="0" y1="0" x2="1" y2="0" gradientUnits="userSpaceOnUse" gradientTransform="matrix(1,0,0,-1,0,-0.163343)"><stop offset="0" style="stop-color:rgb(255,105,8);stop-opacity:1"/><stop offset="0.05" style="stop-color:rgb(255,105,8);stop-opacity:1"/><stop offset="0.35" style="stop-color:rgb(228,72,67);stop-opacity:1"/><stop offset="0.73" style="stop-color:rgb(255,123,23);stop-opacity:1"/><stop offset="1" style="stop-color:rgb(255,123,23);stop-opacity:1"/></linearGradient>
        <linearGradient id="_Linear2" x1="0" y1="0" x2="1" y2="0" gradientUnits="userSpaceOnUse" gradientTransform="matrix(1,0,0,-1,0,0.152631)"><stop offset="0" style="stop-color:rgb(186,98,234);stop-opacity:1"/><stop offset="0.18" style="stop-color:rgb(186,98,234);stop-opacity:1"/><stop offset="0.36" style="stop-color:rgb(209,84,248);stop-opacity:1"/><stop offset="0.71" style="stop-color:rgb(74,18,113);stop-opacity:1"/><stop offset="0.93" style="stop-color:rgb(25,15,34);stop-opacity:1"/><stop offset="1" style="stop-color:rgb(25,15,34);stop-opacity:1"/></linearGradient>
        <linearGradient id="_Linear3" x1="0" y1="0" x2="1" y2="0" gradientUnits="userSpaceOnUse" gradientTransform="matrix(1,5.55112e-17,5.55112e-17,-1,0,-0.545869)"><stop offset="0" style="stop-color:rgb(40,21,59);stop-opacity:1"/><stop offset="0.11" style="stop-color:rgb(40,21,59);stop-opacity:1"/><stop offset="0.5" style="stop-color:rgb(181,42,195);stop-opacity:1"/><stop offset="0.85" style="stop-color:rgb(190,45,200);stop-opacity:1"/><stop offset="1" style="stop-color:rgb(190,45,200);stop-opacity:1"/></linearGradient>
    </defs>
</svg>
