<svg xmlns="http://www.w3.org/2000/svg" id="svg37081" width="207.309" height="106.8" version="1.1" viewBox="0 0 207.309 106.8"><defs id="defs37019"><style id="style37017">.e{fill:#cbcbcb}.f{fill:#a5b3dc}.h{fill:#3d6fb6}.i{fill:#b9b8b8}.j{fill:#748fc9}</style></defs><g id="c" transform="translate(-30.281 -18.07)"><g id="g37077"><g id="g37035"><path id="path37023" d="M223.39 27.1c0-3.19 2.43-5.66 6.9-5.66s7.3 2.58 7.3 6.69c0 4.74-3.92 7.05-9.33 7.05-4.9 0-12.71-.82-12.71-7.57 0-2.34.88-3.77 1.98-4.62.58-.46 1.19-.79 1.95-.79.94 0 1.79.67 1.79 1.7 0 .88-.46 1.43-1.03 1.76-.73.36-1.25 1.12-1.25 2.16 0 2.68 3.47 3.5 7.05 3.68-1.73-.76-2.65-2.52-2.65-4.41zm6.93-1.85c-2.49 0-3.59.97-3.59 2.77s1.09 3.16 3.56 3.16c2.1 0 3.62-1.25 3.62-2.89 0-1.85-1.19-3.04-3.59-3.04" class="i"/><path id="path37025" d="M226.55 52.94c-6.96 0-11.01-2.19-11.01-7.05s4.04-7.08 11.01-7.08 11.04 2.16 11.04 7.08-4.1 7.05-11.04 7.05m0-10.28c-4.62 0-7.27.88-7.27 3.22s2.65 3.16 7.27 3.16 7.3-.88 7.3-3.16-2.68-3.22-7.3-3.22" class="i"/><path id="path37027" d="M219.86 57.89c0 1.22-.94 2.19-2.13 2.19s-2.04-.97-2.04-2.19.91-2.16 2.04-2.16 2.13.97 2.13 2.16" class="i"/><path id="path37029" d="M223.75 66.34v4.35h2.8c1 0 1.86.82 1.86 1.82s-.85 1.79-1.76 1.79h-2.89v1c0 .79-.76 1.55-1.64 1.55-.82 0-1.64-.76-1.64-1.55v-1h-2.95c-.88 0-1.73-.85-1.73-1.79s.85-1.82 1.73-1.82h2.95v-7.02c0-1.16.85-1.82 1.82-1.82.33 0 .7.09 1.06.27l13.32 6.84c.55.3.91.94.91 1.61 0 .91-.82 1.82-1.79 1.82-.3 0-.61-.09-.88-.21l-11.16-5.84z" class="i"/><path id="path37031" d="M225.07 83.86h-2.6v3.16c0 .47-.39.88-.85.88s-.85-.41-.85-.88v-3.16h-4.01c-.49 0-.91-.44-.91-.94s.43-.94.91-.94h9.23c.5 0 .93.44.93.94v4.76c0 .5-.43.94-.93.94s-.91-.44-.91-.94v-3.82z" class="e"/><path id="path37033" d="M216.71 101.05c-.47.02-.87-.39-.87-.88 0-.46.4-.9.85-.9l6.34-.06-6.63-2.43c-.33-.12-.56-.47-.56-.87s.23-.75.56-.88l6.63-2.4-6.34-.08c-.46 0-.85-.43-.85-.88s.4-.91.87-.9l9.35.2c.62.02.93.52.93 1.08 0 .46-.23.88-.64 1.03l-7.4 2.86 7.4 2.87c.41.15.64.52.64.97 0 .56-.3 1.06-.93 1.08l-9.35.18z" class="e"/></g><g id="g37075"><path id="path37037" d="M64.59 53.99c.95-1.87 3.36-3.18 6.13-2.16 3.56 1.3 3.6 4.12 3.25 5.33-.46 1.58-14.01 39.42-14.88 41.51-.95 2.29-3.15 4.76-6.85 4.83-3.51.06-5.93-2.26-6.85-4.52-.94-2.3-14.46-39.6-14.92-40.91-.49-1.39-.21-4.93 3.07-6.1 3.12-1.11 5.81 1.41 6.42 2.71.58 1.23 9.75 30.39 9.75 30.39 1.04 3.09 1.84 6.09 2.51 8.96.03.11 2.06-7.91 2.45-9.12.34-1.08 9.12-29.35 9.91-30.91z" class="h"/><path id="path37039" d="M93.88 38.38c0 3.81-3.01 6.71-6.62 6.71s-6.71-2.91-6.71-6.71 3.01-6.62 6.71-6.62 6.62 2.9 6.62 6.62M81.76 57.29c0-3.36 2.52-5.53 5.17-5.53 3.16 0 5.45 2.15 5.45 5.51v40.99c0 2.96-2.72 5.28-5.58 5.26-2.65-.02-5.04-2.43-5.04-5.2V57.28Z" class="h"/><path id="path37041" d="M155.76 80.15c1.24 10.41 3.13 14.68 11.53 15.12 5.44.28 7.41-4.15 10.04-7.89 1.28-1.81 3.69-2.59 6-1.49 2.52 1.2 3.06 3.88 2.19 5.82-2.67 5.99-8.71 11.79-18.8 11.79-12.81 0-21.02-10.75-21.02-25.69s7.93-26.41 20.93-26.41c11.91 0 19.34 10.61 19.98 22.29v.72c0 3.18-2.72 5.73-5.18 5.73h-25.67zm19.49-8.06c.82 0 1.53.1 1.61-.58.02-.17-.05-.81-.05-.98-.73-6.01-3.32-10.74-10.13-10.74-7.27 0-9.92 3.8-10.83 12.3z" class="h"/><path id="path37043" d="M191.77 24.69c0-3.01 2.93-6.62 7.87-6.62 4.64 0 7.86 3.16 7.86 6.62s-1.58 71.16-1.95 73.78c-.36 2.62-2.62 4.9-5.78 4.9-2.85 0-5.59-1.96-5.91-4.9s-2.09-70.77-2.1-73.78z" style="fill:#c6d8f1"/><path id="path37045" d="M206.73 117.64c0 4.08-3.22 7.19-7.09 7.19s-7.19-3.11-7.19-7.19 3.22-7.08 7.19-7.08 7.09 3.11 7.09 7.08" class="f"/><g id="g37055"><path id="path37047" d="M145.4 112.04c0-.62.41-.93 1.08-.93.6 0 1 .31 1 .93v.53c0 .33-.05.74-.1 1.12.41-1.15 1.58-2.7 3.63-2.72.62 0 .91.02 1.39.12.55.12.74.43.74.86 0 .09 0 .21-.02.33-.1.5-.43.91-.93.91-.07 0-.14 0-.21-.02-.33-.07-.55-.14-1.05-.14-1.03.02-1.74.55-2.37 1.31-.62.77-.98 1.7-1.07 2.7v6.65c0 .65-.41.95-1 .95-.67 0-1.08-.31-1.08-.95v-11.64z" class="f"/><path id="path37049" d="M163.16 115.05c0-1.63-.69-2.34-2.22-2.34s-2.23.77-2.54 1.84c-.14.45-.48.62-.86.62-.17 0-.33-.03-.5-.07-.43-.14-.67-.43-.67-.84 0-.1.02-.22.05-.34.21-.76.69-1.48 1.27-1.98.72-.62 1.67-1.03 3.35-1.03 2.77 0 4.09 1.27 4.09 4.16v6.57c0 .79.12 1.55.24 2.01.02.07.02.12.02.19 0 .43-.33.78-.88.84h-.17c-.46 0-.79-.17-.91-.58-.09-.28-.12-.69-.12-1.17-.89 1.03-1.89 1.91-3.83 1.91-2.17 0-3.61-1.46-3.61-3.97 0-2.13 1.17-3.58 3.03-4.21 1.08-.36 2.27-.52 4.26-.57v-1.05zm0 2.7c-2.22.07-3.28.34-4.01.79-.74.45-1.22 1.17-1.22 2.37 0 1.36.76 2.1 1.99 2.1 1.15 0 2.17-.72 2.77-1.63.36-.55.48-1.08.48-1.96v-1.68z" class="f"/><path id="path37051" d="M177.62 123.41c0-.28.05-.57.1-.88-.55 1.36-1.6 2.34-3.49 2.34-2.92 0-4.73-2.82-4.73-7.1s1.82-6.88 4.76-6.88c1.89 0 2.82 1.05 3.47 2.46-.05-.53-.1-1.08-.1-1.53v-5.14c0-.62.36-.96 1-.96s1 .33 1 .96v17.02c0 .6-.36.93-.98.93-.69 0-1.03-.36-1.03-.83v-.38zm-6.02-5.61c0 3.06 1.15 5.26 3.06 5.26 2.06 0 3.06-2.18 3.06-5.24 0-2.84-.96-5.09-3.06-5.09-1.91 0-3.06 2.03-3.06 5.07" class="f"/><path id="path37053" d="M188.6 107.28c0 .91-.72 1.6-1.58 1.6s-1.6-.69-1.6-1.6.71-1.58 1.6-1.58 1.58.69 1.58 1.58m-2.63 4.76c0-.62.36-.93 1.03-.93s1.05.31 1.05.93v11.64c0 .65-.41.95-1.05.95s-1.03-.31-1.03-.95z" class="f"/></g><path id="path37057" d="M133.52 53.99c.95-1.87 3.36-3.18 6.13-2.16 3.56 1.3 3.6 4.12 3.25 5.33-.46 1.58-14.01 39.42-14.88 41.51-.95 2.29-3.15 4.76-6.85 4.83-3.51.06-5.92-2.26-6.85-4.52-.94-2.3-14.46-39.6-14.92-40.91-.49-1.39-.21-4.93 3.07-6.1 3.12-1.11 5.81 1.41 6.42 2.71.58 1.23 9.75 30.39 9.75 30.39 1.04 3.09 1.84 6.09 2.51 8.96.02.11 2.06-7.91 2.45-9.12.35-1.08 9.12-29.35 9.92-30.91z" class="h"/><g id="g37073"><path id="path37059" d="M109.79 38.51c-2.35-.59-3.38-1.5-3.38-3.51s1.46-3.4 4.05-3.4c2.24 0 3.53 1.05 4.03 2.62.02.13.04.24.04.35 0 .39-.24.68-.63.78-.11.02-.24.04-.37.04-.39 0-.76-.17-.85-.59-.2-.94-1.07-1.63-2.18-1.63-1.5 0-2.22.81-2.22 1.76s.44 1.46 1.92 1.85l1.26.33c2.48.65 3.49 1.46 3.49 3.66s-1.59 3.64-4.31 3.64c-2.55 0-3.95-1.13-4.47-3.05-.02-.11-.04-.24-.04-.33 0-.46.28-.74.7-.85.13-.02.24-.04.35-.04.39 0 .74.17.83.63.28 1.29 1.13 2.03 2.62 2.03s2.48-.74 2.48-1.98c0-1.05-.57-1.63-2.18-2.03l-1.13-.28z" class="j"/><path id="path37061" d="M118.63 38.38c.02 2.64 1.09 4.36 3.09 4.36 1.31 0 1.87-.89 2.4-2.01.19-.39.43-.54.74-.54.13 0 .28.02.44.09.35.11.63.37.63.79 0 .11-.02.24-.09.37-.63 1.53-1.77 2.96-4.18 2.96-3.07 0-4.88-2.55-4.88-6.34s1.68-6.43 4.79-6.43c2.85 0 4.36 2.48 4.51 5.45v.13c0 .81-.37 1.18-.96 1.18h-6.49zm5.32-1.55c.2 0 .24-.15.24-.33v-.13c-.17-1.52-.96-3.12-2.59-3.12-1.74 0-2.68 1.42-2.9 3.57h5.25z" class="j"/><path id="path37063" d="M135.28 32.45c0-.44.37-.65.92-.65s.87.24.87.72v8.61c0 4.07-2.16 5.27-4.66 5.27-1.92 0-3.33-.65-4.14-1.7a.67.67 0 0 1-.13-.39c0-.3.2-.57.46-.78.17-.11.39-.17.59-.17.24 0 .48.09.63.28.59.78 1.44 1.28 2.42 1.28 2.29 0 3.05-1.33 3.05-3.36 0-.39.05-.74.07-.98-.7 1.05-1.66 1.59-3.18 1.59-2.53 0-4.31-2.05-4.31-5.16s1.7-5.36 4.36-5.36c1.63 0 2.51.63 3.16 1.61a3 3 0 0 1-.09-.59v-.22zm-5.51 4.58c0 2.22 1.18 3.7 2.79 3.7 1.89 0 2.81-1.66 2.81-3.84s-.92-3.7-2.81-3.7c-1.68 0-2.79 1.55-2.79 3.84" class="j"/><path id="path37065" d="M148.72 37.98c0 3.86-1.66 6.41-4.62 6.41-3.16 0-4.79-2.48-4.79-6.41s1.7-6.36 4.75-6.36 4.66 2.51 4.66 6.36m-7.49.06c0 2.75.96 4.66 2.79 4.66s2.79-1.89 2.79-4.77c0-2.72-.89-4.62-2.68-4.62-1.9 0-2.9 1.85-2.9 4.73" class="j"/><path id="path37067" d="M157.88 32.43c.13-.46.41-.63.78-.63.11 0 .22.02.33.04.44.09.7.35.7.76 0 .11-.02.22-.07.35l-3.44 10.37c-.22.68-.72.85-1.26.85-.59 0-1.05-.17-1.29-.87l-3.44-10.35a1 1 0 0 1-.07-.35c0-.41.28-.68.72-.76.11-.02.22-.04.33-.04.37 0 .65.17.81.63l2.33 7.56c.24.76.5 1.83.61 2.57.11-.78.43-1.85.65-2.59z" class="j"/><path id="path37069" d="M165.52 28.33c0 .83-.65 1.46-1.44 1.46s-1.46-.63-1.46-1.46.65-1.44 1.46-1.44 1.44.63 1.44 1.44m-2.4 4.34c0-.57.33-.85.94-.85s.96.28.96.85v10.61c0 .59-.37.87-.96.87s-.94-.28-.94-.87z" class="j"/><path id="path37071" d="M175.02 35.41c0-1.48-.63-2.13-2.03-2.13s-2.03.7-2.31 1.68c-.13.41-.43.57-.78.57-.15 0-.31-.02-.46-.07-.39-.13-.61-.39-.61-.76 0-.09.02-.2.04-.3.2-.7.63-1.35 1.16-1.81.65-.57 1.52-.94 3.05-.94 2.53 0 3.73 1.15 3.73 3.79v5.99c0 .72.11 1.42.22 1.83.02.07.02.11.02.17 0 .39-.3.72-.81.76h-.15c-.41 0-.72-.15-.83-.52-.09-.26-.11-.63-.11-1.07-.81.94-1.72 1.74-3.49 1.74-1.98 0-3.29-1.33-3.29-3.62 0-1.94 1.07-3.27 2.77-3.84.98-.33 2.07-.48 3.88-.52v-.96Zm0 2.46c-2.03.07-2.99.31-3.66.72-.68.41-1.11 1.07-1.11 2.16 0 1.24.7 1.92 1.81 1.92 1.05 0 1.98-.65 2.53-1.48.33-.5.44-.98.44-1.79v-1.53z" class="j"/></g></g></g></g></svg>