<svg xmlns="http://www.w3.org/2000/svg" id="svg35967" width="204.805" height="105.59" version="1.1" viewBox="0 0 204.805 105.59"><defs id="defs35907"><style id="style35905">.e{fill:#cbcbcb}.f{fill:#f3934a}.g{fill:#b9b8b8}.h{fill:#f6ab6f}.j{fill:#ed6b06}</style></defs><g id="a" transform="translate(-31.545 -18.06)"><g id="g35961"><g id="g35931"><path id="path35909" d="M65.45 53.58c.94-1.85 3.32-3.14 6.06-2.13 3.52 1.29 3.56 4.08 3.22 5.27-.45 1.57-13.85 38.96-14.71 41.04-.94 2.27-3.11 4.71-6.77 4.77-3.47.06-5.86-2.24-6.77-4.47-.93-2.27-14.29-39.14-14.75-40.44-.48-1.37-.21-4.88 3.03-6.03 3.08-1.1 5.75 1.4 6.35 2.67.57 1.22 9.64 30.04 9.64 30.04 1.03 3.05 1.82 6.02 2.48 8.85.03.1 2.04-7.82 2.43-9.02.34-1.06 9.01-29.01 9.8-30.56z" class="j"/><path id="path35911" d="M94.4 38.14c0 3.76-2.97 6.64-6.54 6.64s-6.64-2.87-6.64-6.64 2.97-6.54 6.64-6.54 6.54 2.87 6.54 6.54M82.42 56.83c0-3.32 2.49-5.47 5.11-5.47 3.12 0 5.39 2.13 5.39 5.44v40.52c0 2.93-2.69 5.23-5.52 5.2-2.62-.02-4.99-2.4-4.99-5.14V56.83Z" class="j"/><path id="path35913" d="M155.57 79.44c1.22 10.29 3.09 14.51 11.4 14.95 5.38.28 7.32-4.1 9.93-7.8 1.26-1.79 3.65-2.56 5.93-1.47 2.49 1.19 3.02 3.83 2.17 5.76-2.64 5.92-8.61 11.66-18.58 11.66-12.66 0-20.78-10.62-20.78-25.4s7.84-26.1 20.69-26.1c11.77 0 19.12 10.48 19.75 22.03v.71c0 3.14-2.69 5.67-5.12 5.67h-25.38zm19.26-7.96c.81 0 1.51.1 1.59-.58.02-.17-.05-.8-.05-.97-.72-5.95-3.28-10.62-10.02-10.62-7.18 0-9.81 3.75-10.71 12.16h19.18z" class="j"/><path id="path35915" d="M191.17 24.61c0-2.98 2.89-6.55 7.78-6.55 4.59 0 7.77 3.12 7.77 6.55s-1.57 70.35-1.92 72.94c-.36 2.59-2.59 4.85-5.71 4.85-2.82 0-5.53-1.94-5.84-4.85s-2.07-69.96-2.08-72.94" style="fill:#f9c095"/><path id="path35917" d="M205.96 116.5c0 4.03-3.18 7.11-7 7.11s-7.11-3.08-7.11-7.11 3.18-7 7.11-7 7 3.07 7 7" class="h"/><g id="g35927"><path id="path35919" d="M145.33 110.96c0-.61.4-.92 1.06-.92.59 0 .99.31.99.92v.52c0 .33-.05.73-.1 1.11.4-1.13 1.56-2.67 3.59-2.69.61 0 .9.02 1.37.12.54.12.73.42.73.85 0 .09 0 .21-.02.33-.09.5-.42.9-.92.9-.07 0-.14 0-.21-.02-.33-.07-.54-.14-1.04-.14-1.02.02-1.72.55-2.34 1.3-.61.75-.97 1.68-1.06 2.67v6.57c0 .64-.4.95-.99.95-.66 0-1.06-.31-1.06-.95v-11.51z" class="h"/><path id="path35921" d="M162.89 113.94c0-1.61-.69-2.32-2.2-2.32s-2.2.76-2.51 1.82c-.14.45-.47.61-.85.61-.16 0-.33-.03-.5-.07-.43-.14-.66-.42-.66-.83 0-.09.02-.21.05-.33.21-.75.69-1.46 1.25-1.96.71-.61 1.65-1.02 3.31-1.02 2.74 0 4.04 1.25 4.04 4.11v6.5c0 .78.12 1.54.23 1.99.03.07.03.12.03.19 0 .42-.33.78-.87.83h-.17c-.45 0-.78-.16-.9-.57-.09-.28-.12-.69-.12-1.16-.88 1.02-1.87 1.89-3.78 1.89-2.15 0-3.57-1.44-3.57-3.93 0-2.1 1.16-3.54 3-4.16 1.06-.35 2.24-.52 4.21-.57v-1.04zm0 2.67c-2.2.07-3.24.33-3.97.78s-1.21 1.16-1.21 2.34c0 1.35.76 2.08 1.96 2.08 1.13 0 2.15-.71 2.74-1.61.36-.54.47-1.06.47-1.94v-1.65z" class="h"/><path id="path35923" d="M177.19 122.21c0-.28.05-.56.09-.87-.54 1.34-1.58 2.31-3.45 2.31-2.88 0-4.68-2.79-4.68-7.02s1.8-6.8 4.7-6.8c1.87 0 2.79 1.04 3.43 2.43-.05-.52-.09-1.06-.09-1.51v-5.08c0-.62.35-.95.99-.95s.99.33.99.95v16.83c0 .59-.35.92-.97.92-.68 0-1.02-.35-1.02-.83v-.38zm-5.95-5.55c0 3.02 1.13 5.19 3.02 5.19 2.03 0 3.03-2.15 3.03-5.17 0-2.81-.95-5.03-3.03-5.03-1.89 0-3.02 2.01-3.02 5.01" class="h"/><path id="path35925" d="M188.03 106.26c0 .9-.71 1.58-1.56 1.58s-1.58-.69-1.58-1.58.71-1.56 1.58-1.56 1.56.68 1.56 1.56m-2.6 4.7c0-.61.35-.92 1.02-.92s1.04.31 1.04.92v11.51c0 .64-.4.95-1.04.95s-1.02-.31-1.02-.95z" class="h"/></g><path id="path35929" d="M133.58 53.58c.94-1.85 3.32-3.14 6.06-2.13 3.52 1.29 3.56 4.08 3.22 5.27-.45 1.57-13.85 38.96-14.71 41.04-.94 2.27-3.11 4.71-6.77 4.77-3.47.06-5.86-2.24-6.77-4.47-.93-2.27-14.29-39.14-14.75-40.44-.48-1.37-.21-4.88 3.03-6.03 3.08-1.1 5.75 1.4 6.35 2.67.57 1.22 9.64 30.04 9.64 30.04 1.03 3.05 1.82 6.02 2.48 8.85.02.1 2.04-7.82 2.42-9.02.34-1.06 9.01-29.01 9.8-30.56z" class="j"/></g><g id="g35945"><path id="path35933" d="M110.49 44.59c-.54 0-.84-.38-.84-.99 0-.68.18-.9.59-1.47l5.33-7.21c.27-.36.68-.79 1.04-1.2-.5.02-1.15.07-1.56.07h-4.2c-.5 0-.77-.27-.77-.81s.27-.91.77-.91h6.96c.5 0 .79.36.79.97s-.2.95-.59 1.47l-5.33 7.23c-.29.41-.7.82-1.06 1.22.5-.05 1.13-.11 1.58-.11h4.92c.52 0 .77.25.77.84s-.27.9-.77.9h-7.64z" class="f"/><path id="path35935" d="M127.92 35.66c0-1.54-.66-2.21-2.1-2.21s-2.1.72-2.4 1.74c-.14.43-.45.59-.81.59-.16 0-.32-.02-.47-.07-.41-.14-.63-.41-.63-.79 0-.09.02-.2.04-.32.2-.72.66-1.4 1.2-1.87.68-.59 1.58-.97 3.16-.97 2.62 0 3.86 1.2 3.86 3.93v6.21c0 .75.11 1.47.23 1.9.02.07.02.11.02.18 0 .41-.32.75-.84.79h-.16c-.43 0-.75-.16-.86-.54-.09-.27-.11-.66-.11-1.11-.84.97-1.78 1.81-3.61 1.81-2.06 0-3.41-1.38-3.41-3.75 0-2.01 1.11-3.39 2.87-3.97 1.02-.34 2.15-.5 4.02-.54v-.99zm0 2.55c-2.1.07-3.09.31-3.8.74-.7.43-1.15 1.11-1.15 2.24 0 1.29.72 1.99 1.87 1.99 1.08 0 2.06-.68 2.62-1.54.34-.52.45-1.02.45-1.85v-1.58z" class="f"/><path id="path35937" d="M142.13 43.95c0 .5-.36.77-.88.77s-.9-.27-.9-.77v-7.34c0-2.17.05-3.07-.77-3.07-.52 0-.95.72-1.15 1.56-.11.47-.18 1.33-.18 1.99v6.87c0 .5-.36.77-.86.77-.54 0-.88-.27-.88-.77v-8.13c0-1.56-.04-2.28-.79-2.28-.5 0-.86.79-1.06 1.53-.16.61-.23 1.4-.23 2.12v6.75c0 .5-.41.77-.88.77-.54 0-.9-.27-.9-.77V32.68c0-.52.38-.74.9-.74.47 0 .88.22.88.72v.27c0 .2-.05.45-.09.75.38-1.15.99-1.9 1.99-1.9 1.08 0 1.47.63 1.69 1.85.34-1.17.86-1.85 2.15-1.85 1.4 0 1.97 1.15 1.97 4.09v8.09z" class="f"/><path id="path35939" d="M153.97 38.33c0 4-1.72 6.64-4.79 6.64-3.27 0-4.97-2.57-4.97-6.64s1.76-6.59 4.92-6.59 4.83 2.6 4.83 6.59zm-7.77.07c0 2.85.99 4.83 2.89 4.83s2.89-1.97 2.89-4.95c0-2.82-.93-4.79-2.78-4.79-1.97 0-3 1.92-3 4.9z" class="f"/><path id="path35941" d="M156.99 32.82c0-.59.38-.88 1.02-.88.57 0 .95.29.95.88v.5c0 .32-.04.7-.09 1.06.38-1.08 1.49-2.55 3.43-2.57.59 0 .86.02 1.31.11.52.11.7.41.7.81 0 .09 0 .2-.02.32-.09.47-.41.86-.88.86-.07 0-.14 0-.2-.02-.32-.07-.52-.14-.99-.14-.97.02-1.65.52-2.24 1.24s-.93 1.6-1.02 2.55v6.28c0 .61-.38.9-.95.9-.63 0-1.02-.29-1.02-.9z" class="f"/><path id="path35943" d="M172.65 35.66c0-1.54-.65-2.21-2.1-2.21s-2.1.72-2.4 1.74c-.13.43-.45.59-.81.59-.16 0-.32-.02-.47-.07-.41-.14-.63-.41-.63-.79 0-.09.02-.2.05-.32.2-.72.65-1.4 1.2-1.87.68-.59 1.58-.97 3.16-.97 2.62 0 3.86 1.2 3.86 3.93v6.21c0 .75.11 1.47.23 1.9.02.07.02.11.02.18 0 .41-.32.75-.84.79h-.16c-.43 0-.74-.16-.86-.54-.09-.27-.11-.66-.11-1.11-.84.97-1.78 1.81-3.61 1.81-2.06 0-3.41-1.38-3.41-3.75 0-2.01 1.11-3.39 2.87-3.97 1.02-.34 2.15-.5 4.02-.54v-.99zm0 2.55c-2.1.07-3.09.31-3.79.74s-1.15 1.11-1.15 2.24c0 1.29.72 1.99 1.87 1.99 1.08 0 2.06-.68 2.62-1.54.34-.52.45-1.02.45-1.85z" class="f"/></g><g id="g35959"><path id="path35947" d="M222.03 27.08c0-3.22 2.45-5.7 6.95-5.7s7.35 2.6 7.35 6.74c0 4.78-3.95 7.11-9.4 7.11-4.93 0-12.8-.83-12.8-7.63 0-2.36.89-3.8 1.99-4.66.58-.46 1.19-.8 1.96-.8.95 0 1.81.67 1.81 1.72 0 .89-.46 1.44-1.04 1.78-.74.37-1.26 1.13-1.26 2.17 0 2.7 3.49 3.52 7.11 3.71-1.75-.77-2.67-2.54-2.67-4.44m6.98-1.87c-2.51 0-3.61.98-3.61 2.79s1.1 3.19 3.58 3.19c2.11 0 3.65-1.26 3.65-2.91 0-1.87-1.19-3.06-3.62-3.06z" class="g"/><path id="path35949" d="M220.71 52.79c-3.98 0-6.59-3.4-6.59-6.95 0-2.39 1.16-4.96 3.19-6.07.61-.34 1.35-.52 1.9-.52 1.13 0 2.02.83 2.02 1.99 0 .83-.43 1.29-1.13 1.65-1.35.67-2.42 1.23-2.42 2.97 0 1.9 1.26 3.12 3.31 3.12 1.07 0 1.81-.34 2.36-.89.86-.89.83-2.08.95-2.97.21-1.35 1.04-1.75 1.75-1.75 1.23 0 1.56 1.13 1.68 2.27.09.86.18 1.47.64 1.99.43.52 1.13.77 1.9.77 1.72 0 2.6-1.23 2.6-2.63 0-1.1-.55-1.72-1.23-2.14-.73-.46-1.9-.86-1.9-2.02 0-1.01.86-2.02 2.02-2.02.34 0 .83.09 1.44.4 2.08 1.04 3.12 3.28 3.12 5.61 0 3.22-1.96 6.56-5.79 6.56-2.3 0-3.8-1.23-4.5-3-.8 2.14-2.66 3.65-5.33 3.65z" class="g"/><path id="path35951" d="M218.48 58.06c0 1.23-.95 2.21-2.14 2.21s-2.05-.98-2.05-2.21.92-2.17 2.05-2.17 2.14.98 2.14 2.17" class="g"/><path id="path35953" d="M222.4 66.58v4.38h2.82c1.01 0 1.87.83 1.87 1.84s-.86 1.81-1.78 1.81h-2.91v1.01c0 .8-.77 1.56-1.65 1.56-.83 0-1.65-.77-1.65-1.56v-1.01h-2.97c-.89 0-1.75-.86-1.75-1.81s.86-1.84 1.75-1.84h2.97v-7.08c0-1.16.86-1.84 1.84-1.84.34 0 .7.09 1.07.28l13.42 6.89c.55.31.92.95.92 1.62 0 .92-.83 1.84-1.81 1.84-.31 0-.61-.09-.89-.21l-11.24-5.88z" class="g"/><path id="path35955" d="M223.74 84.24h-2.62v3.19c0 .47-.4.89-.86.89s-.86-.41-.86-.89v-3.19h-4.05c-.49 0-.92-.44-.92-.95s.43-.95.92-.95h9.3c.51 0 .93.44.93.95v4.8c0 .51-.43.95-.93.95s-.92-.44-.92-.95v-3.85z" class="e"/><path id="path35957" d="M215.31 101.57c-.48.01-.87-.4-.87-.89 0-.46.4-.9.86-.9l6.39-.06-6.68-2.45c-.34-.12-.57-.47-.57-.87s.23-.75.57-.89l6.68-2.42-6.39-.08c-.46 0-.86-.43-.86-.89s.4-.92.87-.9l9.42.2c.63.01.93.52.93 1.09 0 .46-.23.89-.64 1.04l-7.46 2.88 7.46 2.9c.41.15.64.52.64.98 0 .57-.31 1.07-.93 1.09l-9.42.18z" class="e"/></g></g></g></svg>