<svg xmlns="http://www.w3.org/2000/svg" id="svg36707" width="206.065" height="105.88" version="1.1" viewBox="0 0 206.065 105.88"><defs id="defs36643"><style id="style36641">.e{fill:#cbcbcb}.g{fill:#0d92d2}.h{fill:#b9b8b8}.i{fill:#6facde}</style></defs><g id="a" transform="translate(-31.725 -19.41)"><g id="g36701"><g id="g36667"><path id="path36645" d="M65.72 55.01c.95-1.86 3.33-3.15 6.08-2.14 3.53 1.29 3.57 4.09 3.23 5.28-.45 1.57-13.89 39.08-14.75 41.16-.94 2.27-3.12 4.72-6.79 4.78-3.48.06-5.88-2.24-6.79-4.48-.94-2.28-14.34-39.25-14.79-40.55-.48-1.37-.21-4.89 3.04-6.05 3.09-1.1 5.76 1.4 6.36 2.68.57 1.22 9.67 30.12 9.67 30.12 1.03 3.06 1.83 6.04 2.49 8.88.03.1 2.05-7.83 2.43-9.04.34-1.07 9.04-29.1 9.83-30.65z" class="g"/><path id="path36647" d="M94.75 39.53c0 3.78-2.98 6.66-6.56 6.66s-6.66-2.88-6.66-6.66 2.98-6.56 6.66-6.56 6.56 2.88 6.56 6.56M82.74 58.27c0-3.33 2.5-5.48 5.13-5.48 3.13 0 5.4 2.13 5.4 5.46v40.63c0 2.93-2.69 5.24-5.53 5.21-2.63-.02-5-2.41-5-5.15V58.28Z" class="g"/><path id="path36649" d="M156.09 80.95c1.23 10.32 3.1 14.55 11.43 14.99 5.4.28 7.34-4.11 9.96-7.82 1.26-1.79 3.66-2.57 5.94-1.48 2.5 1.2 3.03 3.84 2.17 5.77-2.65 5.94-8.64 11.69-18.64 11.69-12.7 0-20.84-10.65-20.84-25.47s7.86-26.18 20.75-26.18c11.8 0 19.18 10.52 19.81 22.1v.71c0 3.15-2.7 5.68-5.13 5.68h-25.45zm19.32-7.99c.81 0 1.51.09 1.6-.58.02-.17-.05-.8-.05-.97-.72-5.96-3.29-10.65-10.04-10.65-7.2 0-9.83 3.77-10.74 12.2z" class="g"/><path id="path36651" d="M191.8 25.97c0-2.99 2.9-6.56 7.8-6.56 4.6 0 7.79 3.13 7.79 6.56s-1.57 70.55-1.93 73.14c-.36 2.6-2.59 4.86-5.73 4.86-2.83 0-5.54-1.94-5.86-4.86-.31-2.92-2.08-70.16-2.08-73.14z" style="fill:#2fb4e9"/><path id="path36653" d="M206.63 118.12c0 4.04-3.19 7.13-7.02 7.13s-7.13-3.09-7.13-7.13 3.19-7.02 7.13-7.02 7.02 3.08 7.02 7.02" class="i"/><g id="g36663"><path id="path36655" d="M145.82 112.56c0-.62.4-.93 1.07-.93.59 0 1 .31 1 .93v.52c0 .33-.05.73-.1 1.11.4-1.14 1.57-2.68 3.6-2.7.62 0 .9.02 1.37.12.55.12.73.42.73.85 0 .1 0 .21-.02.33-.09.5-.43.9-.92.9-.07 0-.14 0-.21-.02-.33-.07-.55-.14-1.04-.14-1.02.03-1.73.55-2.35 1.31-.61.76-.97 1.68-1.07 2.68v6.59c0 .64-.4.95-1 .95-.66 0-1.07-.31-1.07-.95v-11.54z" class="i"/><path id="path36657" d="M163.43 115.54c0-1.61-.69-2.32-2.2-2.32s-2.21.76-2.51 1.83c-.14.45-.47.61-.85.61-.17 0-.33-.03-.5-.07-.43-.14-.66-.43-.66-.83 0-.09.02-.21.05-.33.21-.76.69-1.47 1.26-1.97.71-.62 1.66-1.02 3.32-1.02 2.75 0 4.05 1.26 4.05 4.12v6.52c0 .78.12 1.54.23 1.99.03.07.03.12.03.19 0 .42-.33.78-.88.83h-.17c-.45 0-.78-.17-.9-.57-.09-.28-.12-.69-.12-1.16-.88 1.02-1.87 1.9-3.79 1.9-2.16 0-3.58-1.45-3.58-3.94 0-2.11 1.16-3.55 3.01-4.17 1.07-.35 2.25-.52 4.22-.57v-1.04zm0 2.67c-2.2.07-3.25.33-3.98.78-.74.45-1.21 1.16-1.21 2.35 0 1.35.76 2.09 1.97 2.09 1.14 0 2.15-.71 2.75-1.61.36-.55.47-1.07.47-1.94v-1.66z" class="i"/><path id="path36659" d="M177.77 123.84c0-.28.05-.57.09-.87-.55 1.35-1.59 2.32-3.46 2.32-2.89 0-4.69-2.8-4.69-7.04s1.8-6.82 4.72-6.82c1.87 0 2.8 1.04 3.44 2.44-.05-.52-.09-1.07-.09-1.52v-5.09c0-.62.36-.95 1-.95s.99.33.99.95v16.87c0 .59-.36.92-.97.92-.69 0-1.02-.35-1.02-.83v-.38zm-5.97-5.57c0 3.04 1.14 5.21 3.03 5.21 2.04 0 3.03-2.15 3.03-5.19 0-2.82-.95-5.05-3.03-5.05-1.9 0-3.03 2.01-3.03 5.02z" class="i"/><path id="path36661" d="M188.65 107.84c0 .9-.71 1.59-1.56 1.59s-1.59-.69-1.59-1.59.71-1.56 1.59-1.56 1.56.68 1.56 1.56m-2.61 4.72c0-.62.35-.93 1.02-.93s1.04.31 1.04.93v11.54c0 .64-.4.95-1.04.95s-1.02-.31-1.02-.95z" class="i"/></g><path id="path36665" d="M134.04 55.01c.95-1.86 3.33-3.15 6.08-2.14 3.53 1.29 3.57 4.09 3.23 5.28-.45 1.57-13.89 39.08-14.75 41.16-.94 2.27-3.12 4.72-6.79 4.78-3.48.06-5.87-2.24-6.79-4.48-.93-2.28-14.34-39.25-14.79-40.55-.48-1.37-.21-4.89 3.04-6.05 3.09-1.1 5.76 1.4 6.36 2.68.57 1.22 9.67 30.12 9.67 30.12 1.03 3.06 1.83 6.04 2.49 8.88.02.1 2.05-7.83 2.43-9.04.34-1.07 9.04-29.1 9.83-30.65z" class="g"/></g><g id="g36685"><path id="path36669" d="M110.05 47.53c0 .36-.28.64-.87.64-.52 0-.83-.26-.83-.73V35.42c0-.48.32-.75.85-.75s.85.26.85.75v.3c0 .2-.04.44-.08.7.54-1.09 1.47-1.91 3.06-1.91 2.4 0 3.86 2.09 3.86 5.37s-1.47 5.53-3.91 5.53c-1.59 0-2.56-.76-3.02-1.83.04.24.08.46.08.68v3.24zm-.08-7.59c0 2.42.91 4.03 2.68 4.03 1.61 0 2.48-1.65 2.48-4.05s-.86-3.93-2.46-3.93c-1.79 0-2.7 1.69-2.7 3.94z" class="i"/><path id="path36671" d="M124.92 38.03c0-1.37-.58-1.97-1.87-1.97s-1.87.64-2.13 1.55c-.12.38-.4.52-.72.52q-.21 0-.42-.06c-.36-.12-.56-.36-.56-.7 0-.08.02-.18.04-.28.18-.64.58-1.25 1.07-1.67.6-.52 1.41-.87 2.82-.87 2.33 0 3.44 1.07 3.44 3.5v5.54c0 .66.1 1.31.2 1.69.02.06.02.1.02.16 0 .36-.28.66-.74.7h-.14c-.38 0-.66-.14-.76-.48-.08-.24-.1-.58-.1-.99-.75.87-1.59 1.61-3.22 1.61-1.83 0-3.04-1.23-3.04-3.34 0-1.79.99-3.02 2.56-3.54.91-.3 1.91-.44 3.58-.48v-.89zm0 2.27c-1.87.06-2.76.28-3.38.66s-1.03.99-1.03 1.99c0 1.15.64 1.77 1.67 1.77.97 0 1.83-.6 2.34-1.37.3-.46.4-.91.4-1.65v-1.41z" class="i"/><path id="path36673" d="M129.61 30.99c0-.54.3-.81.87-.81s.89.26.89.81V45.3c0 .54-.34.81-.89.81s-.87-.26-.87-.81z" class="i"/><path id="path36675" d="M135.63 40.77c.02 2.44 1.01 4.03 2.86 4.03 1.21 0 1.73-.83 2.21-1.85.18-.36.4-.5.68-.5.12 0 .26.02.4.08.32.1.58.34.58.72 0 .1-.02.22-.08.34-.58 1.41-1.63 2.74-3.86 2.74-2.84 0-4.51-2.35-4.51-5.86s1.55-5.94 4.43-5.94c2.64 0 4.03 2.29 4.17 5.03v.12c0 .74-.34 1.09-.89 1.09h-6zm4.91-1.43c.18 0 .22-.14.22-.3v-.12c-.16-1.41-.89-2.88-2.39-2.88-1.61 0-2.48 1.31-2.68 3.3z" class="i"/><path id="path36677" d="M152.58 45.32c0 .52-.36.78-.89.78s-.82-.26-.82-.78v-6.46c0-1.73-.4-2.72-1.73-2.72-.91 0-1.61.54-2.15 1.47-.38.64-.58 1.23-.58 1.97v5.74c0 .52-.32.78-.85.78s-.85-.26-.85-.78v-9.84c0-.5.32-.76.85-.76s.85.24.85.76v.56c0 .22-.02.4-.04.76.5-1.39 1.57-2.27 3.2-2.27 1.99 0 3.02 1.53 3.02 3.94v6.84z" class="i"/><path id="path36679" d="M162.86 37.35c.02.1.04.2.04.28 0 .4-.28.66-.62.78-.14.04-.28.06-.4.06-.3 0-.58-.14-.71-.48-.34-1.03-.76-1.87-2.07-1.87-1.79 0-2.72 1.81-2.72 4.31s.93 4.31 2.74 4.31c1.29 0 1.77-.8 2.13-1.91.12-.4.4-.52.72-.52q.21 0 .42.06c.34.1.6.34.6.71 0 .1-.02.22-.06.34-.48 1.43-1.37 2.92-3.86 2.92-2.98 0-4.51-2.33-4.51-5.86s1.53-5.94 4.49-5.94c2.44 0 3.38 1.53 3.8 2.82z" class="i"/><path id="path36681" d="M168.08 31.49c0 .76-.6 1.35-1.33 1.35s-1.35-.58-1.35-1.35.6-1.33 1.35-1.33 1.33.58 1.33 1.33m-2.21 4.01c0-.52.3-.78.87-.78s.89.26.89.78v9.8c0 .54-.34.81-.89.81s-.87-.26-.87-.81z" class="i"/><path id="path36683" d="M176.45 38.03c0-1.37-.58-1.97-1.87-1.97s-1.87.64-2.13 1.55c-.12.38-.4.52-.72.52q-.21 0-.42-.06c-.36-.12-.56-.36-.56-.7 0-.08.02-.18.04-.28.18-.64.58-1.25 1.07-1.67.6-.52 1.41-.87 2.82-.87 2.34 0 3.44 1.07 3.44 3.5v5.54c0 .66.1 1.31.2 1.69.02.06.02.1.02.16 0 .36-.28.66-.74.7h-.14c-.38 0-.66-.14-.77-.48-.08-.24-.1-.58-.1-.99-.74.87-1.59 1.61-3.22 1.61-1.83 0-3.04-1.23-3.04-3.34 0-1.79.99-3.02 2.56-3.54.91-.3 1.91-.44 3.58-.48v-.89zm0 2.27c-1.87.06-2.76.28-3.38.66s-1.03.99-1.03 1.99c0 1.15.64 1.77 1.67 1.77.97 0 1.83-.6 2.33-1.37.3-.46.4-.91.4-1.65v-1.41z" class="i"/></g><g id="g36699"><path id="path36687" d="M222.44 28.24c0-3.45 2.63-6.11 7.46-6.11s7.89 2.79 7.89 7.23c0 5.13-4.24 7.63-10.09 7.63-5.29 0-13.74-.89-13.74-8.19 0-2.53.95-4.08 2.14-5 .62-.49 1.28-.85 2.1-.85 1.02 0 1.94.72 1.94 1.84 0 .95-.49 1.55-1.12 1.91-.79.39-1.35 1.22-1.35 2.33 0 2.89 3.75 3.78 7.63 3.98-1.87-.82-2.86-2.73-2.86-4.77m7.5-2.01c-2.7 0-3.88 1.05-3.88 2.99s1.18 3.42 3.85 3.42c2.27 0 3.91-1.35 3.91-3.12 0-2.01-1.28-3.29-3.88-3.29" class="h"/><path id="path36689" d="M225.86 56.19c-7.53 0-11.9-2.37-11.9-7.63s4.37-7.66 11.9-7.66 11.93 2.33 11.93 7.66-4.44 7.63-11.93 7.63m0-11.11c-5 0-7.86.95-7.86 3.48s2.86 3.42 7.86 3.42 7.89-.95 7.89-3.42-2.89-3.48-7.89-3.48" class="h"/><path id="path36691" d="M218.63 61.56c0 1.31-1.02 2.37-2.3 2.37s-2.2-1.05-2.2-2.37.99-2.33 2.2-2.33 2.3 1.05 2.3 2.33" class="h"/><path id="path36693" d="M216.16 75.76c-1.02 0-1.94-1.02-1.94-2.1s.92-2.04 1.94-2.04h15.22l-.69-1.12c-.2-.3-.33-.82-.33-1.25 0-1.18.95-1.97 2.01-1.97.92 0 1.45.59 1.84 1.45.53 1.15.85 1.81 2.4 2.96.46.33 1.18.85 1.18 1.91 0 1.25-.99 2.17-2.07 2.17h-19.56z" class="h"/><path id="path36695" d="M224.27 84.4h-2.81v3.42c0 .51-.43.95-.92.95s-.92-.44-.92-.95V84.4h-4.34c-.53 0-.99-.48-.99-1.02s.46-1.02.99-1.02h9.98c.54 0 1 .48 1 1.02v5.15c0 .54-.46 1.02-1 1.02s-.99-.48-.99-1.02z" class="e"/><path id="path36697" d="M215.23 103c-.51.02-.94-.43-.94-.95 0-.49.43-.97.92-.97l6.86-.07-7.17-2.63c-.36-.13-.61-.51-.61-.94s.25-.81.61-.95l7.17-2.6-6.86-.08c-.49 0-.92-.46-.92-.95s.43-.99.94-.97l10.11.21c.67.02 1 .56 1 1.17 0 .49-.25.95-.69 1.12l-8.01 3.09 8.01 3.11c.44.16.69.56.69 1.05 0 .61-.33 1.15-1 1.17l-10.11.2z" class="e"/></g></g></g></svg>