<svg xmlns="http://www.w3.org/2000/svg" id="svg37451" width="203.756" height="104.93" version="1.1" viewBox="0 0 203.756 104.93"><defs id="defs37383"><style id="style37381">.e{fill:#cbcbcb}.g{fill:#b9b8b8}.h{fill:#b95a9d}.i{fill:#c57db3}.j{fill:#a4167f}</style></defs><g id="a" transform="translate(-32.284 -19.4)"><g id="g37445"><g id="g37407"><path id="path37385" d="M65.98 54.69c.94-1.84 3.3-3.12 6.03-2.12 3.5 1.28 3.54 4.05 3.2 5.24-.45 1.56-13.76 38.72-14.62 40.78-.93 2.25-3.09 4.68-6.73 4.74-3.45.06-5.82-2.22-6.73-4.44-.93-2.25-14.21-38.9-14.66-40.19-.48-1.36-.21-4.85 3.01-5.99 3.06-1.09 5.71 1.38 6.31 2.66.57 1.21 9.58 29.85 9.58 29.85 1.02 3.03 1.81 5.98 2.47 8.8.03.1 2.03-7.77 2.41-8.96.34-1.06 8.96-28.83 9.74-30.37z" class="j"/><path id="path37387" d="M94.75 39.35c0 3.74-2.96 6.6-6.5 6.6s-6.6-2.86-6.6-6.6 2.95-6.5 6.6-6.5 6.5 2.85 6.5 6.5m-11.9 18.57c0-3.3 2.48-5.43 5.08-5.43 3.1 0 5.35 2.11 5.35 5.41v40.27c0 2.91-2.67 5.19-5.48 5.17-2.6-.02-4.95-2.39-4.95-5.11v-40.3z" class="j"/><path id="path37389" d="M155.54 80.39c1.21 10.22 3.07 14.42 11.33 14.85 5.35.28 7.28-4.08 9.87-7.75 1.25-1.77 3.62-2.55 5.89-1.46 2.48 1.18 3 3.81 2.15 5.72-2.62 5.89-8.56 11.58-18.47 11.58-12.59 0-20.65-10.56-20.65-25.24s7.79-25.94 20.56-25.94c11.7 0 19.01 10.42 19.63 21.9v.7c0 3.12-2.67 5.63-5.08 5.63h-25.22zm19.14-7.91c.8 0 1.5.09 1.58-.57.02-.17-.05-.79-.05-.96-.71-5.91-3.26-10.55-9.95-10.55-7.14 0-9.74 3.73-10.64 12.09h19.06z" class="j"/><path id="path37391" d="M190.92 25.91c0-2.96 2.87-6.51 7.73-6.51 4.56 0 7.72 3.1 7.72 6.51 0 3.4-1.56 69.91-1.91 72.48-.36 2.57-2.57 4.82-5.68 4.82-2.8 0-5.49-1.92-5.8-4.82-.31-2.89-2.06-69.52-2.06-72.48" style="fill:#edb2cb"/><path id="path37393" d="M205.62 117.23c0 4.01-3.16 7.06-6.96 7.06s-7.06-3.06-7.06-7.06 3.16-6.96 7.06-6.96 6.96 3.06 6.96 6.96" class="i"/><g id="g37403"><path id="path37395" d="M145.36 111.72c0-.61.4-.92 1.06-.92.59 0 .99.31.99.92v.52c0 .33-.05.73-.09 1.1.4-1.13 1.55-2.65 3.57-2.67.61 0 .89.02 1.36.12.54.12.73.42.73.85 0 .09 0 .21-.02.33-.09.49-.42.89-.91.89-.07 0-.14 0-.21-.02-.33-.07-.54-.14-1.03-.14-1.01.02-1.71.54-2.33 1.29-.61.75-.96 1.67-1.06 2.65v6.53c0 .63-.4.94-.99.94-.66 0-1.06-.31-1.06-.94v-11.44z" class="i"/><path id="path37397" d="M162.81 114.68c0-1.6-.68-2.3-2.18-2.3s-2.19.75-2.49 1.81c-.14.44-.47.61-.85.61-.16 0-.33-.03-.49-.07-.42-.14-.66-.42-.66-.82 0-.09.02-.21.05-.33.21-.75.68-1.46 1.24-1.95.7-.61 1.64-1.01 3.29-1.01 2.72 0 4.02 1.24 4.02 4.09v6.46c0 .77.12 1.52.23 1.97.03.07.03.12.03.19 0 .42-.33.77-.87.82h-.16c-.45 0-.77-.16-.89-.57-.09-.28-.12-.68-.12-1.15-.87 1.01-1.86 1.88-3.76 1.88-2.14 0-3.55-1.43-3.55-3.9 0-2.09 1.15-3.52 2.98-4.13 1.06-.35 2.23-.52 4.18-.56v-1.03zm0 2.65c-2.18.07-3.22.33-3.95.77-.73.45-1.2 1.15-1.2 2.33 0 1.34.75 2.07 1.95 2.07 1.13 0 2.14-.71 2.72-1.6.35-.54.47-1.06.47-1.93v-1.64z" class="i"/><path id="path37399" d="M177.02 122.9c0-.28.05-.56.09-.87-.54 1.34-1.57 2.3-3.43 2.3-2.87 0-4.65-2.77-4.65-6.97s1.78-6.76 4.67-6.76c1.85 0 2.77 1.03 3.41 2.42-.05-.52-.09-1.06-.09-1.5v-5.05c0-.61.35-.94.99-.94s.98.33.98.94v16.72c0 .59-.35.92-.96.92-.68 0-1.01-.35-1.01-.82v-.38zm-5.92-5.52c0 3.01 1.13 5.16 3.01 5.16 2.02 0 3.01-2.14 3.01-5.14 0-2.8-.94-5-3.01-5-1.88 0-3.01 1.99-3.01 4.98" class="i"/><path id="path37401" d="M187.8 107.04c0 .89-.7 1.57-1.55 1.57s-1.57-.68-1.57-1.57.71-1.55 1.57-1.55 1.55.68 1.55 1.55m-2.58 4.67c0-.61.35-.92 1.01-.92s1.03.31 1.03.92v11.44c0 .63-.4.94-1.03.94s-1.01-.31-1.01-.94z" class="i"/></g><path id="path37405" d="M133.69 54.69c.94-1.84 3.3-3.12 6.03-2.12 3.5 1.28 3.54 4.05 3.2 5.24-.45 1.56-13.76 38.72-14.62 40.78-.93 2.25-3.09 4.68-6.73 4.74-3.45.06-5.82-2.22-6.73-4.44-.93-2.25-14.21-38.9-14.66-40.19-.48-1.36-.21-4.85 3.01-5.99 3.06-1.09 5.71 1.38 6.31 2.66.57 1.21 9.58 29.85 9.58 29.85 1.02 3.03 1.81 5.98 2.47 8.8.02.1 2.03-7.77 2.41-8.96.34-1.06 8.96-28.83 9.74-30.37z" class="j"/></g><g id="g37429"><path id="path37409" d="m109.08 43.16 2.01-8.41c.12-.43.35-.64.76-.64.51 0 .86.33.86.72 0 .12-.02.31-.08.49l-2.61 9.72c-.22.82-.47 1.03-.97 1.03-.47 0-.76-.21-.88-.66l-2.55-10.13c-.04-.14-.08-.29-.08-.43 0-.49.37-.8.88-.8.45 0 .7.25.82.76l1.85 8.35z" class="h"/><path id="path37411" d="M119.36 37.18c0-.97-.33-1.65-1.31-1.65-1.05 0-1.4.84-1.73 1.58-.08.21-.23.43-.62.43-.55 0-.84-.37-.84-.8 0-.84 1.13-2.72 3.08-2.72 2.92 0 2.94 2.22 2.94 3.7 0 1.27-.04 3.21-.04 4.81 0 .49.04 1.23.16 1.58.14.53.39.92.39 1.23 0 .49-.39.74-.88.74-.45 0-.66-.35-.86-1.09-.7.76-1.44 1.13-2.43 1.13-1.32 0-2.71-.88-2.71-3.23 0-3.02 2.28-3.78 3.06-4.03.56-.17 1.42-.39 1.79-.64v-1.01zm-1.32 3.08c-1.42.45-2.01 1.31-2.01 2.61 0 1.11.51 1.73 1.32 1.75.57 0 1.31-.33 2.01-1.34-.04-.33-.04-.74-.04-1.03 0-.1.04-2.04.04-2.44-.33.14-.68.25-1.32.45" class="h"/><path id="path37413" d="M123.97 30.33c0-.6.35-.86.86-.86s.87.25.87.86v14.82c0 .6-.35.86-.87.86s-.86-.25-.86-.86z" class="h"/><path id="path37415" d="M128.55 30.33c0-.6.35-.86.86-.86s.88.25.88.86v14.82c0 .6-.35.86-.88.86s-.86-.25-.86-.86z" class="h"/><path id="path37417" d="M137.37 37.18c0-.97-.33-1.65-1.3-1.65-1.05 0-1.4.84-1.73 1.58-.08.21-.23.43-.63.43-.54 0-.84-.37-.84-.8 0-.84 1.13-2.72 3.08-2.72 2.92 0 2.94 2.22 2.94 3.7 0 1.27-.04 3.21-.04 4.81 0 .49.04 1.23.16 1.58.14.53.39.92.39 1.23 0 .49-.39.74-.87.74-.45 0-.66-.35-.86-1.09-.7.76-1.44 1.13-2.44 1.13-1.32 0-2.71-.88-2.71-3.23 0-3.02 2.28-3.78 3.06-4.03.57-.17 1.42-.39 1.79-.64v-1.01zm-1.32 3.08c-1.42.45-2.01 1.31-2.01 2.61 0 1.11.51 1.73 1.32 1.75.57 0 1.31-.33 2-1.34-.04-.33-.04-.74-.04-1.03 0-.1.04-2.04.04-2.44-.33.14-.68.25-1.32.45z" class="h"/><path id="path37419" d="M148.35 45.26c0 .54-.31.76-.78.76-.76 0-.76-.51-.76-1.01-.37.54-.97 1.03-1.89 1.03-2.92 0-2.96-4.38-2.96-5.88 0-2.86.62-6.11 3.06-6.11.68 0 1.32.21 1.79.95v-4.77c0-.55.31-.78.76-.78s.78.23.78.78zm-4.81-4.89c0 2.18.23 4.17 1.62 4.17 1.65 0 1.65-2.98 1.65-4.38 0-1.85-.02-3.23-.64-4.07-.31-.41-.64-.55-.97-.55-1.65 0-1.65 3.39-1.65 4.83z" class="h"/><path id="path37421" d="M157.56 37.36c.16.88.21 1.83.21 2.59 0 2.55-.33 6.15-3.35 6.15-2.79 0-3.33-3.1-3.33-6.02 0-1.19.14-3.62 1.25-5 .51-.66 1.28-.99 2.2-.99 2.24 0 2.76 2.03 3.02 3.27m-4.17-1.17c-.72 1.01-.74 3.58-.74 3.87 0 .99.04 2.75.49 3.66.25.52.64.86 1.27.86 1.44 0 1.79-1.71 1.79-4.6 0-3.08-.57-4.38-1.7-4.38-.47 0-.84.19-1.11.58z" class="h"/><path id="path37423" d="M160.87 30.33c0-.6.35-.86.86-.86s.88.25.88.86v14.82c0 .6-.35.86-.88.86s-.86-.25-.86-.86z" class="h"/><path id="path37425" d="M167.14 30.68c0 .66-.55 1.21-1.21 1.21s-1.2-.55-1.2-1.21.54-1.21 1.2-1.21 1.21.55 1.21 1.21m-2.08 4.26c0-.58.35-.86.84-.86s.86.27.86.86v10.2c0 .58-.35.84-.86.84s-.84-.25-.84-.84z" class="h"/><path id="path37427" d="M176 45.26c0 .54-.31.76-.78.76-.76 0-.76-.51-.76-1.01-.37.54-.97 1.03-1.89 1.03-2.92 0-2.96-4.38-2.96-5.88 0-2.86.62-6.11 3.06-6.11.68 0 1.32.21 1.79.95v-4.77c0-.55.31-.78.76-.78s.78.23.78.78zm-4.81-4.89c0 2.18.23 4.17 1.61 4.17 1.66 0 1.66-2.98 1.66-4.38 0-1.85-.02-3.23-.64-4.07-.31-.41-.64-.55-.97-.55-1.65 0-1.65 3.39-1.65 4.83z" class="h"/></g><g id="g37443"><path id="path37431" d="M221.78 27.77c0-3.21 2.44-5.68 6.93-5.68s7.33 2.6 7.33 6.72c0 4.76-3.94 7.09-9.38 7.09-4.92 0-12.77-.82-12.77-7.6 0-2.35.89-3.79 1.99-4.64.58-.46 1.19-.79 1.95-.79.95 0 1.8.67 1.8 1.71 0 .89-.46 1.43-1.04 1.77-.73.37-1.25 1.13-1.25 2.17 0 2.69 3.48 3.51 7.08 3.7-1.74-.76-2.66-2.54-2.66-4.43zm6.96-1.86c-2.5 0-3.6.98-3.6 2.78s1.1 3.18 3.57 3.18c2.11 0 3.63-1.25 3.63-2.9 0-1.86-1.19-3.05-3.6-3.05z" class="g"/><path id="path37433" d="M221.78 45.44c0-3.21 2.44-5.68 6.93-5.68s7.33 2.6 7.33 6.72c0 4.76-3.94 7.09-9.38 7.09-4.92 0-12.77-.83-12.77-7.6 0-2.35.89-3.79 1.99-4.64.58-.46 1.19-.79 1.95-.79.95 0 1.8.67 1.8 1.71 0 .89-.46 1.43-1.04 1.77-.73.37-1.25 1.13-1.25 2.17 0 2.69 3.48 3.51 7.08 3.7-1.74-.76-2.66-2.54-2.66-4.43zm6.96-1.86c-2.5 0-3.6.98-3.6 2.78s1.1 3.18 3.57 3.18c2.11 0 3.63-1.25 3.63-2.9 0-1.86-1.19-3.05-3.6-3.05z" class="g"/><path id="path37435" d="M218.24 58.73c0 1.22-.95 2.2-2.14 2.2s-2.05-.98-2.05-2.2.92-2.17 2.05-2.17 2.14.98 2.14 2.17" class="g"/><path id="path37437" d="M221.78 69.64c0-3.21 2.44-5.68 6.93-5.68s7.33 2.6 7.33 6.72c0 4.76-3.94 7.09-9.38 7.09-4.92 0-12.77-.83-12.77-7.6 0-2.35.89-3.79 1.99-4.64.58-.46 1.19-.79 1.95-.79.95 0 1.8.67 1.8 1.71 0 .89-.46 1.43-1.04 1.77-.73.37-1.25 1.13-1.25 2.17 0 2.69 3.48 3.51 7.08 3.7-1.74-.76-2.66-2.54-2.66-4.43zm6.96-1.86c-2.5 0-3.6.98-3.6 2.78s1.1 3.18 3.57 3.18c2.11 0 3.63-1.25 3.63-2.9 0-1.86-1.19-3.05-3.6-3.05z" class="g"/><path id="path37439" d="M223.47 85.45h-2.61v3.18c0 .47-.4.89-.85.89s-.86-.41-.86-.89v-3.18h-4.03c-.49 0-.92-.44-.92-.95s.43-.95.92-.95h9.27c.5 0 .93.44.93.95v4.78c0 .5-.43.95-.93.95s-.92-.44-.92-.95z" class="e"/><path id="path37441" d="M215.08 102.73c-.47.02-.87-.4-.87-.89 0-.46.4-.9.86-.9l6.37-.06-6.66-2.44c-.34-.12-.56-.47-.56-.87s.23-.75.56-.89l6.66-2.41-6.37-.08c-.46 0-.86-.43-.86-.89s.4-.92.87-.9l9.39.2c.63.01.93.52.93 1.08 0 .46-.23.89-.64 1.04l-7.44 2.87 7.44 2.89c.41.15.64.52.64.98 0 .56-.31 1.07-.93 1.08l-9.39.18z" class="e"/></g></g></g></svg>