<svg xmlns="http://www.w3.org/2000/svg" xml:space="preserve" id="Capa_1" width="262.434" height="137.7" x="0" y="0" version="1.1" viewBox="0 0 262.434 137.7"><style id="style1" type="text/css">.st0{fill:#b9b8b8}.st1{fill:#cbcbcb}.st3{opacity:.5}.st5{fill:#008400}</style><path id="path1" d="M44.134 46.2c1.2-2.4 4.3-4.1 7.9-2.8 4.6 1.7 4.6 5.3 4.2 6.9-.6 2-18.1 50.8-19.2 53.5-1.2 3-4.1 6.1-8.8 6.2-4.5.1-7.6-2.9-8.8-5.8-1.2-3-18.6-51-19.2-52.7-.6-1.8-.3-6.4 4-7.9 4-1.4 7.5 1.8 8.3 3.5.6 1.6 12.5 39.2 12.5 39.2 1.3 4 2.4 7.8 3.2 11.5 0 .1 2.7-10.2 3.2-11.8.4-1.3 11.7-37.8 12.7-39.8" class="st5"/><path id="path2" d="M81.934 26.1c0 4.9-3.9 8.7-8.5 8.7-4.8 0-8.7-3.7-8.7-8.7 0-4.8 3.9-8.5 8.7-8.5 4.6 0 8.5 3.7 8.5 8.5m-15.6 24.4c0-4.3 3.2-7.1 6.7-7.1 4.1 0 7 2.8 7 7.1v52.8c0 3.8-3.5 6.8-7.2 6.8-3.4 0-6.5-3.1-6.5-6.7z" class="st5"/><path id="path3" d="M161.634 79.9c1.6 13.4 4 18.9 14.9 19.5 7 .4 9.5-5.3 12.9-10.2 1.6-2.3 4.8-3.3 7.7-1.9 3.2 1.6 3.9 5 2.8 7.5-3.4 7.7-11.2 15.2-24.2 15.2-16.5 0-27.1-13.8-27.1-33.1 0-19.1 10.2-34 27-34 15.3 0 24.9 13.7 25.7 28.7v.9c0 4.1-3.5 7.4-6.7 7.4zm25.1-10.4c1.1 0 2 .1 2.1-.8 0-.2-.1-1-.1-1.3-.9-7.8-4.3-13.8-13.1-13.8-9.4 0-12.8 4.9-14 15.9z" class="st5"/><g id="g4" style="opacity:.47" transform="translate(-9.866 -14.7)"><path id="path4" d="M217.9 23.2c0-3.9 3.8-8.5 10.1-8.5 6 0 10.1 4.1 10.1 8.5 0 4.5-2 91.7-2.5 95.1s-3.4 6.3-7.4 6.3c-3.7 0-7.2-2.5-7.6-6.3-.4-3.9-2.7-91.3-2.7-95.1" class="st5"/></g><path id="path5" d="M227.334 128.2c0 5.3-4.2 9.3-9.1 9.3-5.1 0-9.3-4-9.3-9.3 0-5.1 4.1-9.1 9.3-9.1 5 0 9.1 4 9.1 9.1" style="opacity:.53;fill:#008400"/><g id="g9" class="st3" transform="translate(-9.866 -14.7)"><path id="path6" d="M158.2 135.7c0-.8.5-1.2 1.4-1.2.8 0 1.3.4 1.3 1.2v.7c0 .4-.1 1-.1 1.4.5-1.5 2-3.5 4.7-3.5.8 0 1.2 0 1.8.2.7.2 1 .6 1 1.1v.4c-.1.6-.6 1.2-1.2 1.2h-.3c-.4-.1-.7-.2-1.4-.2-1.3 0-2.2.7-3.1 1.7-.8 1-1.3 2.2-1.4 3.5v8.6c0 .8-.5 1.2-1.3 1.2-.9 0-1.4-.4-1.4-1.2z" class="st5"/><path id="path7" d="M181.1 139.6c0-2.1-.9-3-2.9-3-1.9 0-2.9 1-3.3 2.4-.2.6-.6.8-1.1.8-.2 0-.4 0-.6-.1-.6-.2-.9-.6-.9-1.1 0-.1 0-.3.1-.4.3-1 .9-1.9 1.6-2.6.9-.8 2.2-1.3 4.3-1.3 3.6 0 5.3 1.6 5.3 5.4v8.5c0 1 .2 2 .3 2.6v.2c0 .6-.4 1-1.1 1.1h-.2c-.6 0-1-.2-1.2-.7-.1-.4-.2-.9-.2-1.5-1.1 1.3-2.4 2.5-4.9 2.5-2.8 0-4.6-1.9-4.6-5.1 0-2.7 1.5-4.6 3.9-5.4 1.4-.5 2.9-.7 5.5-.7zm0 3.5c-2.9.1-4.2.4-5.2 1s-1.6 1.5-1.6 3.1c0 1.8 1 2.7 2.6 2.7 1.5 0 2.8-.9 3.6-2.1.5-.7.6-1.4.6-2.5z" class="st5"/><path id="path8" d="M199.7 150.4c0-.4.1-.7.1-1.1-.7 1.8-2.1 3-4.5 3-3.8 0-6.1-3.6-6.1-9.1s2.3-8.9 6.1-8.9c2.4 0 3.6 1.4 4.5 3.2-.1-.7-.1-1.4-.1-2v-6.6c0-.8.5-1.2 1.3-1.2s1.3.4 1.3 1.2v21.9c0 .8-.5 1.2-1.3 1.2-.9 0-1.3-.5-1.3-1.1zm-7.8-7.3c0 3.9 1.5 6.8 3.9 6.8 2.7 0 3.9-2.8 3.9-6.7 0-3.7-1.2-6.6-3.9-6.6-2.4 0-3.9 2.6-3.9 6.5" class="st5"/><path id="path9" d="M213.8 129.6c0 1.2-.9 2.1-2 2.1s-2.1-.9-2.1-2.1c0-1.1.9-2 2.1-2 1.1 0 2 .8 2 2m-3.4 6.1c0-.8.5-1.2 1.3-1.2s1.4.4 1.4 1.2v15c0 .8-.5 1.2-1.4 1.2s-1.3-.4-1.3-1.2z" class="st5"/></g><path id="path10" d="M133.034 46.2c1.2-2.4 4.3-4.1 7.9-2.8 4.6 1.7 4.6 5.3 4.2 6.9-.6 2-18.1 50.8-19.2 53.5-1.2 3-4.1 6.1-8.8 6.2-4.5.1-7.6-2.9-8.8-5.8-1.2-3-18.6-51-19.2-52.7-.6-1.8-.3-6.4 4-7.9 4-1.4 7.5 1.8 8.3 3.5.7 1.6 12.6 39.2 12.6 39.2 1.3 4 2.4 7.8 3.2 11.5 0 .1 2.7-10.2 3.2-11.8.2-1.3 11.5-37.8 12.6-39.8" class="st5"/><g id="g16" class="st3" transform="translate(-9.866 -14.7)"><g id="g14"><path id="path11" d="M136.6 24c0-.9.5-1.4 1.5-1.4.9 0 1.5.4 1.5 1.4v24.2c0 .9-.6 1.4-1.5 1.4-1 0-1.5-.4-1.5-1.4z" class="st5"/><path id="path12" d="M146.8 40.6c0 4.1 1.7 6.8 4.8 6.8 2 0 2.9-1.4 3.7-3.1.3-.6.7-.8 1.2-.8.2 0 .4 0 .7.1.5.2 1 .6 1 1.2 0 .2 0 .4-.1.6-1 2.4-2.8 4.6-6.5 4.6-4.8 0-7.6-4-7.6-9.9s2.6-10 7.5-10c4.5 0 6.8 3.9 7 8.5v.2c0 1.3-.6 1.8-1.5 1.8zm8.3-2.4c.3 0 .4-.2.4-.5v-.2c-.3-2.4-1.5-4.9-4.1-4.9-2.7 0-4.2 2.2-4.5 5.6z" class="st5"/><path id="path13" d="M176.1 40c0 6-2.6 10-7.2 10-4.9 0-7.5-3.9-7.5-10 0-6 2.7-9.9 7.4-9.9 4.7-.1 7.3 3.8 7.3 9.9m-11.7.1c0 4.3 1.5 7.3 4.4 7.3 3 0 4.4-3 4.4-7.5 0-4.3-1.4-7.2-4.2-7.2-3 0-4.6 2.9-4.6 7.4" class="st5"/><path id="path14" d="M192.5 48.3c0 .9-.6 1.3-1.5 1.3-.8 0-1.4-.4-1.4-1.3v-11c0-2.9-.7-4.6-2.9-4.6-1.5 0-2.7.9-3.6 2.5-.6 1.1-1 2.1-1 3.3v9.7c0 .9-.5 1.3-1.4 1.3s-1.4-.4-1.4-1.3V31.6c0-.8.5-1.3 1.4-1.3s1.4.4 1.4 1.3v1c0 .4 0 .7-.1 1.3.9-2.3 2.7-3.8 5.4-3.8 3.4 0 5.1 2.6 5.1 6.7z" class="st5"/></g><g id="g15"><path id="path15" d="M168.4 27.8c-.2.2-.4.2-.7.2-.5 0-.9-.4-.9-.9 0-.3.1-.6.4-.8L171 23c.3-.2.5-.3.8-.3.6 0 1.1.5 1.1 1.1 0 .3-.1.5-.5.8z" class="st5"/></g></g><g id="g22" transform="translate(-9.866 -14.7)"><path id="path16" d="M248.2 26.1c-1.1 0-2.2-1.1-2.2-2.3s1-2.3 2.2-2.3h17l-.8-1.2c-.2-.3-.4-.9-.4-1.4 0-1.3 1.1-2.2 2.2-2.2 1 0 1.6.7 2.1 1.6.6 1.3 1 2 2.7 3.3.5.4 1.3 1 1.3 2.1 0 1.4-1.1 2.4-2.3 2.4z" class="st0"/><path id="path17" d="M259 49.4c-8.4 0-13.3-2.6-13.3-8.5s4.9-8.5 13.3-8.5c8.3 0 13.3 2.6 13.3 8.5 0 5.8-4.9 8.5-13.3 8.5m0-12.4c-5.6 0-8.7 1.1-8.7 3.9s3.2 3.8 8.7 3.8c5.6 0 8.8-1.1 8.8-3.8 0-2.8-3.2-3.9-8.8-3.9" class="st0"/><path id="path18" d="M259 69.1c-8.4 0-13.3-2.6-13.3-8.5s4.9-8.5 13.3-8.5c8.3 0 13.3 2.6 13.3 8.5 0 5.8-4.9 8.5-13.3 8.5m0-12.4c-5.6 0-8.7 1.1-8.7 3.9s3.2 3.8 8.7 3.8c5.6 0 8.8-1.1 8.8-3.8 0-2.8-3.2-3.9-8.8-3.9" class="st0"/><path id="path19" d="M251 73.6c0 1.5-1.1 2.6-2.6 2.6-1.4 0-2.5-1.2-2.5-2.6s1.1-2.6 2.5-2.6 2.6 1.1 2.6 2.6" class="st0"/><path id="path20" d="M262.8 87.4c0 3.8-2.9 6.8-8.3 6.8-5.5 0-8.8-3.1-8.8-8.1 0-5.7 4.7-8.5 11.2-8.5 5.5 0 15.3 1.1 15.3 9.1 0 2.8-1.1 4.6-2.4 5.6-.7.5-1.5 1-2.4 1-1.1 0-2.2-.8-2.2-2.1 0-1 .5-1.7 1.3-2.1.8-.5 1.5-1.4 1.5-2.6 0-3.2-4.2-4.2-8.5-4.4 2.2.9 3.3 3 3.3 5.3m-8.2-4.9c-2.6 0-4.4 1.5-4.4 3.5 0 2.2 1.4 3.6 4.3 3.6 3 0 4.3-1.1 4.3-3.3 0-2-1.3-3.8-4.2-3.8" class="st0"/><path id="path21" d="M257.2 102.1h-3.1v3.8c0 .6-.5 1.1-1 1.1s-1-.5-1-1.1v-3.8h-4.8c-.6 0-1.1-.5-1.1-1.1s.5-1.1 1.1-1.1h11.1c.6 0 1.1.5 1.1 1.1v5.7c0 .6-.5 1.1-1.1 1.1s-1.1-.5-1.1-1.1v-4.6z" class="st1"/><path id="path22" d="M247.2 122.8c-.6 0-1-.5-1-1.1 0-.5.5-1.1 1-1.1l7.6-.1-8-2.9c-.4-.1-.7-.6-.7-1 0-.5.3-.9.7-1.1l8-2.9-7.6-.1c-.5 0-1-.5-1-1.1s.5-1.1 1-1.1l11.3.2c.8 0 1.1.6 1.1 1.3 0 .5-.3 1.1-.8 1.2l-8.9 3.4 8.9 3.5c.5.2.8.6.8 1.2 0 .7-.4 1.3-1.1 1.3z" class="st1"/></g></svg>