<svg xmlns="http://www.w3.org/2000/svg" id="svg35599" width="214.323" height="109.44" version="1.1" viewBox="0 0 214.323 109.44"><defs id="defs35537"><style id="style35535">.e,.f{fill:#c59}.g{fill:#cbcbcb}.i{fill:#de8bb7}.f{opacity:.5}.j{fill:#b9b8b8}</style></defs><g id="d" transform="translate(-27.047 -14.94)"><g id="g35596"><g id="g35554"><path id="path35542" d="M225.33 25.81c0-3.61 2.75-6.39 7.79-6.39s8.24 2.92 8.24 7.55c0 5.36-4.43 7.96-10.54 7.96-5.53 0-14.35-.93-14.35-8.55 0-2.64 1-4.26 2.23-5.22.65-.51 1.34-.89 2.2-.89 1.06 0 2.03.76 2.03 1.92 0 1-.51 1.61-1.17 1.99-.82.41-1.41 1.27-1.41 2.44 0 3.02 3.91 3.95 7.97 4.15-1.96-.86-2.99-2.85-2.99-4.98zm7.83-2.09c-2.82 0-4.05 1.1-4.05 3.12s1.24 3.57 4.02 3.57c2.37 0 4.09-1.41 4.09-3.26 0-2.09-1.34-3.43-4.05-3.43z" class="j"/><path id="path35544" d="M218.77 47.55c-1.06 0-2.03-1.06-2.03-2.2s.96-2.13 2.03-2.13h15.9l-.72-1.17c-.21-.31-.34-.86-.34-1.3 0-1.24 1-2.06 2.09-2.06.96 0 1.51.62 1.92 1.51.55 1.2.89 1.89 2.51 3.09.48.34 1.24.89 1.24 1.99 0 1.3-1.03 2.27-2.16 2.27h-20.43z" class="j"/><path id="path35546" d="M221.35 54.42c0 1.37-1.06 2.47-2.4 2.47s-2.3-1.1-2.3-2.47 1.03-2.44 2.3-2.44 2.4 1.1 2.4 2.44" class="j"/><path id="path35548" d="M216.89 61.53c0-1.41.65-2.75 2.16-2.75.24 0 .51.03 1.17.48 1.85 1.27 6.87 5.84 8.07 6.9 2.13 1.89 4.09 3.16 5.94 3.16 1.58 0 3.09-.89 3.09-2.85 0-.79-.24-1.51-.82-2.03-.62-.51-1.27-.55-1.96-.76-.96-.27-1.85-.86-1.85-1.99 0-1 .69-2.27 2.4-2.27 1.3 0 2.95.76 4.15 1.92 1.24 1.2 2.13 3.02 2.13 5.15 0 3.84-2.88 7.11-7.04 7.11-4.98 0-9.13-4.67-13.32-8.62v7.45c0 1-.72 2.13-2.09 2.13s-2.03-1.03-2.03-2.16V61.52Z" class="j"/><path id="path35550" d="M227.24 82.56h-2.94v3.57c0 .53-.45 1-.96 1s-.96-.46-.96-1v-3.57h-4.53c-.55 0-1.03-.5-1.03-1.07s.48-1.06 1.03-1.06h10.43c.57 0 1.05.5 1.05 1.06v5.38c0 .57-.48 1.07-1.05 1.07s-1.03-.5-1.03-1.07v-4.31z" class="g"/><path id="path35552" d="M217.8 101.98c-.53.02-.98-.45-.98-1 0-.52.45-1.01.96-1.01l7.16-.07-7.49-2.75c-.38-.14-.64-.53-.64-.98s.26-.84.64-1l7.49-2.71-7.16-.09c-.52 0-.96-.48-.96-1s.45-1.03.98-1.01l10.56.22c.7.02 1.05.58 1.05 1.22 0 .52-.26 1-.72 1.17l-8.36 3.23 8.36 3.25c.46.17.72.58.72 1.1 0 .64-.34 1.2-1.05 1.22z" class="g"/></g><g id="g35594"><path id="path35556" d="M62.2 51.75c.98-1.92 3.45-3.25 6.29-2.21 3.65 1.34 3.69 4.23 3.33 5.46-.47 1.62-14.36 40.39-15.25 42.53-.97 2.35-3.22 4.88-7.02 4.94-3.59.06-6.07-2.32-7.02-4.63-.97-2.35-14.82-40.57-15.29-41.91-.5-1.42-.22-5.06 3.14-6.25 3.2-1.13 5.96 1.45 6.58 2.77.59 1.26 9.99 31.13 9.99 31.13 1.07 3.16 1.89 6.24 2.57 9.18.03.11 2.12-8.1 2.51-9.35.35-1.1 9.34-30.07 10.16-31.67z" class="e"/><path id="path35558" d="M92.21 35.75c0 3.9-3.08 6.88-6.78 6.88s-6.88-2.98-6.88-6.88 3.08-6.78 6.88-6.78 6.78 2.98 6.78 6.78M79.8 55.12c0-3.44 2.58-5.67 5.3-5.67 3.24 0 5.59 2.2 5.59 5.64v41.99c0 3.03-2.79 5.41-5.72 5.39-2.72-.02-5.17-2.49-5.17-5.32z" class="e"/><path id="path35560" d="M155.6 78.55c1.27 10.66 3.21 15.04 11.81 15.49 5.58.29 7.59-4.25 10.29-8.08 1.31-1.85 3.78-2.66 6.14-1.53 2.58 1.23 3.13 3.97 2.25 5.96-2.74 6.14-8.93 12.08-19.26 12.08-13.13 0-21.54-11.01-21.54-26.32s8.13-27.05 21.44-27.05c12.2 0 19.82 10.87 20.47 22.83v.73c0 3.26-2.79 5.87-5.3 5.87h-26.3zm19.96-8.25c.84 0 1.56.1 1.65-.6.02-.18-.05-.83-.05-1.01-.74-6.16-3.4-11-10.38-11-7.45 0-10.16 3.89-11.1 12.61z" class="e"/><path id="path35562" d="M192.5 21.73c0-3.09 3-6.79 8.07-6.79 4.75 0 8.05 3.24 8.05 6.79s-1.62 72.91-1.99 75.59c-.37 2.69-2.68 5.03-5.92 5.03-2.92 0-5.73-2.01-6.05-5.03-.32-3.01-2.15-72.5-2.15-75.59z" style="fill:#e19fc9"/><path id="path35564" d="M207.83 116.97c0 4.18-3.3 7.36-7.26 7.36s-7.36-3.19-7.36-7.36 3.3-7.26 7.36-7.26 7.26 3.19 7.26 7.26" style="fill:#d268a3"/><g id="g35574"><path id="path35566" d="M144.99 111.22c0-.63.42-.95 1.1-.95.61 0 1.03.32 1.03.95v.54c0 .34-.05.76-.1 1.15.42-1.17 1.62-2.77 3.72-2.79.64 0 .93.02 1.42.12.56.12.76.44.76.88 0 .1 0 .22-.02.34-.1.51-.44.93-.95.93-.07 0-.15 0-.22-.02-.34-.07-.56-.15-1.08-.15-1.05.02-1.79.56-2.43 1.34s-1 1.74-1.1 2.77v6.81c0 .66-.42.98-1.03.98-.69 0-1.1-.32-1.1-.98v-11.93z" class="f"/><path id="path35568" d="M163.19 114.31c0-1.67-.71-2.4-2.28-2.4s-2.28.78-2.6 1.89c-.15.46-.49.64-.88.64-.17 0-.34-.03-.51-.07-.44-.15-.68-.44-.68-.86 0-.1.02-.22.05-.35.22-.78.71-1.52 1.3-2.03.73-.64 1.71-1.05 3.43-1.05 2.84 0 4.19 1.3 4.19 4.26v6.74c0 .81.12 1.59.24 2.06.03.07.03.12.03.2 0 .44-.34.8-.91.86h-.17c-.47 0-.81-.17-.93-.59-.1-.29-.12-.71-.12-1.2-.91 1.05-1.93 1.96-3.92 1.96-2.23 0-3.7-1.49-3.7-4.06 0-2.18 1.2-3.67 3.11-4.31 1.1-.37 2.33-.54 4.36-.59v-1.08zm0 2.77c-2.28.07-3.36.35-4.11.81-.76.47-1.25 1.2-1.25 2.43 0 1.39.78 2.16 2.03 2.16 1.17 0 2.23-.74 2.84-1.67.37-.56.49-1.1.49-2.01z" class="f"/><path id="path35570" d="M178.01 122.88c0-.29.05-.58.1-.9-.56 1.39-1.64 2.4-3.58 2.4-2.99 0-4.85-2.89-4.85-7.27s1.86-7.06 4.88-7.06c1.93 0 2.89 1.08 3.55 2.52-.05-.54-.1-1.1-.1-1.57v-5.27c0-.64.36-.98 1.03-.98s1.03.34 1.03.98v17.44c0 .61-.36.95-1 .95-.71 0-1.05-.36-1.05-.85v-.4zm-6.17-5.75c0 3.13 1.17 5.39 3.13 5.39 2.11 0 3.14-2.23 3.14-5.36 0-2.91-.98-5.21-3.14-5.21-1.96 0-3.13 2.08-3.13 5.19z" class="f"/><path id="path35572" d="M189.25 106.35c0 .93-.73 1.64-1.62 1.64s-1.64-.71-1.64-1.64.73-1.62 1.64-1.62 1.62.71 1.62 1.62m-2.69 4.87c0-.63.37-.95 1.05-.95s1.08.32 1.08.95v11.93c0 .66-.42.98-1.08.98s-1.05-.32-1.05-.98z" class="f"/></g><path id="path35576" d="M132.82 51.75c.98-1.92 3.44-3.25 6.28-2.21 3.65 1.34 3.69 4.23 3.33 5.46-.47 1.62-14.36 40.39-15.24 42.53-.97 2.35-3.22 4.88-7.02 4.94-3.59.06-6.07-2.32-7.02-4.63-.97-2.35-14.81-40.57-15.29-41.91-.5-1.42-.22-5.06 3.14-6.25 3.2-1.13 5.96 1.45 6.58 2.77.59 1.26 9.99 31.13 9.99 31.13 1.07 3.16 1.89 6.24 2.57 9.18.03.11 2.12-8.1 2.51-9.35.35-1.1 9.34-30.07 10.16-31.67z" class="e"/><g id="g35592"><g id="g35588"><path id="path35578" d="M126.48 33.9c0-1.83-.78-2.63-2.5-2.63s-2.5.86-2.85 2.07c-.16.51-.54.7-.97.7-.19 0-.38-.03-.56-.08-.49-.16-.75-.48-.75-.94 0-.11.03-.24.05-.38.24-.86.78-1.67 1.43-2.23.81-.7 1.88-1.16 3.77-1.16 3.12 0 4.6 1.42 4.6 4.68v7.4c0 .89.13 1.75.27 2.26.03.08.03.13.03.21 0 .49-.38.89-1 .94h-.19c-.51 0-.89-.19-1.02-.64-.11-.32-.14-.78-.14-1.32-1 1.16-2.12 2.15-4.3 2.15-2.45 0-4.06-1.64-4.06-4.46 0-2.39 1.32-4.03 3.42-4.73 1.21-.4 2.55-.59 4.79-.65v-1.18zm0 3.04c-2.5.08-3.68.38-4.52.89-.83.51-1.37 1.32-1.37 2.66 0 1.53.86 2.37 2.23 2.37 1.29 0 2.45-.81 3.12-1.83.4-.62.54-1.21.54-2.21z" class="i"/><path id="path35580" d="M140.81 30.22c.16-.57.51-.78.97-.78.13 0 .27.03.4.05.54.11.86.43.86.94 0 .13-.03.27-.08.43l-4.25 12.8c-.27.83-.89 1.05-1.56 1.05-.73 0-1.29-.22-1.59-1.08l-4.25-12.78c-.05-.16-.08-.3-.08-.43 0-.51.35-.83.89-.94.13-.03.27-.05.4-.05.46 0 .81.22 1 .78l2.88 9.33c.3.94.62 2.26.75 3.17.13-.97.54-2.29.81-3.2l2.85-9.31z" class="i"/><path id="path35582" d="M149.72 25.16c0 1.02-.81 1.8-1.77 1.8s-1.8-.78-1.8-1.8.81-1.78 1.8-1.78 1.77.78 1.77 1.78m-2.96 5.35c0-.7.4-1.05 1.16-1.05s1.18.35 1.18 1.05v13.1c0 .73-.46 1.08-1.18 1.08s-1.16-.35-1.16-1.08z" class="i"/><path id="path35584" d="M154.8 24.49c0-.73.4-1.08 1.16-1.08s1.18.35 1.18 1.08v19.12c0 .73-.46 1.08-1.18 1.08s-1.16-.35-1.16-1.08z" class="i"/><path id="path35586" d="M169.51 33.9c0-1.83-.78-2.63-2.5-2.63s-2.5.86-2.85 2.07c-.16.51-.54.7-.97.7-.19 0-.38-.03-.56-.08-.48-.16-.75-.48-.75-.94 0-.11.03-.24.05-.38.24-.86.78-1.67 1.43-2.23.81-.7 1.88-1.16 3.77-1.16 3.12 0 4.6 1.42 4.6 4.68v7.4c0 .89.13 1.75.27 2.26.03.08.03.13.03.21 0 .49-.38.89-1 .94h-.19c-.51 0-.89-.19-1.02-.64-.11-.32-.13-.78-.13-1.32-1 1.16-2.13 2.15-4.3 2.15-2.45 0-4.06-1.64-4.06-4.46 0-2.39 1.32-4.03 3.42-4.73 1.21-.4 2.55-.59 4.79-.65v-1.18zm0 3.04c-2.5.08-3.69.38-4.52.89s-1.37 1.32-1.37 2.66c0 1.53.86 2.37 2.23 2.37 1.29 0 2.45-.81 3.12-1.83.4-.62.54-1.21.54-2.21z" class="i"/></g><path id="path35590" d="M123.61 27.57c-.16.14-.35.19-.54.19-.38 0-.68-.32-.68-.68 0-.22.08-.43.3-.63l2.9-2.6c.22-.19.41-.24.62-.24.46 0 .87.38.87.84 0 .22-.11.41-.35.6z" class="i"/></g></g></g></g></svg>