<svg xmlns="http://www.w3.org/2000/svg" id="svg36896" width="206.245" height="105.05" version="1.1" viewBox="0 0 206.245 105.05"><defs id="defs36830"><style id="style36828">.e{fill:#cbcbcb}.f{fill:#6cca98}.h{fill:#84d2a7}.j{fill:#b9b8b8}.h{opacity:.75}</style></defs><g id="d" transform="translate(-31.555 -19.41)"><g id="g36893"><g id="g36847"><path id="path36835" d="M220.97 38.79c-4.38 0-6.86-3.5-6.86-7.41s2.48-7.38 6.86-7.38c2.91 0 4.87 1.65 5.69 3.66.78-1.81 2.61-3.2 5.16-3.2 3.79 0 5.98 3.3 5.98 6.93s-2.16 6.86-5.98 6.86c-2.61 0-4.31-1.52-5.13-3.17-.82 1.81-2.78 3.72-5.72 3.72zm.52-10.88c-2.38 0-3.63 1.49-3.63 3.46s1.24 3.5 3.63 3.5 3.63-1.72 3.72-3.5c-.16-1.81-1.47-3.46-3.72-3.46m9.67 6.34c2.03 0 2.84-1.33 2.84-2.88s-.82-2.88-2.84-2.88c-1.76 0-2.87 1.23-3.07 2.88.2 1.72 1.31 2.88 3.07 2.88" class="j"/><path id="path36837" d="M233.68 44.1c0-1.04.95-2.01 1.96-2.01 1.08 0 1.99.97 1.99 2.01v10.55c0 1.17-.85 2.17-1.89 2.17-.72 0-1.08-.16-1.63-.52-2.68-1.81-14.87-5.8-18.59-7.02-.78-.26-1.4-.97-1.4-2.01 0-1.23 1.05-2.07 1.93-2.07.33 0 .65.07 1.5.32 3.4 1 11.93 4.18 16.14 6.47v-7.9z" class="j"/><path id="path36839" d="M218.75 60.32c0 1.29-1.01 2.33-2.29 2.33s-2.19-1.04-2.19-2.33.98-2.3 2.19-2.3 2.29 1.04 2.29 2.3" class="j"/><path id="path36841" d="M233.68 66.51c0-1.04.95-2.01 1.96-2.01 1.08 0 1.99.97 1.99 2.01v10.55c0 1.17-.85 2.17-1.89 2.17-.72 0-1.08-.16-1.63-.52-2.68-1.81-14.87-5.8-18.59-7.02-.78-.26-1.4-.97-1.4-2.01 0-1.23 1.05-2.07 1.93-2.07.33 0 .65.07 1.5.32 3.4 1 11.93 4.18 16.14 6.47v-7.9z" class="j"/><path id="path36843" d="M224.35 84.27h-2.8v3.37c0 .5-.42.94-.91.94s-.92-.44-.92-.94v-3.37h-4.32c-.52 0-.98-.47-.98-1s.46-1 .98-1h9.92c.54 0 1 .47 1 1v5.07c0 .53-.46 1-1 1s-.98-.47-.98-1v-4.07z" class="e"/><path id="path36845" d="M215.36 102.58c-.51.02-.93-.42-.93-.94 0-.49.42-.96.92-.96l6.82-.07-7.13-2.59c-.36-.13-.61-.5-.61-.92s.25-.79.61-.94l7.13-2.56-6.82-.08c-.49 0-.92-.45-.92-.94s.42-.97.93-.96l10.05.21c.67.02 1 .55 1 1.15 0 .49-.24.94-.69 1.1l-7.96 3.04 7.96 3.06c.44.16.69.55.69 1.04 0 .6-.33 1.13-1 1.15l-10.05.19z" class="e"/></g><g id="g36891"><path id="path36849" d="M65.6 54.74c.95-1.84 3.34-3.12 6.09-2.12 3.53 1.28 3.58 4.06 3.23 5.24-.45 1.56-13.91 38.77-14.77 40.84-.94 2.26-3.12 4.69-6.8 4.75-3.48.06-5.88-2.23-6.8-4.45-.94-2.26-14.36-38.95-14.81-40.24-.48-1.36-.21-4.85 3.05-6 3.1-1.09 5.77 1.39 6.37 2.66.57 1.21 9.68 29.89 9.68 29.89 1.03 3.04 1.83 5.99 2.49 8.81.03.1 2.05-7.78 2.44-8.97.34-1.06 9.05-28.87 9.84-30.41z" class="f"/><path id="path36851" d="M94.68 39.38c0 3.74-2.99 6.61-6.57 6.61s-6.67-2.86-6.67-6.61 2.98-6.51 6.67-6.51 6.57 2.86 6.57 6.51m-12.03 18.6c0-3.3 2.5-5.44 5.13-5.44 3.14 0 5.41 2.12 5.41 5.42v40.32c0 2.91-2.7 5.2-5.54 5.18-2.63-.02-5.01-2.39-5.01-5.11V57.98Z" class="f"/><path id="path36853" d="M156.12 80.47c1.23 10.24 3.11 14.44 11.45 14.88 5.4.28 7.36-4.08 9.97-7.76 1.27-1.78 3.66-2.55 5.95-1.47 2.5 1.19 3.04 3.82 2.18 5.73-2.65 5.9-8.65 11.6-18.66 11.6-12.72 0-20.88-10.57-20.88-25.28s7.88-25.98 20.78-25.98c11.82 0 19.21 10.43 19.84 21.93v.7c0 3.13-2.7 5.64-5.14 5.64h-25.49zm19.35-7.93c.81 0 1.52.09 1.6-.58.02-.17-.05-.8-.05-.96-.72-5.92-3.29-10.57-10.06-10.57-7.22 0-9.85 3.74-10.75 12.1h19.26z" class="f"/><path id="path36855" d="M191.88 25.92c0-2.96 2.91-6.51 7.82-6.51 4.61 0 7.8 3.11 7.8 6.51 0 3.41-1.57 70-1.93 72.58s-2.6 4.82-5.74 4.82c-2.83 0-5.55-1.93-5.87-4.82-.31-2.89-2.08-69.62-2.08-72.58" style="fill:#c5e7d1"/><path id="path36857" d="M206.74 117.36c0 4.01-3.2 7.07-7.04 7.07s-7.14-3.06-7.14-7.07 3.2-6.97 7.14-6.97 7.04 3.06 7.04 6.97" style="fill:#84d2a7"/><g id="g36867"><path id="path36859" d="M145.84 111.84c0-.61.4-.92 1.07-.92.59 0 1 .31 1 .92v.52c0 .33-.05.73-.1 1.1.4-1.12 1.57-2.66 3.61-2.68.62 0 .9.02 1.37.12.55.12.74.42.74.85 0 .09 0 .21-.02.33-.09.49-.43.89-.93.89-.07 0-.14 0-.21-.02-.33-.07-.55-.14-1.05-.14-1.02.02-1.73.54-2.35 1.29s-.97 1.67-1.07 2.66v6.54c0 .64-.4.94-1 .94-.66 0-1.07-.31-1.07-.94v-11.45z" class="h"/><path id="path36861" d="M163.47 114.81c0-1.6-.69-2.31-2.21-2.31s-2.21.75-2.52 1.81c-.14.44-.48.61-.86.61-.16 0-.33-.03-.5-.07-.43-.14-.66-.42-.66-.82 0-.09.02-.21.05-.33.21-.75.69-1.46 1.26-1.95.71-.61 1.66-1.01 3.32-1.01 2.75 0 4.06 1.25 4.06 4.09v6.47c0 .78.12 1.53.24 1.98.02.07.02.12.02.19 0 .42-.33.77-.88.82h-.17c-.45 0-.78-.16-.9-.57-.09-.28-.12-.68-.12-1.15-.88 1.01-1.88 1.88-3.8 1.88-2.16 0-3.58-1.44-3.58-3.91 0-2.09 1.16-3.53 3.01-4.14 1.07-.35 2.26-.52 4.23-.57v-1.03zm0 2.66c-2.21.07-3.25.33-3.99.78-.74.44-1.21 1.15-1.21 2.33 0 1.34.76 2.07 1.97 2.07 1.14 0 2.16-.71 2.75-1.6.36-.54.48-1.06.48-1.93z" class="h"/><path id="path36863" d="M177.83 123.03c0-.28.05-.56.1-.87-.55 1.34-1.59 2.3-3.47 2.3-2.9 0-4.7-2.77-4.7-6.98s1.8-6.77 4.72-6.77c1.87 0 2.8 1.04 3.44 2.42-.05-.52-.1-1.06-.1-1.5v-5.06c0-.61.35-.94 1-.94s.99.33.99.94v16.74c0 .59-.36.92-.97.92-.69 0-1.02-.35-1.02-.82v-.38zm-5.98-5.52c0 3.01 1.14 5.17 3.04 5.17 2.04 0 3.04-2.14 3.04-5.15 0-2.8-.95-5.01-3.04-5.01-1.9 0-3.04 2-3.04 4.99" class="h"/><path id="path36865" d="M188.73 107.16c0 .89-.71 1.58-1.57 1.58s-1.59-.68-1.59-1.58.71-1.55 1.59-1.55 1.57.68 1.57 1.55m-2.61 4.68c0-.61.36-.92 1.02-.92s1.05.31 1.05.92v11.45c0 .64-.4.94-1.05.94s-1.02-.31-1.02-.94z" class="h"/></g><path id="path36869" d="M134.04 54.74c.95-1.84 3.34-3.12 6.09-2.12 3.53 1.28 3.58 4.06 3.23 5.24-.45 1.56-13.91 38.77-14.77 40.84-.94 2.26-3.12 4.69-6.8 4.75-3.48.06-5.88-2.23-6.8-4.45-.94-2.26-14.36-38.95-14.82-40.24-.48-1.36-.21-4.85 3.04-6 3.1-1.09 5.77 1.39 6.37 2.66.57 1.21 9.68 29.89 9.68 29.89 1.04 3.04 1.83 5.99 2.49 8.81.02.1 2.05-7.78 2.43-8.97.34-1.06 9.05-28.87 9.84-30.41z" class="f"/><g id="g36889"><path id="path36871" d="M106.65 40.6c-2.03-.5-2.91-1.28-2.91-2.99s1.25-2.9 3.49-2.9c1.93 0 3.04.89 3.47 2.23.02.11.03.2.03.3 0 .34-.21.58-.54.67-.09.02-.21.04-.32.04-.34 0-.66-.15-.73-.5-.17-.8-.92-1.39-1.87-1.39-1.29 0-1.91.69-1.91 1.5s.38 1.25 1.65 1.58l1.09.28c2.14.56 3 1.24 3 3.12s-1.37 3.1-3.71 3.1c-2.19 0-3.39-.97-3.84-2.6-.02-.09-.04-.2-.04-.28 0-.39.24-.63.6-.72.11-.02.21-.04.3-.04.34 0 .64.15.72.54.24 1.09.97 1.73 2.25 1.73s2.14-.63 2.14-1.69c0-.89-.49-1.39-1.88-1.73l-.97-.24z" class="h"/><path id="path36873" d="M118.54 37.96c0-1.26-.55-1.82-1.75-1.82s-1.74.59-1.99 1.43c-.11.35-.37.48-.68.48-.13 0-.26-.02-.39-.05-.34-.11-.53-.34-.53-.65 0-.08.02-.17.04-.26.17-.6.55-1.15.99-1.55.56-.48 1.31-.8 2.63-.8 2.18 0 3.21.99 3.21 3.23v5.11c0 .61.09 1.21.19 1.56.02.06.02.09.02.15 0 .34-.26.61-.69.65h-.13c-.36 0-.62-.13-.71-.45-.07-.22-.09-.54-.09-.91-.69.8-1.48 1.49-3 1.49-1.71 0-2.83-1.13-2.83-3.09 0-1.65.92-2.79 2.38-3.27.84-.28 1.78-.41 3.34-.45v-.82zm0 2.1c-1.75.06-2.57.26-3.15.61s-.96.91-.96 1.84c0 1.06.6 1.64 1.56 1.64.9 0 1.71-.56 2.18-1.26.28-.43.38-.84.38-1.53v-1.3z" class="h"/><path id="path36875" d="M122.53 31.46c0-.5.28-.74.81-.74s.83.24.83.74v13.21c0 .5-.32.74-.83.74s-.81-.24-.81-.74z" class="h"/><path id="path36877" d="M132.41 37.96c0-1.26-.55-1.82-1.74-1.82s-1.74.59-1.99 1.43c-.11.35-.38.48-.68.48-.13 0-.26-.02-.39-.05-.34-.11-.52-.34-.52-.65 0-.08.02-.17.04-.26.17-.6.55-1.15 1-1.55.56-.48 1.31-.8 2.62-.8 2.18 0 3.21.99 3.21 3.23v5.11c0 .61.09 1.21.19 1.56.02.06.02.09.02.15 0 .34-.26.61-.69.65h-.13c-.36 0-.62-.13-.71-.45-.08-.22-.1-.54-.1-.91-.69.8-1.48 1.49-3 1.49-1.71 0-2.83-1.13-2.83-3.09 0-1.65.92-2.79 2.38-3.27.84-.28 1.78-.41 3.34-.45v-.82zm0 2.1c-1.74.06-2.57.26-3.15.61s-.96.91-.96 1.84c0 1.06.6 1.64 1.56 1.64.9 0 1.71-.56 2.17-1.26.28-.43.38-.84.38-1.53z" class="h"/><path id="path36879" d="M144.21 44.78c0 .41-.3.63-.73.63s-.75-.22-.75-.63v-6.04c0-1.78.04-2.53-.64-2.53-.43 0-.79.59-.95 1.28-.09.39-.15 1.1-.15 1.64v5.65c0 .41-.3.63-.71.63-.45 0-.73-.22-.73-.63v-6.69c0-1.28-.04-1.88-.66-1.88-.41 0-.71.65-.88 1.26-.13.5-.19 1.15-.19 1.74v5.56c0 .41-.34.63-.73.63-.45 0-.75-.22-.75-.63V35.5c0-.43.32-.61.75-.61.4 0 .73.18.73.59v.22c0 .17-.04.37-.07.61.32-.95.83-1.56 1.65-1.56.9 0 1.22.52 1.41 1.52.28-.97.71-1.52 1.78-1.52 1.16 0 1.63.95 1.63 3.36v6.65z" class="h"/><path id="path36881" d="M151.92 37.96c0-1.26-.54-1.82-1.74-1.82s-1.74.59-1.99 1.43c-.11.35-.38.48-.67.48-.13 0-.26-.02-.39-.05-.34-.11-.53-.34-.53-.65 0-.08.02-.17.04-.26.17-.6.54-1.15 1-1.55.56-.48 1.31-.8 2.62-.8 2.18 0 3.21.99 3.21 3.23v5.11c0 .61.09 1.21.19 1.56.02.06.02.09.02.15 0 .34-.26.61-.69.65h-.13c-.36 0-.62-.13-.71-.45-.07-.22-.09-.54-.09-.91-.69.8-1.48 1.49-3 1.49-1.7 0-2.83-1.13-2.83-3.09 0-1.65.92-2.79 2.38-3.27.84-.28 1.78-.41 3.34-.45v-.82zm0 2.1c-1.74.06-2.57.26-3.15.61s-.96.91-.96 1.84c0 1.06.6 1.64 1.56 1.64.9 0 1.71-.56 2.18-1.26.28-.43.38-.84.38-1.53v-1.3z" class="h"/><path id="path36883" d="M163.06 44.69c0 .48-.34.72-.83.72s-.77-.24-.77-.72v-5.97c0-1.6-.37-2.51-1.61-2.51-.84 0-1.5.5-2.01 1.36-.36.6-.54 1.13-.54 1.82v5.3c0 .48-.3.72-.79.72s-.79-.24-.79-.72V35.6c0-.46.3-.7.79-.7s.79.22.79.7v.52c0 .2-.02.37-.04.71.47-1.28 1.46-2.1 2.98-2.1 1.86 0 2.81 1.41 2.81 3.64v6.32z" class="h"/><path id="path36885" d="M172.64 37.33c.02.09.04.19.04.26 0 .37-.26.61-.58.72-.13.04-.27.06-.38.06-.28 0-.54-.13-.66-.45-.32-.95-.71-1.73-1.93-1.73-1.67 0-2.53 1.67-2.53 3.98s.86 3.98 2.55 3.98c1.2 0 1.65-.74 1.99-1.77.11-.37.37-.48.67-.48q.195 0 .39.06c.32.09.56.31.56.65 0 .09-.02.2-.06.31-.45 1.32-1.28 2.69-3.6 2.69-2.78 0-4.2-2.15-4.2-5.41s1.42-5.48 4.18-5.48c2.27 0 3.15 1.41 3.54 2.6z" class="h"/><path id="path36887" d="M180.05 37.96c0-1.26-.54-1.82-1.74-1.82s-1.74.59-1.99 1.43c-.11.35-.38.48-.68.48-.13 0-.26-.02-.39-.05-.34-.11-.53-.34-.53-.65 0-.08.02-.17.04-.26.17-.6.54-1.15.99-1.55.56-.48 1.31-.8 2.63-.8 2.17 0 3.21.99 3.21 3.23v5.11c0 .61.09 1.21.19 1.56.02.06.02.09.02.15 0 .34-.26.61-.69.65h-.13c-.36 0-.62-.13-.71-.45-.07-.22-.09-.54-.09-.91-.69.8-1.48 1.49-3 1.49-1.71 0-2.83-1.13-2.83-3.09 0-1.65.92-2.79 2.38-3.27.85-.28 1.78-.41 3.34-.45v-.82zm0 2.1c-1.74.06-2.57.26-3.15.61s-.96.91-.96 1.84c0 1.06.6 1.64 1.56 1.64.9 0 1.71-.56 2.18-1.26.28-.43.38-.84.38-1.53v-1.3z" class="h"/></g></g></g></g></svg>