<svg xmlns="http://www.w3.org/2000/svg" xml:space="preserve" id="Capa_1" width="266.534" height="136.1" x="0" y="0" version="1.1" viewBox="0 0 266.534 136.1"><style id="style1" type="text/css">.st0{fill:#b9b8b8}.st1{fill:#cbcbcb}.st2{fill:#ff00bd}</style><g id="g37252" transform="translate(-7.266 -16)"><path id="path37240" d="M254.5 24.8c0-4.3 3.3-7.6 9.3-7.6s9.9 3.5 9.9 9c0 6.4-5.3 9.5-12.6 9.5-6.6 0-17.2-1.1-17.2-10.2 0-3.2 1.2-5.1 2.7-6.3.8-.6 1.6-1.1 2.6-1.1 1.3 0 2.4.9 2.4 2.3 0 1.2-.6 1.9-1.4 2.4-1 .5-1.7 1.5-1.7 2.9 0 3.6 4.7 4.7 9.5 5-2.2-1-3.5-3.4-3.5-5.9m9.4-2.5c-3.4 0-4.9 1.3-4.9 3.7s1.5 4.3 4.8 4.3c2.8 0 4.9-1.7 4.9-3.9.1-2.5-1.6-4.1-4.8-4.1" class="st0"/><path id="path37242" d="M244.4 42.4c0-1.7.8-3.3 2.6-3.3.3 0 .6 0 1.4.6 2.2 1.5 8.2 7 9.7 8.3 2.5 2.3 4.9 3.8 7.1 3.8 1.9 0 3.7-1.1 3.7-3.4 0-1-.3-1.8-1-2.4s-1.5-.7-2.3-.9c-1.2-.3-2.2-1-2.2-2.4 0-1.2.8-2.7 2.9-2.7 1.6 0 3.5.9 5 2.3s2.5 3.6 2.5 6.2c0 4.6-3.5 8.5-8.4 8.5-6 0-10.9-5.6-16-10.3v8.9c0 1.2-.9 2.5-2.5 2.5s-2.4-1.2-2.4-2.6V42.4Z" class="st0"/><path id="path37244" d="M249.8 65.6c0 1.6-1.3 3-2.9 3s-2.7-1.3-2.7-3c0-1.6 1.2-2.9 2.7-2.9s2.9 1.3 2.9 2.9" class="st0"/><path id="path37246" d="M254.5 78.7c0-4.3 3.3-7.6 9.3-7.6s9.9 3.5 9.9 9c0 6.4-5.3 9.5-12.6 9.5-6.6 0-17.2-1.1-17.2-10.2 0-3.2 1.2-5.1 2.7-6.3.8-.6 1.6-1.1 2.6-1.1 1.3 0 2.4.9 2.4 2.3 0 1.2-.6 1.9-1.4 2.4-1 .5-1.7 1.5-1.7 2.9 0 3.6 4.7 4.7 9.5 5-2.2-1-3.5-3.4-3.5-5.9m9.4-2.5c-3.4 0-4.9 1.3-4.9 3.7s1.5 4.3 4.8 4.3c2.8 0 4.9-1.7 4.9-3.9.1-2.5-1.6-4.1-4.8-4.1" class="st0"/><path id="path37248" d="M256.8 99.3h-3.5v4.3c0 .6-.5 1.2-1.2 1.2-.6 0-1.2-.6-1.2-1.2v-4.3h-5.4c-.7 0-1.2-.6-1.2-1.3s.6-1.3 1.2-1.3H258c.7 0 1.3.6 1.3 1.3v6.4c0 .7-.6 1.3-1.3 1.3s-1.2-.6-1.2-1.3z" class="st1"/><path id="path37250" d="M245.5 122.6c-.6 0-1.2-.5-1.2-1.2 0-.6.5-1.2 1.2-1.2l8.6-.1-9-3.3c-.4-.2-.8-.6-.8-1.2s.3-1 .8-1.2l9-3.3-8.6-.1c-.6 0-1.2-.6-1.2-1.2s.5-1.2 1.2-1.2l12.7.3c.8 0 1.3.7 1.3 1.5 0 .6-.3 1.2-.9 1.4l-10 3.9 10 3.9c.6.2.9.7.9 1.3 0 .8-.4 1.4-1.3 1.5z" class="st1"/></g><path id="path1" d="M44.734 45.8c1.2-2.4 4.4-4 8-2.7 4.6 1.7 4.7 5.3 4.2 6.8-.6 2-18.2 50.2-19.4 52.9-1.2 2.9-4.1 6.1-8.9 6.2-4.6.1-7.7-2.9-8.9-5.8-1.3-3-18.9-50.5-19.5-52.2-.6-1.8-.3-6.3 4-7.8 4.1-1.4 7.6 1.8 8.4 3.4s12.7 38.7 12.7 38.7c1.4 3.9 2.4 7.8 3.3 11.4 0 .1 2.7-10.1 3.2-11.6.4-1.3 11.8-37.3 12.9-39.3" class="st2"/><path id="path2" d="M82.834 25.9c0 4.8-3.9 8.6-8.6 8.6-4.8 0-8.7-3.7-8.7-8.6 0-4.7 3.9-8.4 8.7-8.4 4.7-.1 8.6 3.6 8.6 8.4M67.034 50c0-4.3 3.3-7 6.7-7 4.1 0 7.1 2.7 7.1 7v52.2c0 3.8-3.5 6.7-7.3 6.7-3.5 0-6.6-3.1-6.6-6.6.1-3.6.1-47.2.1-52.3" class="st2"/><path id="path3" d="M163.334 79.1c1.6 13.3 4.1 18.7 15 19.3 7.1.4 9.6-5.3 13.1-10.1 1.7-2.3 4.8-3.3 7.8-1.9 3.3 1.5 4 4.9 2.9 7.4-3.5 7.6-11.3 15-24.5 15-16.7 0-27.4-13.7-27.4-32.7 0-18.9 10.3-33.6 27.2-33.6 15.5 0 25.2 13.5 26 28.4v.9c0 4.1-3.5 7.3-6.7 7.3zm25.4-10.3c1.1 0 2 .1 2.1-.7 0-.2-.1-1-.1-1.2-.9-7.7-4.3-13.7-13.2-13.7-9.5 0-12.9 4.8-14.1 15.7z" class="st2"/><g id="g4" style="opacity:.5" transform="translate(-7.266 -16)"><path id="path4" d="M217.5 24.4c0-3.8 3.8-8.4 10.2-8.4 6 0 10.2 4 10.2 8.4s-2.1 90.7-2.5 94c-.5 3.3-3.4 6.2-7.5 6.2-3.7 0-7.3-2.5-7.7-6.2s-2.7-90.1-2.7-94" class="st2"/></g><path id="path5" d="M229.734 126.9c0 5.2-4.2 9.2-9.2 9.2-5.2 0-9.4-4-9.4-9.2 0-5.1 4.2-9 9.4-9 5-.1 9.2 3.9 9.2 9" class="st2"/><g id="g9" transform="translate(-7.266 -16)"><path id="path6" d="M157.1 135.7c0-.8.5-1.2 1.4-1.2.8 0 1.3.4 1.3 1.2v.7c0 .4-.1.9-.1 1.4.5-1.5 2.1-3.4 4.7-3.5.8 0 1.2 0 1.8.2.7.1 1 .5 1 1.1v.4c-.1.6-.6 1.2-1.2 1.2h-.3c-.4-.1-.7-.2-1.4-.2-1.3 0-2.3.7-3.1 1.7s-1.3 2.2-1.4 3.4v8.5c0 .8-.5 1.2-1.3 1.2-.9 0-1.4-.4-1.4-1.2z" class="st2"/><path id="path7" d="M180.3 139.5c0-2.1-.9-3-2.9-3s-2.9 1-3.3 2.4c-.2.6-.6.8-1.1.8-.2 0-.4 0-.7-.1-.6-.2-.9-.6-.9-1.1 0-.1 0-.3.1-.4.3-1 .9-1.9 1.6-2.5.9-.8 2.2-1.3 4.4-1.3 3.6 0 5.3 1.6 5.3 5.3v8.4c0 1 .2 2 .3 2.6v.2c0 .5-.4 1-1.2 1.1h-.2c-.6 0-1-.2-1.2-.7-.1-.4-.2-.9-.2-1.5-1.2 1.3-2.5 2.4-5 2.4-2.8 0-4.7-1.9-4.7-5.1 0-2.7 1.5-4.6 4-5.4 1.4-.5 3-.7 5.5-.7v-1.4zm0 3.5c-2.9.1-4.3.4-5.2 1-1 .6-1.6 1.5-1.6 3 0 1.7 1 2.7 2.6 2.7 1.5 0 2.8-.9 3.6-2.1.5-.7.6-1.4.6-2.5z" class="st2"/><path id="path8" d="M199.1 150.2c0-.4.1-.7.1-1.1-.7 1.7-2.1 3-4.5 3-3.8 0-6.2-3.6-6.2-9 0-5.5 2.4-8.8 6.2-8.8 2.5 0 3.7 1.3 4.5 3.1-.1-.7-.1-1.4-.1-2v-6.5c0-.8.5-1.2 1.3-1.2s1.3.4 1.3 1.2v21.7c0 .8-.5 1.2-1.3 1.2-.9 0-1.3-.5-1.3-1.1zm-7.8-7.2c0 3.9 1.5 6.7 4 6.7 2.7 0 4-2.8 4-6.7 0-3.6-1.2-6.5-4-6.5-2.5.1-4 2.7-4 6.5" class="st2"/><path id="path9" d="M213.4 129.7c0 1.2-.9 2-2.1 2s-2.1-.9-2.1-2 .9-2 2.1-2c1.2-.1 2.1.8 2.1 2m-3.4 6c0-.8.5-1.2 1.3-1.2s1.4.4 1.4 1.2v14.8c0 .8-.5 1.2-1.4 1.2s-1.3-.4-1.3-1.2z" class="st2"/></g><path id="path10" d="M134.434 45.8c1.2-2.4 4.4-4 8-2.7 4.6 1.7 4.7 5.3 4.2 6.8-.6 2-18.2 50.2-19.4 52.9-1.2 2.9-4.1 6.1-8.9 6.2-4.6.1-7.7-2.9-8.9-5.8s-18.8-50.4-19.4-52.1c-.6-1.8-.3-6.3 4-7.8 4.1-1.4 7.6 1.8 8.4 3.4s12.7 38.7 12.7 38.7c1.4 3.9 2.4 7.8 3.3 11.4 0 .1 2.7-10.1 3.2-11.6.3-1.4 11.7-37.4 12.8-39.4" class="st2"/><g id="g15" style="opacity:.67" transform="translate(-7.266 -16)"><path id="path11" d="M127.3 41.2c-3.6-.9-5.1-2.2-5.1-5.2 0-2.9 2.2-5 6.1-5 3.4 0 5.4 1.6 6.1 3.9 0 .2.1.4.1.5 0 .6-.4 1-1 1.2-.2 0-.4.1-.6.1-.6 0-1.2-.3-1.3-.9-.3-1.4-1.6-2.4-3.3-2.4-2.3 0-3.4 1.2-3.4 2.6 0 1.5.7 2.2 2.9 2.7l1.9.5c3.8 1 5.3 2.2 5.3 5.4s-2.4 5.4-6.5 5.4c-3.9 0-6-1.7-6.8-4.5 0-.2-.1-.4-.1-.5 0-.7.4-1.1 1.1-1.3.2 0 .4-.1.5-.1.6 0 1.1.3 1.3.9.4 1.9 1.7 3 4 3s3.8-1.1 3.8-2.9c0-1.6-.9-2.4-3.3-3z" class="st2"/><path id="path12" d="M152 40.5c0 5.7-2.5 9.5-7 9.5-4.8 0-7.3-3.7-7.3-9.5 0-5.7 2.6-9.4 7.2-9.4 4.6-.1 7.1 3.6 7.1 9.4m-11.4.1c0 4.1 1.5 6.9 4.2 6.9 2.9 0 4.2-2.8 4.2-7.1 0-4-1.4-6.9-4.1-6.9-2.8 0-4.3 2.8-4.3 7.1" class="st2"/><path id="path13" d="M156.4 32.6c0-.8.6-1.3 1.5-1.3.8 0 1.4.4 1.4 1.3v.7c0 .5-.1 1-.1 1.5.6-1.6 2.2-3.7 5-3.7.9 0 1.3 0 1.9.2.8.2 1 .6 1 1.2v.5c-.1.7-.6 1.2-1.3 1.2h-.3c-.5-.1-.8-.2-1.5-.2-1.4 0-2.4.7-3.3 1.8-.9 1-1.4 2.3-1.5 3.7v9c0 .9-.6 1.3-1.4 1.3-.9 0-1.5-.4-1.5-1.3V32.6Z" class="st2"/><path id="path14" d="M174.8 26.1c0 1.2-1 2.2-2.2 2.2s-2.2-.9-2.2-2.2c0-1.2 1-2.1 2.2-2.1s2.2.9 2.2 2.1m-3.6 6.5c0-.8.5-1.3 1.4-1.3s1.5.4 1.5 1.3v15.7c0 .9-.6 1.3-1.5 1.3s-1.4-.4-1.4-1.3z" class="st2"/><path id="path15" d="M189.9 36.6c0-2.2-1-3.2-3.1-3.2s-3.1 1-3.5 2.5c-.2.6-.7.8-1.2.8-.2 0-.5 0-.7-.1-.6-.2-.9-.6-.9-1.1 0-.1 0-.3.1-.5.3-1 1-2 1.8-2.7 1-.8 2.3-1.4 4.6-1.4 3.8 0 5.7 1.7 5.7 5.6v8.9c0 1.1.2 2.1.3 2.7v.3c0 .6-.5 1.1-1.2 1.1h-.2c-.6 0-1.1-.2-1.3-.8-.1-.4-.2-.9-.2-1.6-1.2 1.4-2.6 2.6-5.3 2.6-3 0-5-2-5-5.4 0-2.9 1.6-4.9 4.2-5.7 1.5-.5 3.1-.7 5.9-.8zm0 3.7c-3.1.1-4.5.5-5.6 1.1-1 .6-1.7 1.6-1.7 3.2 0 1.8 1.1 2.8 2.7 2.8s3-1 3.8-2.2c.5-.7.7-1.5.7-2.7v-2.2z" class="st2"/></g></svg>